G04 Layer_Color=8388736*
%FSLAX25Y25*%
%MOIN*%
G70*
G01*
G75*
%ADD10R,0.05118X0.08661*%
%ADD11R,0.19685X0.25197*%
%ADD12R,0.04134X0.05709*%
%ADD13R,0.02756X0.02756*%
%ADD14R,0.05709X0.04134*%
%ADD15R,0.07480X0.07874*%
%ADD16R,0.02756X0.05906*%
%ADD17C,0.10236*%
%ADD18C,0.27953*%
%ADD19C,0.11824*%
%ADD20C,0.08268*%
%ADD21R,0.08268X0.08268*%
%ADD22C,0.03543*%
%ADD23C,0.06693*%
D10*
X63858Y137402D02*
D03*
X81811D02*
D03*
X20551D02*
D03*
X38504D02*
D03*
X311890D02*
D03*
X329842D02*
D03*
X276457D02*
D03*
X294409D02*
D03*
X241024D02*
D03*
X258976D02*
D03*
X205591D02*
D03*
X223543D02*
D03*
X170158D02*
D03*
X188110D02*
D03*
X134724D02*
D03*
X152677D02*
D03*
X99291D02*
D03*
X117244D02*
D03*
D11*
X72835Y163386D02*
D03*
X29528D02*
D03*
X320866D02*
D03*
X285433D02*
D03*
X250000D02*
D03*
X214567D02*
D03*
X179134D02*
D03*
X143701D02*
D03*
X108268D02*
D03*
D12*
X25492Y121063D02*
D03*
X33563D02*
D03*
X49311Y187008D02*
D03*
X41240D02*
D03*
X68799Y127953D02*
D03*
X76870D02*
D03*
X68996Y88583D02*
D03*
X60925D02*
D03*
X68996Y80709D02*
D03*
X60925D02*
D03*
X60925Y96457D02*
D03*
X68996D02*
D03*
X60925Y104331D02*
D03*
X68996D02*
D03*
X104232Y127953D02*
D03*
X112303D02*
D03*
X104429Y88583D02*
D03*
X96358D02*
D03*
X104429Y80709D02*
D03*
X96358D02*
D03*
X96358Y96457D02*
D03*
X104429D02*
D03*
X96358Y104331D02*
D03*
X104429D02*
D03*
X139665Y127953D02*
D03*
X147736D02*
D03*
X139862Y88583D02*
D03*
X131791D02*
D03*
X139862Y80709D02*
D03*
X131791D02*
D03*
X131791Y96457D02*
D03*
X139862D02*
D03*
X131791Y104331D02*
D03*
X139862D02*
D03*
X175098Y127953D02*
D03*
X183169D02*
D03*
X175295Y88583D02*
D03*
X167224D02*
D03*
X175295Y80709D02*
D03*
X167224D02*
D03*
X167224Y96457D02*
D03*
X175295D02*
D03*
X167224Y104331D02*
D03*
X175295D02*
D03*
X210531Y127953D02*
D03*
X218602D02*
D03*
X210728Y88583D02*
D03*
X202658D02*
D03*
X210728Y80709D02*
D03*
X202658D02*
D03*
X202658Y96457D02*
D03*
X210728D02*
D03*
X202658Y104331D02*
D03*
X210728D02*
D03*
X245965Y127953D02*
D03*
X254035D02*
D03*
X246161Y88583D02*
D03*
X238090D02*
D03*
X246161Y80709D02*
D03*
X238090D02*
D03*
X238090Y96457D02*
D03*
X246161D02*
D03*
X238090Y104331D02*
D03*
X246161D02*
D03*
X281398Y127953D02*
D03*
X289469D02*
D03*
X281594Y88583D02*
D03*
X273524D02*
D03*
X281594Y80709D02*
D03*
X273524D02*
D03*
X273524Y96457D02*
D03*
X281594D02*
D03*
X273524Y104331D02*
D03*
X281594D02*
D03*
X316831Y127953D02*
D03*
X324902D02*
D03*
X317028Y88583D02*
D03*
X308957D02*
D03*
X317028Y80709D02*
D03*
X308957D02*
D03*
X308957Y96457D02*
D03*
X317028D02*
D03*
X308957Y104331D02*
D03*
X317028D02*
D03*
D13*
X33858Y127953D02*
D03*
X25197D02*
D03*
X76378Y104331D02*
D03*
X85039D02*
D03*
X111811Y104331D02*
D03*
X120472D02*
D03*
X147244Y104331D02*
D03*
X155905D02*
D03*
X182677Y104331D02*
D03*
X191339D02*
D03*
X218110D02*
D03*
X226772D02*
D03*
X253543D02*
D03*
X262205D02*
D03*
X288976D02*
D03*
X297638D02*
D03*
X324410Y104331D02*
D03*
X333071D02*
D03*
D14*
X86614Y202854D02*
D03*
Y194783D02*
D03*
X114173Y202854D02*
D03*
Y194783D02*
D03*
X141732Y202854D02*
D03*
Y194783D02*
D03*
X169291Y202854D02*
D03*
Y194783D02*
D03*
X196850Y202854D02*
D03*
Y194783D02*
D03*
X224410Y202854D02*
D03*
Y194783D02*
D03*
X251969Y202854D02*
D03*
Y194783D02*
D03*
X279528Y202854D02*
D03*
Y194783D02*
D03*
D15*
X107874Y216535D02*
D03*
X92913D02*
D03*
X135433D02*
D03*
X120473D02*
D03*
X162992D02*
D03*
X148031D02*
D03*
X190551D02*
D03*
X175591D02*
D03*
X218110D02*
D03*
X203150D02*
D03*
X245669D02*
D03*
X230709D02*
D03*
X273228D02*
D03*
X258268D02*
D03*
X300787D02*
D03*
X285827D02*
D03*
D16*
X75984Y80905D02*
D03*
X83465D02*
D03*
X79724Y88386D02*
D03*
X111417Y80905D02*
D03*
X118898D02*
D03*
X115157Y88386D02*
D03*
X146850Y80905D02*
D03*
X154331D02*
D03*
X150591Y88386D02*
D03*
X182283Y80905D02*
D03*
X189764D02*
D03*
X186024Y88386D02*
D03*
X217717Y80905D02*
D03*
X225197D02*
D03*
X221457Y88386D02*
D03*
X253150Y80905D02*
D03*
X260630D02*
D03*
X256890Y88386D02*
D03*
X288583Y80905D02*
D03*
X296063D02*
D03*
X292323Y88386D02*
D03*
X324016Y80905D02*
D03*
X331496D02*
D03*
X327756Y88386D02*
D03*
D17*
X52165Y262795D02*
D03*
X71850D02*
D03*
D18*
X19685Y275590D02*
D03*
Y19685D02*
D03*
X334646Y275590D02*
D03*
Y19685D02*
D03*
D19*
X300197Y38189D02*
D03*
X272638D02*
D03*
X286417Y57874D02*
D03*
X258858D02*
D03*
X93504D02*
D03*
X107283Y38189D02*
D03*
X121063Y57874D02*
D03*
X134843Y38189D02*
D03*
X189961D02*
D03*
X203740Y57874D02*
D03*
X217520Y38189D02*
D03*
X231299Y57874D02*
D03*
X245079Y38189D02*
D03*
X176181Y57874D02*
D03*
X162402Y38189D02*
D03*
X148622Y57874D02*
D03*
X93504Y257087D02*
D03*
X121063D02*
D03*
X107283Y237402D02*
D03*
X134843D02*
D03*
X300197D02*
D03*
X286417Y257087D02*
D03*
X272638Y237402D02*
D03*
X258858Y257087D02*
D03*
X203740D02*
D03*
X189961Y237402D02*
D03*
X176181Y257087D02*
D03*
X162402Y237402D02*
D03*
X148622Y257087D02*
D03*
X217520Y237402D02*
D03*
X231299Y257087D02*
D03*
X245079Y237402D02*
D03*
D20*
X40276Y198819D02*
D03*
X95394D02*
D03*
X122953D02*
D03*
X150512D02*
D03*
X178071D02*
D03*
X205630D02*
D03*
X233189D02*
D03*
X260748D02*
D03*
X288307D02*
D03*
D21*
X50276D02*
D03*
X105394D02*
D03*
X132953D02*
D03*
X160512D02*
D03*
X188071D02*
D03*
X215630D02*
D03*
X243189D02*
D03*
X270748D02*
D03*
X298307D02*
D03*
D22*
X68898Y54134D02*
D03*
X29528Y108268D02*
D03*
X83661Y24606D02*
D03*
X68898D02*
D03*
X54134D02*
D03*
X314961Y44291D02*
D03*
Y59055D02*
D03*
X329724D02*
D03*
Y44291D02*
D03*
X44291Y79724D02*
D03*
Y63976D02*
D03*
X54134Y54134D02*
D03*
X68898Y39370D02*
D03*
X54134D02*
D03*
X39370D02*
D03*
X83661D02*
D03*
X29528Y49213D02*
D03*
Y63976D02*
D03*
Y78740D02*
D03*
Y93504D02*
D03*
X329724Y118110D02*
D03*
X294291D02*
D03*
X258858D02*
D03*
X223425D02*
D03*
X187992D02*
D03*
X152559D02*
D03*
X117126D02*
D03*
X81693D02*
D03*
X324803Y96457D02*
D03*
X289370D02*
D03*
X253937D02*
D03*
X218504D02*
D03*
X183071D02*
D03*
X147638D02*
D03*
X112205D02*
D03*
X54134D02*
D03*
X302165D02*
D03*
X266732D02*
D03*
X239173Y127953D02*
D03*
X203740D02*
D03*
X231299Y96457D02*
D03*
X195866D02*
D03*
X168307Y127953D02*
D03*
X160433Y96457D02*
D03*
X125000D02*
D03*
X132874Y127953D02*
D03*
X97441D02*
D03*
X62008D02*
D03*
X76772Y96457D02*
D03*
X89567D02*
D03*
X310039Y127953D02*
D03*
X274606D02*
D03*
D23*
X49213Y167323D02*
D03*
Y137795D02*
D03*
Y147638D02*
D03*
Y157480D02*
D03*
M02*
