G04 Layer_Color=65535*
%FSLAX25Y25*%
%MOIN*%
G70*
G01*
G75*
%ADD10C,0.00984*%
%ADD11C,0.00787*%
%ADD12C,0.01181*%
%ADD13C,0.01969*%
%ADD14C,0.01378*%
%ADD15C,0.01000*%
%ADD16C,0.01575*%
D10*
X59823Y137402D02*
G03*
X59823Y137402I-492J0D01*
G01*
X16516D02*
G03*
X16516Y137402I-492J0D01*
G01*
X307854D02*
G03*
X307854Y137402I-492J0D01*
G01*
X272421D02*
G03*
X272421Y137402I-492J0D01*
G01*
X236988D02*
G03*
X236988Y137402I-492J0D01*
G01*
X201555D02*
G03*
X201555Y137402I-492J0D01*
G01*
X166122D02*
G03*
X166122Y137402I-492J0D01*
G01*
X130689D02*
G03*
X130689Y137402I-492J0D01*
G01*
X95256D02*
G03*
X95256Y137402I-492J0D01*
G01*
X89075Y222244D02*
G03*
X89075Y222244I-492J0D01*
G01*
X73130Y80905D02*
G03*
X73130Y80905I-492J0D01*
G01*
X116634Y222244D02*
G03*
X116634Y222244I-492J0D01*
G01*
X108563Y80905D02*
G03*
X108563Y80905I-492J0D01*
G01*
X144193Y222244D02*
G03*
X144193Y222244I-492J0D01*
G01*
X143996Y80905D02*
G03*
X143996Y80905I-492J0D01*
G01*
X171752Y222244D02*
G03*
X171752Y222244I-492J0D01*
G01*
X179429Y80905D02*
G03*
X179429Y80905I-492J0D01*
G01*
X199311Y222244D02*
G03*
X199311Y222244I-492J0D01*
G01*
X214862Y80905D02*
G03*
X214862Y80905I-492J0D01*
G01*
X226870Y222244D02*
G03*
X226870Y222244I-492J0D01*
G01*
X250295Y80905D02*
G03*
X250295Y80905I-492J0D01*
G01*
X254429Y222244D02*
G03*
X254429Y222244I-492J0D01*
G01*
X285728Y80905D02*
G03*
X285728Y80905I-492J0D01*
G01*
X281988Y222244D02*
G03*
X281988Y222244I-492J0D01*
G01*
X321161Y80905D02*
G03*
X321161Y80905I-492J0D01*
G01*
D11*
X37205Y125394D02*
G03*
X37205Y125394I-394J0D01*
G01*
X73819Y106890D02*
G03*
X73819Y106890I-394J0D01*
G01*
X109252Y106890D02*
G03*
X109252Y106890I-394J0D01*
G01*
X144685Y106890D02*
G03*
X144685Y106890I-394J0D01*
G01*
X180118Y106890D02*
G03*
X180118Y106890I-394J0D01*
G01*
X215551D02*
G03*
X215551Y106890I-394J0D01*
G01*
X250984D02*
G03*
X250984Y106890I-394J0D01*
G01*
X286417D02*
G03*
X286417Y106890I-394J0D01*
G01*
X321850Y106890D02*
G03*
X321850Y106890I-394J0D01*
G01*
X73819Y85433D02*
Y87402D01*
X76968D01*
X85630Y85433D02*
Y87402D01*
X82480D02*
X85630D01*
X109252Y85433D02*
Y87402D01*
X112402D01*
X121063Y85433D02*
Y87402D01*
X117913D02*
X121063D01*
X144685Y85433D02*
Y87402D01*
X147835D01*
X156496Y85433D02*
Y87402D01*
X153347D02*
X156496D01*
X180118Y85433D02*
Y87402D01*
X183268D01*
X191929Y85433D02*
Y87402D01*
X188779D02*
X191929D01*
X215551Y85433D02*
Y87402D01*
X218701D01*
X227362Y85433D02*
Y87402D01*
X224213D02*
X227362D01*
X250984Y85433D02*
Y87402D01*
X254134D01*
X262795Y85433D02*
Y87402D01*
X259646D02*
X262795D01*
X286417Y85433D02*
Y87402D01*
X289567D01*
X298228Y85433D02*
Y87402D01*
X295079D02*
X298228D01*
X321850Y85433D02*
Y87402D01*
X325000D01*
X333661Y85433D02*
Y87402D01*
X330512D02*
X333661D01*
D12*
X50084Y204549D02*
G03*
X40467Y204549I-4808J-5730D01*
G01*
Y193089D02*
G03*
X50084Y193089I4808J5730D01*
G01*
X53563Y204819D02*
G03*
X53563Y204819I-787J0D01*
G01*
X105202Y204549D02*
G03*
X95586Y204549I-4808J-5730D01*
G01*
Y193089D02*
G03*
X105202Y193089I4808J5730D01*
G01*
X108681Y204819D02*
G03*
X108681Y204819I-787J0D01*
G01*
X132761Y204549D02*
G03*
X123144Y204549I-4808J-5730D01*
G01*
Y193089D02*
G03*
X132761Y193089I4808J5730D01*
G01*
X136240Y204819D02*
G03*
X136240Y204819I-787J0D01*
G01*
X160320Y204549D02*
G03*
X150704Y204549I-4808J-5730D01*
G01*
Y193089D02*
G03*
X160320Y193089I4808J5730D01*
G01*
X163799Y204819D02*
G03*
X163799Y204819I-787J0D01*
G01*
X187879Y204549D02*
G03*
X178263Y204549I-4808J-5730D01*
G01*
Y193089D02*
G03*
X187879Y193089I4808J5730D01*
G01*
X191358Y204819D02*
G03*
X191358Y204819I-787J0D01*
G01*
X215438Y204549D02*
G03*
X205822Y204549I-4808J-5730D01*
G01*
Y193089D02*
G03*
X215438Y193089I4808J5730D01*
G01*
X218917Y204819D02*
G03*
X218917Y204819I-787J0D01*
G01*
X242997Y204549D02*
G03*
X233381Y204549I-4808J-5730D01*
G01*
Y193089D02*
G03*
X242997Y193089I4808J5730D01*
G01*
X246476Y204819D02*
G03*
X246476Y204819I-787J0D01*
G01*
X270556Y204549D02*
G03*
X260940Y204549I-4808J-5730D01*
G01*
Y193089D02*
G03*
X270556Y193089I4808J5730D01*
G01*
X274035Y204819D02*
G03*
X274035Y204819I-787J0D01*
G01*
X298115Y204549D02*
G03*
X288499Y204549I-4808J-5730D01*
G01*
Y193089D02*
G03*
X298115Y193089I4808J5730D01*
G01*
X301594Y204819D02*
G03*
X301594Y204819I-787J0D01*
G01*
X59842Y146063D02*
Y149409D01*
Y146063D02*
X85827D01*
Y149409D01*
X16535Y146063D02*
Y149409D01*
Y146063D02*
X42520D01*
Y149409D01*
X307874Y146063D02*
Y149409D01*
Y146063D02*
X333858D01*
Y149409D01*
X272441Y146063D02*
Y149409D01*
Y146063D02*
X298425D01*
Y149409D01*
X237008Y146063D02*
Y149409D01*
Y146063D02*
X262992D01*
Y149409D01*
X201575Y146063D02*
Y149409D01*
Y146063D02*
X227559D01*
Y149409D01*
X166142Y146063D02*
Y149409D01*
Y146063D02*
X192126D01*
Y149409D01*
X130709Y146063D02*
Y149409D01*
Y146063D02*
X156693D01*
Y149409D01*
X95276Y146063D02*
Y149409D01*
Y146063D02*
X121260D01*
Y149409D01*
X67126Y270571D02*
Y275295D01*
Y270571D02*
X76968D01*
Y275295D01*
X57185Y270571D02*
Y275295D01*
X47343Y270571D02*
X57185D01*
X47343D02*
Y275295D01*
X42323Y250984D02*
X81693D01*
X42323Y246260D02*
Y275394D01*
X81693Y246260D02*
Y275394D01*
X42323Y246260D02*
X81693D01*
X96457Y19685D02*
Y30315D01*
X90551D02*
X96457D01*
X90551Y19685D02*
Y30315D01*
X110236Y19685D02*
Y30315D01*
X104331D02*
X110236D01*
X104331Y19685D02*
Y30315D01*
X124016Y19685D02*
Y30315D01*
X118110D02*
X124016D01*
X118110Y19685D02*
Y30315D01*
X137795Y19685D02*
Y30315D01*
X131890D02*
X137795D01*
X131890Y19685D02*
Y30315D01*
X303150Y19685D02*
Y30315D01*
X297244D02*
X303150D01*
X297244Y19685D02*
Y30315D01*
X289370Y19685D02*
Y30315D01*
X283465D02*
X289370D01*
X283465Y19685D02*
Y30315D01*
X275590Y19685D02*
Y30315D01*
X269685D02*
X275590D01*
X269685Y19685D02*
Y30315D01*
X261811Y19685D02*
Y30315D01*
X255906D02*
X261811D01*
X255906Y19685D02*
Y30315D01*
X238189Y19685D02*
Y66929D01*
X224410Y19685D02*
Y66929D01*
X210630Y19685D02*
Y66929D01*
X196850Y19685D02*
Y66929D01*
X86614Y19685D02*
Y66929D01*
X80709D02*
X86614D01*
X80709Y19685D02*
Y66929D01*
Y19685D02*
X86614D01*
X307087D02*
Y66929D01*
X86614Y19685D02*
X307087D01*
X86614Y66929D02*
X307087D01*
X192913Y19685D02*
Y30315D01*
X187008D02*
X192913D01*
X187008Y19685D02*
Y30315D01*
X200787Y19685D02*
Y30315D01*
X206693D01*
Y19685D02*
Y30315D01*
X183071Y19685D02*
Y66929D01*
X169291Y19685D02*
Y66929D01*
X155512Y19685D02*
Y66929D01*
X214567Y19685D02*
Y30315D01*
X220472D01*
Y19685D02*
Y30315D01*
X228346Y19685D02*
Y30315D01*
X234252D01*
Y19685D02*
Y30315D01*
X242126Y19685D02*
Y30315D01*
X248031D01*
Y19685D02*
Y30315D01*
X173228Y19685D02*
Y30315D01*
X179134D01*
Y19685D02*
Y30315D01*
X159449Y19685D02*
Y30315D01*
X165354D01*
Y19685D02*
Y30315D01*
X145669Y19685D02*
Y30315D01*
X151575D01*
Y19685D02*
Y30315D01*
X251969Y19685D02*
Y66929D01*
X265748Y19685D02*
Y66929D01*
X279528Y19685D02*
Y66732D01*
X293307Y19685D02*
Y66929D01*
X141732Y19685D02*
Y66929D01*
X127953Y19685D02*
Y66732D01*
X114173Y19685D02*
Y66732D01*
X100394Y19685D02*
Y66732D01*
X297244Y264961D02*
Y275590D01*
Y264961D02*
X303150D01*
Y275590D01*
X283465Y264961D02*
Y275590D01*
Y264961D02*
X289370D01*
Y275590D01*
X269685Y264961D02*
Y275590D01*
Y264961D02*
X275590D01*
Y275590D01*
X255906Y264961D02*
Y275590D01*
Y264961D02*
X261811D01*
Y275590D01*
X90551Y264961D02*
Y275590D01*
Y264961D02*
X96457D01*
Y275590D01*
X104331Y264961D02*
Y275590D01*
Y264961D02*
X110236D01*
Y275590D01*
X118110Y264961D02*
Y275590D01*
Y264961D02*
X124016D01*
Y275590D01*
X131890Y264961D02*
Y275590D01*
Y264961D02*
X137795D01*
Y275590D01*
X155512Y228346D02*
Y275590D01*
X169291Y228346D02*
Y275590D01*
X183071Y228346D02*
Y275590D01*
X196850Y228346D02*
Y275590D01*
X307087Y228346D02*
Y275590D01*
Y228346D02*
X312992D01*
Y275590D01*
X307087D02*
X312992D01*
X86614Y228346D02*
Y275590D01*
X307087D01*
X86614Y228346D02*
X307087D01*
X200787Y264961D02*
Y275590D01*
Y264961D02*
X206693D01*
Y275590D01*
X192913Y264961D02*
Y275590D01*
X187008Y264961D02*
X192913D01*
X187008D02*
Y275590D01*
X210630Y228346D02*
Y275590D01*
X224410Y228346D02*
Y275590D01*
X238189Y228346D02*
Y275590D01*
X179134Y264961D02*
Y275590D01*
X173228Y264961D02*
X179134D01*
X173228D02*
Y275590D01*
X165354Y264961D02*
Y275590D01*
X159449Y264961D02*
X165354D01*
X159449D02*
Y275590D01*
X151575Y264961D02*
Y275590D01*
X145669Y264961D02*
X151575D01*
X145669D02*
Y275590D01*
X220472Y264961D02*
Y275590D01*
X214567Y264961D02*
X220472D01*
X214567D02*
Y275590D01*
X234252Y264961D02*
Y275590D01*
X228346Y264961D02*
X234252D01*
X228346D02*
Y275590D01*
X248031Y264961D02*
Y275590D01*
X242126Y264961D02*
X248031D01*
X242126D02*
Y275590D01*
X141732Y228346D02*
Y275590D01*
X127953Y228346D02*
Y275590D01*
X114173Y228543D02*
Y275590D01*
X100394Y228346D02*
Y275590D01*
X251969Y228346D02*
Y275590D01*
X265748Y228543D02*
Y275590D01*
X279528Y228543D02*
Y275590D01*
X293307Y228543D02*
Y275590D01*
X28937Y123327D02*
X30118D01*
X28937Y118799D02*
X30118D01*
X24016Y125197D02*
X35039D01*
X24016Y130709D02*
X35039D01*
X44685Y184744D02*
X45866D01*
X44685Y189272D02*
X45866D01*
X75197Y107087D02*
X86221D01*
X75197Y101575D02*
X86221D01*
X72244Y130217D02*
X73425D01*
X72244Y125689D02*
X73425D01*
X64370Y86319D02*
X65551D01*
X64370Y90847D02*
X65551D01*
X88878Y198228D02*
Y199409D01*
X84350Y198228D02*
Y199409D01*
X109449Y210630D02*
Y211221D01*
X91339Y210630D02*
Y211221D01*
X109449Y221850D02*
Y222441D01*
X91339Y221850D02*
Y222441D01*
Y210630D02*
X109449D01*
X91339Y222441D02*
X109449D01*
X64370Y78445D02*
X65551D01*
X64370Y82973D02*
X65551D01*
X64370Y98721D02*
X65551D01*
X64370Y94193D02*
X65551D01*
X64370Y106595D02*
X65551D01*
X64370Y102067D02*
X65551D01*
X110630Y107087D02*
X121653D01*
X110630Y101575D02*
X121653D01*
X107677Y130217D02*
X108858D01*
X107677Y125689D02*
X108858D01*
X99803Y86319D02*
X100984D01*
X99803Y90847D02*
X100984D01*
X116437Y198228D02*
Y199409D01*
X111909Y198228D02*
Y199409D01*
X137008Y210630D02*
Y211221D01*
X118898Y210630D02*
Y211221D01*
X137008Y221850D02*
Y222441D01*
X118898Y221850D02*
Y222441D01*
Y210630D02*
X137008D01*
X118898Y222441D02*
X137008D01*
X99803Y78445D02*
X100984D01*
X99803Y82973D02*
X100984D01*
X99803Y98721D02*
X100984D01*
X99803Y94193D02*
X100984D01*
X99803Y106595D02*
X100984D01*
X99803Y102067D02*
X100984D01*
X146063Y107087D02*
X157087D01*
X146063Y101575D02*
X157087D01*
X143110Y130217D02*
X144291D01*
X143110Y125689D02*
X144291D01*
X135236Y86319D02*
X136417D01*
X135236Y90847D02*
X136417D01*
X143996Y198228D02*
Y199409D01*
X139469Y198228D02*
Y199409D01*
X164567Y210630D02*
Y211221D01*
X146457Y210630D02*
Y211221D01*
X164567Y221850D02*
Y222441D01*
X146457Y221850D02*
Y222441D01*
Y210630D02*
X164567D01*
X146457Y222441D02*
X164567D01*
X135236Y78445D02*
X136417D01*
X135236Y82972D02*
X136417D01*
X135236Y98721D02*
X136417D01*
X135236Y94193D02*
X136417D01*
X135236Y106595D02*
X136417D01*
X135236Y102067D02*
X136417D01*
X181496Y107087D02*
X192520D01*
X181496Y101575D02*
X192520D01*
X178543Y130217D02*
X179724D01*
X178543Y125689D02*
X179724D01*
X170669Y86319D02*
X171850D01*
X170669Y90847D02*
X171850D01*
X171555Y198228D02*
Y199409D01*
X167028Y198228D02*
Y199409D01*
X192126Y210630D02*
Y211221D01*
X174016Y210630D02*
Y211221D01*
X192126Y221850D02*
Y222441D01*
X174016Y221850D02*
Y222441D01*
Y210630D02*
X192126D01*
X174016Y222441D02*
X192126D01*
X170669Y78445D02*
X171850D01*
X170669Y82973D02*
X171850D01*
X170669Y98721D02*
X171850D01*
X170669Y94193D02*
X171850D01*
X170669Y106595D02*
X171850D01*
X170669Y102067D02*
X171850D01*
X216929Y107087D02*
X227953D01*
X216929Y101575D02*
X227953D01*
X213976Y130217D02*
X215158D01*
X213976Y125689D02*
X215158D01*
X206102Y86319D02*
X207283D01*
X206102Y90847D02*
X207283D01*
X199114Y198228D02*
Y199409D01*
X194587Y198228D02*
Y199409D01*
X219685Y210630D02*
Y211221D01*
X201575Y210630D02*
Y211221D01*
X219685Y221850D02*
Y222441D01*
X201575Y221850D02*
Y222441D01*
Y210630D02*
X219685D01*
X201575Y222441D02*
X219685D01*
X206102Y78445D02*
X207283D01*
X206102Y82973D02*
X207283D01*
X206102Y98721D02*
X207283D01*
X206102Y94193D02*
X207283D01*
X206102Y106595D02*
X207283D01*
X206102Y102067D02*
X207283D01*
X252362Y107087D02*
X263386D01*
X252362Y101575D02*
X263386D01*
X249410Y130217D02*
X250590D01*
X249410Y125689D02*
X250590D01*
X241535Y86319D02*
X242717D01*
X241535Y90847D02*
X242717D01*
X226673Y198228D02*
Y199409D01*
X222146Y198228D02*
Y199409D01*
X247244Y210630D02*
Y211221D01*
X229134Y210630D02*
Y211221D01*
X247244Y221850D02*
Y222441D01*
X229134Y221850D02*
Y222441D01*
Y210630D02*
X247244D01*
X229134Y222441D02*
X247244D01*
X241535Y78445D02*
X242717D01*
X241535Y82973D02*
X242717D01*
X241535Y98721D02*
X242717D01*
X241535Y94193D02*
X242717D01*
X241535Y106595D02*
X242717D01*
X241535Y102067D02*
X242717D01*
X287795Y107087D02*
X298819D01*
X287795Y101575D02*
X298819D01*
X284842Y130217D02*
X286024D01*
X284842Y125689D02*
X286024D01*
X276969Y86319D02*
X278150D01*
X276969Y90847D02*
X278150D01*
X254232Y198228D02*
Y199409D01*
X249705Y198228D02*
Y199409D01*
X274803Y210630D02*
Y211221D01*
X256693Y210630D02*
Y211221D01*
X274803Y221850D02*
Y222441D01*
X256693Y221850D02*
Y222441D01*
Y210630D02*
X274803D01*
X256693Y222441D02*
X274803D01*
X276969Y78445D02*
X278150D01*
X276969Y82973D02*
X278150D01*
X276969Y98721D02*
X278150D01*
X276969Y94193D02*
X278150D01*
X276969Y106595D02*
X278150D01*
X276969Y102067D02*
X278150D01*
X323228Y107087D02*
X334252D01*
X323228Y101575D02*
X334252D01*
X320276Y130217D02*
X321457D01*
X320276Y125689D02*
X321457D01*
X312402Y86319D02*
X313583D01*
X312402Y90847D02*
X313583D01*
X281791Y198228D02*
Y199409D01*
X277264Y198228D02*
Y199409D01*
X302362Y210630D02*
Y211221D01*
X284252Y210630D02*
Y211221D01*
X302362Y221850D02*
Y222441D01*
X284252Y221850D02*
Y222441D01*
Y210630D02*
X302362D01*
X284252Y222441D02*
X302362D01*
X312402Y78445D02*
X313583D01*
X312402Y82972D02*
X313583D01*
X312402Y98721D02*
X313583D01*
X312402Y94193D02*
X313583D01*
X312402Y106595D02*
X313583D01*
X312402Y102067D02*
X313583D01*
X49016Y208858D02*
X43112D01*
Y211810D01*
X44096Y212794D01*
X46064D01*
X47048Y211810D01*
Y208858D01*
X43112Y217714D02*
Y215746D01*
X44096Y214762D01*
X48032D01*
X49016Y215746D01*
Y217714D01*
X48032Y218698D01*
X44096D01*
X43112Y217714D01*
Y220666D02*
X49016D01*
X47048Y222633D01*
X49016Y224601D01*
X43112D01*
Y230505D02*
Y226569D01*
X49016D01*
Y230505D01*
X46064Y226569D02*
Y228537D01*
X49016Y232473D02*
X43112D01*
Y235424D01*
X44096Y236408D01*
X46064D01*
X47048Y235424D01*
Y232473D01*
Y234440D02*
X49016Y236408D01*
X37598Y9053D02*
X38582Y10037D01*
X40550D01*
X41534Y9053D01*
Y8070D01*
X40550Y7086D01*
X39566D01*
X40550D01*
X41534Y6102D01*
Y5118D01*
X40550Y4134D01*
X38582D01*
X37598Y5118D01*
X47438Y10037D02*
X45470Y9053D01*
X43502Y7086D01*
Y5118D01*
X44486Y4134D01*
X46454D01*
X47438Y5118D01*
Y6102D01*
X46454Y7086D01*
X43502D01*
X49406Y4134D02*
Y5118D01*
X50390D01*
Y4134D01*
X49406D01*
X54325D02*
X56293D01*
X55309D01*
Y10037D01*
X54325Y9053D01*
X63181Y10037D02*
X59245D01*
Y7086D01*
X61213Y8070D01*
X62197D01*
X63181Y7086D01*
Y5118D01*
X62197Y4134D01*
X60229D01*
X59245Y5118D01*
X42518Y19956D02*
X46454D01*
Y18972D01*
X42518Y15037D01*
Y14053D01*
X46454D01*
X48422Y19956D02*
Y16021D01*
X50390Y14053D01*
X52357Y16021D01*
Y19956D01*
X58261D02*
X54325D01*
Y14053D01*
X58261D01*
X54325Y17005D02*
X56293D01*
D13*
X317913Y39370D02*
Y63976D01*
X312992Y54134D02*
X317913Y63976D01*
X322835Y54134D01*
X324803Y255906D02*
X329724Y246063D01*
X319882D02*
X324803Y255906D01*
Y231299D02*
Y255906D01*
X66929Y283465D02*
X76772D01*
X52165Y278543D02*
Y288386D01*
X47244Y283465D02*
X57087D01*
D14*
X24609Y39675D02*
X31694D01*
X29332D01*
X24609Y44398D01*
X28152Y40856D01*
X31694Y44398D01*
Y50302D02*
Y47940D01*
X30513Y46760D01*
X28152D01*
X26971Y47940D01*
Y50302D01*
X28152Y51482D01*
X29332D01*
Y46760D01*
X26971Y53844D02*
X30513D01*
X31694Y55025D01*
Y58567D01*
X32874D01*
X34055Y57386D01*
Y56205D01*
X31694Y58567D02*
X26971D01*
X24609Y68013D02*
X31694D01*
Y71555D01*
X30513Y72736D01*
X29332D01*
X28152Y71555D01*
Y68013D01*
Y71555D01*
X26971Y72736D01*
X25790D01*
X24609Y71555D01*
Y68013D01*
X31694Y76278D02*
Y78639D01*
X30513Y79820D01*
X28152D01*
X26971Y78639D01*
Y76278D01*
X28152Y75097D01*
X30513D01*
X31694Y76278D01*
X26971Y83362D02*
Y85723D01*
X28152Y86904D01*
X31694D01*
Y83362D01*
X30513Y82181D01*
X29332Y83362D01*
Y86904D01*
X26971Y89266D02*
X31694D01*
X29332D01*
X28152Y90446D01*
X26971Y91627D01*
Y92808D01*
X24609Y101073D02*
X31694D01*
Y97531D01*
X30513Y96350D01*
X28152D01*
X26971Y97531D01*
Y101073D01*
X12565Y40856D02*
X19649D01*
Y45579D01*
X12565Y51482D02*
Y49121D01*
X13746Y47940D01*
X18469D01*
X19649Y49121D01*
Y51482D01*
X18469Y52663D01*
X13746D01*
X12565Y51482D01*
Y55025D02*
X19649D01*
X17288Y57386D01*
X19649Y59747D01*
X12565D01*
Y69193D02*
X19649D01*
Y73916D01*
Y79820D02*
Y77458D01*
X18469Y76278D01*
X16107D01*
X14926Y77458D01*
Y79820D01*
X16107Y81001D01*
X17288D01*
Y76278D01*
X14926Y83362D02*
X18469D01*
X19649Y84543D01*
X18469Y85723D01*
X19649Y86904D01*
X18469Y88085D01*
X14926D01*
X19649Y93988D02*
Y91627D01*
X18469Y90446D01*
X16107D01*
X14926Y91627D01*
Y93988D01*
X16107Y95169D01*
X17288D01*
Y90446D01*
X19649Y97531D02*
Y99892D01*
Y98711D01*
X12565D01*
Y97531D01*
X30239Y187607D02*
X23155D01*
Y191149D01*
X24336Y192330D01*
X26697D01*
X27878Y191149D01*
Y187607D01*
X24336Y199414D02*
X23155Y198233D01*
Y195872D01*
X24336Y194691D01*
X29059D01*
X30239Y195872D01*
Y198233D01*
X29059Y199414D01*
X23155Y201776D02*
X30239D01*
Y205318D01*
X29059Y206498D01*
X27878D01*
X26697Y205318D01*
Y201776D01*
Y205318D01*
X25517Y206498D01*
X24336D01*
X23155Y205318D01*
Y201776D01*
Y215944D02*
X27878D01*
X30239Y218306D01*
X27878Y220667D01*
X23155D01*
X30239Y223028D02*
Y225390D01*
Y224209D01*
X23155D01*
X24336Y223028D01*
X30239Y228932D02*
X29059D01*
Y230113D01*
X30239D01*
Y228932D01*
X24336Y234836D02*
X23155Y236016D01*
Y238378D01*
X24336Y239559D01*
X29059D01*
X30239Y238378D01*
Y236016D01*
X29059Y234836D01*
X24336D01*
X12528Y192330D02*
X11347Y191149D01*
Y188788D01*
X12528Y187607D01*
X17251D01*
X18431Y188788D01*
Y191149D01*
X17251Y192330D01*
X11347Y194691D02*
X18431D01*
X14889D01*
Y199414D01*
X11347D01*
X18431D01*
Y201776D02*
X11347D01*
X13708Y204137D01*
X11347Y206498D01*
X18431D01*
X11347Y215944D02*
X16070D01*
X18431Y218306D01*
X16070Y220667D01*
X11347D01*
X18431Y223028D02*
Y225390D01*
Y224209D01*
X11347D01*
X12528Y223028D01*
X18431Y228932D02*
X17251D01*
Y230113D01*
X18431D01*
Y228932D01*
X12528Y234836D02*
X11347Y236016D01*
Y238378D01*
X12528Y239559D01*
X17251D01*
X18431Y238378D01*
Y236016D01*
X17251Y234836D01*
X12528D01*
D15*
X58071Y149606D02*
Y151606D01*
Y150606D01*
X52073D01*
X53073Y149606D01*
X52073Y154605D02*
X56072D01*
X58071Y156604D01*
X56072Y158603D01*
X52073D01*
Y160603D02*
Y164601D01*
Y162602D01*
X58071D01*
Y166601D02*
Y168600D01*
Y167601D01*
X52073D01*
X53073Y166601D01*
X77663Y229331D02*
X83661Y233329D01*
X77663D02*
X83661Y229331D01*
Y239328D02*
Y235329D01*
X79663Y239328D01*
X78663D01*
X77663Y238328D01*
Y236329D01*
X78663Y235329D01*
X57087Y243203D02*
X61085Y237205D01*
Y243203D02*
X57087Y237205D01*
X63085Y242203D02*
X64084Y243203D01*
X66084D01*
X67083Y242203D01*
Y241203D01*
X66084Y240204D01*
X65084D01*
X66084D01*
X67083Y239204D01*
Y238204D01*
X66084Y237205D01*
X64084D01*
X63085Y238204D01*
X71758Y43307D02*
X77756Y47306D01*
X71758D02*
X77756Y43307D01*
Y49305D02*
Y51305D01*
Y50305D01*
X71758D01*
X72758Y49305D01*
X7874Y130998D02*
Y126999D01*
X9873Y125000D01*
X11873Y126999D01*
Y130998D01*
X13872D02*
Y125000D01*
X16871D01*
X17871Y126000D01*
Y129998D01*
X16871Y130998D01*
X13872D01*
X19870Y125000D02*
X21869D01*
X20870D01*
Y130998D01*
X19870Y129998D01*
X7782Y153543D02*
X11780D01*
X13780Y155543D01*
X11780Y157542D01*
X7782D01*
Y159541D02*
Y163540D01*
Y161541D01*
X13780D01*
Y165539D02*
Y167539D01*
Y166539D01*
X7782D01*
X8781Y165539D01*
X54134Y184055D02*
Y190053D01*
X57133D01*
X58133Y189053D01*
Y187054D01*
X57133Y186055D01*
X54134D01*
X56133D02*
X58133Y184055D01*
X64131D02*
X60132D01*
X64131Y188054D01*
Y189053D01*
X63131Y190053D01*
X61132D01*
X60132Y189053D01*
X56102Y201864D02*
Y197865D01*
X58102Y195866D01*
X60101Y197865D01*
Y201864D01*
X62100D02*
Y195866D01*
X65100D01*
X66099Y196866D01*
Y200865D01*
X65100Y201864D01*
X62100D01*
X72097Y195866D02*
X68098D01*
X72097Y199865D01*
Y200865D01*
X71097Y201864D01*
X69098D01*
X68098Y200865D01*
X44291Y85630D02*
X46291D01*
X45291D01*
Y91628D01*
X44291Y90628D01*
X49290Y85630D02*
Y91628D01*
X52289D01*
X53288Y90628D01*
Y88629D01*
X52289Y87629D01*
X49290D01*
X51289D02*
X53288Y85630D01*
X55288D02*
X57287D01*
X56287D01*
Y91628D01*
X55288Y90628D01*
X62008Y117126D02*
X64007D01*
X63008D01*
Y123124D01*
X62008Y122124D01*
X67006Y117126D02*
Y123124D01*
X70005D01*
X71005Y122124D01*
Y120125D01*
X70005Y119125D01*
X67006D01*
X69006D02*
X71005Y117126D01*
X77003D02*
X73004D01*
X77003Y121125D01*
Y122124D01*
X76003Y123124D01*
X74004D01*
X73004Y122124D01*
X100455Y117126D02*
X96457D01*
X100455Y121125D01*
Y122124D01*
X99456Y123124D01*
X97456D01*
X96457Y122124D01*
X102455Y117126D02*
Y123124D01*
X105454D01*
X106454Y122124D01*
Y120125D01*
X105454Y119125D01*
X102455D01*
X104454D02*
X106454Y117126D01*
X112452D02*
X108453D01*
X112452Y121125D01*
Y122124D01*
X111452Y123124D01*
X109452D01*
X108453Y122124D01*
X131890D02*
X132889Y123124D01*
X134889D01*
X135889Y122124D01*
Y121125D01*
X134889Y120125D01*
X133889D01*
X134889D01*
X135889Y119125D01*
Y118126D01*
X134889Y117126D01*
X132889D01*
X131890Y118126D01*
X137888Y117126D02*
Y123124D01*
X140887D01*
X141886Y122124D01*
Y120125D01*
X140887Y119125D01*
X137888D01*
X139887D02*
X141886Y117126D01*
X147885D02*
X143886D01*
X147885Y121125D01*
Y122124D01*
X146885Y123124D01*
X144886D01*
X143886Y122124D01*
X170322Y117126D02*
Y123124D01*
X167323Y120125D01*
X171321D01*
X173321Y117126D02*
Y123124D01*
X176320D01*
X177320Y122124D01*
Y120125D01*
X176320Y119125D01*
X173321D01*
X175320D02*
X177320Y117126D01*
X183318D02*
X179319D01*
X183318Y121125D01*
Y122124D01*
X182318Y123124D01*
X180319D01*
X179319Y122124D01*
X206755Y123124D02*
X202756D01*
Y120125D01*
X204755Y121125D01*
X205755D01*
X206755Y120125D01*
Y118126D01*
X205755Y117126D01*
X203756D01*
X202756Y118126D01*
X208754Y117126D02*
Y123124D01*
X211753D01*
X212753Y122124D01*
Y120125D01*
X211753Y119125D01*
X208754D01*
X210753D02*
X212753Y117126D01*
X218751D02*
X214752D01*
X218751Y121125D01*
Y122124D01*
X217751Y123124D01*
X215752D01*
X214752Y122124D01*
X242188Y123124D02*
X240188Y122124D01*
X238189Y120125D01*
Y118126D01*
X239189Y117126D01*
X241188D01*
X242188Y118126D01*
Y119125D01*
X241188Y120125D01*
X238189D01*
X244187Y117126D02*
Y123124D01*
X247186D01*
X248186Y122124D01*
Y120125D01*
X247186Y119125D01*
X244187D01*
X246186D02*
X248186Y117126D01*
X254184D02*
X250185D01*
X254184Y121125D01*
Y122124D01*
X253184Y123124D01*
X251185D01*
X250185Y122124D01*
X273622Y123124D02*
X277621D01*
Y122124D01*
X273622Y118126D01*
Y117126D01*
X279620D02*
Y123124D01*
X282619D01*
X283619Y122124D01*
Y120125D01*
X282619Y119125D01*
X279620D01*
X281620D02*
X283619Y117126D01*
X289617D02*
X285618D01*
X289617Y121125D01*
Y122124D01*
X288617Y123124D01*
X286618D01*
X285618Y122124D01*
X309055D02*
X310055Y123124D01*
X312054D01*
X313054Y122124D01*
Y121125D01*
X312054Y120125D01*
X313054Y119125D01*
Y118126D01*
X312054Y117126D01*
X310055D01*
X309055Y118126D01*
Y119125D01*
X310055Y120125D01*
X309055Y121125D01*
Y122124D01*
X310055Y120125D02*
X312054D01*
X315053Y117126D02*
Y123124D01*
X318052D01*
X319052Y122124D01*
Y120125D01*
X318052Y119125D01*
X315053D01*
X317053D02*
X319052Y117126D01*
X325050D02*
X321051D01*
X325050Y121125D01*
Y122124D01*
X324050Y123124D01*
X322051D01*
X321051Y122124D01*
X81693Y190945D02*
Y192944D01*
Y191945D01*
X75695D01*
X76695Y190945D01*
X81693Y195943D02*
X75695D01*
Y198942D01*
X76695Y199942D01*
X78694D01*
X79694Y198942D01*
Y195943D01*
Y197943D02*
X81693Y199942D01*
X76695Y201941D02*
X75695Y202941D01*
Y204940D01*
X76695Y205940D01*
X77694D01*
X78694Y204940D01*
Y203941D01*
Y204940D01*
X79694Y205940D01*
X80693D01*
X81693Y204940D01*
Y202941D01*
X80693Y201941D01*
X42323Y77756D02*
X44322D01*
X43323D01*
Y83754D01*
X42323Y82754D01*
X47321Y77756D02*
Y83754D01*
X50320D01*
X51320Y82754D01*
Y80755D01*
X50320Y79755D01*
X47321D01*
X49321D02*
X51320Y77756D01*
X56318D02*
Y83754D01*
X53319Y80755D01*
X57318D01*
X35433Y93504D02*
X37432D01*
X36433D01*
Y99502D01*
X35433Y98502D01*
X40431Y93504D02*
Y99502D01*
X43431D01*
X44430Y98502D01*
Y96503D01*
X43431Y95503D01*
X40431D01*
X42431D02*
X44430Y93504D01*
X50428Y99502D02*
X46429D01*
Y96503D01*
X48429Y97503D01*
X49428D01*
X50428Y96503D01*
Y94504D01*
X49428Y93504D01*
X47429D01*
X46429Y94504D01*
X42323Y101378D02*
X44322D01*
X43323D01*
Y107376D01*
X42323Y106376D01*
X47321Y101378D02*
Y107376D01*
X50320D01*
X51320Y106376D01*
Y104377D01*
X50320Y103377D01*
X47321D01*
X49321D02*
X51320Y101378D01*
X57318Y107376D02*
X55319Y106376D01*
X53319Y104377D01*
Y102378D01*
X54319Y101378D01*
X56318D01*
X57318Y102378D01*
Y103377D01*
X56318Y104377D01*
X53319D01*
X69882Y109252D02*
X71881D01*
X70882D01*
Y115250D01*
X69882Y114250D01*
X74880Y115250D02*
Y111251D01*
X76880Y109252D01*
X78879Y111251D01*
Y115250D01*
X80878D02*
Y109252D01*
X83877D01*
X84877Y110252D01*
Y114250D01*
X83877Y115250D01*
X80878D01*
X86876Y109252D02*
X88876D01*
X87876D01*
Y115250D01*
X86876Y114250D01*
X337521Y94488D02*
X336522Y95488D01*
Y97487D01*
X337521Y98487D01*
X338521D01*
X339521Y97487D01*
X340520Y98487D01*
X341520D01*
X342520Y97487D01*
Y95488D01*
X341520Y94488D01*
X340520D01*
X339521Y95488D01*
X338521Y94488D01*
X337521D01*
X339521Y95488D02*
Y97487D01*
X336522Y100486D02*
X340520D01*
X342520Y102486D01*
X340520Y104485D01*
X336522D01*
Y106484D02*
X342520D01*
Y109483D01*
X341520Y110483D01*
X337521D01*
X336522Y109483D01*
Y106484D01*
X342520Y112482D02*
Y114482D01*
Y113482D01*
X336522D01*
X337521Y112482D01*
X65945Y214567D02*
X67944D01*
X66945D01*
Y220565D01*
X65945Y219565D01*
X70943Y220565D02*
Y216566D01*
X72943Y214567D01*
X74942Y216566D01*
Y220565D01*
X76941D02*
Y214567D01*
X79940D01*
X80940Y215567D01*
Y219565D01*
X79940Y220565D01*
X76941D01*
X86938Y214567D02*
X82939D01*
X86938Y218566D01*
Y219565D01*
X85938Y220565D01*
X83939D01*
X82939Y219565D01*
X306102Y218581D02*
X307102Y219581D01*
X309101D01*
X310101Y218581D01*
Y217581D01*
X309101Y216582D01*
X310101Y215582D01*
Y214582D01*
X309101Y213583D01*
X307102D01*
X306102Y214582D01*
Y215582D01*
X307102Y216582D01*
X306102Y217581D01*
Y218581D01*
X307102Y216582D02*
X309101D01*
X312100Y219581D02*
Y215582D01*
X314100Y213583D01*
X316099Y215582D01*
Y219581D01*
X318098D02*
Y213583D01*
X321097D01*
X322097Y214582D01*
Y218581D01*
X321097Y219581D01*
X318098D01*
X328095Y213583D02*
X324096D01*
X328095Y217581D01*
Y218581D01*
X327096Y219581D01*
X325096D01*
X324096Y218581D01*
X90551Y183071D02*
X92550D01*
X91551D01*
Y189069D01*
X90551Y188069D01*
X95550Y189069D02*
Y185070D01*
X97549Y183071D01*
X99548Y185070D01*
Y189069D01*
X101548D02*
Y183071D01*
X104547D01*
X105546Y184071D01*
Y188069D01*
X104547Y189069D01*
X101548D01*
X107546Y188069D02*
X108545Y189069D01*
X110545D01*
X111544Y188069D01*
Y187070D01*
X110545Y186070D01*
X109545D01*
X110545D01*
X111544Y185070D01*
Y184071D01*
X110545Y183071D01*
X108545D01*
X107546Y184071D01*
X121125Y183071D02*
X117126D01*
X121125Y187070D01*
Y188069D01*
X120125Y189069D01*
X118126D01*
X117126Y188069D01*
X123124Y189069D02*
Y185070D01*
X125123Y183071D01*
X127123Y185070D01*
Y189069D01*
X129122D02*
Y183071D01*
X132121D01*
X133121Y184071D01*
Y188069D01*
X132121Y189069D01*
X129122D01*
X135120Y188069D02*
X136120Y189069D01*
X138119D01*
X139119Y188069D01*
Y187070D01*
X138119Y186070D01*
X137119D01*
X138119D01*
X139119Y185070D01*
Y184071D01*
X138119Y183071D01*
X136120D01*
X135120Y184071D01*
X144685Y188069D02*
X145685Y189069D01*
X147684D01*
X148684Y188069D01*
Y187070D01*
X147684Y186070D01*
X146684D01*
X147684D01*
X148684Y185070D01*
Y184071D01*
X147684Y183071D01*
X145685D01*
X144685Y184071D01*
X150683Y189069D02*
Y185070D01*
X152682Y183071D01*
X154682Y185070D01*
Y189069D01*
X156681D02*
Y183071D01*
X159680D01*
X160680Y184071D01*
Y188069D01*
X159680Y189069D01*
X156681D01*
X162679Y188069D02*
X163679Y189069D01*
X165678D01*
X166678Y188069D01*
Y187070D01*
X165678Y186070D01*
X164679D01*
X165678D01*
X166678Y185070D01*
Y184071D01*
X165678Y183071D01*
X163679D01*
X162679Y184071D01*
X175243Y183071D02*
Y189069D01*
X172244Y186070D01*
X176243D01*
X178242Y189069D02*
Y185070D01*
X180242Y183071D01*
X182241Y185070D01*
Y189069D01*
X184240D02*
Y183071D01*
X187239D01*
X188239Y184071D01*
Y188069D01*
X187239Y189069D01*
X184240D01*
X190238Y188069D02*
X191238Y189069D01*
X193237D01*
X194237Y188069D01*
Y187070D01*
X193237Y186070D01*
X192238D01*
X193237D01*
X194237Y185070D01*
Y184071D01*
X193237Y183071D01*
X191238D01*
X190238Y184071D01*
X203802Y189069D02*
X199803D01*
Y186070D01*
X201802Y187070D01*
X202802D01*
X203802Y186070D01*
Y184071D01*
X202802Y183071D01*
X200803D01*
X199803Y184071D01*
X205801Y189069D02*
Y185070D01*
X207801Y183071D01*
X209800Y185070D01*
Y189069D01*
X211799D02*
Y183071D01*
X214798D01*
X215798Y184071D01*
Y188069D01*
X214798Y189069D01*
X211799D01*
X217797Y188069D02*
X218797Y189069D01*
X220796D01*
X221796Y188069D01*
Y187070D01*
X220796Y186070D01*
X219797D01*
X220796D01*
X221796Y185070D01*
Y184071D01*
X220796Y183071D01*
X218797D01*
X217797Y184071D01*
X231361Y189069D02*
X229362Y188069D01*
X227362Y186070D01*
Y184071D01*
X228362Y183071D01*
X230361D01*
X231361Y184071D01*
Y185070D01*
X230361Y186070D01*
X227362D01*
X233360Y189069D02*
Y185070D01*
X235360Y183071D01*
X237359Y185070D01*
Y189069D01*
X239358D02*
Y183071D01*
X242357D01*
X243357Y184071D01*
Y188069D01*
X242357Y189069D01*
X239358D01*
X245356Y188069D02*
X246356Y189069D01*
X248355D01*
X249355Y188069D01*
Y187070D01*
X248355Y186070D01*
X247356D01*
X248355D01*
X249355Y185070D01*
Y184071D01*
X248355Y183071D01*
X246356D01*
X245356Y184071D01*
X254921Y189069D02*
X258920D01*
Y188069D01*
X254921Y184071D01*
Y183071D01*
X260919Y189069D02*
Y185070D01*
X262919Y183071D01*
X264918Y185070D01*
Y189069D01*
X266917D02*
Y183071D01*
X269916D01*
X270916Y184071D01*
Y188069D01*
X269916Y189069D01*
X266917D01*
X272915Y188069D02*
X273915Y189069D01*
X275915D01*
X276914Y188069D01*
Y187070D01*
X275915Y186070D01*
X274915D01*
X275915D01*
X276914Y185070D01*
Y184071D01*
X275915Y183071D01*
X273915D01*
X272915Y184071D01*
X282480Y188069D02*
X283480Y189069D01*
X285479D01*
X286479Y188069D01*
Y187070D01*
X285479Y186070D01*
X286479Y185070D01*
Y184071D01*
X285479Y183071D01*
X283480D01*
X282480Y184071D01*
Y185070D01*
X283480Y186070D01*
X282480Y187070D01*
Y188069D01*
X283480Y186070D02*
X285479D01*
X288478Y189069D02*
Y185070D01*
X290478Y183071D01*
X292477Y185070D01*
Y189069D01*
X294476D02*
Y183071D01*
X297476D01*
X298475Y184071D01*
Y188069D01*
X297476Y189069D01*
X294476D01*
X300475Y188069D02*
X301474Y189069D01*
X303473D01*
X304473Y188069D01*
Y187070D01*
X303473Y186070D01*
X302474D01*
X303473D01*
X304473Y185070D01*
Y184071D01*
X303473Y183071D01*
X301474D01*
X300475Y184071D01*
X93504Y153605D02*
Y149606D01*
X89505Y153605D01*
X88506D01*
X87506Y152605D01*
Y150606D01*
X88506Y149606D01*
X87506Y155604D02*
X91505D01*
X93504Y157604D01*
X91505Y159603D01*
X87506D01*
Y161602D02*
Y165601D01*
Y163602D01*
X93504D01*
Y167601D02*
Y169600D01*
Y168600D01*
X87506D01*
X88506Y167601D01*
X123939Y150591D02*
X122939Y151590D01*
Y153590D01*
X123939Y154589D01*
X124938D01*
X125938Y153590D01*
Y152590D01*
Y153590D01*
X126938Y154589D01*
X127937D01*
X128937Y153590D01*
Y151590D01*
X127937Y150591D01*
X122939Y156589D02*
X126938D01*
X128937Y158588D01*
X126938Y160587D01*
X122939D01*
Y162587D02*
Y166585D01*
Y164586D01*
X128937D01*
Y168585D02*
Y170584D01*
Y169584D01*
X122939D01*
X123939Y168585D01*
X164370Y152605D02*
X158372D01*
X161371Y149606D01*
Y153605D01*
X158372Y155604D02*
X162371D01*
X164370Y157604D01*
X162371Y159603D01*
X158372D01*
Y161602D02*
Y165601D01*
Y163602D01*
X164370D01*
Y167601D02*
Y169600D01*
Y168600D01*
X158372D01*
X159372Y167601D01*
X193805Y155573D02*
Y151575D01*
X196804D01*
X195804Y153574D01*
Y154574D01*
X196804Y155573D01*
X198803D01*
X199803Y154574D01*
Y152575D01*
X198803Y151575D01*
X193805Y157573D02*
X197804D01*
X199803Y159572D01*
X197804Y161572D01*
X193805D01*
Y163571D02*
Y167570D01*
Y165570D01*
X199803D01*
Y169569D02*
Y171568D01*
Y170569D01*
X193805D01*
X194805Y169569D01*
X229238Y155573D02*
X230238Y153574D01*
X232237Y151575D01*
X234237D01*
X235236Y152575D01*
Y154574D01*
X234237Y155573D01*
X233237D01*
X232237Y154574D01*
Y151575D01*
X229238Y157573D02*
X233237D01*
X235236Y159572D01*
X233237Y161572D01*
X229238D01*
Y163571D02*
Y167570D01*
Y165570D01*
X235236D01*
Y169569D02*
Y171568D01*
Y170569D01*
X229238D01*
X230238Y169569D01*
X264671Y151575D02*
Y155573D01*
X265671D01*
X269670Y151575D01*
X270669D01*
X264671Y157573D02*
X268670D01*
X270669Y159572D01*
X268670Y161572D01*
X264671D01*
Y163571D02*
Y167570D01*
Y165570D01*
X270669D01*
Y169569D02*
Y171568D01*
Y170569D01*
X264671D01*
X265671Y169569D01*
X301104Y151575D02*
X300104Y152575D01*
Y154574D01*
X301104Y155573D01*
X302104D01*
X303103Y154574D01*
X304103Y155573D01*
X305103D01*
X306102Y154574D01*
Y152575D01*
X305103Y151575D01*
X304103D01*
X303103Y152575D01*
X302104Y151575D01*
X301104D01*
X303103Y152575D02*
Y154574D01*
X300104Y157573D02*
X304103D01*
X306102Y159572D01*
X304103Y161572D01*
X300104D01*
Y163571D02*
Y167570D01*
Y165570D01*
X306102D01*
Y169569D02*
Y171568D01*
Y170569D01*
X300104D01*
X301104Y169569D01*
X67913Y69882D02*
X69913D01*
X68913D01*
Y75880D01*
X67913Y74880D01*
X72912Y75880D02*
Y71881D01*
X74911Y69882D01*
X76911Y71881D01*
Y75880D01*
X78910D02*
X82908D01*
X80909D01*
Y69882D01*
X88907D02*
X84908D01*
X88907Y73881D01*
Y74880D01*
X87907Y75880D01*
X85908D01*
X84908Y74880D01*
X337521Y68898D02*
X336522Y69897D01*
Y71897D01*
X337521Y72896D01*
X338521D01*
X339521Y71897D01*
X340520Y72896D01*
X341520D01*
X342520Y71897D01*
Y69897D01*
X341520Y68898D01*
X340520D01*
X339521Y69897D01*
X338521Y68898D01*
X337521D01*
X339521Y69897D02*
Y71897D01*
X336522Y74896D02*
X340520D01*
X342520Y76895D01*
X340520Y78894D01*
X336522D01*
Y80894D02*
Y84892D01*
Y82893D01*
X342520D01*
Y90891D02*
Y86892D01*
X338521Y90891D01*
X337521D01*
X336522Y89891D01*
Y87892D01*
X337521Y86892D01*
X90459Y2953D02*
X96457D01*
X94457D01*
X90459Y6951D01*
X93458Y3952D01*
X96457Y6951D01*
Y8951D02*
Y10950D01*
Y9950D01*
X90459D01*
X91458Y8951D01*
X93458Y13949D02*
Y17948D01*
X91458Y15949D02*
X95457D01*
X104238Y2953D02*
X110236D01*
X108237D01*
X104238Y6951D01*
X107237Y3952D01*
X110236Y6951D01*
Y8951D02*
Y10950D01*
Y9950D01*
X104238D01*
X105238Y8951D01*
X107237Y13949D02*
Y17948D01*
X131797Y2953D02*
X137795D01*
X135796D01*
X131797Y6951D01*
X134796Y3952D01*
X137795Y6951D01*
Y12949D02*
Y8951D01*
X133797Y12949D01*
X132797D01*
X131797Y11950D01*
Y9950D01*
X132797Y8951D01*
X134796Y14949D02*
Y18948D01*
X118018Y2953D02*
X124016D01*
X122016D01*
X118018Y6951D01*
X121017Y3952D01*
X124016Y6951D01*
Y12949D02*
Y8951D01*
X120017Y12949D01*
X119017D01*
X118018Y11950D01*
Y9950D01*
X119017Y8951D01*
X121017Y14949D02*
Y18948D01*
X119017Y16948D02*
X123016D01*
X159356Y2953D02*
X165354D01*
X163355D01*
X159356Y6951D01*
X162355Y3952D01*
X165354Y6951D01*
X160356Y8951D02*
X159356Y9950D01*
Y11950D01*
X160356Y12949D01*
X161356D01*
X162355Y11950D01*
Y10950D01*
Y11950D01*
X163355Y12949D01*
X164355D01*
X165354Y11950D01*
Y9950D01*
X164355Y8951D01*
X162355Y14949D02*
Y18948D01*
X145577Y2953D02*
X151575D01*
X149575D01*
X145577Y6951D01*
X148576Y3952D01*
X151575Y6951D01*
X146576Y8951D02*
X145577Y9950D01*
Y11950D01*
X146576Y12949D01*
X147576D01*
X148576Y11950D01*
Y10950D01*
Y11950D01*
X149575Y12949D01*
X150575D01*
X151575Y11950D01*
Y9950D01*
X150575Y8951D01*
X148576Y14949D02*
Y18948D01*
X146576Y16948D02*
X150575D01*
X186915Y2953D02*
X192913D01*
X190914D01*
X186915Y6951D01*
X189914Y3952D01*
X192913Y6951D01*
Y11950D02*
X186915D01*
X189914Y8951D01*
Y12949D01*
Y14949D02*
Y18948D01*
X173136Y2953D02*
X179134D01*
X177135D01*
X173136Y6951D01*
X176135Y3952D01*
X179134Y6951D01*
Y11950D02*
X173136D01*
X176135Y8951D01*
Y12949D01*
Y14949D02*
Y18948D01*
X174135Y16948D02*
X178134D01*
X214474Y2953D02*
X220472D01*
X218473D01*
X214474Y6951D01*
X217473Y3952D01*
X220472Y6951D01*
X214474Y12949D02*
Y8951D01*
X217473D01*
X216474Y10950D01*
Y11950D01*
X217473Y12949D01*
X219473D01*
X220472Y11950D01*
Y9950D01*
X219473Y8951D01*
X217473Y14949D02*
Y18948D01*
X200695Y2953D02*
X206693D01*
X204694D01*
X200695Y6951D01*
X203694Y3952D01*
X206693Y6951D01*
X200695Y12949D02*
Y8951D01*
X203694D01*
X202694Y10950D01*
Y11950D01*
X203694Y12949D01*
X205693D01*
X206693Y11950D01*
Y9950D01*
X205693Y8951D01*
X203694Y14949D02*
Y18948D01*
X201694Y16948D02*
X205693D01*
X242033Y2953D02*
X248031D01*
X246032D01*
X242033Y6951D01*
X245033Y3952D01*
X248031Y6951D01*
X242033Y12949D02*
X243033Y10950D01*
X245033Y8951D01*
X247032D01*
X248031Y9950D01*
Y11950D01*
X247032Y12949D01*
X246032D01*
X245033Y11950D01*
Y8951D01*
Y14949D02*
Y18948D01*
X228254Y2953D02*
X234252D01*
X232253D01*
X228254Y6951D01*
X231253Y3952D01*
X234252Y6951D01*
X228254Y12949D02*
X229254Y10950D01*
X231253Y8951D01*
X233252D01*
X234252Y9950D01*
Y11950D01*
X233252Y12949D01*
X232253D01*
X231253Y11950D01*
Y8951D01*
Y14949D02*
Y18948D01*
X229254Y16948D02*
X233252D01*
X269592Y2953D02*
X275590D01*
X273591D01*
X269592Y6951D01*
X272591Y3952D01*
X275590Y6951D01*
X269592Y8951D02*
Y12949D01*
X270592D01*
X274591Y8951D01*
X275590D01*
X272591Y14949D02*
Y18948D01*
X255813Y2953D02*
X261811D01*
X259812D01*
X255813Y6951D01*
X258812Y3952D01*
X261811Y6951D01*
X255813Y8951D02*
Y12949D01*
X256813D01*
X260811Y8951D01*
X261811D01*
X258812Y14949D02*
Y18948D01*
X256813Y16948D02*
X260811D01*
X297151Y2953D02*
X303150D01*
X301150D01*
X297151Y6951D01*
X300151Y3952D01*
X303150Y6951D01*
X298151Y8951D02*
X297151Y9950D01*
Y11950D01*
X298151Y12949D01*
X299151D01*
X300151Y11950D01*
X301150Y12949D01*
X302150D01*
X303150Y11950D01*
Y9950D01*
X302150Y8951D01*
X301150D01*
X300151Y9950D01*
X299151Y8951D01*
X298151D01*
X300151Y9950D02*
Y11950D01*
Y14949D02*
Y18948D01*
X283372Y2953D02*
X289370D01*
X287371D01*
X283372Y6951D01*
X286371Y3952D01*
X289370Y6951D01*
X284372Y8951D02*
X283372Y9950D01*
Y11950D01*
X284372Y12949D01*
X285371D01*
X286371Y11950D01*
X287371Y12949D01*
X288370D01*
X289370Y11950D01*
Y9950D01*
X288370Y8951D01*
X287371D01*
X286371Y9950D01*
X285371Y8951D01*
X284372D01*
X286371Y9950D02*
Y11950D01*
Y14949D02*
Y18948D01*
X284372Y16948D02*
X288370D01*
X283372Y277559D02*
X289370D01*
X287371D01*
X283372Y281558D01*
X286371Y278559D01*
X289370Y281558D01*
X284372Y283557D02*
X283372Y284557D01*
Y286556D01*
X284372Y287556D01*
X285371D01*
X286371Y286556D01*
X287371Y287556D01*
X288370D01*
X289370Y286556D01*
Y284557D01*
X288370Y283557D01*
X287371D01*
X286371Y284557D01*
X285371Y283557D01*
X284372D01*
X286371Y284557D02*
Y286556D01*
Y289555D02*
Y293554D01*
X284372Y291554D02*
X288370D01*
X297151Y277559D02*
X303150D01*
X301150D01*
X297151Y281558D01*
X300151Y278559D01*
X303150Y281558D01*
X298151Y283557D02*
X297151Y284557D01*
Y286556D01*
X298151Y287556D01*
X299151D01*
X300151Y286556D01*
X301150Y287556D01*
X302150D01*
X303150Y286556D01*
Y284557D01*
X302150Y283557D01*
X301150D01*
X300151Y284557D01*
X299151Y283557D01*
X298151D01*
X300151Y284557D02*
Y286556D01*
Y289555D02*
Y293554D01*
X255813Y277559D02*
X261811D01*
X259812D01*
X255813Y281558D01*
X258812Y278559D01*
X261811Y281558D01*
X255813Y283557D02*
Y287556D01*
X256813D01*
X260811Y283557D01*
X261811D01*
X258812Y289555D02*
Y293554D01*
X256813Y291554D02*
X260811D01*
X269592Y277559D02*
X275590D01*
X273591D01*
X269592Y281558D01*
X272591Y278559D01*
X275590Y281558D01*
X269592Y283557D02*
Y287556D01*
X270592D01*
X274591Y283557D01*
X275590D01*
X272591Y289555D02*
Y293554D01*
X228254Y277559D02*
X234252D01*
X232253D01*
X228254Y281558D01*
X231253Y278559D01*
X234252Y281558D01*
X228254Y287556D02*
X229254Y285557D01*
X231253Y283557D01*
X233252D01*
X234252Y284557D01*
Y286556D01*
X233252Y287556D01*
X232253D01*
X231253Y286556D01*
Y283557D01*
Y289555D02*
Y293554D01*
X229254Y291554D02*
X233252D01*
X242033Y277559D02*
X248031D01*
X246032D01*
X242033Y281558D01*
X245033Y278559D01*
X248031Y281558D01*
X242033Y287556D02*
X243033Y285557D01*
X245033Y283557D01*
X247032D01*
X248031Y284557D01*
Y286556D01*
X247032Y287556D01*
X246032D01*
X245033Y286556D01*
Y283557D01*
Y289555D02*
Y293554D01*
X200695Y277559D02*
X206693D01*
X204694D01*
X200695Y281558D01*
X203694Y278559D01*
X206693Y281558D01*
X200695Y287556D02*
Y283557D01*
X203694D01*
X202694Y285557D01*
Y286556D01*
X203694Y287556D01*
X205693D01*
X206693Y286556D01*
Y284557D01*
X205693Y283557D01*
X203694Y289555D02*
Y293554D01*
X201694Y291554D02*
X205693D01*
X214474Y277559D02*
X220472D01*
X218473D01*
X214474Y281558D01*
X217473Y278559D01*
X220472Y281558D01*
X214474Y287556D02*
Y283557D01*
X217473D01*
X216474Y285557D01*
Y286556D01*
X217473Y287556D01*
X219473D01*
X220472Y286556D01*
Y284557D01*
X219473Y283557D01*
X217473Y289555D02*
Y293554D01*
X173136Y277559D02*
X179134D01*
X177135D01*
X173136Y281558D01*
X176135Y278559D01*
X179134Y281558D01*
Y286556D02*
X173136D01*
X176135Y283557D01*
Y287556D01*
Y289555D02*
Y293554D01*
X174135Y291554D02*
X178134D01*
X186915Y277559D02*
X192913D01*
X190914D01*
X186915Y281558D01*
X189914Y278559D01*
X192913Y281558D01*
Y286556D02*
X186915D01*
X189914Y283557D01*
Y287556D01*
Y289555D02*
Y293554D01*
X145577Y277559D02*
X151575D01*
X149575D01*
X145577Y281558D01*
X148576Y278559D01*
X151575Y281558D01*
X146576Y283557D02*
X145577Y284557D01*
Y286556D01*
X146576Y287556D01*
X147576D01*
X148576Y286556D01*
Y285557D01*
Y286556D01*
X149575Y287556D01*
X150575D01*
X151575Y286556D01*
Y284557D01*
X150575Y283557D01*
X148576Y289555D02*
Y293554D01*
X146576Y291554D02*
X150575D01*
X159356Y277559D02*
X165354D01*
X163355D01*
X159356Y281558D01*
X162355Y278559D01*
X165354Y281558D01*
X160356Y283557D02*
X159356Y284557D01*
Y286556D01*
X160356Y287556D01*
X161356D01*
X162355Y286556D01*
Y285557D01*
Y286556D01*
X163355Y287556D01*
X164355D01*
X165354Y286556D01*
Y284557D01*
X164355Y283557D01*
X162355Y289555D02*
Y293554D01*
X118018Y277559D02*
X124016D01*
X122016D01*
X118018Y281558D01*
X121017Y278559D01*
X124016Y281558D01*
Y287556D02*
Y283557D01*
X120017Y287556D01*
X119017D01*
X118018Y286556D01*
Y284557D01*
X119017Y283557D01*
X121017Y289555D02*
Y293554D01*
X119017Y291554D02*
X123016D01*
X131797Y277559D02*
X137795D01*
X135796D01*
X131797Y281558D01*
X134796Y278559D01*
X137795Y281558D01*
Y287556D02*
Y283557D01*
X133797Y287556D01*
X132797D01*
X131797Y286556D01*
Y284557D01*
X132797Y283557D01*
X134796Y289555D02*
Y293554D01*
X104238Y277559D02*
X110236D01*
X108237D01*
X104238Y281558D01*
X107237Y278559D01*
X110236Y281558D01*
Y283557D02*
Y285557D01*
Y284557D01*
X104238D01*
X105238Y283557D01*
X107237Y288556D02*
Y292554D01*
X90459Y277559D02*
X96457D01*
X94457D01*
X90459Y281558D01*
X93458Y278559D01*
X96457Y281558D01*
Y283557D02*
Y285557D01*
Y284557D01*
X90459D01*
X91458Y283557D01*
X93458Y288556D02*
Y292554D01*
X91458Y290555D02*
X95457D01*
D16*
X326775Y45276D02*
Y48555D01*
Y46916D01*
X336614D01*
Y45276D01*
Y48555D01*
Y53475D02*
X326775D01*
X336614Y60035D01*
X326775D01*
X333665Y235235D02*
Y231955D01*
X335304Y230315D01*
X341864D01*
X343504Y231955D01*
Y235235D01*
X341864Y236875D01*
X335304D01*
X333665Y235235D01*
Y240154D02*
X341864D01*
X343504Y241794D01*
Y245074D01*
X341864Y246714D01*
X333665D01*
Y249994D02*
Y256553D01*
Y253273D01*
X343504D01*
M02*
