M48
;Layer_Color=9474304
;FILE_FORMAT=4:2
METRIC,LZ
;TYPE=PLATED
T1F00S00C0.71
T2F00S00C0.76
T3F00S00C0.80
T4F00S00C0.90
T5F00S00C1.07
T6F00S00C1.32
T7F00S00C3.10
%
T01
X013132Y007544
X013157Y007747
X013284Y007849
Y007442
X013767Y007163
X013945Y007137
X014097Y007087
X014122Y006883
X01397Y006934
X0143Y006858
X014427Y006731
X010375Y007747
X009Y007137
X007648Y006787
X007468Y006807
X006625Y0068
X006604Y007112
X007163Y007493
X005334Y010185
X008901Y010236
X009072
X009042Y010033
X008865Y010046
Y009881
X008915Y009677
X008865Y009068
X008992Y008966
X009195Y008915
Y009068
X008738Y00889
X008661Y008712
X008865
X008407Y008636
X008433Y008839
X008255Y0088
X009881Y008915
X010135Y008839
Y00856
X009931Y008611
X01005Y0083
X009906Y008153
X010363Y008611
X010516Y008661
X012649
X012878
Y008509
X012649Y008433
X013157Y008103
Y00795
X013538Y008814
X014554Y009703
T02
X01204Y007493
X012294
X012548
X012693Y007823
X014656Y006985
Y006731
X014503Y006426
X014859Y006419
X01524Y006426
X014961Y005969
X014503
X015418Y005766
Y005334
X011786Y007493
X010973
X01082Y006807
X010541
X009931
Y006553
Y006274
Y00602
Y005766
X009576
Y00602
Y006274
Y006553
Y006807
Y007366
X009627Y007645
X00983Y007468
X010071Y007328
X008103Y007188
X008052Y006426
X008306
Y005944
X008052
X007798Y006426
X007518
X007645Y007188
X007239
X006833
X006934Y007849
X006045Y007214
X005842Y007341
Y007087
Y006833
X00574Y00602
Y00574
Y005283
X006655
X007036
X007417
X004013Y005258
Y005486
Y005715
X003988Y007468
X004496Y007112
X00475
X004978
X005247Y007326
X005283Y007925
X005029
X004775
X003683Y007468
X003378
Y006274
Y00602
X003632
Y006274
X003912
Y00602
Y010008
X003759Y010262
X00348
X003912Y010516
X004039Y010262
X004318
X004572
X00447Y010008
X004191
X004928Y010109
Y00983
X005512Y009144
X005766
X00602
X006274
X006756
X00701
Y008636
X006756
X006274
X00602
X005766
X005512
X004496Y008001
X006706Y008052
X006883Y00983
X007188
X007493
X007823
X007645Y010084
X007315
X00701
X006731
X006452
X00795
X00828
X008128Y00983
X00828Y008267
X00856
X008839
X009144
X008992Y008445
X009322
X009296Y008026
X008992
X008687
X008407
X009627Y009576
X010033
X010439
X010871
X0111Y010084
X010643
X010236
X010109Y010338
Y010643
Y010947
X010439
Y010643
Y010338
X009804Y010084
X012979Y009449
X013157Y009296
X013335Y009093
X013741Y008992
X013995
X014249
X014135Y008776
X013881
X0127Y008153
X014884Y010058
X015138
X015418
X015443Y010338
Y010617
Y010897
T03
X004496Y007493
Y007696
Y00828
Y008484
X011227Y009525
Y009728
T04
X011938Y007823
X011425Y007825
Y008079
Y008333
Y008587
X011938Y008585
Y008331
Y008077
T05
X004367Y005498
Y005752
X004621
X004875
X005129
X005383
Y005498
X005129
X004875
X004621
X004588Y010573
Y010827
X004842
X005096
X00535
X005604
X005858
X006112
X006366
Y010573
X006112
X005858
X005604
X00535
X005096
X004842
X008238
X008492
X008746
X009
X009254
X009508
X009762
Y010827
X009508
X009254
X009
X008746
X008492
X008238
T06
X011963Y005664
X012344
X012725
X013106
X013487
X013868
X014249
X01463
X015011
X01585Y006096
Y006477
Y006858
Y007239
Y00762
X011582Y005664
X011201
X01082
X0076Y00565
X007219
X006838
X006457
X003658Y00668
Y007061
Y007823
Y008204
Y008585
Y008966
Y009347
Y009728
X010846Y010643
X011227
X011608
X011989
X01237
X012751
X013132
X013513
X013894
X014275
X014656
X015037
X01585Y010287
Y009906
Y009525
Y009144
Y008763
Y008382
Y008001
T07
X016Y0055
X0082
X003501
X0035Y0108
X0073
X016
M30
