G04 Layer_Color=32896*
%FSAX42Y42*%
%MOMM*%
G71*
G01*
G75*
%ADD10C,0.25*%
%ADD11C,0.60*%
%ADD12C,0.13*%
%ADD13C,0.20*%
D10*
X005391Y007696D02*
G03*
X005391Y007696I-000012J000000D01*
G01*
X005124Y006807D02*
G03*
X005124Y006807I-000012J000000D01*
G01*
X014639Y008471D02*
G03*
X014639Y008471I-000012J000000D01*
G01*
D11*
X014550Y008711D02*
G03*
X014550Y008711I-000030J000000D01*
G01*
D12*
X004710Y008397D02*
X004840Y008397D01*
X004710Y008367D02*
X004840Y008367D01*
X014645Y008114D02*
X014645Y008244D01*
X014615Y008114D02*
X014615Y008244D01*
X004202Y007580D02*
X004332Y007580D01*
X004202Y007610D02*
X004332Y007610D01*
X004685Y007580D02*
X004815Y007580D01*
X004685Y007610D02*
X004815Y007610D01*
X004124Y010665D02*
X004254Y010665D01*
X004124Y010635D02*
X004254Y010635D01*
X007935Y010665D02*
X008065Y010665D01*
X007935Y010635D02*
X008065Y010635D01*
X006063Y007575D02*
X006063Y007625D01*
X006063Y008225D02*
X006063Y008275D01*
X005463Y007575D02*
X005463Y008275D01*
X005343Y008105D02*
X005463Y008105D01*
X005463Y008205D01*
X005343Y008205D02*
X005463Y008205D01*
X005383Y007875D02*
X005463Y007875D01*
X005463Y007975D01*
X005383Y007975D02*
X005463Y007975D01*
X005383Y007875D02*
X005383Y007975D01*
X005343Y007745D02*
X005463Y007745D01*
X005463Y007645D02*
X005463Y007745D01*
X005343Y007645D02*
X005463Y007645D01*
X005463Y008275D02*
X006063Y008275D01*
X005463Y007575D02*
X006063Y007575D01*
X004325Y010612D02*
X004325Y010688D01*
X004452Y010612D02*
X004452Y010688D01*
X004240Y010986D02*
X004317Y010986D01*
X004240Y010858D02*
X004317Y010858D01*
X006619Y005837D02*
X006695Y005837D01*
X006619Y005963D02*
X006695Y005963D01*
X007369Y005837D02*
X007445Y005837D01*
X007369Y005963D02*
X007445Y005963D01*
X006500Y010624D02*
X006500Y010726D01*
X006678Y010627D02*
X006678Y010723D01*
X006725Y010624D02*
X006725Y010726D01*
X006903Y010627D02*
X006903Y010723D01*
X007019Y005963D02*
X007095Y005963D01*
X007019Y005837D02*
X007095Y005837D01*
X006619Y006005D02*
X006619Y006295D01*
X006695Y006295D01*
X006695Y006005D02*
X006695Y006295D01*
X006619Y006005D02*
X006695Y006005D01*
X007369Y006005D02*
X007369Y006295D01*
X007445Y006295D01*
X007445Y006005D02*
X007445Y006295D01*
X007369Y006005D02*
X007445Y006005D01*
X004427Y006879D02*
X004427Y006929D01*
X004427Y006229D02*
X004427Y006279D01*
X005027Y006229D02*
X005027Y006929D01*
X005027Y006399D02*
X005147Y006399D01*
X005027Y006299D02*
X005027Y006399D01*
X005027Y006299D02*
X005147Y006299D01*
X005027Y006629D02*
X005107Y006629D01*
X005027Y006529D02*
X005027Y006629D01*
X005027Y006529D02*
X005107Y006529D01*
X005107Y006629D01*
X005027Y006759D02*
X005147Y006759D01*
X005027Y006759D02*
X005027Y006859D01*
X005147Y006859D01*
X004427Y006229D02*
X005027Y006229D01*
X004427Y006929D02*
X005027Y006929D01*
X011521Y010033D02*
X011521Y010135D01*
X011698Y010036D02*
X011698Y010132D01*
X011901Y010033D02*
X011901Y010135D01*
X012079Y010036D02*
X012079Y010132D01*
X012282Y010033D02*
X012282Y010135D01*
X012460Y010036D02*
X012460Y010132D01*
X012664Y010033D02*
X012664Y010135D01*
X012841Y010036D02*
X012841Y010132D01*
X013045Y010033D02*
X013045Y010135D01*
X013222Y010036D02*
X013222Y010132D01*
X013426Y010033D02*
X013426Y010135D01*
X013603Y010036D02*
X013603Y010132D01*
X013807Y010033D02*
X013807Y010135D01*
X013984Y010036D02*
X013984Y010132D01*
X014188Y010033D02*
X014188Y010135D01*
X014365Y010036D02*
X014365Y010132D01*
X005025Y008349D02*
X005013Y008337D01*
X004990Y008337D01*
X004978Y008349D01*
X004978Y008396D01*
X004990Y008407D01*
X005013Y008407D01*
X005025Y008396D01*
X005095Y008407D02*
X005048Y008407D01*
X005095Y008361D01*
X005095Y008349D01*
X005083Y008337D01*
X005060Y008337D01*
X005048Y008349D01*
X005118Y008349D02*
X005130Y008337D01*
X005153Y008337D01*
X005165Y008349D01*
X005165Y008361D01*
X005153Y008372D01*
X005142Y008372D01*
X005153Y008372D01*
X005165Y008384D01*
X005165Y008396D01*
X005153Y008407D01*
X005130Y008407D01*
X005118Y008396D01*
X014279Y008186D02*
X014291Y008198D01*
X014314Y008198D01*
X014326Y008186D01*
X014326Y008140D01*
X014314Y008128D01*
X014291Y008128D01*
X014279Y008140D01*
X014256Y008128D02*
X014232Y008128D01*
X014244Y008128D01*
X014244Y008198D01*
X014256Y008186D01*
X014197Y008186D02*
X014186Y008198D01*
X014162Y008198D01*
X014151Y008186D01*
X014151Y008175D01*
X014162Y008163D01*
X014174Y008163D01*
X014162Y008163D01*
X014151Y008151D01*
X014151Y008140D01*
X014162Y008128D01*
X014186Y008128D01*
X014197Y008140D01*
X004046Y007590D02*
X004058Y007579D01*
X004058Y007555D01*
X004046Y007544D01*
X003999Y007544D01*
X003988Y007555D01*
X003988Y007579D01*
X003999Y007590D01*
X003988Y007614D02*
X003988Y007637D01*
X003988Y007625D01*
X004058Y007625D01*
X004046Y007614D01*
X003988Y007672D02*
X003988Y007695D01*
X003988Y007684D01*
X004058Y007684D01*
X004046Y007672D01*
X005011Y007590D02*
X005023Y007579D01*
X005023Y007555D01*
X005011Y007544D01*
X004965Y007544D01*
X004953Y007555D01*
X004953Y007579D01*
X004965Y007590D01*
X004953Y007614D02*
X004953Y007637D01*
X004953Y007625D01*
X005023Y007625D01*
X005011Y007614D01*
X004953Y007719D02*
X004953Y007672D01*
X005000Y007719D01*
X005011Y007719D01*
X005023Y007707D01*
X005023Y007684D01*
X005011Y007672D01*
X003955Y010647D02*
X003943Y010658D01*
X003943Y010682D01*
X003955Y010693D01*
X004002Y010693D01*
X004013Y010682D01*
X004013Y010658D01*
X004002Y010647D01*
X004013Y010623D02*
X004013Y010600D01*
X004013Y010612D01*
X003943Y010612D01*
X003955Y010623D01*
X003943Y010565D02*
X003943Y010518D01*
X003955Y010518D01*
X004002Y010565D01*
X004013Y010565D01*
X007739Y010672D02*
X007728Y010684D01*
X007728Y010707D01*
X007739Y010719D01*
X007786Y010719D01*
X007798Y010707D01*
X007798Y010684D01*
X007786Y010672D01*
X007798Y010649D02*
X007798Y010625D01*
X007798Y010637D01*
X007728Y010637D01*
X007739Y010649D01*
X007739Y010591D02*
X007728Y010579D01*
X007728Y010556D01*
X007739Y010544D01*
X007751Y010544D01*
X007763Y010556D01*
X007774Y010544D01*
X007786Y010544D01*
X007798Y010556D01*
X007798Y010579D01*
X007786Y010591D01*
X007774Y010591D01*
X007763Y010579D01*
X007751Y010591D01*
X007739Y010591D01*
X007763Y010579D02*
X007763Y010556D01*
X006242Y007366D02*
X006172Y007366D01*
X006172Y007401D01*
X006184Y007413D01*
X006231Y007413D01*
X006242Y007401D01*
X006242Y007366D01*
X006172Y007436D02*
X006219Y007436D01*
X006242Y007459D01*
X006219Y007483D01*
X006172Y007483D01*
X006207Y007483D01*
X006207Y007436D01*
X006172Y007506D02*
X006172Y007529D01*
X006172Y007518D01*
X006242Y007518D01*
X006231Y007506D01*
X004420Y010414D02*
X004350Y010414D01*
X004350Y010379D01*
X004361Y010367D01*
X004385Y010367D01*
X004396Y010379D01*
X004396Y010414D01*
X004396Y010391D02*
X004420Y010367D01*
X004420Y010344D02*
X004420Y010321D01*
X004420Y010332D01*
X004350Y010332D01*
X004361Y010344D01*
X004420Y010251D02*
X004350Y010251D01*
X004385Y010286D01*
X004385Y010239D01*
X003937Y010846D02*
X004007Y010846D01*
X004007Y010881D01*
X003995Y010892D01*
X003972Y010892D01*
X003960Y010881D01*
X003960Y010846D01*
X003960Y010869D02*
X003937Y010892D01*
X003937Y010916D02*
X003937Y010939D01*
X003937Y010927D01*
X004007Y010927D01*
X003995Y010916D01*
X004007Y010974D02*
X004007Y011021D01*
X003995Y011021D01*
X003949Y010974D01*
X003937Y010974D01*
X006452Y005842D02*
X006452Y005912D01*
X006417Y005912D01*
X006405Y005900D01*
X006405Y005877D01*
X006417Y005865D01*
X006452Y005865D01*
X006428Y005865D02*
X006405Y005842D01*
X006382Y005900D02*
X006370Y005912D01*
X006347Y005912D01*
X006335Y005900D01*
X006335Y005889D01*
X006347Y005877D01*
X006358Y005877D01*
X006347Y005877D01*
X006335Y005865D01*
X006335Y005854D01*
X006347Y005842D01*
X006370Y005842D01*
X006382Y005854D01*
X006265Y005842D02*
X006312Y005842D01*
X006265Y005889D01*
X006265Y005900D01*
X006277Y005912D01*
X006300Y005912D01*
X006312Y005900D01*
X007772Y005842D02*
X007772Y005912D01*
X007737Y005912D01*
X007726Y005900D01*
X007726Y005877D01*
X007737Y005865D01*
X007772Y005865D01*
X007749Y005865D02*
X007726Y005842D01*
X007702Y005900D02*
X007691Y005912D01*
X007667Y005912D01*
X007656Y005900D01*
X007656Y005889D01*
X007667Y005877D01*
X007679Y005877D01*
X007667Y005877D01*
X007656Y005865D01*
X007656Y005854D01*
X007667Y005842D01*
X007691Y005842D01*
X007702Y005854D01*
X007632Y005900D02*
X007621Y005912D01*
X007597Y005912D01*
X007586Y005900D01*
X007586Y005889D01*
X007597Y005877D01*
X007609Y005877D01*
X007597Y005877D01*
X007586Y005865D01*
X007586Y005854D01*
X007597Y005842D01*
X007621Y005842D01*
X007632Y005854D01*
X006629Y010363D02*
X006559Y010363D01*
X006559Y010328D01*
X006571Y010317D01*
X006594Y010317D01*
X006606Y010328D01*
X006606Y010363D01*
X006606Y010340D02*
X006629Y010317D01*
X006629Y010293D02*
X006629Y010270D01*
X006629Y010282D01*
X006559Y010282D01*
X006571Y010293D01*
X006618Y010235D02*
X006629Y010223D01*
X006629Y010200D01*
X006618Y010188D01*
X006571Y010188D01*
X006559Y010200D01*
X006559Y010223D01*
X006571Y010235D01*
X006583Y010235D01*
X006594Y010223D01*
X006594Y010188D01*
X006858Y010363D02*
X006788Y010363D01*
X006788Y010328D01*
X006800Y010317D01*
X006823Y010317D01*
X006835Y010328D01*
X006835Y010363D01*
X006835Y010340D02*
X006858Y010317D01*
X006858Y010247D02*
X006858Y010293D01*
X006811Y010247D01*
X006800Y010247D01*
X006788Y010258D01*
X006788Y010282D01*
X006800Y010293D01*
X006800Y010223D02*
X006788Y010212D01*
X006788Y010188D01*
X006800Y010177D01*
X006846Y010177D01*
X006858Y010188D01*
X006858Y010212D01*
X006846Y010223D01*
X006800Y010223D01*
X007061Y006121D02*
X007061Y006191D01*
X007026Y006191D01*
X007015Y006180D01*
X007015Y006156D01*
X007026Y006145D01*
X007061Y006145D01*
X007038Y006145D02*
X007015Y006121D01*
X006991Y006180D02*
X006980Y006191D01*
X006956Y006191D01*
X006945Y006180D01*
X006945Y006168D01*
X006956Y006156D01*
X006968Y006156D01*
X006956Y006156D01*
X006945Y006145D01*
X006945Y006133D01*
X006956Y006121D01*
X006980Y006121D01*
X006991Y006133D01*
X006886Y006121D02*
X006886Y006191D01*
X006921Y006156D01*
X006875Y006156D01*
X006477Y006293D02*
X006477Y006246D01*
X006454Y006223D01*
X006430Y006246D01*
X006430Y006293D01*
X006407Y006293D02*
X006407Y006223D01*
X006372Y006223D01*
X006360Y006235D01*
X006360Y006281D01*
X006372Y006293D01*
X006407Y006293D01*
X006337Y006223D02*
X006314Y006223D01*
X006325Y006223D01*
X006325Y006293D01*
X006337Y006281D01*
X007722Y006293D02*
X007722Y006246D01*
X007698Y006223D01*
X007675Y006246D01*
X007675Y006293D01*
X007652Y006293D02*
X007652Y006223D01*
X007617Y006223D01*
X007605Y006235D01*
X007605Y006281D01*
X007617Y006293D01*
X007652Y006293D01*
X007535Y006223D02*
X007582Y006223D01*
X007535Y006270D01*
X007535Y006281D01*
X007547Y006293D01*
X007570Y006293D01*
X007582Y006281D01*
X005349Y007096D02*
X005349Y007049D01*
X005326Y007026D01*
X005303Y007049D01*
X005303Y007096D01*
X005279Y007096D02*
X005233Y007096D01*
X005256Y007096D01*
X005256Y007026D01*
X005209Y007026D02*
X005186Y007026D01*
X005198Y007026D01*
X005198Y007096D01*
X005209Y007084D01*
X014638Y009674D02*
X014638Y009604D01*
X014603Y009604D01*
X014591Y009615D01*
X014591Y009662D01*
X014603Y009674D01*
X014638Y009674D01*
X014568Y009674D02*
X014568Y009604D01*
X014533Y009604D01*
X014521Y009615D01*
X014521Y009662D01*
X014533Y009674D01*
X014568Y009674D01*
X014498Y009662D02*
X014486Y009674D01*
X014463Y009674D01*
X014451Y009662D01*
X014451Y009650D01*
X014463Y009639D01*
X014475Y009639D01*
X014463Y009639D01*
X014451Y009627D01*
X014451Y009615D01*
X014463Y009604D01*
X014486Y009604D01*
X014498Y009615D01*
X011712Y010384D02*
X011712Y010453D01*
X011677Y010453D01*
X011665Y010442D01*
X011665Y010419D01*
X011677Y010407D01*
X011712Y010407D01*
X011689Y010407D02*
X011665Y010384D01*
X011642Y010384D02*
X011619Y010384D01*
X011630Y010384D01*
X011630Y010453D01*
X011642Y010442D01*
X011584Y010442D02*
X011572Y010453D01*
X011549Y010453D01*
X011537Y010442D01*
X011537Y010430D01*
X011549Y010419D01*
X011537Y010407D01*
X011537Y010395D01*
X011549Y010384D01*
X011572Y010384D01*
X011584Y010395D01*
X011584Y010407D01*
X011572Y010419D01*
X011584Y010430D01*
X011584Y010442D01*
X011572Y010419D02*
X011549Y010419D01*
X012093Y010384D02*
X012093Y010453D01*
X012058Y010453D01*
X012046Y010442D01*
X012046Y010419D01*
X012058Y010407D01*
X012093Y010407D01*
X012070Y010407D02*
X012046Y010384D01*
X012023Y010384D02*
X012000Y010384D01*
X012011Y010384D01*
X012011Y010453D01*
X012023Y010442D01*
X011918Y010453D02*
X011941Y010442D01*
X011965Y010419D01*
X011965Y010395D01*
X011953Y010384D01*
X011930Y010384D01*
X011918Y010395D01*
X011918Y010407D01*
X011930Y010419D01*
X011965Y010419D01*
X012474Y010384D02*
X012474Y010453D01*
X012439Y010453D01*
X012427Y010442D01*
X012427Y010419D01*
X012439Y010407D01*
X012474Y010407D01*
X012451Y010407D02*
X012427Y010384D01*
X012404Y010384D02*
X012381Y010384D01*
X012392Y010384D01*
X012392Y010453D01*
X012404Y010442D01*
X012299Y010453D02*
X012346Y010453D01*
X012346Y010419D01*
X012322Y010430D01*
X012311Y010430D01*
X012299Y010419D01*
X012299Y010395D01*
X012311Y010384D01*
X012334Y010384D01*
X012346Y010395D01*
X012855Y010384D02*
X012855Y010453D01*
X012820Y010453D01*
X012808Y010442D01*
X012808Y010419D01*
X012820Y010407D01*
X012855Y010407D01*
X012832Y010407D02*
X012808Y010384D01*
X012785Y010384D02*
X012762Y010384D01*
X012773Y010384D01*
X012773Y010453D01*
X012785Y010442D01*
X012727Y010442D02*
X012715Y010453D01*
X012692Y010453D01*
X012680Y010442D01*
X012680Y010430D01*
X012692Y010419D01*
X012703Y010419D01*
X012692Y010419D01*
X012680Y010407D01*
X012680Y010395D01*
X012692Y010384D01*
X012715Y010384D01*
X012727Y010395D01*
X013236Y010384D02*
X013236Y010453D01*
X013201Y010453D01*
X013189Y010442D01*
X013189Y010419D01*
X013201Y010407D01*
X013236Y010407D01*
X013213Y010407D02*
X013189Y010384D01*
X013166Y010384D02*
X013143Y010384D01*
X013154Y010384D01*
X013154Y010453D01*
X013166Y010442D01*
X013061Y010384D02*
X013108Y010384D01*
X013061Y010430D01*
X013061Y010442D01*
X013073Y010453D01*
X013096Y010453D01*
X013108Y010442D01*
X013617Y010384D02*
X013617Y010453D01*
X013582Y010453D01*
X013570Y010442D01*
X013570Y010419D01*
X013582Y010407D01*
X013617Y010407D01*
X013594Y010407D02*
X013570Y010384D01*
X013547Y010384D02*
X013524Y010384D01*
X013535Y010384D01*
X013535Y010453D01*
X013547Y010442D01*
X013489Y010384D02*
X013465Y010384D01*
X013477Y010384D01*
X013477Y010453D01*
X013489Y010442D01*
X013998Y010384D02*
X013998Y010453D01*
X013963Y010453D01*
X013951Y010442D01*
X013951Y010419D01*
X013963Y010407D01*
X013998Y010407D01*
X013975Y010407D02*
X013951Y010384D01*
X013928Y010384D02*
X013905Y010384D01*
X013916Y010384D01*
X013916Y010453D01*
X013928Y010442D01*
X013870Y010442D02*
X013858Y010453D01*
X013835Y010453D01*
X013823Y010442D01*
X013823Y010395D01*
X013835Y010384D01*
X013858Y010384D01*
X013870Y010395D01*
X013870Y010442D01*
X014379Y010384D02*
X014379Y010453D01*
X014344Y010453D01*
X014332Y010442D01*
X014332Y010419D01*
X014344Y010407D01*
X014379Y010407D01*
X014356Y010407D02*
X014332Y010384D01*
X014309Y010395D02*
X014297Y010384D01*
X014274Y010384D01*
X014262Y010395D01*
X014262Y010442D01*
X014274Y010453D01*
X014297Y010453D01*
X014309Y010442D01*
X014309Y010430D01*
X014297Y010419D01*
X014262Y010419D01*
X006448Y006048D02*
X006444Y006052D01*
X006448Y006055D01*
X006451Y006052D01*
X006448Y006048D01*
X007198Y006048D02*
X007194Y006052D01*
X007198Y006055D01*
X007201Y006052D01*
X007198Y006048D01*
D13*
X013320Y008611D02*
X013320Y009271D01*
X014620Y008611D02*
X014620Y009271D01*
X013320Y009271D02*
X014620Y009271D01*
X013320Y008611D02*
X014620Y008611D01*
M02*
