G04 Layer_Color=32896*
%FSAX42Y42*%
%MOMM*%
G71*
G01*
G75*
%ADD10C,0.25*%
%ADD11C,0.60*%
%ADD12C,0.13*%
%ADD13C,0.20*%
D10*
X014639Y008471D02*
G03*
X014639Y008471I-000012J000000D01*
G01*
X005124Y006807D02*
G03*
X005124Y006807I-000012J000000D01*
G01*
X005391Y007696D02*
G03*
X005391Y007696I-000012J000000D01*
G01*
D11*
X014550Y008711D02*
G03*
X014550Y008711I-000030J000000D01*
G01*
D12*
X014365Y010036D02*
X014365Y010132D01*
X014188Y010033D02*
X014188Y010135D01*
X013984Y010036D02*
X013984Y010132D01*
X013807Y010033D02*
X013807Y010135D01*
X013603Y010036D02*
X013603Y010132D01*
X013426Y010033D02*
X013426Y010135D01*
X013222Y010036D02*
X013222Y010132D01*
X013045Y010033D02*
X013045Y010135D01*
X012841Y010036D02*
X012841Y010132D01*
X012664Y010033D02*
X012664Y010135D01*
X012460Y010036D02*
X012460Y010132D01*
X012282Y010033D02*
X012282Y010135D01*
X012079Y010036D02*
X012079Y010132D01*
X011901Y010033D02*
X011901Y010135D01*
X011698Y010036D02*
X011698Y010132D01*
X011521Y010033D02*
X011521Y010135D01*
X004427Y006929D02*
X005027Y006929D01*
X004427Y006229D02*
X005027Y006229D01*
X005027Y006859D02*
X005147Y006859D01*
X005027Y006759D02*
X005027Y006859D01*
X005027Y006759D02*
X005147Y006759D01*
X005107Y006529D02*
X005107Y006629D01*
X005027Y006529D02*
X005107Y006529D01*
X005027Y006529D02*
X005027Y006629D01*
X005107Y006629D01*
X005027Y006299D02*
X005147Y006299D01*
X005027Y006299D02*
X005027Y006399D01*
X005147Y006399D01*
X005027Y006229D02*
X005027Y006929D01*
X004427Y006229D02*
X004427Y006279D01*
X004427Y006879D02*
X004427Y006929D01*
X007369Y006005D02*
X007445Y006005D01*
X007445Y006295D01*
X007369Y006295D02*
X007445Y006295D01*
X007369Y006005D02*
X007369Y006295D01*
X006619Y006005D02*
X006695Y006005D01*
X006695Y006295D01*
X006619Y006295D02*
X006695Y006295D01*
X006619Y006005D02*
X006619Y006295D01*
X007019Y005837D02*
X007095Y005837D01*
X007019Y005963D02*
X007095Y005963D01*
X006903Y010627D02*
X006903Y010723D01*
X006725Y010624D02*
X006725Y010726D01*
X006678Y010627D02*
X006678Y010723D01*
X006500Y010624D02*
X006500Y010726D01*
X007369Y005963D02*
X007445Y005963D01*
X007369Y005837D02*
X007445Y005837D01*
X006619Y005963D02*
X006695Y005963D01*
X006619Y005837D02*
X006695Y005837D01*
X004240Y010858D02*
X004317Y010858D01*
X004240Y010986D02*
X004317Y010986D01*
X004452Y010612D02*
X004452Y010688D01*
X004325Y010612D02*
X004325Y010688D01*
X005463Y007575D02*
X006063Y007575D01*
X005463Y008275D02*
X006063Y008275D01*
X005343Y007645D02*
X005463Y007645D01*
X005463Y007745D01*
X005343Y007745D02*
X005463Y007745D01*
X005383Y007875D02*
X005383Y007975D01*
X005463Y007975D01*
X005463Y007875D02*
X005463Y007975D01*
X005383Y007875D02*
X005463Y007875D01*
X005343Y008205D02*
X005463Y008205D01*
X005463Y008105D02*
X005463Y008205D01*
X005343Y008105D02*
X005463Y008105D01*
X005463Y007575D02*
X005463Y008275D01*
X006063Y008225D02*
X006063Y008275D01*
X006063Y007575D02*
X006063Y007625D01*
X007935Y010635D02*
X008065Y010635D01*
X007935Y010665D02*
X008065Y010665D01*
X004124Y010635D02*
X004254Y010635D01*
X004124Y010665D02*
X004254Y010665D01*
X004685Y007610D02*
X004815Y007610D01*
X004685Y007580D02*
X004815Y007580D01*
X004202Y007610D02*
X004332Y007610D01*
X004202Y007580D02*
X004332Y007580D01*
X014615Y008114D02*
X014615Y008244D01*
X014645Y008114D02*
X014645Y008244D01*
X004710Y008367D02*
X004840Y008367D01*
X004710Y008397D02*
X004840Y008397D01*
X014328Y009672D02*
X014328Y009742D01*
X014293Y009742D01*
X014281Y009731D01*
X014281Y009707D01*
X014293Y009696D01*
X014328Y009696D01*
X014305Y009696D02*
X014281Y009672D01*
X014258Y009684D02*
X014246Y009672D01*
X014223Y009672D01*
X014212Y009684D01*
X014212Y009731D01*
X014223Y009742D01*
X014246Y009742D01*
X014258Y009731D01*
X014258Y009719D01*
X014246Y009707D01*
X014212Y009707D01*
X013947Y009672D02*
X013947Y009742D01*
X013912Y009742D01*
X013900Y009731D01*
X013900Y009707D01*
X013912Y009696D01*
X013947Y009696D01*
X013924Y009696D02*
X013900Y009672D01*
X013877Y009672D02*
X013854Y009672D01*
X013865Y009672D01*
X013865Y009742D01*
X013877Y009731D01*
X013819Y009731D02*
X013807Y009742D01*
X013784Y009742D01*
X013772Y009731D01*
X013772Y009684D01*
X013784Y009672D01*
X013807Y009672D01*
X013819Y009684D01*
X013819Y009731D01*
X013566Y009672D02*
X013566Y009742D01*
X013531Y009742D01*
X013519Y009731D01*
X013519Y009707D01*
X013531Y009696D01*
X013566Y009696D01*
X013543Y009696D02*
X013519Y009672D01*
X013496Y009672D02*
X013473Y009672D01*
X013485Y009672D01*
X013485Y009742D01*
X013496Y009731D01*
X013438Y009672D02*
X013415Y009672D01*
X013426Y009672D01*
X013426Y009742D01*
X013438Y009731D01*
X013185Y009672D02*
X013185Y009742D01*
X013150Y009742D01*
X013138Y009731D01*
X013138Y009707D01*
X013150Y009696D01*
X013185Y009696D01*
X013162Y009696D02*
X013138Y009672D01*
X013115Y009672D02*
X013092Y009672D01*
X013104Y009672D01*
X013104Y009742D01*
X013115Y009731D01*
X013010Y009672D02*
X013057Y009672D01*
X013010Y009719D01*
X013010Y009731D01*
X013022Y009742D01*
X013045Y009742D01*
X013057Y009731D01*
X012804Y009672D02*
X012804Y009742D01*
X012769Y009742D01*
X012757Y009731D01*
X012757Y009707D01*
X012769Y009696D01*
X012804Y009696D01*
X012781Y009696D02*
X012757Y009672D01*
X012734Y009672D02*
X012711Y009672D01*
X012722Y009672D01*
X012722Y009742D01*
X012734Y009731D01*
X012676Y009731D02*
X012664Y009742D01*
X012641Y009742D01*
X012629Y009731D01*
X012629Y009719D01*
X012641Y009707D01*
X012653Y009707D01*
X012641Y009707D01*
X012629Y009696D01*
X012629Y009684D01*
X012641Y009672D01*
X012664Y009672D01*
X012676Y009684D01*
X012423Y009672D02*
X012423Y009742D01*
X012388Y009742D01*
X012376Y009731D01*
X012376Y009707D01*
X012388Y009696D01*
X012423Y009696D01*
X012400Y009696D02*
X012376Y009672D01*
X012353Y009672D02*
X012330Y009672D01*
X012342Y009672D01*
X012342Y009742D01*
X012353Y009731D01*
X012248Y009742D02*
X012295Y009742D01*
X012295Y009707D01*
X012272Y009719D01*
X012260Y009719D01*
X012248Y009707D01*
X012248Y009684D01*
X012260Y009672D01*
X012283Y009672D01*
X012295Y009684D01*
X012042Y009672D02*
X012042Y009742D01*
X012007Y009742D01*
X011995Y009731D01*
X011995Y009707D01*
X012007Y009696D01*
X012042Y009696D01*
X012019Y009696D02*
X011995Y009672D01*
X011972Y009672D02*
X011949Y009672D01*
X011961Y009672D01*
X011961Y009742D01*
X011972Y009731D01*
X011867Y009742D02*
X011891Y009731D01*
X011914Y009707D01*
X011914Y009684D01*
X011902Y009672D01*
X011879Y009672D01*
X011867Y009684D01*
X011867Y009696D01*
X011879Y009707D01*
X011914Y009707D01*
X011661Y009672D02*
X011661Y009742D01*
X011626Y009742D01*
X011614Y009731D01*
X011614Y009707D01*
X011626Y009696D01*
X011661Y009696D01*
X011638Y009696D02*
X011614Y009672D01*
X011591Y009672D02*
X011568Y009672D01*
X011579Y009672D01*
X011579Y009742D01*
X011591Y009731D01*
X011533Y009731D02*
X011521Y009742D01*
X011498Y009742D01*
X011486Y009731D01*
X011486Y009719D01*
X011498Y009707D01*
X011486Y009696D01*
X011486Y009684D01*
X011498Y009672D01*
X011521Y009672D01*
X011533Y009684D01*
X011533Y009696D01*
X011521Y009707D01*
X011533Y009719D01*
X011533Y009731D01*
X011521Y009707D02*
X011498Y009707D01*
X014713Y008687D02*
X014783Y008687D01*
X014783Y008652D01*
X014771Y008640D01*
X014724Y008640D01*
X014713Y008652D01*
X014713Y008687D01*
X014713Y008617D02*
X014783Y008617D01*
X014783Y008582D01*
X014771Y008570D01*
X014724Y008570D01*
X014713Y008582D01*
X014713Y008617D01*
X014724Y008547D02*
X014713Y008535D01*
X014713Y008512D01*
X014724Y008500D01*
X014736Y008500D01*
X014748Y008512D01*
X014748Y008524D01*
X014748Y008512D01*
X014759Y008500D01*
X014771Y008500D01*
X014783Y008512D01*
X014783Y008535D01*
X014771Y008547D01*
X005349Y007096D02*
X005349Y007049D01*
X005326Y007026D01*
X005303Y007049D01*
X005303Y007096D01*
X005279Y007096D02*
X005233Y007096D01*
X005256Y007096D01*
X005256Y007026D01*
X005209Y007026D02*
X005186Y007026D01*
X005198Y007026D01*
X005198Y007096D01*
X005209Y007084D01*
X007722Y006293D02*
X007722Y006246D01*
X007698Y006223D01*
X007675Y006246D01*
X007675Y006293D01*
X007652Y006293D02*
X007652Y006223D01*
X007617Y006223D01*
X007605Y006235D01*
X007605Y006281D01*
X007617Y006293D01*
X007652Y006293D01*
X007535Y006223D02*
X007582Y006223D01*
X007535Y006270D01*
X007535Y006281D01*
X007547Y006293D01*
X007570Y006293D01*
X007582Y006281D01*
X006934Y006344D02*
X006934Y006297D01*
X006911Y006274D01*
X006888Y006297D01*
X006888Y006344D01*
X006864Y006344D02*
X006864Y006274D01*
X006829Y006274D01*
X006818Y006285D01*
X006818Y006332D01*
X006829Y006344D01*
X006864Y006344D01*
X006794Y006274D02*
X006771Y006274D01*
X006783Y006274D01*
X006783Y006344D01*
X006794Y006332D01*
X007112Y006071D02*
X007112Y006141D01*
X007077Y006141D01*
X007065Y006129D01*
X007065Y006106D01*
X007077Y006094D01*
X007112Y006094D01*
X007089Y006094D02*
X007065Y006071D01*
X007042Y006129D02*
X007030Y006141D01*
X007007Y006141D01*
X006995Y006129D01*
X006995Y006117D01*
X007007Y006106D01*
X007019Y006106D01*
X007007Y006106D01*
X006995Y006094D01*
X006995Y006082D01*
X007007Y006071D01*
X007030Y006071D01*
X007042Y006082D01*
X006937Y006071D02*
X006937Y006141D01*
X006972Y006106D01*
X006925Y006106D01*
X006858Y010363D02*
X006788Y010363D01*
X006788Y010328D01*
X006800Y010317D01*
X006823Y010317D01*
X006835Y010328D01*
X006835Y010363D01*
X006835Y010340D02*
X006858Y010317D01*
X006858Y010247D02*
X006858Y010293D01*
X006811Y010247D01*
X006800Y010247D01*
X006788Y010258D01*
X006788Y010282D01*
X006800Y010293D01*
X006800Y010223D02*
X006788Y010212D01*
X006788Y010188D01*
X006800Y010177D01*
X006846Y010177D01*
X006858Y010188D01*
X006858Y010212D01*
X006846Y010223D01*
X006800Y010223D01*
X006629Y010363D02*
X006559Y010363D01*
X006559Y010328D01*
X006571Y010317D01*
X006594Y010317D01*
X006606Y010328D01*
X006606Y010363D01*
X006606Y010340D02*
X006629Y010317D01*
X006629Y010293D02*
X006629Y010270D01*
X006629Y010282D01*
X006559Y010282D01*
X006571Y010293D01*
X006618Y010235D02*
X006629Y010223D01*
X006629Y010200D01*
X006618Y010188D01*
X006571Y010188D01*
X006559Y010200D01*
X006559Y010223D01*
X006571Y010235D01*
X006583Y010235D01*
X006594Y010223D01*
X006594Y010188D01*
X007798Y005867D02*
X007798Y005937D01*
X007763Y005937D01*
X007751Y005926D01*
X007751Y005902D01*
X007763Y005891D01*
X007798Y005891D01*
X007774Y005891D02*
X007751Y005867D01*
X007728Y005926D02*
X007716Y005937D01*
X007693Y005937D01*
X007681Y005926D01*
X007681Y005914D01*
X007693Y005902D01*
X007704Y005902D01*
X007693Y005902D01*
X007681Y005891D01*
X007681Y005879D01*
X007693Y005867D01*
X007716Y005867D01*
X007728Y005879D01*
X007658Y005926D02*
X007646Y005937D01*
X007623Y005937D01*
X007611Y005926D01*
X007611Y005914D01*
X007623Y005902D01*
X007635Y005902D01*
X007623Y005902D01*
X007611Y005891D01*
X007611Y005879D01*
X007623Y005867D01*
X007646Y005867D01*
X007658Y005879D01*
X006430Y005864D02*
X006430Y005934D01*
X006395Y005934D01*
X006383Y005922D01*
X006383Y005899D01*
X006395Y005887D01*
X006430Y005887D01*
X006406Y005887D02*
X006383Y005864D01*
X006360Y005922D02*
X006348Y005934D01*
X006325Y005934D01*
X006313Y005922D01*
X006313Y005911D01*
X006325Y005899D01*
X006336Y005899D01*
X006325Y005899D01*
X006313Y005887D01*
X006313Y005876D01*
X006325Y005864D01*
X006348Y005864D01*
X006360Y005876D01*
X006243Y005864D02*
X006290Y005864D01*
X006243Y005911D01*
X006243Y005922D01*
X006255Y005934D01*
X006278Y005934D01*
X006290Y005922D01*
X003937Y010846D02*
X004007Y010846D01*
X004007Y010881D01*
X003995Y010892D01*
X003972Y010892D01*
X003960Y010881D01*
X003960Y010846D01*
X003960Y010869D02*
X003937Y010892D01*
X003937Y010916D02*
X003937Y010939D01*
X003937Y010927D01*
X004007Y010927D01*
X003995Y010916D01*
X004007Y010974D02*
X004007Y011021D01*
X003995Y011021D01*
X003949Y010974D01*
X003937Y010974D01*
X004420Y010414D02*
X004350Y010414D01*
X004350Y010379D01*
X004361Y010367D01*
X004385Y010367D01*
X004396Y010379D01*
X004396Y010414D01*
X004396Y010391D02*
X004420Y010367D01*
X004420Y010344D02*
X004420Y010321D01*
X004420Y010332D01*
X004350Y010332D01*
X004361Y010344D01*
X004420Y010251D02*
X004350Y010251D01*
X004385Y010286D01*
X004385Y010239D01*
X006242Y007366D02*
X006172Y007366D01*
X006172Y007401D01*
X006184Y007413D01*
X006231Y007413D01*
X006242Y007401D01*
X006242Y007366D01*
X006172Y007436D02*
X006219Y007436D01*
X006242Y007459D01*
X006219Y007483D01*
X006172Y007483D01*
X006207Y007483D01*
X006207Y007436D01*
X006172Y007506D02*
X006172Y007529D01*
X006172Y007518D01*
X006242Y007518D01*
X006231Y007506D01*
X007739Y010672D02*
X007728Y010684D01*
X007728Y010707D01*
X007739Y010719D01*
X007786Y010719D01*
X007798Y010707D01*
X007798Y010684D01*
X007786Y010672D01*
X007798Y010649D02*
X007798Y010625D01*
X007798Y010637D01*
X007728Y010637D01*
X007739Y010649D01*
X007739Y010591D02*
X007728Y010579D01*
X007728Y010556D01*
X007739Y010544D01*
X007751Y010544D01*
X007763Y010556D01*
X007774Y010544D01*
X007786Y010544D01*
X007798Y010556D01*
X007798Y010579D01*
X007786Y010591D01*
X007774Y010591D01*
X007763Y010579D01*
X007751Y010591D01*
X007739Y010591D01*
X007763Y010579D02*
X007763Y010556D01*
X003955Y010647D02*
X003943Y010658D01*
X003943Y010682D01*
X003955Y010693D01*
X004002Y010693D01*
X004013Y010682D01*
X004013Y010658D01*
X004002Y010647D01*
X004013Y010623D02*
X004013Y010600D01*
X004013Y010612D01*
X003943Y010612D01*
X003955Y010623D01*
X003943Y010565D02*
X003943Y010518D01*
X003955Y010518D01*
X004002Y010565D01*
X004013Y010565D01*
X005011Y007590D02*
X005023Y007579D01*
X005023Y007555D01*
X005011Y007544D01*
X004965Y007544D01*
X004953Y007555D01*
X004953Y007579D01*
X004965Y007590D01*
X004953Y007614D02*
X004953Y007637D01*
X004953Y007625D01*
X005023Y007625D01*
X005011Y007614D01*
X004953Y007719D02*
X004953Y007672D01*
X005000Y007719D01*
X005011Y007719D01*
X005023Y007707D01*
X005023Y007684D01*
X005011Y007672D01*
X004046Y007590D02*
X004058Y007579D01*
X004058Y007555D01*
X004046Y007544D01*
X003999Y007544D01*
X003988Y007555D01*
X003988Y007579D01*
X003999Y007590D01*
X003988Y007614D02*
X003988Y007637D01*
X003988Y007625D01*
X004058Y007625D01*
X004046Y007614D01*
X003988Y007672D02*
X003988Y007695D01*
X003988Y007684D01*
X004058Y007684D01*
X004046Y007672D01*
X014279Y008186D02*
X014291Y008198D01*
X014314Y008198D01*
X014326Y008186D01*
X014326Y008140D01*
X014314Y008128D01*
X014291Y008128D01*
X014279Y008140D01*
X014256Y008128D02*
X014232Y008128D01*
X014244Y008128D01*
X014244Y008198D01*
X014256Y008186D01*
X014197Y008186D02*
X014186Y008198D01*
X014162Y008198D01*
X014151Y008186D01*
X014151Y008175D01*
X014162Y008163D01*
X014174Y008163D01*
X014162Y008163D01*
X014151Y008151D01*
X014151Y008140D01*
X014162Y008128D01*
X014186Y008128D01*
X014197Y008140D01*
X005025Y008349D02*
X005013Y008337D01*
X004990Y008337D01*
X004978Y008349D01*
X004978Y008396D01*
X004990Y008407D01*
X005013Y008407D01*
X005025Y008396D01*
X005095Y008407D02*
X005048Y008407D01*
X005095Y008361D01*
X005095Y008349D01*
X005083Y008337D01*
X005060Y008337D01*
X005048Y008349D01*
X005118Y008349D02*
X005130Y008337D01*
X005153Y008337D01*
X005165Y008349D01*
X005165Y008361D01*
X005153Y008372D01*
X005142Y008372D01*
X005153Y008372D01*
X005165Y008384D01*
X005165Y008396D01*
X005153Y008407D01*
X005130Y008407D01*
X005118Y008396D01*
X007198Y006048D02*
X007194Y006052D01*
X007198Y006055D01*
X007201Y006052D01*
X007198Y006048D01*
X006448Y006048D02*
X006444Y006052D01*
X006448Y006055D01*
X006451Y006052D01*
X006448Y006048D01*
D13*
X013320Y008611D02*
X014620Y008611D01*
X013320Y009271D02*
X014620Y009271D01*
X014620Y008611D02*
X014620Y009271D01*
X013320Y008611D02*
X013320Y009271D01*
M02*
