M48
;Layer_Color=9474304
;FILE_FORMAT=2:5
INCH,LZ
;TYPE=PLATED
T1F00S00C0.01968
T2F00S00C0.02362
T4F00S00C0.02756
T5F00S00C0.03543
T6F00S00C0.03800
T7F00S00C0.07874
T8F00S00C0.12598
;TYPE=NON_PLATED
T9F00S00C0.07874
%
T01
X0173858Y0113386
X0259528Y0149921
X0280945Y0142362
X0287244Y0137323
X0296063Y0144882
X0302362Y0141102
X0304882Y0133543
X0309921Y0137323
X0289764Y0153701
X0330079Y0132283
X0336378Y0127244
X0376693Y0136063
X0381732Y0133543
X0386772Y0137323
X0391811Y0133543
X039811Y0136063
X040441Y0137323
X0411969Y0147402
X0410709Y0153701
X0419528Y0147402
X0411969Y0115905
X0394331Y0113386
X0393071Y0107087
X0386772Y0108346
X0382992Y0115905
X0456063Y0123465
X047748Y0120945
X0493858Y0144882
X0501417Y0141102
X0549291Y0138583
X0648819Y0154961
X0653858Y0149921
Y015874
X0648819Y016252
X064378Y0166299
X0636221Y0167559
X0632441Y0190236
X063748Y0192756
X064252Y0190236
X0647559Y0192756
X0631181Y0209134
X0632441Y023685
X0616063Y0216693
X0609764Y0199055
X0564409Y0194016
X0551811Y0175118
X0548032Y0170079
X0526614Y0183937
X0521575Y0202835
X0483779Y0197795
X0432126Y0211653
X0422047Y0231811
X0386772Y0197795
X0385512Y0182677
X0386772Y0165039
X0367874
X0365354Y0170079
X0360315Y0172598
X0354016
X0351496Y0177638
X0346457Y0175118
X0342677Y0171339
X0335118Y0163779
X0361575Y0186457
X0359055Y0197795
X0342677Y0212913
X0341417Y0221732
X0337638Y0229291
X032252Y0228031
X0313701Y0229291
X0306142Y0220472
X0308661Y0183937
X0304882Y0180157
X0293543Y0175118
X0259528Y016
X0225512Y0163779
X0173858
Y0215433
X0122205Y0163779
T02
X0420866Y0103543
X0427953
X0435039
X0442126
X0449213
X0456299
X0463386
X0470472
X0477559
X0484646
X0575591Y0236221
X0582677
X0329921
X0322835
T04
X0468661Y0176457
Y0190236
T05
X027Y015
X028
X0665Y0145
X0675
Y0155
X0665
Y0165
X0675
Y0175
X0665
Y0185
X0675
Y0195
X0665
X0513858Y0181417
X0503858
X0493858
X0394921Y0219213
X0381142
X0367205
X0353425
X0352756Y0231811
X0362756
X0372756
X0382756
X0392756
X028Y019
X027
Y018
X028
Y017
X027
Y016
X028
T06
X0546772Y0206417
Y0232008
T07
X0296457Y0108661
X0619291
Y0231102
T08
X011811Y011811
X027559
X0673228
Y022441
X027559
T09
X0296457Y0231102
M30
