G04 Layer_Physical_Order=1*
G04 Layer_Color=255*
%FSLAX25Y25*%
%MOIN*%
G70*
G01*
G75*
%ADD10R,0.11811X0.05906*%
%ADD11C,0.00800*%
%ADD12C,0.01000*%
%ADD13C,0.02000*%
%ADD14C,0.01200*%
%ADD15C,0.01969*%
%ADD16C,0.15748*%
%ADD17C,0.06299*%
%ADD18C,0.05906*%
%ADD19R,0.05906X0.05906*%
%ADD20O,0.05118X0.10630*%
%ADD21C,0.07874*%
%ADD22C,0.04724*%
%ADD23R,0.05906X0.05906*%
%ADD24C,0.06000*%
G04:AMPARAMS|DCode=25|XSize=90mil|YSize=90mil|CornerRadius=11.25mil|HoleSize=0mil|Usage=FLASHONLY|Rotation=270.000|XOffset=0mil|YOffset=0mil|HoleType=Round|Shape=RoundedRectangle|*
%AMROUNDEDRECTD25*
21,1,0.09000,0.06750,0,0,270.0*
21,1,0.06750,0.09000,0,0,270.0*
1,1,0.02250,-0.03375,-0.03375*
1,1,0.02250,-0.03375,0.03375*
1,1,0.02250,0.03375,0.03375*
1,1,0.02250,0.03375,-0.03375*
%
%ADD25ROUNDEDRECTD25*%
%ADD26C,0.09000*%
%ADD27C,0.03937*%
G36*
X323507Y150551D02*
X323315Y150089D01*
X283975D01*
X283851Y151032D01*
X283453Y151993D01*
X282819Y152819D01*
X281993Y153453D01*
X281032Y153851D01*
X280000Y153987D01*
X278968Y153851D01*
X278007Y153453D01*
X277181Y152819D01*
X276547Y151993D01*
X276149Y151032D01*
X276013Y150000D01*
X276149Y148968D01*
X276341Y148504D01*
X272989Y145151D01*
X256382D01*
X251083Y150450D01*
X251275Y150912D01*
X254488D01*
X255073Y151028D01*
X255570Y151359D01*
X257641Y153431D01*
X267201D01*
X267361Y152958D01*
X267181Y152819D01*
X266547Y151993D01*
X266355Y151529D01*
X262035D01*
X261645Y152038D01*
X261025Y152514D01*
X260302Y152813D01*
X259528Y152915D01*
X258753Y152813D01*
X258031Y152514D01*
X257410Y152038D01*
X256935Y151418D01*
X256635Y150696D01*
X256533Y149921D01*
X256635Y149146D01*
X256935Y148424D01*
X257410Y147804D01*
X258031Y147328D01*
X258753Y147029D01*
X259528Y146927D01*
X260302Y147029D01*
X261025Y147328D01*
X261645Y147804D01*
X262121Y148424D01*
X262140Y148471D01*
X266355D01*
X266547Y148007D01*
X267181Y147181D01*
X268007Y146547D01*
X268968Y146149D01*
X270000Y146013D01*
X271032Y146149D01*
X271993Y146547D01*
X272819Y147181D01*
X273453Y148007D01*
X273851Y148968D01*
X273987Y150000D01*
X273851Y151032D01*
X273453Y151993D01*
X272819Y152819D01*
X272639Y152958D01*
X272799Y153431D01*
X274961D01*
X275546Y153548D01*
X276042Y153879D01*
X276042Y153879D01*
X276042Y153879D01*
X278504Y156341D01*
X278968Y156149D01*
X280000Y156013D01*
X281032Y156149D01*
X281993Y156547D01*
X282819Y157181D01*
X283453Y158007D01*
X283851Y158968D01*
X283987Y160000D01*
X283851Y161032D01*
X283453Y161993D01*
X282819Y162819D01*
X281993Y163453D01*
X281032Y163851D01*
X280000Y163987D01*
X278968Y163851D01*
X278007Y163453D01*
X277181Y162819D01*
X276547Y161993D01*
X276149Y161032D01*
X276013Y160000D01*
X276149Y158968D01*
X276341Y158504D01*
X274327Y156490D01*
X272697D01*
X272536Y156964D01*
X272819Y157181D01*
X273453Y158007D01*
X273851Y158968D01*
X273987Y160000D01*
X273851Y161032D01*
X273453Y161993D01*
X272819Y162819D01*
X272536Y163037D01*
X272697Y163510D01*
X275039D01*
X275625Y163626D01*
X276121Y163958D01*
X276121Y163958D01*
X276121Y163958D01*
X278504Y166341D01*
X278968Y166149D01*
X280000Y166013D01*
X281032Y166149D01*
X281993Y166547D01*
X282819Y167181D01*
X283453Y168007D01*
X283851Y168968D01*
X283987Y170000D01*
X283851Y171032D01*
X283453Y171993D01*
X282819Y172819D01*
X281993Y173453D01*
X281032Y173851D01*
X280000Y173987D01*
X278968Y173851D01*
X278007Y173453D01*
X277181Y172819D01*
X276547Y171993D01*
X276149Y171032D01*
X276013Y170000D01*
X276149Y168968D01*
X276341Y168504D01*
X274406Y166569D01*
X272799D01*
X272639Y167042D01*
X272819Y167181D01*
X273453Y168007D01*
X273851Y168968D01*
X273987Y170000D01*
X273851Y171032D01*
X273453Y171993D01*
X272819Y172819D01*
X272433Y173115D01*
X272594Y173589D01*
X275118D01*
X275703Y173705D01*
X276200Y174037D01*
X276200Y174037D01*
X276200Y174037D01*
X278504Y176341D01*
X278968Y176149D01*
X280000Y176013D01*
X281032Y176149D01*
X281993Y176547D01*
X282819Y177181D01*
X283453Y178007D01*
X283851Y178968D01*
X283987Y180000D01*
X283851Y181032D01*
X283453Y181993D01*
X282819Y182819D01*
X282331Y183194D01*
X282491Y183668D01*
X290390D01*
X323507Y150551D01*
D02*
G37*
G36*
X343559Y175853D02*
X343463Y175118D01*
X343528Y174621D01*
X343175Y174267D01*
X342677Y174333D01*
X341943Y174236D01*
X334940Y181239D01*
X334443Y181570D01*
X333858Y181687D01*
X311242D01*
X311096Y181983D01*
X311360Y182408D01*
X337004D01*
X343559Y175853D01*
D02*
G37*
G36*
X404035Y168087D02*
X402516Y166569D01*
X389340D01*
X388889Y167157D01*
X388269Y167632D01*
X387547Y167931D01*
X386772Y168034D01*
X385997Y167931D01*
X385275Y167632D01*
X384654Y167157D01*
X384179Y166536D01*
X383880Y165814D01*
X383777Y165039D01*
X383880Y164264D01*
X384179Y163542D01*
X384412Y163238D01*
X384191Y162789D01*
X382366D01*
X377068Y168087D01*
X377259Y168549D01*
X403843D01*
X404035Y168087D01*
D02*
G37*
G36*
X610842Y186275D02*
X611503Y185833D01*
X612284Y185677D01*
X623622D01*
X624402Y185833D01*
X625064Y186275D01*
X625064Y186275D01*
X625064Y186275D01*
X628998Y190209D01*
X629472Y190048D01*
X629549Y189461D01*
X629848Y188739D01*
X630324Y188119D01*
X630911Y187668D01*
Y182051D01*
X630548Y181687D01*
X558744D01*
X556672Y183759D01*
X556176Y184090D01*
X555590Y184207D01*
X541732D01*
X541147Y184090D01*
X540651Y183759D01*
X539944Y183052D01*
X539482Y183243D01*
Y191977D01*
X562232D01*
X562292Y191899D01*
X562912Y191423D01*
X563634Y191124D01*
X564409Y191022D01*
X565184Y191124D01*
X565906Y191423D01*
X566527Y191899D01*
X566586Y191977D01*
X605140D01*
X610842Y186275D01*
D02*
G37*
G36*
X685354Y236850D02*
Y105827D01*
X680315Y100787D01*
X487334D01*
X487113Y101236D01*
X487582Y101848D01*
X487921Y102666D01*
X488037Y103543D01*
X487921Y104421D01*
X487582Y105239D01*
X487044Y105941D01*
X486341Y106480D01*
X485523Y106819D01*
X484646Y106934D01*
X483768Y106819D01*
X482950Y106480D01*
X482248Y105941D01*
X481709Y105239D01*
X481370Y104421D01*
X481352Y104287D01*
X480852D01*
X480835Y104421D01*
X480496Y105239D01*
X479957Y105941D01*
X479255Y106480D01*
X479088Y106549D01*
Y118437D01*
X479598Y118828D01*
X480073Y119448D01*
X480372Y120170D01*
X480474Y120945D01*
X480372Y121720D01*
X480073Y122442D01*
X479598Y123062D01*
X478977Y123538D01*
X478255Y123837D01*
X477480Y123939D01*
X476705Y123837D01*
X476168Y123615D01*
X475890Y124030D01*
X493761Y141901D01*
X493858Y141888D01*
X494633Y141990D01*
X495355Y142289D01*
X495975Y142765D01*
X496451Y143385D01*
X496748Y144103D01*
X499673D01*
X499834Y143629D01*
X499300Y143219D01*
X498824Y142599D01*
X498525Y141877D01*
X498423Y141102D01*
X498525Y140327D01*
X498824Y139605D01*
X499300Y138985D01*
X499920Y138509D01*
X500642Y138210D01*
X501417Y138108D01*
X501535Y138124D01*
X508806Y130853D01*
X509462Y130414D01*
X510236Y130260D01*
X627402D01*
X628176Y130414D01*
X628832Y130853D01*
X640956Y142977D01*
X661047D01*
Y141047D01*
X668953D01*
Y148953D01*
X661047D01*
Y147023D01*
X655735D01*
X655575Y147497D01*
X655975Y147804D01*
X656451Y148424D01*
X656750Y149146D01*
X656852Y149921D01*
X656750Y150696D01*
X656451Y151418D01*
X655975Y152038D01*
X655355Y152514D01*
X654633Y152813D01*
X653858Y152915D01*
X653083Y152813D01*
X652361Y152514D01*
X651741Y152038D01*
X651265Y151418D01*
X651236Y151349D01*
X646619D01*
X646428Y151811D01*
X647131Y152514D01*
X647322Y152368D01*
X648044Y152068D01*
X648819Y151967D01*
X649594Y152068D01*
X650316Y152368D01*
X650936Y152843D01*
X651412Y153464D01*
X651711Y154186D01*
X651813Y154961D01*
X651711Y155736D01*
X651528Y156178D01*
X651924Y156482D01*
X652361Y156147D01*
X653083Y155848D01*
X653858Y155746D01*
X654633Y155848D01*
X655355Y156147D01*
X655975Y156623D01*
X656451Y157243D01*
X656750Y157965D01*
X656852Y158740D01*
X656750Y159515D01*
X656451Y160237D01*
X655975Y160857D01*
X655355Y161333D01*
X654633Y161632D01*
X653858Y161734D01*
X653083Y161632D01*
X652361Y161333D01*
X651924Y160998D01*
X651528Y161302D01*
X651711Y161745D01*
X651813Y162520D01*
X651711Y163295D01*
X651412Y164017D01*
X650936Y164637D01*
X650316Y165113D01*
X649594Y165412D01*
X648819Y165514D01*
X648044Y165412D01*
X647322Y165113D01*
X646885Y164778D01*
X646488Y165082D01*
X646672Y165524D01*
X646774Y166299D01*
X646672Y167074D01*
X646373Y167796D01*
X645897Y168416D01*
X645277Y168892D01*
X644555Y169191D01*
X643780Y169293D01*
X643005Y169191D01*
X642282Y168892D01*
X641662Y168416D01*
X641187Y167796D01*
X640887Y167074D01*
X640785Y166299D01*
X640887Y165524D01*
X640916Y165455D01*
X636889Y161427D01*
X632905D01*
X632714Y161889D01*
X635486Y164662D01*
X636221Y164565D01*
X636995Y164667D01*
X637717Y164966D01*
X638338Y165442D01*
X638813Y166062D01*
X639113Y166784D01*
X639215Y167559D01*
X639113Y168334D01*
X638813Y169056D01*
X638580Y169361D01*
X638801Y169809D01*
X658028D01*
X661341Y166496D01*
X661149Y166032D01*
X661013Y165000D01*
X661149Y163968D01*
X661547Y163007D01*
X662181Y162181D01*
X663007Y161547D01*
X663968Y161149D01*
X665000Y161013D01*
X666032Y161149D01*
X666993Y161547D01*
X667819Y162181D01*
X668453Y163007D01*
X668851Y163968D01*
X668987Y165000D01*
X668851Y166032D01*
X668453Y166993D01*
X667819Y167819D01*
X666993Y168453D01*
X666032Y168851D01*
X665000Y168987D01*
X663968Y168851D01*
X663504Y168659D01*
X659743Y172420D01*
X659247Y172751D01*
X658661Y172868D01*
X595905D01*
X595320Y172751D01*
X594824Y172420D01*
X594012Y171608D01*
X550600D01*
X550289Y172013D01*
X550594Y172409D01*
X551036Y172226D01*
X551811Y172124D01*
X552586Y172226D01*
X553308Y172525D01*
X553928Y173001D01*
X554379Y173589D01*
X661306D01*
X661547Y173007D01*
X662181Y172181D01*
X663007Y171547D01*
X663968Y171149D01*
X665000Y171013D01*
X666032Y171149D01*
X666993Y171547D01*
X667819Y172181D01*
X668453Y173007D01*
X668851Y173968D01*
X668987Y175000D01*
X668851Y176032D01*
X668453Y176993D01*
X667819Y177819D01*
X666993Y178453D01*
X666032Y178851D01*
X665000Y178987D01*
X663968Y178851D01*
X663007Y178453D01*
X662181Y177819D01*
X661547Y176993D01*
X661404Y176647D01*
X640566D01*
X640375Y177109D01*
X648640Y185375D01*
X648972Y185871D01*
X648972Y185871D01*
X648972Y185871D01*
X649088Y186457D01*
Y190188D01*
X649676Y190639D01*
X650152Y191259D01*
X650451Y191981D01*
X650553Y192756D01*
X650451Y193531D01*
X650152Y194253D01*
X649676Y194873D01*
X649056Y195349D01*
X648334Y195648D01*
X647559Y195750D01*
X646784Y195648D01*
X646062Y195349D01*
X645442Y194873D01*
X644966Y194253D01*
X644667Y193531D01*
X644589Y192936D01*
X644127Y192745D01*
X644017Y192829D01*
X643295Y193128D01*
X642520Y193230D01*
X641745Y193128D01*
X641023Y192829D01*
X640913Y192745D01*
X640451Y192936D01*
X640372Y193531D01*
X640073Y194253D01*
X639598Y194873D01*
X638977Y195349D01*
X638255Y195648D01*
X637480Y195750D01*
X636705Y195648D01*
X635983Y195349D01*
X635363Y194873D01*
X634887Y194253D01*
X634588Y193531D01*
X634510Y192936D01*
X634048Y192745D01*
X633938Y192829D01*
X633216Y193128D01*
X632629Y193206D01*
X632468Y193679D01*
X632623Y193834D01*
X633065Y194495D01*
X633220Y195276D01*
X633220Y195276D01*
X633220Y195276D01*
Y195276D01*
Y206957D01*
X633298Y207017D01*
X633774Y207637D01*
X634073Y208359D01*
X634175Y209134D01*
X634073Y209909D01*
X633774Y210631D01*
X633298Y211251D01*
X632678Y211727D01*
X631956Y212026D01*
X631181Y212128D01*
X630406Y212026D01*
X629684Y211727D01*
X629064Y211251D01*
X628588Y210631D01*
X628289Y209909D01*
X628187Y209134D01*
X628289Y208359D01*
X628588Y207637D01*
X629064Y207017D01*
X629142Y206957D01*
Y196120D01*
X622777Y189756D01*
X613128D01*
X607426Y195458D01*
X606765Y195900D01*
X605984Y196055D01*
X566586D01*
X566527Y196133D01*
X565906Y196609D01*
X565184Y196908D01*
X564409Y197010D01*
X563634Y196908D01*
X562912Y196609D01*
X562292Y196133D01*
X562232Y196055D01*
X511496D01*
X511496Y196055D01*
X510716Y195900D01*
X510054Y195458D01*
X510054Y195458D01*
X502495Y187899D01*
X502053Y187237D01*
X501898Y186457D01*
Y184884D01*
X501865Y184870D01*
X501039Y184237D01*
X500406Y183411D01*
X500007Y182449D01*
X499871Y181417D01*
X500007Y180385D01*
X500406Y179424D01*
X501039Y178598D01*
X501865Y177965D01*
X502826Y177566D01*
X503858Y177430D01*
X504890Y177566D01*
X505852Y177965D01*
X506677Y178598D01*
X507311Y179424D01*
X507709Y180385D01*
X507845Y181417D01*
X507709Y182449D01*
X507311Y183411D01*
X506677Y184237D01*
X505976Y184774D01*
Y185612D01*
X512341Y191977D01*
X536423D01*
Y183311D01*
X522477Y169364D01*
X521986Y169462D01*
X521949Y169550D01*
X527696Y175296D01*
X528027Y175793D01*
X528144Y176378D01*
X528144Y176378D01*
X528144Y176378D01*
Y176378D01*
Y181369D01*
X528731Y181820D01*
X529207Y182440D01*
X529506Y183162D01*
X529608Y183937D01*
X529506Y184712D01*
X529207Y185434D01*
X528731Y186054D01*
X528111Y186530D01*
X527389Y186829D01*
X526614Y186931D01*
X525839Y186829D01*
X525117Y186530D01*
X524497Y186054D01*
X524021Y185434D01*
X523722Y184712D01*
X523620Y183937D01*
X523722Y183162D01*
X524021Y182440D01*
X524497Y181820D01*
X525085Y181369D01*
Y177011D01*
X519682Y171608D01*
X377326D01*
X368955Y179979D01*
X368459Y180311D01*
X367874Y180427D01*
X354016D01*
X353431Y180311D01*
X353201Y180157D01*
X353141Y180117D01*
X352993Y180231D01*
X352271Y180530D01*
X351496Y180632D01*
X350721Y180530D01*
X349999Y180231D01*
X349379Y179755D01*
X348903Y179135D01*
X348604Y178413D01*
X348526Y177818D01*
X348064Y177627D01*
X347954Y177711D01*
X347232Y178010D01*
X346457Y178112D01*
X345722Y178015D01*
X338719Y185019D01*
X338223Y185350D01*
X337638Y185466D01*
X311230D01*
X310779Y186054D01*
X310158Y186530D01*
X309436Y186829D01*
X308661Y186931D01*
X307887Y186829D01*
X307164Y186530D01*
X306544Y186054D01*
X306068Y185434D01*
X305769Y184712D01*
X305667Y183937D01*
X305733Y183440D01*
X305379Y183086D01*
X304882Y183152D01*
X304107Y183050D01*
X303385Y182750D01*
X302765Y182275D01*
X302289Y181655D01*
X301990Y180932D01*
X301888Y180157D01*
X301990Y179383D01*
X302289Y178660D01*
X302765Y178040D01*
X303385Y177565D01*
X304107Y177265D01*
X304882Y177163D01*
X305657Y177265D01*
X306379Y177565D01*
X306999Y178040D01*
X307450Y178628D01*
X333225D01*
X339780Y172073D01*
X339683Y171339D01*
X339785Y170564D01*
X340084Y169842D01*
X340560Y169221D01*
X341180Y168746D01*
X341902Y168447D01*
X342677Y168344D01*
X343452Y168447D01*
X344174Y168746D01*
X344794Y169221D01*
X345270Y169842D01*
X345569Y170564D01*
X345671Y171339D01*
X345606Y171836D01*
X345959Y172189D01*
X346457Y172124D01*
X347232Y172226D01*
X347954Y172525D01*
X348574Y173001D01*
X349050Y173621D01*
X349349Y174343D01*
X349427Y174938D01*
X349889Y175129D01*
X349999Y175045D01*
X350721Y174746D01*
X351316Y174667D01*
X351507Y174206D01*
X351423Y174095D01*
X351124Y173373D01*
X351022Y172598D01*
X351124Y171824D01*
X351423Y171101D01*
X351899Y170481D01*
X352519Y170005D01*
X353241Y169706D01*
X354016Y169604D01*
X354791Y169706D01*
X355513Y170005D01*
X356133Y170481D01*
X356609Y171101D01*
X356908Y171824D01*
X356915Y171880D01*
X357415D01*
X357423Y171824D01*
X357722Y171101D01*
X358198Y170481D01*
X358818Y170005D01*
X359540Y169706D01*
X360315Y169604D01*
X361090Y169706D01*
X361812Y170005D01*
X361922Y170090D01*
X362384Y169898D01*
X362462Y169304D01*
X362761Y168582D01*
X363237Y167962D01*
X363857Y167486D01*
X364579Y167187D01*
X365174Y167108D01*
X365365Y166646D01*
X365281Y166536D01*
X364982Y165814D01*
X364880Y165039D01*
X364982Y164264D01*
X365281Y163542D01*
X365757Y162922D01*
X366377Y162446D01*
X367099Y162147D01*
X367874Y162045D01*
X368649Y162147D01*
X369371Y162446D01*
X369991Y162922D01*
X370467Y163542D01*
X370766Y164264D01*
X370868Y165039D01*
X370766Y165814D01*
X370467Y166536D01*
X369991Y167157D01*
X369371Y167632D01*
X368649Y167931D01*
X368054Y168010D01*
X367863Y168472D01*
X367947Y168582D01*
X368246Y169304D01*
X368349Y170079D01*
X368246Y170854D01*
X367947Y171576D01*
X367472Y172196D01*
X366851Y172672D01*
X366129Y172971D01*
X365354Y173073D01*
X364579Y172971D01*
X363857Y172672D01*
X363747Y172587D01*
X363285Y172779D01*
X363207Y173373D01*
X362908Y174095D01*
X362674Y174400D01*
X362895Y174849D01*
X365981D01*
X380651Y160178D01*
X381147Y159847D01*
X381732Y159730D01*
X403843D01*
X404035Y159268D01*
X399996Y155230D01*
X345830D01*
X338016Y163045D01*
X338112Y163779D01*
X338010Y164555D01*
X337711Y165277D01*
X337235Y165897D01*
X336615Y166373D01*
X335893Y166672D01*
X335118Y166774D01*
X334343Y166672D01*
X333621Y166373D01*
X333001Y165897D01*
X332525Y165277D01*
X332226Y164555D01*
X332124Y163779D01*
X332226Y163005D01*
X332525Y162283D01*
X333001Y161662D01*
X333621Y161187D01*
X334343Y160887D01*
X335118Y160785D01*
X335853Y160882D01*
X343664Y153070D01*
X343473Y152609D01*
X325775D01*
X292105Y186278D01*
X291609Y186610D01*
X291024Y186726D01*
X283953D01*
Y193953D01*
X276047D01*
Y186726D01*
X275197D01*
X274612Y186610D01*
X274115Y186278D01*
X271496Y183659D01*
X271032Y183851D01*
X270000Y183987D01*
X268968Y183851D01*
X268007Y183453D01*
X267181Y182819D01*
X266547Y181993D01*
X266355Y181529D01*
X262838D01*
X261057Y183311D01*
Y192756D01*
X260941Y193341D01*
X260609Y193837D01*
X220097Y234349D01*
X219601Y234681D01*
X219016Y234797D01*
X191945D01*
Y237221D01*
X178134D01*
Y234797D01*
X168323D01*
Y237221D01*
X154512D01*
Y229315D01*
X168323D01*
Y231738D01*
X178134D01*
Y229315D01*
X191945D01*
Y231738D01*
X218382D01*
X242421Y207700D01*
X242229Y207238D01*
X157480D01*
X156895Y207122D01*
X156399Y206790D01*
X135648Y186039D01*
X126953D01*
Y183616D01*
X117142D01*
Y186039D01*
X103331D01*
Y178134D01*
X117142D01*
Y180557D01*
X126953D01*
Y178134D01*
X140764D01*
Y186039D01*
X140627D01*
X140436Y186501D01*
X158114Y204179D01*
X242162D01*
X255479Y190863D01*
Y177638D01*
X255479Y177638D01*
X255479D01*
X255595Y177052D01*
X255926Y176556D01*
X258446Y174037D01*
X258942Y173705D01*
X259528Y173589D01*
X267406D01*
X267567Y173115D01*
X267181Y172819D01*
X266547Y171993D01*
X266149Y171032D01*
X266013Y170000D01*
X266149Y168968D01*
X266547Y168007D01*
X267181Y167181D01*
X267361Y167042D01*
X267201Y166569D01*
X257641D01*
X252238Y171972D01*
Y180157D01*
X252122Y180743D01*
X251790Y181239D01*
X250530Y182499D01*
X250034Y182830D01*
X249449Y182947D01*
X243126D01*
Y186039D01*
X229315D01*
Y183616D01*
X219504D01*
Y186039D01*
X205693D01*
Y178134D01*
X219504D01*
Y180557D01*
X229315D01*
Y178134D01*
X243126D01*
Y179888D01*
X248815D01*
X249179Y179524D01*
Y171339D01*
X249179Y171339D01*
X249179D01*
X249296Y170753D01*
X249627Y170257D01*
X255926Y163958D01*
X256423Y163626D01*
X257008Y163510D01*
X267303D01*
X267464Y163037D01*
X267181Y162819D01*
X266547Y161993D01*
X266355Y161529D01*
X262096D01*
X261645Y162117D01*
X261025Y162593D01*
X260302Y162892D01*
X259528Y162994D01*
X258753Y162892D01*
X258031Y162593D01*
X257410Y162117D01*
X256935Y161497D01*
X256635Y160775D01*
X256533Y160000D01*
X256635Y159225D01*
X256935Y158503D01*
X257410Y157883D01*
X258031Y157407D01*
X258753Y157108D01*
X259528Y157006D01*
X260302Y157108D01*
X261025Y157407D01*
X261645Y157883D01*
X262096Y158471D01*
X266355D01*
X266547Y158007D01*
X267181Y157181D01*
X267464Y156964D01*
X267303Y156490D01*
X257008D01*
X256423Y156374D01*
X255926Y156042D01*
X253855Y153970D01*
X204728D01*
X201844Y156854D01*
Y186457D01*
X201747Y186945D01*
X201728Y187042D01*
X201396Y187538D01*
X192578Y196357D01*
X192081Y196689D01*
X191496Y196805D01*
X158740D01*
X158155Y196689D01*
X157659Y196357D01*
X147580Y186278D01*
X147248Y185782D01*
X147132Y185197D01*
Y143661D01*
X147132Y143661D01*
X147132D01*
X147248Y143076D01*
X147580Y142580D01*
X154840Y135320D01*
X154648Y134858D01*
X154512D01*
Y126953D01*
X168323D01*
Y129376D01*
X178134D01*
Y126953D01*
X191945D01*
Y134858D01*
X178134D01*
Y132435D01*
X168323D01*
Y134858D01*
X159627D01*
X150191Y144295D01*
Y184563D01*
X159374Y193746D01*
X190863D01*
X198786Y185823D01*
Y181983D01*
X198324Y181792D01*
X196948Y183168D01*
X196451Y183500D01*
X195866Y183616D01*
X191945D01*
Y186039D01*
X178134D01*
Y183616D01*
X168323D01*
Y186039D01*
X154512D01*
Y178134D01*
X168323D01*
Y180557D01*
X178134D01*
Y178134D01*
X191945D01*
Y180557D01*
X195233D01*
X196266Y179524D01*
Y154961D01*
X196266Y154961D01*
X196266D01*
X196382Y154375D01*
X196714Y153879D01*
X201753Y148840D01*
X202249Y148508D01*
X202249Y148508D01*
X202249Y148508D01*
D01*
X202249Y148508D01*
X202249Y148508D01*
X202835Y148392D01*
X248815D01*
X254667Y142541D01*
X255163Y142209D01*
X255748Y142093D01*
X273622D01*
X274207Y142209D01*
X274704Y142541D01*
X274704Y142541D01*
X274704Y142541D01*
X278504Y146341D01*
X278968Y146149D01*
X280000Y146013D01*
X281032Y146149D01*
X281993Y146547D01*
X282819Y147181D01*
X282860Y147234D01*
X293561D01*
X293782Y146785D01*
X293470Y146379D01*
X293171Y145657D01*
X293069Y144882D01*
X293171Y144107D01*
X293470Y143385D01*
X293946Y142765D01*
X294566Y142289D01*
X295288Y141990D01*
X296063Y141888D01*
X296838Y141990D01*
X297560Y142289D01*
X298180Y142765D01*
X298656Y143385D01*
X298685Y143455D01*
X299860D01*
X300081Y143006D01*
X299769Y142599D01*
X299470Y141877D01*
X299368Y141102D01*
X299470Y140327D01*
X299769Y139605D01*
X300245Y138985D01*
X300865Y138509D01*
X301587Y138210D01*
X302362Y138108D01*
X303137Y138210D01*
X303859Y138509D01*
X304479Y138985D01*
X304955Y139605D01*
X304984Y139675D01*
X307419D01*
X307640Y139226D01*
X307328Y138820D01*
X307029Y138098D01*
X306927Y137323D01*
X307029Y136548D01*
X307212Y136106D01*
X306816Y135801D01*
X306379Y136136D01*
X305657Y136435D01*
X304882Y136537D01*
X304107Y136435D01*
X303385Y136136D01*
X302765Y135661D01*
X302289Y135040D01*
X301990Y134318D01*
X301888Y133543D01*
X301959Y132999D01*
X301511Y132778D01*
X290845Y143444D01*
X290349Y143775D01*
X289764Y143892D01*
X283513D01*
X283062Y144479D01*
X282442Y144955D01*
X281720Y145254D01*
X280945Y145356D01*
X280170Y145254D01*
X279448Y144955D01*
X278828Y144479D01*
X278352Y143859D01*
X278053Y143137D01*
X277951Y142362D01*
X278053Y141587D01*
X278352Y140865D01*
X278828Y140245D01*
X279448Y139769D01*
X280170Y139470D01*
X280945Y139368D01*
X281720Y139470D01*
X282442Y139769D01*
X283062Y140245D01*
X283513Y140833D01*
X289130D01*
X305060Y124903D01*
X305557Y124571D01*
X306142Y124455D01*
X335118D01*
X335278Y124487D01*
X335603Y124352D01*
X336378Y124250D01*
X337153Y124352D01*
X337875Y124651D01*
X338495Y125127D01*
X338971Y125747D01*
X339270Y126469D01*
X339372Y127244D01*
X339270Y128019D01*
X338971Y128741D01*
X338495Y129361D01*
X337875Y129837D01*
X337153Y130136D01*
X336378Y130238D01*
X335603Y130136D01*
X334881Y129837D01*
X334261Y129361D01*
X333785Y128741D01*
X333486Y128019D01*
X333419Y127514D01*
X306775D01*
X304117Y130172D01*
X304338Y130621D01*
X304882Y130549D01*
X305657Y130651D01*
X305982Y130786D01*
X306142Y130754D01*
X327511D01*
X327962Y130166D01*
X328582Y129691D01*
X329304Y129391D01*
X330079Y129289D01*
X330854Y129391D01*
X331576Y129691D01*
X332196Y130166D01*
X332672Y130786D01*
X332971Y131509D01*
X333073Y132283D01*
X332971Y133058D01*
X332672Y133781D01*
X332196Y134401D01*
X331576Y134876D01*
X330854Y135176D01*
X330079Y135278D01*
X329304Y135176D01*
X328582Y134876D01*
X327962Y134401D01*
X327511Y133813D01*
X307840D01*
X307774Y134318D01*
X307591Y134761D01*
X307987Y135065D01*
X308424Y134730D01*
X309146Y134431D01*
X309921Y134329D01*
X310696Y134431D01*
X311418Y134730D01*
X312038Y135206D01*
X312514Y135826D01*
X312543Y135895D01*
X314961D01*
X314961Y135895D01*
X315507Y136004D01*
X315970Y136313D01*
X319331Y139675D01*
X375266D01*
Y138685D01*
X375196Y138656D01*
X374576Y138180D01*
X374100Y137560D01*
X373801Y136838D01*
X373699Y136063D01*
X373801Y135288D01*
X374100Y134566D01*
X374576Y133946D01*
X375196Y133470D01*
X375918Y133171D01*
X376693Y133069D01*
X377468Y133171D01*
X378190Y133470D01*
X378300Y133554D01*
X378762Y133363D01*
X378840Y132768D01*
X379139Y132046D01*
X379615Y131426D01*
X380235Y130950D01*
X380957Y130651D01*
X381232Y130615D01*
Y133543D01*
X381732D01*
Y134043D01*
X384661D01*
X384624Y134318D01*
X384441Y134761D01*
X384838Y135065D01*
X385242Y134755D01*
Y130397D01*
X381911Y127066D01*
X381579Y126569D01*
X381463Y125984D01*
Y118474D01*
X380875Y118023D01*
X380399Y117403D01*
X380100Y116680D01*
X379998Y115905D01*
X380100Y115131D01*
X380399Y114408D01*
X380875Y113788D01*
X381495Y113312D01*
X382217Y113013D01*
X382992Y112911D01*
X383767Y113013D01*
X384489Y113312D01*
X385109Y113788D01*
X385585Y114408D01*
X385884Y115131D01*
X385986Y115905D01*
X385884Y116680D01*
X385585Y117403D01*
X385109Y118023D01*
X384522Y118474D01*
Y125351D01*
X387853Y128682D01*
X388185Y129179D01*
X388301Y129764D01*
X388301Y129764D01*
X388301Y129764D01*
Y129764D01*
Y134755D01*
X388705Y135065D01*
X389102Y134761D01*
X388919Y134318D01*
X388817Y133543D01*
X388919Y132768D01*
X389218Y132046D01*
X389694Y131426D01*
X390282Y130975D01*
Y126618D01*
X386950Y123286D01*
X386618Y122790D01*
X386502Y122205D01*
Y111500D01*
X386278Y111276D01*
X385997Y111239D01*
X385275Y110939D01*
X384654Y110464D01*
X384179Y109844D01*
X383880Y109121D01*
X383777Y108346D01*
X383880Y107571D01*
X384179Y106849D01*
X384654Y106229D01*
X385275Y105754D01*
X385997Y105454D01*
X386772Y105352D01*
X387547Y105454D01*
X388269Y105754D01*
X388889Y106229D01*
X389365Y106849D01*
X389630Y107490D01*
X390113Y107360D01*
X390077Y107087D01*
X390179Y106312D01*
X390478Y105590D01*
X390954Y104970D01*
X391488Y104560D01*
X391327Y104086D01*
X385097D01*
X368056Y121127D01*
X367394Y121569D01*
X366614Y121724D01*
X305727D01*
X290225Y137225D01*
X290238Y137323D01*
X290136Y138098D01*
X289837Y138820D01*
X289361Y139440D01*
X288741Y139916D01*
X288019Y140215D01*
X287244Y140317D01*
X286469Y140215D01*
X285747Y139916D01*
X285127Y139440D01*
X284651Y138820D01*
X284352Y138098D01*
X284250Y137323D01*
X284352Y136548D01*
X284651Y135826D01*
X285127Y135206D01*
X285747Y134730D01*
X286469Y134431D01*
X287244Y134329D01*
X287341Y134342D01*
X303440Y118243D01*
X303440D01*
X303440Y118243D01*
X303440Y118243D01*
Y118243D01*
X304101Y117801D01*
X304882Y117646D01*
X365770D01*
X382166Y101249D01*
X381975Y100787D01*
X105827D01*
X100787Y105827D01*
Y236850D01*
X105827Y241890D01*
X680315D01*
X685354Y236850D01*
D02*
G37*
G36*
X639549Y190056D02*
X639628Y189461D01*
X639927Y188739D01*
X640403Y188119D01*
X641023Y187643D01*
X641745Y187344D01*
X642520Y187242D01*
X643295Y187344D01*
X644017Y187643D01*
X644637Y188119D01*
X645113Y188739D01*
X645412Y189461D01*
X645490Y190056D01*
X645614Y190107D01*
X646030Y189830D01*
Y187090D01*
X635862Y176923D01*
X635372Y177021D01*
X635335Y177109D01*
X638562Y180336D01*
X638893Y180832D01*
X639010Y181417D01*
Y189830D01*
X639425Y190107D01*
X639549Y190056D01*
D02*
G37*
G36*
X651265Y148424D02*
X651741Y147804D01*
X652142Y147497D01*
X651981Y147023D01*
X640118D01*
X639344Y146869D01*
X638688Y146431D01*
X626564Y134307D01*
X511074D01*
X504396Y140985D01*
X504411Y141102D01*
X504309Y141877D01*
X504010Y142599D01*
X503535Y143219D01*
X503001Y143629D01*
X503161Y144103D01*
X614825D01*
X615898Y143029D01*
Y139567D01*
X616021Y138638D01*
X616379Y137772D01*
X616950Y137029D01*
X617693Y136458D01*
X618559Y136100D01*
X619488Y135977D01*
X620417Y136100D01*
X621283Y136458D01*
X622026Y137029D01*
X622597Y137772D01*
X622956Y138638D01*
X623078Y139567D01*
Y145079D01*
X622956Y146008D01*
X622597Y146874D01*
X622026Y147617D01*
X621501Y148020D01*
X621662Y148494D01*
X651236D01*
X651265Y148424D01*
D02*
G37*
G36*
X474811Y122257D02*
X474588Y121720D01*
X474486Y120945D01*
X474588Y120170D01*
X474887Y119448D01*
X475363Y118828D01*
X475983Y118352D01*
X476030Y118333D01*
Y106549D01*
X475864Y106480D01*
X475161Y105941D01*
X474622Y105239D01*
X474283Y104421D01*
X474266Y104287D01*
X473766D01*
X473748Y104421D01*
X473409Y105239D01*
X472870Y105941D01*
X472168Y106480D01*
X471350Y106819D01*
X470472Y106934D01*
X469595Y106819D01*
X468777Y106480D01*
X468075Y105941D01*
X467536Y105239D01*
X467197Y104421D01*
X467179Y104287D01*
X466679D01*
X466662Y104421D01*
X466323Y105239D01*
X465784Y105941D01*
X465425Y106217D01*
Y110866D01*
Y113565D01*
X474395Y122535D01*
X474811Y122257D01*
D02*
G37*
G36*
X461347Y106217D02*
X460988Y105941D01*
X460449Y105239D01*
X460110Y104421D01*
X460092Y104287D01*
X459592D01*
X459575Y104421D01*
X459236Y105239D01*
X458697Y105941D01*
X457995Y106480D01*
X457177Y106819D01*
X456799Y106869D01*
Y103543D01*
X455799D01*
Y106869D01*
X455421Y106819D01*
X454604Y106480D01*
X453901Y105941D01*
X453362Y105239D01*
X453024Y104421D01*
X453006Y104287D01*
X452506D01*
X452488Y104421D01*
X452149Y105239D01*
X451611Y105941D01*
X450908Y106480D01*
X450090Y106819D01*
X449213Y106934D01*
X448335Y106819D01*
X447517Y106480D01*
X446815Y105941D01*
X446276Y105239D01*
X445937Y104421D01*
X445919Y104287D01*
X445419D01*
X445402Y104421D01*
X445063Y105239D01*
X444524Y105941D01*
X443822Y106480D01*
X443004Y106819D01*
X442126Y106934D01*
X441248Y106819D01*
X440430Y106480D01*
X439728Y105941D01*
X439189Y105239D01*
X438850Y104421D01*
X438833Y104287D01*
X438333D01*
X438315Y104421D01*
X437976Y105239D01*
X437437Y105941D01*
X436735Y106480D01*
X435917Y106819D01*
X435039Y106934D01*
X434162Y106819D01*
X433344Y106480D01*
X432641Y105941D01*
X432102Y105239D01*
X431764Y104421D01*
X431746Y104287D01*
X431246D01*
X431228Y104421D01*
X430890Y105239D01*
X430351Y105941D01*
X429648Y106480D01*
X428830Y106819D01*
X427953Y106934D01*
X427075Y106819D01*
X426257Y106480D01*
X425555Y105941D01*
X425016Y105239D01*
X424677Y104421D01*
X424659Y104287D01*
X424159D01*
X424142Y104421D01*
X423803Y105239D01*
X423264Y105941D01*
X422562Y106480D01*
X421744Y106819D01*
X420866Y106934D01*
X419988Y106819D01*
X419171Y106480D01*
X418468Y105941D01*
X417929Y105239D01*
X417591Y104421D01*
X417475Y103543D01*
X417591Y102666D01*
X417929Y101848D01*
X418399Y101236D01*
X418178Y100787D01*
X407947D01*
X407755Y101249D01*
X415333Y108827D01*
X461347D01*
Y106217D01*
D02*
G37*
G36*
X546397Y180686D02*
X544430Y178719D01*
X544099Y178223D01*
X543982Y177638D01*
Y172598D01*
X543982Y172598D01*
X543982D01*
X544099Y172013D01*
X544430Y171517D01*
X545134Y170813D01*
X545037Y170079D01*
X545139Y169304D01*
X545438Y168582D01*
X545914Y167962D01*
X546534Y167486D01*
X547257Y167187D01*
X548032Y167085D01*
X548806Y167187D01*
X549529Y167486D01*
X550149Y167962D01*
X550600Y168549D01*
X594646D01*
X595231Y168666D01*
X595727Y168997D01*
X595727Y168997D01*
X595727Y168997D01*
X596539Y169809D01*
X633640D01*
X633861Y169361D01*
X633628Y169056D01*
X633328Y168334D01*
X633226Y167559D01*
X633323Y166824D01*
X630548Y164049D01*
X525920D01*
X525729Y164511D01*
X542366Y181148D01*
X546206D01*
X546397Y180686D01*
D02*
G37*
G36*
X494252Y148248D02*
X493928Y147867D01*
X493858Y147876D01*
X493083Y147774D01*
X492361Y147475D01*
X491741Y146999D01*
X491265Y146379D01*
X490966Y145657D01*
X490864Y144882D01*
X490877Y144784D01*
X461944Y115851D01*
X461502Y115190D01*
X461347Y114409D01*
Y112905D01*
X414488D01*
X413708Y112750D01*
X413046Y112308D01*
X404825Y104086D01*
X394815D01*
X394654Y104560D01*
X395188Y104970D01*
X395664Y105590D01*
X395963Y106312D01*
X396065Y107087D01*
X395963Y107862D01*
X395664Y108584D01*
X395188Y109204D01*
X394568Y109680D01*
X393928Y109945D01*
X394057Y110428D01*
X394331Y110392D01*
X395106Y110494D01*
X395828Y110793D01*
X396448Y111269D01*
X396924Y111889D01*
X397223Y112611D01*
X397325Y113386D01*
X397223Y114161D01*
X396924Y114883D01*
X396448Y115503D01*
X395860Y115954D01*
Y121571D01*
X405491Y131202D01*
X405822Y131698D01*
X405939Y132283D01*
Y134755D01*
X406527Y135206D01*
X407002Y135826D01*
X407302Y136548D01*
X407404Y137323D01*
X407302Y138098D01*
X407002Y138820D01*
X406690Y139226D01*
X406912Y139675D01*
X419527D01*
X419528Y139675D01*
X420074Y139784D01*
X420537Y140093D01*
X424946Y144502D01*
X424946Y144502D01*
X425132Y144780D01*
X425256Y144966D01*
X425364Y145512D01*
X425364Y145512D01*
X425364Y145512D01*
Y145512D01*
Y147440D01*
X426418Y148494D01*
X494177D01*
X494252Y148248D01*
D02*
G37*
G36*
X402129Y139226D02*
X401817Y138820D01*
X401517Y138098D01*
X401415Y137323D01*
X401451Y137049D01*
X400968Y136920D01*
X400703Y137560D01*
X400227Y138180D01*
X399607Y138656D01*
X398885Y138955D01*
X398110Y139057D01*
X397335Y138955D01*
X396613Y138656D01*
X395993Y138180D01*
X395517Y137560D01*
X395218Y136838D01*
X395116Y136063D01*
X395218Y135288D01*
X395517Y134566D01*
X395993Y133946D01*
X396581Y133495D01*
Y129446D01*
X393802Y126668D01*
X393340Y126859D01*
Y130975D01*
X393928Y131426D01*
X394404Y132046D01*
X394703Y132768D01*
X394805Y133543D01*
X394703Y134318D01*
X394404Y135040D01*
X393928Y135661D01*
X393308Y136136D01*
X392586Y136435D01*
X391811Y136537D01*
X391036Y136435D01*
X390314Y136136D01*
X389877Y135801D01*
X389480Y136106D01*
X389664Y136548D01*
X389766Y137323D01*
X389664Y138098D01*
X389365Y138820D01*
X389053Y139226D01*
X389274Y139675D01*
X401907D01*
X402129Y139226D01*
D02*
G37*
%LPC*%
G36*
X235720Y163870D02*
X229315D01*
Y160417D01*
X235720D01*
Y163870D01*
D02*
G37*
G36*
X243126D02*
X236720D01*
Y160417D01*
X243126D01*
Y163870D01*
D02*
G37*
G36*
X212098D02*
X205693D01*
Y160417D01*
X212098D01*
Y163870D01*
D02*
G37*
G36*
X219504D02*
X213098D01*
Y160417D01*
X219504D01*
Y163870D01*
D02*
G37*
G36*
X121705Y163279D02*
X119276D01*
X119313Y163005D01*
X119612Y162283D01*
X120088Y161662D01*
X120708Y161187D01*
X121430Y160887D01*
X121705Y160851D01*
Y163279D01*
D02*
G37*
G36*
X176787D02*
X174358D01*
Y160851D01*
X174633Y160887D01*
X175355Y161187D01*
X175975Y161662D01*
X176451Y162283D01*
X176750Y163005D01*
X176787Y163279D01*
D02*
G37*
G36*
X225012D02*
X222584D01*
X222620Y163005D01*
X222919Y162283D01*
X223395Y161662D01*
X224015Y161187D01*
X224737Y160887D01*
X225012Y160851D01*
Y163279D01*
D02*
G37*
G36*
X125133D02*
X122705D01*
Y160851D01*
X122980Y160887D01*
X123702Y161187D01*
X124322Y161662D01*
X124798Y162283D01*
X125097Y163005D01*
X125133Y163279D01*
D02*
G37*
G36*
X173358D02*
X170930D01*
X170966Y163005D01*
X171265Y162283D01*
X171741Y161662D01*
X172361Y161187D01*
X173083Y160887D01*
X173358Y160851D01*
Y163279D01*
D02*
G37*
G36*
X191945Y163870D02*
X185539D01*
Y160417D01*
X191945D01*
Y163870D01*
D02*
G37*
G36*
X109736D02*
X103331D01*
Y160417D01*
X109736D01*
Y163870D01*
D02*
G37*
G36*
X117142D02*
X110736D01*
Y160417D01*
X117142D01*
Y163870D01*
D02*
G37*
G36*
X664500Y158921D02*
X663968Y158851D01*
X663007Y158453D01*
X662181Y157819D01*
X661547Y156993D01*
X661149Y156032D01*
X661079Y155500D01*
X664500D01*
Y158921D01*
D02*
G37*
G36*
X665500D02*
Y155500D01*
X668921D01*
X668851Y156032D01*
X668453Y156993D01*
X667819Y157819D01*
X666993Y158453D01*
X666032Y158851D01*
X665500Y158921D01*
D02*
G37*
G36*
X133358Y163870D02*
X126953D01*
Y160417D01*
X133358D01*
Y163870D01*
D02*
G37*
G36*
X168323D02*
X161917D01*
Y160417D01*
X168323D01*
Y163870D01*
D02*
G37*
G36*
X184539D02*
X178134D01*
Y160417D01*
X184539D01*
Y163870D01*
D02*
G37*
G36*
X140764D02*
X134358D01*
Y160417D01*
X140764D01*
Y163870D01*
D02*
G37*
G36*
X160917D02*
X154512D01*
Y160417D01*
X160917D01*
Y163870D01*
D02*
G37*
G36*
X228440Y163279D02*
X226012D01*
Y160851D01*
X226287Y160887D01*
X227009Y161187D01*
X227629Y161662D01*
X228105Y162283D01*
X228404Y163005D01*
X228440Y163279D01*
D02*
G37*
G36*
X160917Y168323D02*
X154512D01*
Y164870D01*
X160917D01*
Y168323D01*
D02*
G37*
G36*
X168323D02*
X161917D01*
Y164870D01*
X168323D01*
Y168323D01*
D02*
G37*
G36*
X133358D02*
X126953D01*
Y164870D01*
X133358D01*
Y168323D01*
D02*
G37*
G36*
X140764D02*
X134358D01*
Y164870D01*
X140764D01*
Y168323D01*
D02*
G37*
G36*
X184539D02*
X178134D01*
Y164870D01*
X184539D01*
Y168323D01*
D02*
G37*
G36*
X219504D02*
X213098D01*
Y164870D01*
X219504D01*
Y168323D01*
D02*
G37*
G36*
X235720D02*
X229315D01*
Y164870D01*
X235720D01*
Y168323D01*
D02*
G37*
G36*
X191945D02*
X185539D01*
Y164870D01*
X191945D01*
Y168323D01*
D02*
G37*
G36*
X212098D02*
X205693D01*
Y164870D01*
X212098D01*
Y168323D01*
D02*
G37*
G36*
X117142D02*
X110736D01*
Y164870D01*
X117142D01*
Y168323D01*
D02*
G37*
G36*
X121705Y166708D02*
X121430Y166672D01*
X120708Y166373D01*
X120088Y165897D01*
X119612Y165277D01*
X119313Y164555D01*
X119276Y164279D01*
X121705D01*
Y166708D01*
D02*
G37*
G36*
X122705D02*
Y164279D01*
X125133D01*
X125097Y164555D01*
X124798Y165277D01*
X124322Y165897D01*
X123702Y166373D01*
X122980Y166672D01*
X122705Y166708D01*
D02*
G37*
G36*
X675000Y168987D02*
X673968Y168851D01*
X673007Y168453D01*
X672181Y167819D01*
X671547Y166993D01*
X671149Y166032D01*
X671013Y165000D01*
X671149Y163968D01*
X671547Y163007D01*
X672181Y162181D01*
X673007Y161547D01*
X673968Y161149D01*
X675000Y161013D01*
X676032Y161149D01*
X676993Y161547D01*
X677819Y162181D01*
X678453Y163007D01*
X678851Y163968D01*
X678987Y165000D01*
X678851Y166032D01*
X678453Y166993D01*
X677819Y167819D01*
X676993Y168453D01*
X676032Y168851D01*
X675000Y168987D01*
D02*
G37*
G36*
X383256Y235732D02*
Y232311D01*
X386677D01*
X386607Y232843D01*
X386209Y233804D01*
X385575Y234630D01*
X384749Y235264D01*
X383788Y235662D01*
X383256Y235732D01*
D02*
G37*
G36*
X173358Y166708D02*
X173083Y166672D01*
X172361Y166373D01*
X171741Y165897D01*
X171265Y165277D01*
X170966Y164555D01*
X170930Y164279D01*
X173358D01*
Y166708D01*
D02*
G37*
G36*
X226012D02*
Y164279D01*
X228440D01*
X228404Y164555D01*
X228105Y165277D01*
X227629Y165897D01*
X227009Y166373D01*
X226287Y166672D01*
X226012Y166708D01*
D02*
G37*
G36*
X109736Y168323D02*
X103331D01*
Y164870D01*
X109736D01*
Y168323D01*
D02*
G37*
G36*
X174358Y166708D02*
Y164279D01*
X176787D01*
X176750Y164555D01*
X176451Y165277D01*
X175975Y165897D01*
X175355Y166373D01*
X174633Y166672D01*
X174358Y166708D01*
D02*
G37*
G36*
X225012D02*
X224737Y166672D01*
X224015Y166373D01*
X223395Y165897D01*
X222919Y165277D01*
X222620Y164555D01*
X222584Y164279D01*
X225012D01*
Y166708D01*
D02*
G37*
G36*
X176787Y112886D02*
X174358D01*
Y110458D01*
X174633Y110494D01*
X175355Y110793D01*
X175975Y111269D01*
X176451Y111889D01*
X176750Y112611D01*
X176787Y112886D01*
D02*
G37*
G36*
X411469Y115405D02*
X409040D01*
X409076Y115131D01*
X409375Y114408D01*
X409851Y113788D01*
X410471Y113312D01*
X411194Y113013D01*
X411469Y112977D01*
Y115405D01*
D02*
G37*
G36*
X191945Y112689D02*
X185539D01*
Y109236D01*
X191945D01*
Y112689D01*
D02*
G37*
G36*
X173358Y112886D02*
X170930D01*
X170966Y112611D01*
X171265Y111889D01*
X171741Y111269D01*
X172361Y110793D01*
X173083Y110494D01*
X173358Y110458D01*
Y112886D01*
D02*
G37*
G36*
X414897Y115405D02*
X412468D01*
Y112977D01*
X412743Y113013D01*
X413466Y113312D01*
X414086Y113788D01*
X414562Y114408D01*
X414861Y115131D01*
X414897Y115405D01*
D02*
G37*
G36*
X184539Y117142D02*
X178134D01*
Y113689D01*
X184539D01*
Y117142D01*
D02*
G37*
G36*
X191945D02*
X185539D01*
Y113689D01*
X191945D01*
Y117142D01*
D02*
G37*
G36*
X160917D02*
X154512D01*
Y113689D01*
X160917D01*
Y117142D01*
D02*
G37*
G36*
X168323D02*
X161917D01*
Y113689D01*
X168323D01*
Y117142D01*
D02*
G37*
G36*
X184539Y112689D02*
X178134D01*
Y109236D01*
X184539D01*
Y112689D01*
D02*
G37*
G36*
X582677Y239612D02*
X581800Y239496D01*
X580982Y239157D01*
X580279Y238618D01*
X579740Y237916D01*
X579401Y237098D01*
X579384Y236964D01*
X578884D01*
X578866Y237098D01*
X578527Y237916D01*
X577988Y238618D01*
X577286Y239157D01*
X576468Y239496D01*
X575591Y239612D01*
X574713Y239496D01*
X573895Y239157D01*
X573193Y238618D01*
X572654Y237916D01*
X572315Y237098D01*
X572199Y236221D01*
X572315Y235343D01*
X572654Y234525D01*
X573193Y233822D01*
X573895Y233284D01*
X574713Y232945D01*
X575591Y232829D01*
X576468Y232945D01*
X577286Y233284D01*
X577988Y233822D01*
X578527Y234525D01*
X578866Y235343D01*
X578884Y235477D01*
X579384D01*
X579401Y235343D01*
X579740Y234525D01*
X580279Y233822D01*
X580982Y233284D01*
X581800Y232945D01*
X582677Y232829D01*
X583555Y232945D01*
X584373Y233284D01*
X585075Y233822D01*
X585614Y234525D01*
X585953Y235343D01*
X586068Y236221D01*
X585953Y237098D01*
X585614Y237916D01*
X585075Y238618D01*
X584373Y239157D01*
X583555Y239496D01*
X582677Y239612D01*
D02*
G37*
G36*
X329921D02*
X329044Y239496D01*
X328226Y239157D01*
X327523Y238618D01*
X326984Y237916D01*
X326646Y237098D01*
X326628Y236964D01*
X326128D01*
X326110Y237098D01*
X325771Y237916D01*
X325233Y238618D01*
X324530Y239157D01*
X323712Y239496D01*
X322835Y239612D01*
X321957Y239496D01*
X321139Y239157D01*
X320437Y238618D01*
X319898Y237916D01*
X319559Y237098D01*
X319443Y236221D01*
X319559Y235343D01*
X319898Y234525D01*
X320437Y233822D01*
X321139Y233284D01*
X321957Y232945D01*
X322835Y232829D01*
X323712Y232945D01*
X324530Y233284D01*
X325233Y233822D01*
X325771Y234525D01*
X326110Y235343D01*
X326128Y235477D01*
X326628D01*
X326646Y235343D01*
X326984Y234525D01*
X327523Y233822D01*
X328226Y233284D01*
X329044Y232945D01*
X329921Y232829D01*
X330799Y232945D01*
X331617Y233284D01*
X332319Y233822D01*
X332858Y234525D01*
X333197Y235343D01*
X333313Y236221D01*
X333197Y237098D01*
X332858Y237916D01*
X332319Y238618D01*
X331617Y239157D01*
X330799Y239496D01*
X329921Y239612D01*
D02*
G37*
G36*
X296457Y113641D02*
X295168Y113471D01*
X293967Y112974D01*
X292936Y112182D01*
X292144Y111151D01*
X291647Y109950D01*
X291477Y108661D01*
X291647Y107373D01*
X292144Y106172D01*
X292936Y105140D01*
X293967Y104349D01*
X295168Y103851D01*
X296457Y103682D01*
X297745Y103851D01*
X298946Y104349D01*
X299978Y105140D01*
X300769Y106172D01*
X301267Y107373D01*
X301436Y108661D01*
X301267Y109950D01*
X300769Y111151D01*
X299978Y112182D01*
X298946Y112974D01*
X297745Y113471D01*
X296457Y113641D01*
D02*
G37*
G36*
X619291D02*
X618003Y113471D01*
X616802Y112974D01*
X615770Y112182D01*
X614979Y111151D01*
X614481Y109950D01*
X614312Y108661D01*
X614481Y107373D01*
X614979Y106172D01*
X615770Y105140D01*
X616802Y104349D01*
X618003Y103851D01*
X619291Y103682D01*
X620580Y103851D01*
X621781Y104349D01*
X622813Y105140D01*
X623604Y106172D01*
X624101Y107373D01*
X624271Y108661D01*
X624101Y109950D01*
X623604Y111151D01*
X622813Y112182D01*
X621781Y112974D01*
X620580Y113471D01*
X619291Y113641D01*
D02*
G37*
G36*
X118110Y127027D02*
X116371Y126856D01*
X114698Y126348D01*
X113156Y125524D01*
X111805Y124416D01*
X110696Y123064D01*
X109872Y121523D01*
X109365Y119850D01*
X109193Y118110D01*
X109365Y116371D01*
X109872Y114698D01*
X110696Y113156D01*
X111805Y111805D01*
X113156Y110696D01*
X114698Y109872D01*
X116371Y109365D01*
X118110Y109193D01*
X119850Y109365D01*
X121523Y109872D01*
X123064Y110696D01*
X124416Y111805D01*
X125524Y113156D01*
X126348Y114698D01*
X126856Y116371D01*
X127027Y118110D01*
X126856Y119850D01*
X126348Y121523D01*
X125524Y123064D01*
X124416Y124416D01*
X123064Y125524D01*
X121523Y126348D01*
X119850Y126856D01*
X118110Y127027D01*
D02*
G37*
G36*
X160917Y112689D02*
X154512D01*
Y109236D01*
X160917D01*
Y112689D01*
D02*
G37*
G36*
X168323D02*
X161917D01*
Y109236D01*
X168323D01*
Y112689D01*
D02*
G37*
G36*
X275590Y127027D02*
X273851Y126856D01*
X272178Y126348D01*
X270637Y125524D01*
X269285Y124416D01*
X268176Y123064D01*
X267352Y121523D01*
X266845Y119850D01*
X266674Y118110D01*
X266845Y116371D01*
X267352Y114698D01*
X268176Y113156D01*
X269285Y111805D01*
X270637Y110696D01*
X272178Y109872D01*
X273851Y109365D01*
X275590Y109193D01*
X277330Y109365D01*
X279003Y109872D01*
X280544Y110696D01*
X281896Y111805D01*
X283005Y113156D01*
X283829Y114698D01*
X284336Y116371D01*
X284507Y118110D01*
X284336Y119850D01*
X283829Y121523D01*
X283005Y123064D01*
X281896Y124416D01*
X280544Y125524D01*
X279003Y126348D01*
X277330Y126856D01*
X275590Y127027D01*
D02*
G37*
G36*
X673228D02*
X671489Y126856D01*
X669816Y126348D01*
X668274Y125524D01*
X666923Y124416D01*
X665814Y123064D01*
X664990Y121523D01*
X664483Y119850D01*
X664311Y118110D01*
X664483Y116371D01*
X664990Y114698D01*
X665814Y113156D01*
X666923Y111805D01*
X668274Y110696D01*
X669816Y109872D01*
X671489Y109365D01*
X673228Y109193D01*
X674968Y109365D01*
X676641Y109872D01*
X678182Y110696D01*
X679534Y111805D01*
X680643Y113156D01*
X681466Y114698D01*
X681974Y116371D01*
X682145Y118110D01*
X681974Y119850D01*
X681466Y121523D01*
X680643Y123064D01*
X679534Y124416D01*
X678182Y125524D01*
X676641Y126348D01*
X674968Y126856D01*
X673228Y127027D01*
D02*
G37*
G36*
X173358Y116314D02*
X173083Y116278D01*
X172361Y115979D01*
X171741Y115503D01*
X171265Y114883D01*
X170966Y114161D01*
X170930Y113886D01*
X173358D01*
Y116314D01*
D02*
G37*
G36*
X548791Y141511D02*
X548516Y141475D01*
X547794Y141176D01*
X547174Y140700D01*
X546698Y140080D01*
X546399Y139358D01*
X546363Y139083D01*
X548791D01*
Y141511D01*
D02*
G37*
G36*
X549791D02*
Y139083D01*
X552220D01*
X552183Y139358D01*
X551884Y140080D01*
X551408Y140700D01*
X550788Y141176D01*
X550066Y141475D01*
X549791Y141511D01*
D02*
G37*
G36*
X632441Y239844D02*
X631666Y239742D01*
X630944Y239443D01*
X630324Y238967D01*
X629848Y238347D01*
X629549Y237625D01*
X629447Y236850D01*
X629549Y236075D01*
X629848Y235353D01*
X630324Y234733D01*
X630944Y234257D01*
X631666Y233958D01*
X632441Y233856D01*
X633216Y233958D01*
X633938Y234257D01*
X634558Y234733D01*
X635034Y235353D01*
X635333Y236075D01*
X635435Y236850D01*
X635333Y237625D01*
X635034Y238347D01*
X634558Y238967D01*
X633938Y239443D01*
X633216Y239742D01*
X632441Y239844D01*
D02*
G37*
G36*
X422547Y234739D02*
Y232311D01*
X424975D01*
X424939Y232586D01*
X424640Y233308D01*
X424164Y233928D01*
X423544Y234404D01*
X422822Y234703D01*
X422547Y234739D01*
D02*
G37*
G36*
X675000Y148987D02*
X673968Y148851D01*
X673007Y148453D01*
X672181Y147819D01*
X671547Y146993D01*
X671149Y146032D01*
X671013Y145000D01*
X671149Y143968D01*
X671547Y143007D01*
X672181Y142181D01*
X673007Y141547D01*
X673968Y141149D01*
X675000Y141013D01*
X676032Y141149D01*
X676993Y141547D01*
X677819Y142181D01*
X678453Y143007D01*
X678851Y143968D01*
X678987Y145000D01*
X678851Y146032D01*
X678453Y146993D01*
X677819Y147819D01*
X676993Y148453D01*
X676032Y148851D01*
X675000Y148987D01*
D02*
G37*
G36*
X664500Y154500D02*
X661079D01*
X661149Y153968D01*
X661547Y153007D01*
X662181Y152181D01*
X663007Y151547D01*
X663968Y151149D01*
X664500Y151079D01*
Y154500D01*
D02*
G37*
G36*
X668921D02*
X665500D01*
Y151079D01*
X666032Y151149D01*
X666993Y151547D01*
X667819Y152181D01*
X668453Y153007D01*
X668851Y153968D01*
X668921Y154500D01*
D02*
G37*
G36*
X421547Y234739D02*
X421272Y234703D01*
X420550Y234404D01*
X419930Y233928D01*
X419454Y233308D01*
X419155Y232586D01*
X419119Y232311D01*
X421547D01*
Y234739D01*
D02*
G37*
G36*
X675000Y158987D02*
X673968Y158851D01*
X673007Y158453D01*
X672181Y157819D01*
X671547Y156993D01*
X671149Y156032D01*
X671013Y155000D01*
X671149Y153968D01*
X671547Y153007D01*
X672181Y152181D01*
X673007Y151547D01*
X673968Y151149D01*
X675000Y151013D01*
X676032Y151149D01*
X676993Y151547D01*
X677819Y152181D01*
X678453Y153007D01*
X678851Y153968D01*
X678987Y155000D01*
X678851Y156032D01*
X678453Y156993D01*
X677819Y157819D01*
X676993Y158453D01*
X676032Y158851D01*
X675000Y158987D01*
D02*
G37*
G36*
X552220Y138083D02*
X549791D01*
Y135654D01*
X550066Y135691D01*
X550788Y135990D01*
X551408Y136466D01*
X551884Y137086D01*
X552183Y137808D01*
X552220Y138083D01*
D02*
G37*
G36*
X412468Y118834D02*
Y116405D01*
X414897D01*
X414861Y116680D01*
X414562Y117403D01*
X414086Y118023D01*
X413466Y118499D01*
X412743Y118798D01*
X412468Y118834D01*
D02*
G37*
G36*
X455563Y122965D02*
X453135D01*
X453171Y122690D01*
X453470Y121967D01*
X453946Y121347D01*
X454566Y120872D01*
X455288Y120572D01*
X455563Y120536D01*
Y122965D01*
D02*
G37*
G36*
X174358Y116314D02*
Y113886D01*
X176787D01*
X176750Y114161D01*
X176451Y114883D01*
X175975Y115503D01*
X175355Y115979D01*
X174633Y116278D01*
X174358Y116314D01*
D02*
G37*
G36*
X411469Y118834D02*
X411194Y118798D01*
X410471Y118499D01*
X409851Y118023D01*
X409375Y117403D01*
X409076Y116680D01*
X409040Y116405D01*
X411469D01*
Y118834D01*
D02*
G37*
G36*
X458991Y122965D02*
X456563D01*
Y120536D01*
X456838Y120572D01*
X457560Y120872D01*
X458180Y121347D01*
X458656Y121967D01*
X458955Y122690D01*
X458991Y122965D01*
D02*
G37*
G36*
X384661Y133043D02*
X382232D01*
Y130615D01*
X382507Y130651D01*
X383229Y130950D01*
X383849Y131426D01*
X384325Y132046D01*
X384624Y132768D01*
X384661Y133043D01*
D02*
G37*
G36*
X548791Y138083D02*
X546363D01*
X546399Y137808D01*
X546698Y137086D01*
X547174Y136466D01*
X547794Y135990D01*
X548516Y135691D01*
X548791Y135654D01*
Y138083D01*
D02*
G37*
G36*
X455563Y126393D02*
X455288Y126357D01*
X454566Y126058D01*
X453946Y125582D01*
X453470Y124962D01*
X453171Y124240D01*
X453135Y123965D01*
X455563D01*
Y126393D01*
D02*
G37*
G36*
X456563D02*
Y123965D01*
X458991D01*
X458955Y124240D01*
X458656Y124962D01*
X458180Y125582D01*
X457560Y126058D01*
X456838Y126357D01*
X456563Y126393D01*
D02*
G37*
G36*
X176787Y214933D02*
X174358D01*
Y212505D01*
X174633Y212541D01*
X175355Y212840D01*
X175975Y213316D01*
X176451Y213936D01*
X176750Y214658D01*
X176787Y214933D01*
D02*
G37*
G36*
X615563Y216193D02*
X613135D01*
X613171Y215918D01*
X613470Y215196D01*
X613946Y214576D01*
X614566Y214100D01*
X615288Y213801D01*
X615563Y213765D01*
Y216193D01*
D02*
G37*
G36*
X432626Y214582D02*
Y212154D01*
X435054D01*
X435018Y212428D01*
X434719Y213151D01*
X434243Y213771D01*
X433623Y214247D01*
X432901Y214546D01*
X432626Y214582D01*
D02*
G37*
G36*
X173358Y214933D02*
X170930D01*
X170966Y214658D01*
X171265Y213936D01*
X171741Y213316D01*
X172361Y212840D01*
X173083Y212541D01*
X173358Y212505D01*
Y214933D01*
D02*
G37*
G36*
X618991Y216193D02*
X616563D01*
Y213765D01*
X616838Y213801D01*
X617560Y214100D01*
X618180Y214576D01*
X618656Y215196D01*
X618955Y215918D01*
X618991Y216193D01*
D02*
G37*
G36*
X381142Y223398D02*
X380059Y223255D01*
X379049Y222837D01*
X378182Y222172D01*
X377517Y221305D01*
X377099Y220296D01*
X376956Y219213D01*
X377099Y218129D01*
X377517Y217120D01*
X378182Y216253D01*
X379049Y215588D01*
X380059Y215170D01*
X381142Y215027D01*
X382225Y215170D01*
X383234Y215588D01*
X384101Y216253D01*
X384766Y217120D01*
X385185Y218129D01*
X385327Y219213D01*
X385185Y220296D01*
X384766Y221305D01*
X384101Y222172D01*
X383234Y222837D01*
X382225Y223255D01*
X381142Y223398D01*
D02*
G37*
G36*
X394421Y218713D02*
X390802D01*
X390879Y218129D01*
X391297Y217120D01*
X391962Y216253D01*
X392829Y215588D01*
X393838Y215170D01*
X394421Y215093D01*
Y218713D01*
D02*
G37*
G36*
X353425Y223398D02*
X352342Y223255D01*
X351332Y222837D01*
X350466Y222172D01*
X349800Y221305D01*
X349382Y220296D01*
X349240Y219213D01*
X349382Y218129D01*
X349800Y217120D01*
X350466Y216253D01*
X351332Y215588D01*
X352342Y215170D01*
X353425Y215027D01*
X354508Y215170D01*
X355518Y215588D01*
X356385Y216253D01*
X357050Y217120D01*
X357468Y218129D01*
X357611Y219213D01*
X357468Y220296D01*
X357050Y221305D01*
X356385Y222172D01*
X355518Y222837D01*
X354508Y223255D01*
X353425Y223398D01*
D02*
G37*
G36*
X367205D02*
X366122Y223255D01*
X365112Y222837D01*
X364245Y222172D01*
X363580Y221305D01*
X363162Y220296D01*
X363019Y219213D01*
X363162Y218129D01*
X363580Y217120D01*
X364245Y216253D01*
X365112Y215588D01*
X366122Y215170D01*
X367205Y215027D01*
X368288Y215170D01*
X369297Y215588D01*
X370164Y216253D01*
X370829Y217120D01*
X371248Y218129D01*
X371390Y219213D01*
X371248Y220296D01*
X370829Y221305D01*
X370164Y222172D01*
X369297Y222837D01*
X368288Y223255D01*
X367205Y223398D01*
D02*
G37*
G36*
X431626Y214582D02*
X431351Y214546D01*
X430629Y214247D01*
X430009Y213771D01*
X429533Y213151D01*
X429234Y212428D01*
X429198Y212154D01*
X431626D01*
Y214582D01*
D02*
G37*
G36*
X522075Y205763D02*
Y203335D01*
X524503D01*
X524467Y203610D01*
X524168Y204332D01*
X523692Y204952D01*
X523072Y205428D01*
X522350Y205727D01*
X522075Y205763D01*
D02*
G37*
G36*
X431626Y211154D02*
X429198D01*
X429234Y210879D01*
X429533Y210156D01*
X430009Y209536D01*
X430629Y209061D01*
X431351Y208761D01*
X431626Y208725D01*
Y211154D01*
D02*
G37*
G36*
X546772Y211965D02*
X545336Y211776D01*
X543998Y211222D01*
X542849Y210340D01*
X541967Y209191D01*
X541413Y207853D01*
X541224Y206417D01*
X541413Y204981D01*
X541967Y203644D01*
X542849Y202495D01*
X543998Y201613D01*
X545336Y201059D01*
X546772Y200870D01*
X548207Y201059D01*
X549545Y201613D01*
X550694Y202495D01*
X551576Y203644D01*
X552130Y204981D01*
X552319Y206417D01*
X552130Y207853D01*
X551576Y209191D01*
X550694Y210340D01*
X549545Y211222D01*
X548207Y211776D01*
X546772Y211965D01*
D02*
G37*
G36*
X521075Y205763D02*
X520800Y205727D01*
X520078Y205428D01*
X519458Y204952D01*
X518982Y204332D01*
X518683Y203610D01*
X518646Y203335D01*
X521075D01*
Y205763D01*
D02*
G37*
G36*
X435054Y211154D02*
X432626D01*
Y208725D01*
X432901Y208761D01*
X433623Y209061D01*
X434243Y209536D01*
X434719Y210156D01*
X435018Y210879D01*
X435054Y211154D01*
D02*
G37*
G36*
X184539Y215051D02*
X178134D01*
Y211598D01*
X184539D01*
Y215051D01*
D02*
G37*
G36*
X191945D02*
X185539D01*
Y211598D01*
X191945D01*
Y215051D01*
D02*
G37*
G36*
X160917D02*
X154512D01*
Y211598D01*
X160917D01*
Y215051D01*
D02*
G37*
G36*
X168323D02*
X161917D01*
Y211598D01*
X168323D01*
Y215051D01*
D02*
G37*
G36*
X399041Y218713D02*
X395421D01*
Y215093D01*
X396005Y215170D01*
X397014Y215588D01*
X397881Y216253D01*
X398546Y217120D01*
X398964Y218129D01*
X399041Y218713D01*
D02*
G37*
G36*
X313701Y232285D02*
X312926Y232183D01*
X312204Y231884D01*
X311584Y231409D01*
X311108Y230788D01*
X310809Y230066D01*
X310707Y229291D01*
X310809Y228516D01*
X311108Y227794D01*
X311584Y227174D01*
X312204Y226698D01*
X312926Y226399D01*
X313701Y226297D01*
X314435Y226394D01*
X318366Y222464D01*
X318174Y222002D01*
X308710D01*
X308259Y222590D01*
X307639Y223065D01*
X306917Y223364D01*
X306142Y223467D01*
X305367Y223364D01*
X304645Y223065D01*
X304025Y222590D01*
X303549Y221970D01*
X303250Y221247D01*
X303148Y220472D01*
X303250Y219697D01*
X303549Y218975D01*
X304025Y218355D01*
X304645Y217880D01*
X305367Y217580D01*
X306142Y217478D01*
X306917Y217580D01*
X307639Y217880D01*
X308259Y218355D01*
X308710Y218943D01*
X318107D01*
X355454Y181596D01*
X355454Y181596D01*
X355454D01*
X355454Y181596D01*
X355454D01*
X355454Y181596D01*
Y181596D01*
Y181596D01*
D01*
D01*
X355454D01*
Y181596D01*
X355950Y181264D01*
X356535Y181148D01*
X382944D01*
X383395Y180560D01*
X384015Y180084D01*
X384737Y179785D01*
X385512Y179683D01*
X386287Y179785D01*
X387009Y180084D01*
X387629Y180560D01*
X388105Y181180D01*
X388404Y181902D01*
X388506Y182677D01*
X388404Y183452D01*
X388105Y184174D01*
X387629Y184794D01*
X387009Y185270D01*
X386287Y185569D01*
X385512Y185671D01*
X384737Y185569D01*
X384015Y185270D01*
X383395Y184794D01*
X382944Y184207D01*
X364155D01*
X363934Y184655D01*
X364168Y184960D01*
X364467Y185682D01*
X364569Y186457D01*
X364467Y187232D01*
X364168Y187954D01*
X363692Y188574D01*
X363072Y189050D01*
X362350Y189349D01*
X361575Y189451D01*
X360800Y189349D01*
X360078Y189050D01*
X359458Y188574D01*
X359007Y187986D01*
X357169D01*
X334233Y210922D01*
X334424Y211384D01*
X340109D01*
X340560Y210796D01*
X341180Y210320D01*
X341902Y210021D01*
X342677Y209919D01*
X343452Y210021D01*
X344174Y210320D01*
X344794Y210796D01*
X345270Y211416D01*
X345569Y212139D01*
X345671Y212913D01*
X345569Y213688D01*
X345270Y214410D01*
X344794Y215031D01*
X344174Y215506D01*
X343452Y215806D01*
X342677Y215908D01*
X341902Y215806D01*
X341180Y215506D01*
X340560Y215031D01*
X340109Y214443D01*
X334492D01*
X324049Y224886D01*
Y225463D01*
X324637Y225914D01*
X325113Y226534D01*
X325412Y227257D01*
X325514Y228031D01*
X325412Y228806D01*
X325113Y229529D01*
X324637Y230149D01*
X324017Y230625D01*
X323295Y230924D01*
X322520Y231026D01*
X321745Y230924D01*
X321023Y230625D01*
X320403Y230149D01*
X319927Y229529D01*
X319628Y228806D01*
X319526Y228031D01*
X319628Y227257D01*
X319927Y226534D01*
X320403Y225914D01*
X320990Y225463D01*
Y224818D01*
X320528Y224627D01*
X316598Y228557D01*
X316695Y229291D01*
X316593Y230066D01*
X316294Y230788D01*
X315818Y231409D01*
X315198Y231884D01*
X314476Y232183D01*
X313701Y232285D01*
D02*
G37*
G36*
X296457Y236082D02*
X295168Y235912D01*
X293967Y235415D01*
X292936Y234624D01*
X292144Y233592D01*
X291647Y232391D01*
X291477Y231102D01*
X291647Y229814D01*
X292144Y228613D01*
X292936Y227581D01*
X293967Y226790D01*
X295168Y226292D01*
X296457Y226123D01*
X297745Y226292D01*
X298946Y226790D01*
X299978Y227581D01*
X300769Y228613D01*
X301267Y229814D01*
X301436Y231102D01*
X301267Y232391D01*
X300769Y233592D01*
X299978Y234624D01*
X298946Y235415D01*
X297745Y235912D01*
X296457Y236082D01*
D02*
G37*
G36*
X394421Y223332D02*
X393838Y223255D01*
X392829Y222837D01*
X391962Y222172D01*
X391297Y221305D01*
X390879Y220296D01*
X390802Y219713D01*
X394421D01*
Y223332D01*
D02*
G37*
G36*
X395421D02*
Y219713D01*
X399041D01*
X398964Y220296D01*
X398546Y221305D01*
X397881Y222172D01*
X397014Y222837D01*
X396005Y223255D01*
X395421Y223332D01*
D02*
G37*
G36*
X619291Y236082D02*
X618003Y235912D01*
X616802Y235415D01*
X615770Y234624D01*
X614979Y233592D01*
X614481Y232391D01*
X614312Y231102D01*
X614481Y229814D01*
X614979Y228613D01*
X615770Y227581D01*
X616802Y226790D01*
X618003Y226292D01*
X619291Y226123D01*
X620580Y226292D01*
X621781Y226790D01*
X622813Y227581D01*
X623604Y228613D01*
X624101Y229814D01*
X624271Y231102D01*
X624101Y232391D01*
X623604Y233592D01*
X622813Y234624D01*
X621781Y235415D01*
X620580Y235912D01*
X619291Y236082D01*
D02*
G37*
G36*
X372756Y235798D02*
X371724Y235662D01*
X370762Y235264D01*
X369937Y234630D01*
X369303Y233804D01*
X368905Y232843D01*
X368769Y231811D01*
X368905Y230779D01*
X369097Y230315D01*
X365823Y227041D01*
X347716D01*
X347131Y226925D01*
X346635Y226593D01*
X343869Y223828D01*
X343534Y223849D01*
X342914Y224325D01*
X342192Y224624D01*
X341417Y224726D01*
X340642Y224624D01*
X339920Y224325D01*
X339300Y223849D01*
X338824Y223229D01*
X338525Y222507D01*
X338423Y221732D01*
X338525Y220957D01*
X338824Y220235D01*
X339300Y219615D01*
X339920Y219139D01*
X340642Y218840D01*
X341417Y218738D01*
X342192Y218840D01*
X342914Y219139D01*
X343534Y219615D01*
X343994Y220214D01*
X344522Y220319D01*
X345018Y220651D01*
X348350Y223982D01*
X366457D01*
X367042Y224099D01*
X367538Y224430D01*
X371260Y228152D01*
X371724Y227960D01*
X372756Y227824D01*
X373788Y227960D01*
X374749Y228358D01*
X375575Y228992D01*
X376209Y229818D01*
X376607Y230779D01*
X376743Y231811D01*
X376607Y232843D01*
X376209Y233804D01*
X375575Y234630D01*
X374749Y235264D01*
X373788Y235662D01*
X372756Y235798D01*
D02*
G37*
G36*
X392756D02*
X391724Y235662D01*
X390762Y235264D01*
X389937Y234630D01*
X389303Y233804D01*
X388905Y232843D01*
X388769Y231811D01*
X388905Y230779D01*
X389303Y229818D01*
X389937Y228992D01*
X390762Y228358D01*
X391724Y227960D01*
X392756Y227824D01*
X393788Y227960D01*
X394749Y228358D01*
X395575Y228992D01*
X396209Y229818D01*
X396607Y230779D01*
X396743Y231811D01*
X396607Y232843D01*
X396209Y233804D01*
X395575Y234630D01*
X394749Y235264D01*
X393788Y235662D01*
X392756Y235798D01*
D02*
G37*
G36*
X550147Y237549D02*
X543397D01*
X542567Y237385D01*
X541865Y236915D01*
X541395Y236212D01*
X541230Y235383D01*
Y228633D01*
X541395Y227804D01*
X541865Y227101D01*
X542567Y226631D01*
X543397Y226466D01*
X550147D01*
X550976Y226631D01*
X551679Y227101D01*
X552148Y227804D01*
X552313Y228633D01*
Y235383D01*
X552148Y236212D01*
X551679Y236915D01*
X550976Y237385D01*
X550147Y237549D01*
D02*
G37*
G36*
X360315Y241001D02*
X343937D01*
X343313Y240877D01*
X342783Y240524D01*
X339004Y236744D01*
X338650Y236215D01*
X338526Y235591D01*
Y233747D01*
X336978Y232199D01*
X336863Y232183D01*
X336141Y231884D01*
X335521Y231409D01*
X335045Y230788D01*
X334746Y230066D01*
X334644Y229291D01*
X334746Y228516D01*
X335045Y227794D01*
X335521Y227174D01*
X336141Y226698D01*
X336863Y226399D01*
X337638Y226297D01*
X338413Y226399D01*
X339135Y226698D01*
X339755Y227174D01*
X340231Y227794D01*
X340530Y228516D01*
X340632Y229291D01*
X340530Y230066D01*
X340231Y230788D01*
X340210Y230816D01*
X341311Y231917D01*
X341665Y232447D01*
X341789Y233071D01*
X341789Y233071D01*
Y234915D01*
X344613Y237739D01*
X359639D01*
X361125Y236253D01*
Y235414D01*
X360763Y235264D01*
X359937Y234630D01*
X359303Y233804D01*
X358905Y232843D01*
X358769Y231811D01*
X358905Y230779D01*
X359303Y229818D01*
X359937Y228992D01*
X360763Y228358D01*
X361724Y227960D01*
X362756Y227824D01*
X363788Y227960D01*
X364749Y228358D01*
X365575Y228992D01*
X366209Y229818D01*
X366607Y230779D01*
X366743Y231811D01*
X366607Y232843D01*
X366209Y233804D01*
X365575Y234630D01*
X364749Y235264D01*
X364387Y235414D01*
Y236929D01*
X364263Y237553D01*
X363910Y238083D01*
X361469Y240524D01*
X360939Y240877D01*
X360315Y241001D01*
D02*
G37*
G36*
X616563Y219621D02*
Y217193D01*
X618991D01*
X618955Y217468D01*
X618656Y218190D01*
X618180Y218810D01*
X617560Y219286D01*
X616838Y219585D01*
X616563Y219621D01*
D02*
G37*
G36*
X173358Y218361D02*
X173083Y218325D01*
X172361Y218026D01*
X171741Y217550D01*
X171265Y216930D01*
X170966Y216208D01*
X170930Y215933D01*
X173358D01*
Y218361D01*
D02*
G37*
G36*
X174358D02*
Y215933D01*
X176787D01*
X176750Y216208D01*
X176451Y216930D01*
X175975Y217550D01*
X175355Y218026D01*
X174633Y218325D01*
X174358Y218361D01*
D02*
G37*
G36*
X275590Y233326D02*
X273851Y233155D01*
X272178Y232648D01*
X270637Y231824D01*
X269285Y230715D01*
X268176Y229363D01*
X267352Y227822D01*
X266845Y226149D01*
X266674Y224410D01*
X266845Y222670D01*
X267352Y220997D01*
X268176Y219456D01*
X269285Y218104D01*
X270637Y216995D01*
X272178Y216171D01*
X273851Y215664D01*
X275590Y215493D01*
X277330Y215664D01*
X279003Y216171D01*
X280544Y216995D01*
X281896Y218104D01*
X283005Y219456D01*
X283829Y220997D01*
X284336Y222670D01*
X284507Y224410D01*
X284336Y226149D01*
X283829Y227822D01*
X283005Y229363D01*
X281896Y230715D01*
X280544Y231824D01*
X279003Y232648D01*
X277330Y233155D01*
X275590Y233326D01*
D02*
G37*
G36*
X673228D02*
X671489Y233155D01*
X669816Y232648D01*
X668274Y231824D01*
X666923Y230715D01*
X665814Y229363D01*
X664990Y227822D01*
X664483Y226149D01*
X664311Y224410D01*
X664483Y222670D01*
X664990Y220997D01*
X665814Y219456D01*
X666923Y218104D01*
X668274Y216995D01*
X669816Y216171D01*
X671489Y215664D01*
X673228Y215493D01*
X674968Y215664D01*
X676641Y216171D01*
X678182Y216995D01*
X679534Y218104D01*
X680643Y219456D01*
X681466Y220997D01*
X681974Y222670D01*
X682145Y224410D01*
X681974Y226149D01*
X681466Y227822D01*
X680643Y229363D01*
X679534Y230715D01*
X678182Y231824D01*
X676641Y232648D01*
X674968Y233155D01*
X673228Y233326D01*
D02*
G37*
G36*
X160917Y219504D02*
X154512D01*
Y216051D01*
X160917D01*
Y219504D01*
D02*
G37*
G36*
X191945D02*
X185539D01*
Y216051D01*
X191945D01*
Y219504D01*
D02*
G37*
G36*
X615563Y219621D02*
X615288Y219585D01*
X614566Y219286D01*
X613946Y218810D01*
X613470Y218190D01*
X613171Y217468D01*
X613135Y217193D01*
X615563D01*
Y219621D01*
D02*
G37*
G36*
X168323Y219504D02*
X161917D01*
Y216051D01*
X168323D01*
Y219504D01*
D02*
G37*
G36*
X184539D02*
X178134D01*
Y216051D01*
X184539D01*
Y219504D01*
D02*
G37*
G36*
X497811Y185370D02*
X489906D01*
Y177465D01*
X497811D01*
Y185370D01*
D02*
G37*
G36*
X665000Y188987D02*
X663968Y188851D01*
X663007Y188453D01*
X662181Y187819D01*
X661547Y186993D01*
X661149Y186032D01*
X661013Y185000D01*
X661149Y183968D01*
X661547Y183007D01*
X662181Y182181D01*
X663007Y181547D01*
X663968Y181149D01*
X665000Y181013D01*
X666032Y181149D01*
X666993Y181547D01*
X667819Y182181D01*
X668453Y183007D01*
X668851Y183968D01*
X668987Y185000D01*
X668851Y186032D01*
X668453Y186993D01*
X667819Y187819D01*
X666993Y188453D01*
X666032Y188851D01*
X665000Y188987D01*
D02*
G37*
G36*
X469161Y180425D02*
Y176957D01*
X472630D01*
X472558Y177501D01*
X472155Y178474D01*
X471514Y179309D01*
X470679Y179951D01*
X469706Y180354D01*
X469161Y180425D01*
D02*
G37*
G36*
X513858Y185404D02*
X512826Y185268D01*
X511865Y184870D01*
X511039Y184237D01*
X510406Y183411D01*
X510007Y182449D01*
X509871Y181417D01*
X510007Y180385D01*
X510406Y179424D01*
X511039Y178598D01*
X511865Y177965D01*
X512826Y177566D01*
X513858Y177430D01*
X514890Y177566D01*
X515852Y177965D01*
X516677Y178598D01*
X517311Y179424D01*
X517709Y180385D01*
X517845Y181417D01*
X517709Y182449D01*
X517311Y183411D01*
X516677Y184237D01*
X515852Y184870D01*
X514890Y185268D01*
X513858Y185404D01*
D02*
G37*
G36*
X675000Y188987D02*
X673968Y188851D01*
X673007Y188453D01*
X672181Y187819D01*
X671547Y186993D01*
X671149Y186032D01*
X671013Y185000D01*
X671149Y183968D01*
X671547Y183007D01*
X672181Y182181D01*
X673007Y181547D01*
X673968Y181149D01*
X675000Y181013D01*
X676032Y181149D01*
X676993Y181547D01*
X677819Y182181D01*
X678453Y183007D01*
X678851Y183968D01*
X678987Y185000D01*
X678851Y186032D01*
X678453Y186993D01*
X677819Y187819D01*
X676993Y188453D01*
X676032Y188851D01*
X675000Y188987D01*
D02*
G37*
G36*
X273921Y189500D02*
X270500D01*
Y186079D01*
X271032Y186149D01*
X271993Y186547D01*
X272819Y187181D01*
X273453Y188007D01*
X273851Y188968D01*
X273921Y189500D01*
D02*
G37*
G36*
X468661Y194271D02*
X467617Y194133D01*
X466644Y193730D01*
X465809Y193089D01*
X465167Y192253D01*
X464764Y191280D01*
X464627Y190236D01*
X464764Y189192D01*
X465167Y188219D01*
X465809Y187383D01*
X466644Y186742D01*
X467617Y186339D01*
X468661Y186202D01*
X469706Y186339D01*
X470679Y186742D01*
X471514Y187383D01*
X472155Y188219D01*
X472558Y189192D01*
X472696Y190236D01*
X472558Y191280D01*
X472155Y192253D01*
X471514Y193089D01*
X470679Y193730D01*
X469706Y194133D01*
X468661Y194271D01*
D02*
G37*
G36*
X382256Y231311D02*
X378835D01*
X378905Y230779D01*
X379303Y229818D01*
X379937Y228992D01*
X380763Y228358D01*
X381724Y227960D01*
X382256Y227890D01*
Y231311D01*
D02*
G37*
G36*
X269500Y189500D02*
X266079D01*
X266149Y188968D01*
X266547Y188007D01*
X267181Y187181D01*
X268007Y186547D01*
X268968Y186149D01*
X269500Y186079D01*
Y189500D01*
D02*
G37*
G36*
X468161Y180425D02*
X467617Y180354D01*
X466644Y179951D01*
X465809Y179309D01*
X465167Y178474D01*
X464764Y177501D01*
X464693Y176957D01*
X468161D01*
Y180425D01*
D02*
G37*
G36*
X675000Y178987D02*
X673968Y178851D01*
X673007Y178453D01*
X672181Y177819D01*
X671547Y176993D01*
X671149Y176032D01*
X671013Y175000D01*
X671149Y173968D01*
X671547Y173007D01*
X672181Y172181D01*
X673007Y171547D01*
X673968Y171149D01*
X675000Y171013D01*
X676032Y171149D01*
X676993Y171547D01*
X677819Y172181D01*
X678453Y173007D01*
X678851Y173968D01*
X678987Y175000D01*
X678851Y176032D01*
X678453Y176993D01*
X677819Y177819D01*
X676993Y178453D01*
X676032Y178851D01*
X675000Y178987D01*
D02*
G37*
G36*
X293543Y178112D02*
X292768Y178010D01*
X292046Y177711D01*
X291426Y177235D01*
X290950Y176615D01*
X290651Y175893D01*
X290549Y175118D01*
X290562Y175021D01*
X288322Y172781D01*
X287880Y172119D01*
X287725Y171339D01*
Y155878D01*
X287647Y155818D01*
X287171Y155198D01*
X286872Y154476D01*
X286770Y153701D01*
X286872Y152926D01*
X287171Y152204D01*
X287647Y151584D01*
X288267Y151108D01*
X288989Y150809D01*
X289764Y150707D01*
X290539Y150809D01*
X291261Y151108D01*
X291881Y151584D01*
X292357Y152204D01*
X292656Y152926D01*
X292758Y153701D01*
X292656Y154476D01*
X292357Y155198D01*
X291881Y155818D01*
X291803Y155878D01*
Y170494D01*
X293446Y172137D01*
X293543Y172124D01*
X294318Y172226D01*
X295040Y172525D01*
X295660Y173001D01*
X296136Y173621D01*
X296435Y174343D01*
X296537Y175118D01*
X296435Y175893D01*
X296136Y176615D01*
X295660Y177235D01*
X295040Y177711D01*
X294318Y178010D01*
X293543Y178112D01*
D02*
G37*
G36*
X243126Y168323D02*
X236720D01*
Y164870D01*
X243126D01*
Y168323D01*
D02*
G37*
G36*
X382256Y235732D02*
X381724Y235662D01*
X380763Y235264D01*
X379937Y234630D01*
X379303Y233804D01*
X378905Y232843D01*
X378835Y232311D01*
X382256D01*
Y235732D01*
D02*
G37*
G36*
X468161Y175957D02*
X464693D01*
X464764Y175412D01*
X465167Y174439D01*
X465809Y173604D01*
X466644Y172963D01*
X467617Y172560D01*
X468161Y172488D01*
Y175957D01*
D02*
G37*
G36*
X421547Y231311D02*
X419119D01*
X419155Y231036D01*
X419454Y230314D01*
X419930Y229694D01*
X420550Y229218D01*
X421272Y228919D01*
X421547Y228883D01*
Y231311D01*
D02*
G37*
G36*
X386677D02*
X383256D01*
Y227890D01*
X383788Y227960D01*
X384749Y228358D01*
X385575Y228992D01*
X386209Y229818D01*
X386607Y230779D01*
X386677Y231311D01*
D02*
G37*
G36*
X472630Y175957D02*
X469161D01*
Y172488D01*
X469706Y172560D01*
X470679Y172963D01*
X471514Y173604D01*
X472155Y174439D01*
X472558Y175412D01*
X472630Y175957D01*
D02*
G37*
G36*
X424975Y231311D02*
X422547D01*
Y228883D01*
X422822Y228919D01*
X423544Y229218D01*
X424164Y229694D01*
X424640Y230314D01*
X424939Y231036D01*
X424975Y231311D01*
D02*
G37*
G36*
X269500Y193921D02*
X268968Y193851D01*
X268007Y193453D01*
X267181Y192819D01*
X266547Y191993D01*
X266149Y191032D01*
X266079Y190500D01*
X269500D01*
Y193921D01*
D02*
G37*
G36*
X483280Y200724D02*
X483005Y200687D01*
X482282Y200388D01*
X481662Y199912D01*
X481186Y199292D01*
X480887Y198570D01*
X480851Y198295D01*
X483280D01*
Y200724D01*
D02*
G37*
G36*
X484279D02*
Y198295D01*
X486708D01*
X486672Y198570D01*
X486373Y199292D01*
X485897Y199912D01*
X485277Y200388D01*
X484554Y200687D01*
X484279Y200724D01*
D02*
G37*
G36*
X609264Y198555D02*
X606836D01*
X606872Y198280D01*
X607171Y197558D01*
X607647Y196938D01*
X608267Y196462D01*
X608989Y196163D01*
X609264Y196127D01*
Y198555D01*
D02*
G37*
G36*
X612692D02*
X610264D01*
Y196127D01*
X610539Y196163D01*
X611261Y196462D01*
X611881Y196938D01*
X612357Y197558D01*
X612656Y198280D01*
X612692Y198555D01*
D02*
G37*
G36*
X609264Y201983D02*
X608989Y201947D01*
X608267Y201648D01*
X607647Y201172D01*
X607171Y200552D01*
X606872Y199830D01*
X606836Y199555D01*
X609264D01*
Y201983D01*
D02*
G37*
G36*
X521075Y202335D02*
X518646D01*
X518683Y202060D01*
X518982Y201338D01*
X519458Y200717D01*
X520078Y200242D01*
X520800Y199943D01*
X521075Y199906D01*
Y202335D01*
D02*
G37*
G36*
X524503D02*
X522075D01*
Y199906D01*
X522350Y199943D01*
X523072Y200242D01*
X523692Y200717D01*
X524168Y201338D01*
X524467Y202060D01*
X524503Y202335D01*
D02*
G37*
G36*
X610264Y201983D02*
Y199555D01*
X612692D01*
X612656Y199830D01*
X612357Y200552D01*
X611881Y201172D01*
X611261Y201648D01*
X610539Y201947D01*
X610264Y201983D01*
D02*
G37*
G36*
X386772Y200789D02*
X385997Y200687D01*
X385275Y200388D01*
X384654Y199912D01*
X384582Y199818D01*
X361244D01*
X361172Y199912D01*
X360552Y200388D01*
X359830Y200687D01*
X359055Y200789D01*
X358280Y200687D01*
X357558Y200388D01*
X356938Y199912D01*
X356462Y199292D01*
X356163Y198570D01*
X356061Y197795D01*
X356163Y197020D01*
X356462Y196298D01*
X356938Y195678D01*
X357558Y195202D01*
X358280Y194903D01*
X359055Y194801D01*
X359830Y194903D01*
X360552Y195202D01*
X361172Y195678D01*
X361244Y195772D01*
X384582D01*
X384654Y195678D01*
X385275Y195202D01*
X385997Y194903D01*
X386772Y194801D01*
X387547Y194903D01*
X388269Y195202D01*
X388889Y195678D01*
X389365Y196298D01*
X389664Y197020D01*
X389766Y197795D01*
X389664Y198570D01*
X389365Y199292D01*
X388889Y199912D01*
X388269Y200388D01*
X387547Y200687D01*
X386772Y200789D01*
D02*
G37*
G36*
X675500Y198921D02*
Y195500D01*
X678921D01*
X678851Y196032D01*
X678453Y196993D01*
X677819Y197819D01*
X676993Y198453D01*
X676032Y198851D01*
X675500Y198921D01*
D02*
G37*
G36*
X356709Y235764D02*
X348803D01*
Y227858D01*
X356709D01*
Y235764D01*
D02*
G37*
G36*
X674500Y194500D02*
X671079D01*
X671149Y193968D01*
X671547Y193007D01*
X672181Y192181D01*
X673007Y191547D01*
X673968Y191149D01*
X674500Y191079D01*
Y194500D01*
D02*
G37*
G36*
X270500Y193921D02*
Y190500D01*
X273921D01*
X273851Y191032D01*
X273453Y191993D01*
X272819Y192819D01*
X271993Y193453D01*
X271032Y193851D01*
X270500Y193921D01*
D02*
G37*
G36*
X665000Y198987D02*
X663968Y198851D01*
X663007Y198453D01*
X662181Y197819D01*
X661547Y196993D01*
X661149Y196032D01*
X661013Y195000D01*
X661149Y193968D01*
X661547Y193007D01*
X662181Y192181D01*
X663007Y191547D01*
X663968Y191149D01*
X665000Y191013D01*
X666032Y191149D01*
X666993Y191547D01*
X667819Y192181D01*
X668453Y193007D01*
X668851Y193968D01*
X668987Y195000D01*
X668851Y196032D01*
X668453Y196993D01*
X667819Y197819D01*
X666993Y198453D01*
X666032Y198851D01*
X665000Y198987D01*
D02*
G37*
G36*
X678921Y194500D02*
X675500D01*
Y191079D01*
X676032Y191149D01*
X676993Y191547D01*
X677819Y192181D01*
X678453Y193007D01*
X678851Y193968D01*
X678921Y194500D01*
D02*
G37*
G36*
X486708Y197295D02*
X484279D01*
Y194867D01*
X484554Y194903D01*
X485277Y195202D01*
X485897Y195678D01*
X486373Y196298D01*
X486672Y197020D01*
X486708Y197295D01*
D02*
G37*
G36*
X674500Y198921D02*
X673968Y198851D01*
X673007Y198453D01*
X672181Y197819D01*
X671547Y196993D01*
X671149Y196032D01*
X671079Y195500D01*
X674500D01*
Y198921D01*
D02*
G37*
G36*
X619488Y203787D02*
X618559Y203664D01*
X617693Y203306D01*
X616950Y202735D01*
X616379Y201992D01*
X616021Y201126D01*
X615898Y200197D01*
Y194685D01*
X616021Y193756D01*
X616379Y192890D01*
X616950Y192147D01*
X617693Y191576D01*
X618559Y191218D01*
X619488Y191095D01*
X620417Y191218D01*
X621283Y191576D01*
X622026Y192147D01*
X622597Y192890D01*
X622956Y193756D01*
X623078Y194685D01*
Y200197D01*
X622956Y201126D01*
X622597Y201992D01*
X622026Y202735D01*
X621283Y203306D01*
X620417Y203664D01*
X619488Y203787D01*
D02*
G37*
G36*
X483280Y197295D02*
X480851D01*
X480887Y197020D01*
X481186Y196298D01*
X481662Y195678D01*
X482282Y195202D01*
X483005Y194903D01*
X483280Y194867D01*
Y197295D01*
D02*
G37*
%LPD*%
D10*
X133858Y182087D02*
D03*
X110236D02*
D03*
Y164370D02*
D03*
X133858D02*
D03*
X185039Y182087D02*
D03*
X161417D02*
D03*
Y164370D02*
D03*
X185039D02*
D03*
X236221Y182087D02*
D03*
X212598D02*
D03*
Y164370D02*
D03*
X236221D02*
D03*
X185039Y130905D02*
D03*
X161417D02*
D03*
Y113189D02*
D03*
X185039D02*
D03*
Y233268D02*
D03*
X161417D02*
D03*
Y215551D02*
D03*
X185039D02*
D03*
D11*
X410709Y146142D02*
X411969Y147402D01*
X281339Y148661D02*
X405669D01*
X313701Y143622D02*
X415748D01*
X309921Y137323D02*
X314961D01*
X318740Y141102D01*
X302362D02*
X311181D01*
X313701Y143622D01*
X296063Y144882D02*
X308661D01*
X309921Y146142D01*
X280000Y150000D02*
X281339Y148661D01*
X309921Y146142D02*
X410709D01*
X647559Y154961D02*
X648819D01*
X647559Y161260D02*
X648819Y162520D01*
X318740Y141102D02*
X376693D01*
Y136063D02*
Y141102D01*
X405669Y148661D02*
X410709Y153701D01*
X376693Y141102D02*
X419528D01*
X423937Y145512D01*
Y148031D01*
X425827Y149921D01*
X653858D01*
X415748Y143622D02*
X424567Y152441D01*
X645039D01*
X647559Y154961D01*
X642520D02*
X646299Y158740D01*
X653858D01*
X419528Y154961D02*
X642520D01*
X411969Y147402D02*
X419528Y154961D01*
X414488Y157480D02*
X640000D01*
X643780Y161260D01*
X647559D01*
X410709Y153701D02*
X414488Y157480D01*
X401890Y151181D02*
X410709Y160000D01*
X637480D01*
X643780Y166299D01*
X325039Y151181D02*
X401890D01*
D12*
X270000Y180000D02*
X275197Y185197D01*
X273622Y143622D02*
X280000Y150000D01*
X197795Y154961D02*
X202835Y149921D01*
X197795Y154961D02*
Y180157D01*
X195866Y182087D02*
X197795Y180157D01*
X185039Y182087D02*
X195866D01*
X274961Y154961D02*
X280000Y160000D01*
X200315Y156220D02*
X204095Y152441D01*
X200315Y156220D02*
Y186457D01*
X191496Y195276D02*
X200315Y186457D01*
X158740Y195276D02*
X191496D01*
X148661Y185197D02*
X158740Y195276D01*
X148661Y143661D02*
Y185197D01*
Y143661D02*
X161417Y130905D01*
X275039Y165039D02*
X280000Y170000D01*
X236221Y182087D02*
X236890Y181417D01*
X262205Y180000D02*
X270000D01*
X259528Y182677D02*
X262205Y180000D01*
X259528Y182677D02*
Y192756D01*
X219016Y233268D02*
X259528Y192756D01*
X275118Y175118D02*
X280000Y180000D01*
X242795Y205709D02*
X257008Y191496D01*
X157480Y205709D02*
X242795D01*
X133858Y182087D02*
X157480Y205709D01*
X185039Y233268D02*
X219016D01*
X212598Y182087D02*
X236221D01*
X110236D02*
X133858D01*
X161417Y130905D02*
X185039D01*
X161417Y182087D02*
X185039D01*
X161417Y233268D02*
X185039D01*
X636221Y175118D02*
X664882D01*
X665000Y175000D01*
X637480Y181417D02*
Y192756D01*
X633701Y177638D02*
X637480Y181417D01*
X556850Y177638D02*
X633701D01*
X554331Y180157D02*
X556850Y177638D01*
X548032Y180157D02*
X554331D01*
X545512Y177638D02*
X548032Y180157D01*
X545512Y172598D02*
Y177638D01*
Y172598D02*
X548032Y170079D01*
X647559Y186457D02*
Y192756D01*
X636221Y175118D02*
X647559Y186457D01*
X551811Y175118D02*
X636221D01*
X306142Y220472D02*
X318740D01*
X356535Y182677D01*
X385512D01*
X356535Y186457D02*
X361575D01*
X313701Y229291D02*
X356535Y186457D01*
X366457Y225512D02*
X372756Y231811D01*
X347716Y225512D02*
X366457D01*
X343937Y221732D02*
X347716Y225512D01*
X341417Y221732D02*
X343937D01*
X322520Y224252D02*
Y228031D01*
Y224252D02*
X333858Y212913D01*
X342677D01*
X335118Y125984D02*
X336378Y127244D01*
X306142Y132283D02*
X330079D01*
X304882Y133543D02*
X306142Y132283D01*
X257008Y165039D02*
X275039D01*
X204095Y152441D02*
X254488D01*
X257008Y154961D01*
X274961D01*
X202835Y149921D02*
X249449D01*
X255748Y143622D01*
X273622D01*
X236890Y181417D02*
X249449D01*
X250709Y171339D02*
X257008Y165039D01*
X250709Y171339D02*
Y180157D01*
X249449Y181417D02*
X250709Y180157D01*
X257008Y177638D02*
Y191496D01*
Y177638D02*
X259528Y175118D01*
X275118D01*
X259528Y160000D02*
X270000D01*
X259606Y150000D02*
X270000D01*
X259528Y149921D02*
X259606Y150000D01*
X308661Y183937D02*
X337638D01*
X346457Y175118D01*
X304882Y180157D02*
X333858D01*
X342677Y171339D01*
X382992Y115905D02*
Y125984D01*
X386772Y108346D02*
Y109606D01*
X388032Y110866D01*
Y122205D01*
X404409Y132283D02*
Y137323D01*
X382992Y125984D02*
X386772Y129764D01*
Y137323D01*
X388032Y122205D02*
X391811Y125984D01*
Y133543D01*
X394331Y113386D02*
Y122205D01*
X404409Y132283D01*
X391811Y108346D02*
X393071Y107087D01*
X391811Y108346D02*
Y109606D01*
X390551Y110866D02*
X391811Y109606D01*
X390551Y110866D02*
Y121254D01*
X398110Y128813D01*
Y136063D01*
X335118Y163779D02*
X345197Y153701D01*
X400630D01*
X548032Y170079D02*
X594646D01*
X595905Y171339D01*
X658661D01*
X665000Y165000D01*
X354016Y172598D02*
X354016D01*
X357795Y176378D01*
X366614D01*
X351496Y177638D02*
X352756D01*
X354016Y178898D01*
X367874D01*
X400630Y153701D02*
X409449Y162520D01*
X631181D01*
X636221Y167559D01*
X366614Y176378D02*
X381732Y161260D01*
X367874Y178898D02*
X376693Y170079D01*
X537953Y182677D02*
Y194016D01*
X381732Y161260D02*
X404410D01*
X408189Y165039D01*
X524094D01*
X386772D02*
X403150D01*
X405669Y167559D01*
X522835D01*
X537953Y182677D01*
X524094Y165039D02*
X541732Y182677D01*
X555590D01*
X558110Y180157D01*
X631181D01*
X632441Y181417D01*
Y190236D01*
X376693Y170079D02*
X520315D01*
X526614Y176378D01*
Y183937D01*
X477559Y103543D02*
Y120866D01*
X477480Y120945D02*
X477559Y120866D01*
X275197Y185197D02*
X291024D01*
X325039Y151181D01*
X280945Y142362D02*
X289764D01*
X306142Y125984D01*
X335118D01*
D13*
X631181Y195276D02*
Y209134D01*
X623622Y187716D02*
X631181Y195276D01*
X612284Y187716D02*
X623622D01*
X605984Y194016D02*
X612284Y187716D01*
X564409Y194016D02*
X605984D01*
X503937Y186457D02*
X511496Y194016D01*
X503937Y181496D02*
Y186457D01*
X503858Y181417D02*
X503937Y181496D01*
X511496Y194016D02*
X537953D01*
X564409D01*
X495118Y146142D02*
X615669D01*
X619488Y142323D01*
X463386Y114409D02*
X493858Y144882D01*
X495118Y146142D01*
X289764Y171339D02*
X293543Y175118D01*
X289764Y153701D02*
Y171339D01*
X287244Y137323D02*
X304882Y119685D01*
X366614D01*
X384252Y102047D01*
X405669D01*
X414488Y110866D01*
X463386D01*
Y103543D02*
Y110866D01*
Y114409D01*
D14*
X362756Y231811D02*
Y236929D01*
X360315Y239370D02*
X362756Y236929D01*
X343937Y239370D02*
X360315D01*
X340158Y235591D02*
X343937Y239370D01*
X340158Y233071D02*
Y235591D01*
X337638Y230551D02*
X340158Y233071D01*
X337638Y229291D02*
Y230551D01*
D15*
X359055Y197795D02*
X386772D01*
X627402Y132283D02*
X640118Y145000D01*
X665000D01*
X501417Y141102D02*
X510236Y132283D01*
X627402D01*
D16*
X673228Y224410D02*
D03*
X275590D02*
D03*
Y118110D02*
D03*
X673228D02*
D03*
X118110D02*
D03*
D17*
X394921Y219213D02*
D03*
X381142D02*
D03*
X367205D02*
D03*
X353425D02*
D03*
D18*
X392756Y231811D02*
D03*
X382756D02*
D03*
X372756D02*
D03*
X362756D02*
D03*
X270000Y150000D02*
D03*
X280000D02*
D03*
X270000Y160000D02*
D03*
X280000D02*
D03*
X270000Y170000D02*
D03*
X280000D02*
D03*
X270000Y180000D02*
D03*
X280000D02*
D03*
X270000Y190000D02*
D03*
X503858Y181417D02*
D03*
X513858D02*
D03*
X675000Y195000D02*
D03*
X665000D02*
D03*
X675000Y185000D02*
D03*
X665000D02*
D03*
X675000Y175000D02*
D03*
X665000D02*
D03*
X675000Y165000D02*
D03*
X665000D02*
D03*
X675000Y155000D02*
D03*
X665000D02*
D03*
X675000Y145000D02*
D03*
D19*
X352756Y231811D02*
D03*
X493858Y181417D02*
D03*
D20*
X619488Y142323D02*
D03*
Y197441D02*
D03*
D21*
X619291Y108661D02*
D03*
Y231102D02*
D03*
X296457D02*
D03*
Y108661D02*
D03*
D22*
X322835Y236221D02*
D03*
X329921D02*
D03*
X575591D02*
D03*
X582677D02*
D03*
X484646Y103543D02*
D03*
X477559D02*
D03*
X470472D02*
D03*
X463386D02*
D03*
X456299D02*
D03*
X420866D02*
D03*
X427953D02*
D03*
X435039D02*
D03*
X442126D02*
D03*
X449213D02*
D03*
D23*
X280000Y190000D02*
D03*
X665000Y145000D02*
D03*
D24*
X468661Y176457D02*
D03*
Y190236D02*
D03*
D25*
X546772Y232008D02*
D03*
D26*
Y206417D02*
D03*
D27*
X280945Y142362D02*
D03*
X419528Y147402D02*
D03*
X411969D02*
D03*
X309921Y137323D02*
D03*
X302362Y141102D02*
D03*
X296063Y144882D02*
D03*
X653858Y149921D02*
D03*
X648819Y154961D02*
D03*
X653858Y158740D02*
D03*
X648819Y162520D02*
D03*
X643780Y166299D02*
D03*
X122205Y163779D02*
D03*
X225512D02*
D03*
X173858Y113386D02*
D03*
Y163779D02*
D03*
Y215433D02*
D03*
X631181Y209134D02*
D03*
X564409Y194016D02*
D03*
X551811Y175118D02*
D03*
X548032Y170079D02*
D03*
X609764Y199055D02*
D03*
X632441Y236850D02*
D03*
X637480Y192756D02*
D03*
X642520Y190236D02*
D03*
X647559Y192756D02*
D03*
X616063Y216693D02*
D03*
X521575Y202835D02*
D03*
X483779Y197795D02*
D03*
X385512Y182677D02*
D03*
X361575Y186457D02*
D03*
X337638Y229291D02*
D03*
X341417Y221732D02*
D03*
X306142Y220472D02*
D03*
X313701Y229291D02*
D03*
X422047Y231811D02*
D03*
X432126Y211653D02*
D03*
X342677Y212913D02*
D03*
X322520Y228031D02*
D03*
X359055Y197795D02*
D03*
X386772D02*
D03*
X330079Y132283D02*
D03*
X336378Y127244D02*
D03*
X304882Y133543D02*
D03*
X376693Y136063D02*
D03*
X259528Y160000D02*
D03*
Y149921D02*
D03*
X304882Y180157D02*
D03*
X308661Y183937D02*
D03*
X342677Y171339D02*
D03*
X346457Y175118D02*
D03*
X386772Y108346D02*
D03*
X382992Y115905D02*
D03*
X477480Y120945D02*
D03*
X410709Y153701D02*
D03*
X381732Y133543D02*
D03*
X411969Y115905D02*
D03*
X386772Y165039D02*
D03*
X393071Y107087D02*
D03*
X398110Y136063D02*
D03*
X404410Y137323D02*
D03*
X386772D02*
D03*
X391811Y133543D02*
D03*
X394331Y113386D02*
D03*
X335118Y163779D02*
D03*
X636221Y167559D02*
D03*
X351496Y177638D02*
D03*
X354016Y172598D02*
D03*
X360315D02*
D03*
X365354Y170079D02*
D03*
X367874Y165039D02*
D03*
X632441Y190236D02*
D03*
X526614Y183937D02*
D03*
X501417Y141102D02*
D03*
X493858Y144882D02*
D03*
X293543Y175118D02*
D03*
X289764Y153701D02*
D03*
X287244Y137323D02*
D03*
X456063Y123465D02*
D03*
X549291Y138583D02*
D03*
M02*
