G04 Layer_Color=8388736*
%FSLAX25Y25*%
%MOIN*%
G70*
G01*
G75*
%ADD10R,0.12611X0.06706*%
%ADD11C,0.16548*%
%ADD12C,0.07099*%
%ADD13C,0.06706*%
%ADD14R,0.06706X0.06706*%
%ADD15O,0.05918X0.11430*%
%ADD16C,0.08674*%
%ADD17C,0.05524*%
%ADD18R,0.06706X0.06706*%
%ADD19C,0.06800*%
G04:AMPARAMS|DCode=20|XSize=98mil|YSize=98mil|CornerRadius=15.25mil|HoleSize=0mil|Usage=FLASHONLY|Rotation=270.000|XOffset=0mil|YOffset=0mil|HoleType=Round|Shape=RoundedRectangle|*
%AMROUNDEDRECTD20*
21,1,0.09800,0.06750,0,0,270.0*
21,1,0.06750,0.09800,0,0,270.0*
1,1,0.03050,-0.03375,-0.03375*
1,1,0.03050,-0.03375,0.03375*
1,1,0.03050,0.03375,0.03375*
1,1,0.03050,0.03375,-0.03375*
%
%ADD20ROUNDEDRECTD20*%
%ADD21C,0.09800*%
%ADD22C,0.04737*%
D10*
X133858Y182087D02*
D03*
X110236D02*
D03*
Y164370D02*
D03*
X133858D02*
D03*
X185039Y182087D02*
D03*
X161417D02*
D03*
Y164370D02*
D03*
X185039D02*
D03*
X236221Y182087D02*
D03*
X212598D02*
D03*
Y164370D02*
D03*
X236221D02*
D03*
X185039Y130905D02*
D03*
X161417D02*
D03*
Y113189D02*
D03*
X185039D02*
D03*
Y233268D02*
D03*
X161417D02*
D03*
Y215551D02*
D03*
X185039D02*
D03*
D11*
X673228Y224410D02*
D03*
X275590D02*
D03*
Y118110D02*
D03*
X673228D02*
D03*
X118110D02*
D03*
D12*
X394921Y219213D02*
D03*
X381142D02*
D03*
X367205D02*
D03*
X353425D02*
D03*
D13*
X392756Y231811D02*
D03*
X382756D02*
D03*
X372756D02*
D03*
X362756D02*
D03*
X270000Y150000D02*
D03*
X280000D02*
D03*
X270000Y160000D02*
D03*
X280000D02*
D03*
X270000Y170000D02*
D03*
X280000D02*
D03*
X270000Y180000D02*
D03*
X280000D02*
D03*
X270000Y190000D02*
D03*
X503858Y181417D02*
D03*
X513858D02*
D03*
X675000Y195000D02*
D03*
X665000D02*
D03*
X675000Y185000D02*
D03*
X665000D02*
D03*
X675000Y175000D02*
D03*
X665000D02*
D03*
X675000Y165000D02*
D03*
X665000D02*
D03*
X675000Y155000D02*
D03*
X665000D02*
D03*
X675000Y145000D02*
D03*
D14*
X352756Y231811D02*
D03*
X493858Y181417D02*
D03*
D15*
X619488Y142323D02*
D03*
Y197441D02*
D03*
D16*
X619291Y108661D02*
D03*
Y231102D02*
D03*
X296457D02*
D03*
Y108661D02*
D03*
D17*
X322835Y236221D02*
D03*
X329921D02*
D03*
X575591D02*
D03*
X582677D02*
D03*
X484646Y103543D02*
D03*
X477559D02*
D03*
X470472D02*
D03*
X463386D02*
D03*
X456299D02*
D03*
X420866D02*
D03*
X427953D02*
D03*
X435039D02*
D03*
X442126D02*
D03*
X449213D02*
D03*
D18*
X280000Y190000D02*
D03*
X665000Y145000D02*
D03*
D19*
X468661Y176457D02*
D03*
Y190236D02*
D03*
D20*
X546772Y232008D02*
D03*
D21*
Y206417D02*
D03*
D22*
X280945Y142362D02*
D03*
X419528Y147402D02*
D03*
X411969D02*
D03*
X309921Y137323D02*
D03*
X302362Y141102D02*
D03*
X296063Y144882D02*
D03*
X653858Y149921D02*
D03*
X648819Y154961D02*
D03*
X653858Y158740D02*
D03*
X648819Y162520D02*
D03*
X643780Y166299D02*
D03*
X122205Y163779D02*
D03*
X225512D02*
D03*
X173858Y113386D02*
D03*
Y163779D02*
D03*
Y215433D02*
D03*
X631181Y209134D02*
D03*
X564409Y194016D02*
D03*
X551811Y175118D02*
D03*
X548032Y170079D02*
D03*
X609764Y199055D02*
D03*
X632441Y236850D02*
D03*
X637480Y192756D02*
D03*
X642520Y190236D02*
D03*
X647559Y192756D02*
D03*
X616063Y216693D02*
D03*
X521575Y202835D02*
D03*
X483779Y197795D02*
D03*
X385512Y182677D02*
D03*
X361575Y186457D02*
D03*
X337638Y229291D02*
D03*
X341417Y221732D02*
D03*
X306142Y220472D02*
D03*
X313701Y229291D02*
D03*
X422047Y231811D02*
D03*
X432126Y211653D02*
D03*
X342677Y212913D02*
D03*
X322520Y228031D02*
D03*
X359055Y197795D02*
D03*
X386772D02*
D03*
X330079Y132283D02*
D03*
X336378Y127244D02*
D03*
X304882Y133543D02*
D03*
X376693Y136063D02*
D03*
X259528Y160000D02*
D03*
Y149921D02*
D03*
X304882Y180157D02*
D03*
X308661Y183937D02*
D03*
X342677Y171339D02*
D03*
X346457Y175118D02*
D03*
X386772Y108346D02*
D03*
X382992Y115905D02*
D03*
X477480Y120945D02*
D03*
X410709Y153701D02*
D03*
X381732Y133543D02*
D03*
X411969Y115905D02*
D03*
X386772Y165039D02*
D03*
X393071Y107087D02*
D03*
X398110Y136063D02*
D03*
X404410Y137323D02*
D03*
X386772D02*
D03*
X391811Y133543D02*
D03*
X394331Y113386D02*
D03*
X335118Y163779D02*
D03*
X636221Y167559D02*
D03*
X351496Y177638D02*
D03*
X354016Y172598D02*
D03*
X360315D02*
D03*
X365354Y170079D02*
D03*
X367874Y165039D02*
D03*
X632441Y190236D02*
D03*
X526614Y183937D02*
D03*
X501417Y141102D02*
D03*
X493858Y144882D02*
D03*
X293543Y175118D02*
D03*
X289764Y153701D02*
D03*
X287244Y137323D02*
D03*
X456063Y123465D02*
D03*
X549291Y138583D02*
D03*
M02*
