G04 Layer_Physical_Order=2*
G04 Layer_Color=16711680*
%FSLAX25Y25*%
%MOIN*%
G70*
G01*
G75*
%ADD10R,0.09449X0.03937*%
%ADD11R,0.09449X0.12992*%
%ADD12R,0.06299X0.06299*%
%ADD13R,0.03543X0.05118*%
%ADD14R,0.03150X0.03150*%
%ADD15R,0.07874X0.21654*%
%ADD16R,0.05118X0.03543*%
%ADD17O,0.08661X0.02362*%
%ADD18O,0.06496X0.02165*%
%ADD19O,0.02165X0.06496*%
%ADD20O,0.02362X0.08661*%
%ADD21R,0.03937X0.03150*%
%ADD22R,0.03150X0.03937*%
%ADD23R,0.07087X0.04528*%
%ADD24R,0.09449X0.06102*%
%ADD25R,0.11811X0.07874*%
%ADD26R,0.03937X0.05512*%
%ADD27R,0.05512X0.03937*%
%ADD28R,0.04528X0.02362*%
%ADD29C,0.01000*%
%ADD30C,0.00800*%
%ADD31C,0.01200*%
%ADD32C,0.02000*%
%ADD33C,0.02953*%
%ADD34C,0.01969*%
%ADD35C,0.15748*%
%ADD36C,0.06299*%
%ADD37C,0.05906*%
%ADD38R,0.05906X0.05906*%
%ADD39O,0.05118X0.10630*%
%ADD40C,0.07874*%
%ADD41C,0.04724*%
%ADD42R,0.05906X0.05906*%
%ADD43C,0.06000*%
G04:AMPARAMS|DCode=44|XSize=72mil|YSize=72mil|CornerRadius=9mil|HoleSize=0mil|Usage=FLASHONLY|Rotation=270.000|XOffset=0mil|YOffset=0mil|HoleType=Round|Shape=RoundedRectangle|*
%AMROUNDEDRECTD44*
21,1,0.07200,0.05400,0,0,270.0*
21,1,0.05400,0.07200,0,0,270.0*
1,1,0.01800,-0.02700,-0.02700*
1,1,0.01800,-0.02700,0.02700*
1,1,0.01800,0.02700,0.02700*
1,1,0.01800,0.02700,-0.02700*
%
%ADD44ROUNDEDRECTD44*%
%ADD45C,0.07200*%
%ADD46C,0.03937*%
G36*
X396581Y144316D02*
Y138631D01*
X395993Y138180D01*
X395517Y137560D01*
X395218Y136838D01*
X395116Y136063D01*
X395218Y135288D01*
X395517Y134566D01*
X395993Y133946D01*
X396613Y133470D01*
X397335Y133171D01*
X398110Y133069D01*
X398885Y133171D01*
X399607Y133470D01*
X400227Y133946D01*
X400703Y134566D01*
X401002Y135288D01*
X401104Y136063D01*
X401068Y136337D01*
X401551Y136466D01*
X401817Y135826D01*
X402292Y135206D01*
X402912Y134730D01*
X403635Y134431D01*
X404410Y134329D01*
X405120Y134422D01*
X405341Y133974D01*
X402558Y131191D01*
X394313D01*
X394092Y131640D01*
X394404Y132046D01*
X394703Y132768D01*
X394805Y133543D01*
X394703Y134318D01*
X394404Y135040D01*
X393928Y135661D01*
X393340Y136111D01*
Y141729D01*
X396119Y144507D01*
X396581Y144316D01*
D02*
G37*
G36*
X331078Y137557D02*
X330833Y137191D01*
X330672Y136378D01*
X330829Y135589D01*
X330762Y135518D01*
X330349Y135242D01*
X330079Y135278D01*
X329304Y135176D01*
X328582Y134876D01*
X327962Y134401D01*
X327486Y133781D01*
X327187Y133058D01*
X327085Y132283D01*
X327187Y131509D01*
X327486Y130786D01*
X327962Y130166D01*
X328582Y129691D01*
X329304Y129391D01*
X330079Y129289D01*
X330854Y129391D01*
X331576Y129691D01*
X332196Y130166D01*
X332672Y130786D01*
X332971Y131509D01*
X333073Y132283D01*
X332976Y133018D01*
X334213Y134255D01*
X337126D01*
X337939Y134416D01*
X338597Y134856D01*
X338950Y134502D01*
X338511Y133844D01*
X338349Y133031D01*
Y131378D01*
X337112Y130141D01*
X336378Y130238D01*
X335603Y130136D01*
X334881Y129837D01*
X334261Y129361D01*
X333785Y128741D01*
X333486Y128019D01*
X333384Y127244D01*
X333486Y126469D01*
X333785Y125747D01*
X334261Y125127D01*
X334881Y124651D01*
X335603Y124352D01*
X336378Y124250D01*
X337153Y124352D01*
X337875Y124651D01*
X338495Y125127D01*
X338971Y125747D01*
X339270Y126469D01*
X339283Y126568D01*
X339660Y126739D01*
X340472Y126577D01*
X341285Y126739D01*
X341652Y126984D01*
X342093Y126748D01*
Y123086D01*
X341631Y122894D01*
X341239Y123286D01*
X340743Y123618D01*
X340158Y123734D01*
X331972D01*
X326569Y129137D01*
Y136689D01*
X327878Y137998D01*
X330843D01*
X331078Y137557D01*
D02*
G37*
G36*
X397841Y163146D02*
Y150555D01*
X391283Y143997D01*
X391194Y144034D01*
X391096Y144524D01*
X395412Y148840D01*
X395744Y149336D01*
X395860Y149921D01*
X395860Y149921D01*
X395860Y149921D01*
Y149921D01*
Y151126D01*
X397299D01*
Y156276D01*
X391362D01*
Y151126D01*
X392801D01*
Y150555D01*
X388210Y145963D01*
X387878Y145467D01*
X387762Y144882D01*
Y140566D01*
X387386Y140236D01*
X386772Y140317D01*
X385997Y140215D01*
X385275Y139916D01*
X384654Y139440D01*
X384179Y138820D01*
X383880Y138098D01*
X383777Y137323D01*
X383880Y136548D01*
X384063Y136106D01*
X383666Y135801D01*
X383229Y136136D01*
X382507Y136435D01*
X382232Y136472D01*
Y133543D01*
X381232D01*
Y136472D01*
X380957Y136435D01*
X380235Y136136D01*
X380125Y136052D01*
X379663Y136243D01*
X379585Y136838D01*
X379286Y137560D01*
X378810Y138180D01*
X378190Y138656D01*
X377468Y138955D01*
X376693Y139057D01*
X375918Y138955D01*
X375848Y138926D01*
X373923Y140852D01*
X373460Y141161D01*
X372913Y141270D01*
X372913Y141270D01*
X372292D01*
X372056Y141711D01*
X372159Y141865D01*
X372320Y142677D01*
X372159Y143490D01*
X371914Y143856D01*
X372149Y144297D01*
X374118D01*
Y143173D01*
X376193D01*
Y146142D01*
Y149110D01*
X374118D01*
Y147356D01*
X372149D01*
X371914Y147797D01*
X372159Y148164D01*
X372320Y148976D01*
X372159Y149789D01*
X371914Y150156D01*
X372149Y150597D01*
X377638D01*
X378223Y150713D01*
X378719Y151044D01*
X378719Y151044D01*
X378719Y151044D01*
X378801Y151126D01*
X379625D01*
X381178Y149572D01*
X380987Y149110D01*
X380417D01*
Y143173D01*
X385567D01*
Y149110D01*
X384522D01*
Y149921D01*
X384405Y150506D01*
X384391Y150528D01*
X384627Y150969D01*
X386272D01*
Y153240D01*
X383213D01*
Y152517D01*
X382751Y152326D01*
X382181Y152895D01*
Y156276D01*
X376244D01*
Y153655D01*
X374365D01*
X374219Y154134D01*
X374310Y154194D01*
X375255Y155139D01*
X375586Y155635D01*
X375703Y156220D01*
X375703Y156220D01*
X375703Y156220D01*
Y156220D01*
Y157769D01*
X376118Y158047D01*
X376244Y157995D01*
Y157425D01*
X382181D01*
Y159691D01*
X383213D01*
Y158449D01*
X390331D01*
Y159691D01*
X391362D01*
Y157425D01*
X397299D01*
Y162575D01*
X393783D01*
X393695Y162633D01*
X393110Y162750D01*
X390331D01*
Y163992D01*
X390007D01*
X389677Y164368D01*
X389766Y165039D01*
X389664Y165814D01*
X389365Y166536D01*
X389131Y166841D01*
X389352Y167289D01*
X393697D01*
X397841Y163146D01*
D02*
G37*
G36*
X685354Y236850D02*
Y105827D01*
X680315Y100787D01*
X487334D01*
X487113Y101236D01*
X487582Y101848D01*
X487921Y102666D01*
X488037Y103543D01*
X487921Y104421D01*
X487582Y105239D01*
X487044Y105941D01*
X486341Y106480D01*
X486175Y106549D01*
Y109839D01*
X541106Y164770D01*
X590866D01*
X591451Y164886D01*
X591948Y165218D01*
X610397Y183668D01*
X649513D01*
X649704Y183205D01*
X636955Y170457D01*
X636221Y170553D01*
X635445Y170451D01*
X634723Y170152D01*
X634103Y169676D01*
X633628Y169056D01*
X633328Y168334D01*
X633226Y167559D01*
X633328Y166784D01*
X633628Y166062D01*
X634103Y165442D01*
X634723Y164966D01*
X635445Y164667D01*
X636221Y164565D01*
X636995Y164667D01*
X637717Y164966D01*
X638338Y165442D01*
X638813Y166062D01*
X639113Y166784D01*
X639215Y167559D01*
X639118Y168294D01*
X654295Y183471D01*
X661355D01*
X661547Y183007D01*
X662181Y182181D01*
X662208Y182160D01*
X662047Y181687D01*
X657638D01*
X657053Y181570D01*
X656556Y181239D01*
X644514Y169197D01*
X643780Y169293D01*
X643005Y169191D01*
X642282Y168892D01*
X641662Y168416D01*
X641187Y167796D01*
X640887Y167074D01*
X640785Y166299D01*
X640887Y165524D01*
X641187Y164802D01*
X641662Y164182D01*
X642282Y163706D01*
X643005Y163407D01*
X643780Y163305D01*
X644555Y163407D01*
X645277Y163706D01*
X645713Y164041D01*
X646110Y163737D01*
X645927Y163295D01*
X645825Y162520D01*
X645927Y161745D01*
X646226Y161023D01*
X646702Y160403D01*
X647322Y159927D01*
X648044Y159628D01*
X648819Y159526D01*
X649594Y159628D01*
X650316Y159927D01*
X650753Y160262D01*
X651149Y159958D01*
X650966Y159515D01*
X650864Y158740D01*
X650966Y157965D01*
X651149Y157523D01*
X650753Y157219D01*
X650316Y157554D01*
X649594Y157853D01*
X648819Y157955D01*
X648044Y157853D01*
X647322Y157554D01*
X646702Y157078D01*
X646226Y156458D01*
X645927Y155736D01*
X645825Y154961D01*
X645927Y154186D01*
X646226Y153464D01*
X646702Y152843D01*
X647322Y152368D01*
X648044Y152068D01*
X648819Y151967D01*
X649594Y152068D01*
X650316Y152368D01*
X650936Y152843D01*
X651387Y153431D01*
X654219D01*
X654483Y153007D01*
X654402Y152844D01*
X653858Y152915D01*
X653083Y152813D01*
X652361Y152514D01*
X651741Y152038D01*
X651265Y151418D01*
X650966Y150696D01*
X650864Y149921D01*
X650966Y149146D01*
X651265Y148424D01*
X651741Y147804D01*
X652329Y147353D01*
Y146142D01*
X652329Y146142D01*
X652329D01*
X652445Y145556D01*
X652777Y145060D01*
X659076Y138761D01*
X659572Y138429D01*
X660157Y138313D01*
X669842D01*
X670428Y138429D01*
X670924Y138761D01*
X670924Y138761D01*
X670924Y138761D01*
X673504Y141341D01*
X673968Y141149D01*
X675000Y141013D01*
X676032Y141149D01*
X676993Y141547D01*
X677819Y142181D01*
X678453Y143007D01*
X678851Y143968D01*
X678987Y145000D01*
X678851Y146032D01*
X678453Y146993D01*
X677819Y147819D01*
X676993Y148453D01*
X676032Y148851D01*
X675000Y148987D01*
X673968Y148851D01*
X673007Y148453D01*
X672181Y147819D01*
X671547Y146993D01*
X671149Y146032D01*
X671013Y145000D01*
X671149Y143968D01*
X671341Y143504D01*
X669415Y141578D01*
X668953Y141769D01*
Y148392D01*
X669921D01*
X670506Y148508D01*
X671003Y148840D01*
X671003Y148840D01*
X671003Y148840D01*
X673504Y151341D01*
X673968Y151149D01*
X675000Y151013D01*
X676032Y151149D01*
X676993Y151547D01*
X677819Y152181D01*
X678453Y153007D01*
X678851Y153968D01*
X678987Y155000D01*
X678851Y156032D01*
X678453Y156993D01*
X677819Y157819D01*
X676993Y158453D01*
X676032Y158851D01*
X675000Y158987D01*
X673968Y158851D01*
X673007Y158453D01*
X672181Y157819D01*
X671547Y156993D01*
X671149Y156032D01*
X671013Y155000D01*
X671149Y153968D01*
X671341Y153504D01*
X669288Y151451D01*
X667645D01*
X667485Y151924D01*
X667819Y152181D01*
X668453Y153007D01*
X668851Y153968D01*
X668921Y154500D01*
X665000D01*
Y155500D01*
X668921D01*
X668851Y156032D01*
X668453Y156993D01*
X667819Y157819D01*
X667587Y157997D01*
X667748Y158471D01*
X670000D01*
X670585Y158587D01*
X671081Y158919D01*
X671081Y158919D01*
X671081Y158919D01*
X673504Y161341D01*
X673968Y161149D01*
X675000Y161013D01*
X676032Y161149D01*
X676993Y161547D01*
X677819Y162181D01*
X678453Y163007D01*
X678851Y163968D01*
X678987Y165000D01*
X678851Y166032D01*
X678453Y166993D01*
X677819Y167819D01*
X676993Y168453D01*
X676032Y168851D01*
X675000Y168987D01*
X673968Y168851D01*
X673007Y168453D01*
X672181Y167819D01*
X671547Y166993D01*
X671149Y166032D01*
X671013Y165000D01*
X671149Y163968D01*
X671341Y163504D01*
X669367Y161529D01*
X667748D01*
X667587Y162003D01*
X667819Y162181D01*
X668453Y163007D01*
X668851Y163968D01*
X668987Y165000D01*
X668851Y166032D01*
X668453Y166993D01*
X667819Y167819D01*
X667485Y168076D01*
X667645Y168549D01*
X670079D01*
X670664Y168666D01*
X671160Y168997D01*
X671160Y168997D01*
X671160Y168997D01*
X673504Y171341D01*
X673968Y171149D01*
X675000Y171013D01*
X676032Y171149D01*
X676993Y171547D01*
X677819Y172181D01*
X678453Y173007D01*
X678851Y173968D01*
X678987Y175000D01*
X678851Y176032D01*
X678453Y176993D01*
X677819Y177819D01*
X676993Y178453D01*
X676032Y178851D01*
X675000Y178987D01*
X673968Y178851D01*
X673007Y178453D01*
X672181Y177819D01*
X671547Y176993D01*
X671149Y176032D01*
X671013Y175000D01*
X671149Y173968D01*
X671341Y173504D01*
X669445Y171608D01*
X667850D01*
X667690Y172082D01*
X667819Y172181D01*
X668453Y173007D01*
X668851Y173968D01*
X668987Y175000D01*
X668851Y176032D01*
X668453Y176993D01*
X667819Y177819D01*
X667382Y178155D01*
X667543Y178628D01*
X670157D01*
X670743Y178744D01*
X671239Y179076D01*
X671239Y179076D01*
X671239Y179076D01*
X673504Y181341D01*
X673968Y181149D01*
X675000Y181013D01*
X676032Y181149D01*
X676993Y181547D01*
X677819Y182181D01*
X678453Y183007D01*
X678851Y183968D01*
X678987Y185000D01*
X678851Y186032D01*
X678453Y186993D01*
X677819Y187819D01*
X676993Y188453D01*
X676032Y188851D01*
X675000Y188987D01*
X673968Y188851D01*
X673007Y188453D01*
X672181Y187819D01*
X671547Y186993D01*
X671149Y186032D01*
X671013Y185000D01*
X671149Y183968D01*
X671341Y183504D01*
X669524Y181687D01*
X667953D01*
X667792Y182160D01*
X667819Y182181D01*
X668453Y183007D01*
X668851Y183968D01*
X668987Y185000D01*
X668851Y186032D01*
X668453Y186993D01*
X667819Y187819D01*
X666993Y188453D01*
X666032Y188851D01*
X665000Y188987D01*
X663968Y188851D01*
X663007Y188453D01*
X662181Y187819D01*
X661547Y186993D01*
X661437Y186726D01*
X641826D01*
X641751Y186907D01*
X642056Y187303D01*
X642520Y187242D01*
X643295Y187344D01*
X644017Y187643D01*
X644637Y188119D01*
X645113Y188739D01*
X645412Y189461D01*
X645490Y190056D01*
X645952Y190247D01*
X646062Y190163D01*
X646784Y189864D01*
X647559Y189762D01*
X648334Y189864D01*
X649056Y190163D01*
X649676Y190639D01*
X650152Y191259D01*
X650451Y191981D01*
X650553Y192756D01*
X650451Y193531D01*
X650152Y194253D01*
X649676Y194873D01*
X649088Y195324D01*
Y196089D01*
X649555Y196787D01*
X649724Y197638D01*
Y203937D01*
X649555Y204788D01*
X649073Y205509D01*
X648351Y205992D01*
X647500Y206161D01*
X646649Y205992D01*
X645927Y205509D01*
X645445Y204788D01*
X645276Y203937D01*
Y197638D01*
X645445Y196787D01*
X645927Y196065D01*
X646030Y195997D01*
Y195324D01*
X645442Y194873D01*
X644966Y194253D01*
X644667Y193531D01*
X644589Y192936D01*
X644465Y192885D01*
X644049Y193163D01*
Y196050D01*
X644072Y196065D01*
X644555Y196787D01*
X644724Y197638D01*
Y203937D01*
X644555Y204788D01*
X644072Y205509D01*
X643351Y205992D01*
X642500Y206161D01*
X641649Y205992D01*
X640928Y205509D01*
X640445Y204788D01*
X640276Y203937D01*
Y197638D01*
X640445Y196787D01*
X640928Y196065D01*
X640990Y196023D01*
Y193163D01*
X640575Y192885D01*
X640451Y192936D01*
X640372Y193531D01*
X640073Y194253D01*
X639598Y194873D01*
X639010Y195324D01*
Y196023D01*
X639073Y196065D01*
X639555Y196787D01*
X639724Y197638D01*
Y203937D01*
X639555Y204788D01*
X639073Y205509D01*
X638351Y205992D01*
X637500Y206161D01*
X636649Y205992D01*
X635927Y205509D01*
X635445Y204788D01*
X635276Y203937D01*
Y197638D01*
X635445Y196787D01*
X635927Y196065D01*
X635951Y196050D01*
Y195324D01*
X635363Y194873D01*
X634887Y194253D01*
X634588Y193531D01*
X634510Y192936D01*
X634048Y192745D01*
X633938Y192829D01*
X633216Y193128D01*
X632441Y193230D01*
X631666Y193128D01*
X630944Y192829D01*
X630324Y192353D01*
X629848Y191733D01*
X629549Y191011D01*
X629447Y190236D01*
X629528Y189622D01*
X629198Y189246D01*
X610397D01*
X601195Y198449D01*
Y199973D01*
X601238Y200002D01*
X601720Y200724D01*
X601889Y201575D01*
Y207874D01*
X601720Y208725D01*
X601238Y209447D01*
X600516Y209929D01*
X599665Y210098D01*
X598814Y209929D01*
X598093Y209447D01*
X597611Y208725D01*
X597441Y207874D01*
Y201575D01*
X597611Y200724D01*
X598093Y200002D01*
X598136Y199973D01*
Y197815D01*
X598136Y197815D01*
X598136D01*
X598252Y197230D01*
X598584Y196733D01*
X608682Y186635D01*
Y186278D01*
X590233Y167829D01*
X550612D01*
X550466Y168125D01*
X550730Y168549D01*
X571969D01*
X572554Y168666D01*
X573050Y168997D01*
X575570Y171517D01*
X575901Y172013D01*
X576018Y172598D01*
Y176378D01*
X575901Y176963D01*
X575570Y177459D01*
X573030Y179999D01*
X572534Y180330D01*
X572365Y180364D01*
X572281Y180490D01*
X571560Y180972D01*
X570709Y181141D01*
X564409D01*
X563558Y180972D01*
X562837Y180490D01*
X562808Y180447D01*
X561244D01*
X561079Y180612D01*
Y183992D01*
X555142D01*
Y178842D01*
X558522D01*
X559529Y177836D01*
X560025Y177504D01*
X560610Y177388D01*
X562808D01*
X562837Y177345D01*
X563558Y176863D01*
X564409Y176693D01*
X570709D01*
X571560Y176863D01*
X571728Y176975D01*
X572928Y175776D01*
X572806Y175291D01*
X572480Y175192D01*
X572281Y175490D01*
X571560Y175972D01*
X570709Y176141D01*
X564409D01*
X563558Y175972D01*
X562837Y175490D01*
X562808Y175447D01*
X554762D01*
X554703Y175893D01*
X554404Y176615D01*
X553928Y177235D01*
X553308Y177711D01*
X552586Y178010D01*
X552081Y178077D01*
Y178842D01*
X553520D01*
Y183992D01*
X547583D01*
Y178842D01*
X549022D01*
Y177907D01*
X542992D01*
X542407Y177791D01*
X541911Y177459D01*
X504788Y140337D01*
X504340Y140558D01*
X504411Y141102D01*
X504396Y141220D01*
X515289Y152113D01*
X515727Y152769D01*
X515881Y153543D01*
X515881Y153543D01*
X515881Y153543D01*
Y153543D01*
Y177987D01*
X516677Y178598D01*
X517311Y179424D01*
X517709Y180385D01*
X517845Y181417D01*
X517709Y182449D01*
X517311Y183411D01*
X516677Y184237D01*
X515881Y184847D01*
Y194488D01*
X515727Y195262D01*
X515289Y195919D01*
X511000Y200208D01*
Y200422D01*
X515525Y204947D01*
X515964Y205604D01*
X516118Y206378D01*
Y211717D01*
X519819D01*
Y226709D01*
X508370D01*
Y221236D01*
X496984D01*
Y222181D01*
X485535D01*
Y216244D01*
X496984D01*
Y217190D01*
X508370D01*
Y211717D01*
X512071D01*
Y207216D01*
X508926Y204071D01*
X505063D01*
Y196559D01*
X505654D01*
Y195055D01*
X504906D01*
Y187937D01*
X510449D01*
Y194383D01*
X510911Y194575D01*
X511835Y193650D01*
Y184847D01*
X511039Y184237D01*
X510406Y183411D01*
X510007Y182449D01*
X509871Y181417D01*
X510007Y180385D01*
X510406Y179424D01*
X511039Y178598D01*
X511835Y177987D01*
Y154381D01*
X501535Y144081D01*
X501417Y144097D01*
X500642Y143994D01*
X499920Y143695D01*
X499300Y143219D01*
X498824Y142599D01*
X498525Y141877D01*
X498423Y141102D01*
X498525Y140327D01*
X498824Y139605D01*
X499300Y138985D01*
X499920Y138509D01*
X500642Y138210D01*
X501417Y138108D01*
X501962Y138180D01*
X502183Y137731D01*
X485698Y121247D01*
X485220Y121392D01*
X485212Y121433D01*
X485192Y121530D01*
X484861Y122026D01*
X463444Y143444D01*
X462948Y143775D01*
X462362Y143892D01*
X427087D01*
X426501Y143775D01*
X426005Y143444D01*
X417637Y135076D01*
X417175Y135267D01*
Y144899D01*
X417624Y145121D01*
X418031Y144809D01*
X418753Y144509D01*
X419528Y144407D01*
X420302Y144509D01*
X421025Y144809D01*
X421645Y145284D01*
X422121Y145905D01*
X422420Y146627D01*
X422522Y147402D01*
X422420Y148177D01*
X422121Y148899D01*
X421645Y149519D01*
X421025Y149995D01*
X420955Y150023D01*
Y151181D01*
X420955Y151181D01*
X420846Y151727D01*
X420537Y152190D01*
X420537Y152190D01*
X414238Y158490D01*
X413775Y158799D01*
X413228Y158908D01*
X413228Y158908D01*
X408189D01*
X408189Y158908D01*
X407643Y158799D01*
X407180Y158490D01*
X407180Y158490D01*
X406401Y157711D01*
X405939Y157902D01*
Y168819D01*
X405822Y169404D01*
X405491Y169900D01*
X397932Y177459D01*
X397436Y177791D01*
X396850Y177907D01*
X395646D01*
Y179347D01*
X394600D01*
Y181362D01*
X396039D01*
Y186512D01*
X390102D01*
Y181362D01*
X391542D01*
Y179347D01*
X390496D01*
Y173409D01*
X395646D01*
Y174849D01*
X396217D01*
X402880Y168185D01*
Y166865D01*
X402418Y166674D01*
X396672Y172420D01*
X396176Y172751D01*
X395590Y172868D01*
X378586D01*
X377665Y173789D01*
X376986Y174805D01*
X377468Y175527D01*
X377637Y176378D01*
Y182677D01*
X377468Y183528D01*
X376986Y184250D01*
X376264Y184732D01*
X375413Y184901D01*
X374562Y184732D01*
X373841Y184250D01*
X373359Y183528D01*
X373190Y182677D01*
Y181057D01*
X372637D01*
Y182677D01*
X372468Y183528D01*
X371986Y184250D01*
X371264Y184732D01*
X370413Y184901D01*
X369562Y184732D01*
X368841Y184250D01*
X368359Y183528D01*
X368190Y182677D01*
Y176378D01*
X368359Y175527D01*
X368841Y174805D01*
X369562Y174323D01*
X370413Y174154D01*
X371264Y174323D01*
X371986Y174805D01*
X372468Y175527D01*
X372637Y176378D01*
Y177998D01*
X373190D01*
Y176378D01*
X373359Y175527D01*
X373841Y174805D01*
X373884Y174777D01*
Y173878D01*
X373884Y173878D01*
X373884D01*
X374000Y173293D01*
X374332Y172796D01*
X376318Y170810D01*
X376127Y170348D01*
X372287D01*
X367324Y175311D01*
X367468Y175527D01*
X367637Y176378D01*
Y182677D01*
X367468Y183528D01*
X366986Y184250D01*
X366264Y184732D01*
X365413Y184901D01*
X364562Y184732D01*
X364261Y185184D01*
X364467Y185682D01*
X364569Y186457D01*
X364467Y187232D01*
X364168Y187954D01*
X363692Y188574D01*
X363072Y189050D01*
X362350Y189349D01*
X361575Y189451D01*
X360800Y189349D01*
X360078Y189050D01*
X359458Y188574D01*
X358982Y187954D01*
X358683Y187232D01*
X358581Y186457D01*
X358683Y185682D01*
X358982Y184960D01*
X359458Y184339D01*
X360045Y183888D01*
Y183366D01*
X360045Y183366D01*
X360045D01*
X360162Y182781D01*
X360493Y182285D01*
X363190Y179588D01*
Y176378D01*
X363359Y175527D01*
X363841Y174805D01*
X363894Y174770D01*
X363941Y174533D01*
X364273Y174037D01*
X364851Y173459D01*
X364690Y172985D01*
X364579Y172971D01*
X363857Y172672D01*
X363747Y172587D01*
X363285Y172779D01*
X363207Y173373D01*
X362908Y174095D01*
X362432Y174716D01*
X361812Y175191D01*
X361090Y175490D01*
X360315Y175593D01*
X359540Y175490D01*
X358818Y175191D01*
X358198Y174716D01*
X357722Y174095D01*
X357423Y173373D01*
X357415Y173316D01*
X356915D01*
X356908Y173373D01*
X356609Y174095D01*
X356133Y174716D01*
X355513Y175191D01*
X354791Y175490D01*
X354196Y175569D01*
X354005Y176031D01*
X354089Y176141D01*
X354388Y176863D01*
X354490Y177638D01*
X354388Y178413D01*
X354089Y179135D01*
X353613Y179755D01*
X352993Y180231D01*
X352271Y180530D01*
X351496Y180632D01*
X350721Y180530D01*
X349999Y180231D01*
X349379Y179755D01*
X348903Y179135D01*
X348604Y178413D01*
X348526Y177818D01*
X348064Y177627D01*
X347954Y177711D01*
X347232Y178010D01*
X346457Y178112D01*
X345682Y178010D01*
X344960Y177711D01*
X344339Y177235D01*
X343864Y176615D01*
X343565Y175893D01*
X343463Y175118D01*
X343528Y174621D01*
X343175Y174267D01*
X342677Y174333D01*
X341902Y174231D01*
X341180Y173932D01*
X340560Y173456D01*
X340084Y172836D01*
X339785Y172114D01*
X339683Y171339D01*
X339785Y170564D01*
X340084Y169842D01*
X340560Y169221D01*
X341180Y168746D01*
X341882Y168455D01*
X341888Y168337D01*
X341832Y167916D01*
X341652Y167819D01*
X341285Y168064D01*
X340472Y168226D01*
X339660Y168064D01*
X338971Y167604D01*
X338511Y166915D01*
X338349Y166102D01*
Y165466D01*
X337565D01*
X337235Y165897D01*
X336615Y166373D01*
X335893Y166672D01*
X335118Y166774D01*
X334343Y166672D01*
X333621Y166373D01*
X333001Y165897D01*
X332525Y165277D01*
X332226Y164555D01*
X332124Y163779D01*
X332226Y163005D01*
X332525Y162283D01*
X333001Y161662D01*
X333621Y161187D01*
X333977Y161039D01*
X333880Y160549D01*
X332795D01*
X331983Y160387D01*
X331335Y159955D01*
X322417D01*
Y166987D01*
X326714Y171283D01*
X329701D01*
Y176433D01*
X324551D01*
Y173446D01*
X322879Y171774D01*
X322417Y171966D01*
Y172890D01*
X312543D01*
Y149236D01*
X321538D01*
X321729Y148774D01*
X316399Y143444D01*
X316067Y142947D01*
X315951Y142362D01*
Y135488D01*
X312954D01*
X312688Y135693D01*
X312547Y135904D01*
X312813Y136548D01*
X312915Y137323D01*
X312813Y138098D01*
X312514Y138820D01*
X312038Y139440D01*
X311418Y139916D01*
X311349Y139945D01*
Y150079D01*
X311349Y150079D01*
X311240Y150625D01*
X311116Y150811D01*
X310931Y151088D01*
X310931Y151088D01*
X283617Y178402D01*
X283851Y178968D01*
X283987Y180000D01*
X283851Y181032D01*
X283453Y181993D01*
X282819Y182819D01*
X281993Y183453D01*
X281032Y183851D01*
X280000Y183987D01*
X278968Y183851D01*
X278007Y183453D01*
X277181Y182819D01*
X276547Y181993D01*
X276149Y181032D01*
X276013Y180000D01*
X276149Y178968D01*
X276547Y178007D01*
X277181Y177181D01*
X278007Y176547D01*
X278968Y176149D01*
X280000Y176013D01*
X281032Y176149D01*
X281598Y176383D01*
X286092Y171889D01*
X285901Y171427D01*
X283687D01*
X283453Y171993D01*
X282819Y172819D01*
X281993Y173453D01*
X281032Y173851D01*
X280000Y173987D01*
X278968Y173851D01*
X278007Y173453D01*
X277181Y172819D01*
X276648Y172125D01*
X276175Y172286D01*
Y175354D01*
X276059Y175940D01*
X275727Y176436D01*
X273659Y178504D01*
X273851Y178968D01*
X273987Y180000D01*
X273851Y181032D01*
X273453Y181993D01*
X272819Y182819D01*
X271993Y183453D01*
X271032Y183851D01*
X270000Y183987D01*
X268968Y183851D01*
X268007Y183453D01*
X267181Y182819D01*
X266547Y181993D01*
X266149Y181032D01*
X266013Y180000D01*
X266149Y178968D01*
X266547Y178007D01*
X267181Y177181D01*
X268007Y176547D01*
X268968Y176149D01*
X270000Y176013D01*
X271032Y176149D01*
X271496Y176341D01*
X273116Y174721D01*
Y173156D01*
X272668Y172935D01*
X271993Y173453D01*
X271032Y173851D01*
X270000Y173987D01*
X268968Y173851D01*
X268007Y173453D01*
X267181Y172819D01*
X266547Y171993D01*
X266355Y171529D01*
X265748D01*
X265163Y171413D01*
X264667Y171081D01*
X262226Y168640D01*
X261894Y168144D01*
X261778Y167559D01*
Y162580D01*
X261482Y162434D01*
X261057Y162698D01*
Y168185D01*
X264388Y171517D01*
X264720Y172013D01*
X264837Y172598D01*
Y202201D01*
X267672Y205037D01*
X268134Y204845D01*
Y202075D01*
X273677D01*
Y205085D01*
X275614D01*
Y198016D01*
X277961D01*
Y193953D01*
X276047D01*
Y186047D01*
X281069D01*
X290819Y176297D01*
X290651Y175893D01*
X290549Y175118D01*
X290651Y174343D01*
X290950Y173621D01*
X291426Y173001D01*
X292046Y172525D01*
X292768Y172226D01*
X293543Y172124D01*
X294318Y172226D01*
X295040Y172525D01*
X295660Y173001D01*
X296136Y173621D01*
X296435Y174343D01*
X296537Y175118D01*
X296435Y175893D01*
X296136Y176615D01*
X295660Y177235D01*
X295184Y177601D01*
X294985Y177899D01*
X283953Y188931D01*
Y193953D01*
X282039D01*
Y199961D01*
X281884Y200741D01*
X281442Y201402D01*
X281157Y201687D01*
Y205085D01*
X284091D01*
X290754Y198422D01*
Y187717D01*
X290754Y187716D01*
X290754D01*
X290870Y187131D01*
X291202Y186635D01*
X298761Y179076D01*
X299257Y178744D01*
X299257Y178744D01*
X299257Y178744D01*
D01*
X299257Y178744D01*
X299257Y178744D01*
X299843Y178628D01*
X302314D01*
X302765Y178040D01*
X303385Y177565D01*
X304107Y177265D01*
X304882Y177163D01*
X305657Y177265D01*
X306379Y177565D01*
X306999Y178040D01*
X307475Y178660D01*
X307774Y179383D01*
X307876Y180157D01*
X307810Y180655D01*
X308164Y181008D01*
X308661Y180943D01*
X309436Y181045D01*
X310158Y181344D01*
X310779Y181820D01*
X311254Y182440D01*
X311554Y183162D01*
X311655Y183937D01*
X311554Y184712D01*
X311254Y185434D01*
X310779Y186054D01*
X310158Y186530D01*
X309436Y186829D01*
X308661Y186931D01*
X307887Y186829D01*
X307164Y186530D01*
X306544Y186054D01*
X306093Y185466D01*
X300476D01*
X296333Y189610D01*
Y200315D01*
X296216Y200900D01*
X295885Y201396D01*
X287066Y210215D01*
X286569Y210547D01*
X285984Y210663D01*
X264567D01*
X263982Y210547D01*
X263486Y210215D01*
X259706Y206436D01*
X259374Y205940D01*
X259258Y205354D01*
Y174492D01*
X254667Y169900D01*
X254335Y169404D01*
X254219Y168819D01*
Y154961D01*
X254335Y154375D01*
X254667Y153879D01*
X257018Y151528D01*
X256935Y151418D01*
X256635Y150696D01*
X256533Y149921D01*
X256635Y149146D01*
X256935Y148424D01*
X257410Y147804D01*
X258031Y147328D01*
X258753Y147029D01*
X259528Y146927D01*
X260302Y147029D01*
X261025Y147328D01*
X261329Y147562D01*
X261778Y147341D01*
Y142362D01*
X261778Y142362D01*
X261778D01*
X261894Y141777D01*
X262226Y141281D01*
X271044Y132462D01*
X271541Y132130D01*
X271638Y132111D01*
X272126Y132014D01*
X282831D01*
X284903Y129942D01*
X284903D01*
X284903Y129942D01*
X284903D01*
X284903Y129942D01*
Y129942D01*
X284903Y129942D01*
Y129942D01*
X285399Y129611D01*
X285984Y129494D01*
X289764D01*
X290349Y129611D01*
X290845Y129942D01*
X292917Y132014D01*
X302314D01*
X302765Y131426D01*
X303385Y130950D01*
X304107Y130651D01*
X304882Y130549D01*
X305657Y130651D01*
X306379Y130950D01*
X306999Y131426D01*
X307475Y132046D01*
X307774Y132768D01*
X307876Y133543D01*
X307774Y134318D01*
X307591Y134761D01*
X307987Y135065D01*
X308424Y134730D01*
X309146Y134431D01*
X309921Y134329D01*
X310696Y134431D01*
X311418Y134730D01*
X312038Y135206D01*
X312070Y135247D01*
X312543Y135086D01*
Y111835D01*
X322417D01*
Y112759D01*
X322879Y112950D01*
X324551Y111278D01*
Y108291D01*
X329701D01*
Y113441D01*
X326714D01*
X322417Y117738D01*
Y135488D01*
X319010D01*
Y141729D01*
X326726Y149445D01*
X327188Y149253D01*
Y147402D01*
X327312Y146777D01*
X327665Y146248D01*
X329240Y144673D01*
X329240D01*
X329240Y144673D01*
X329240D01*
X329240Y144673D01*
Y144673D01*
X329240Y144673D01*
Y144673D01*
X329769Y144320D01*
X330394Y144195D01*
X330775D01*
X331010Y143754D01*
X330833Y143490D01*
X330771Y143177D01*
X339150D01*
X339088Y143490D01*
X338628Y144179D01*
Y144325D01*
X339088Y145014D01*
X339249Y145827D01*
X339088Y146639D01*
X338628Y147328D01*
Y147475D01*
X339088Y148164D01*
X339150Y148476D01*
X334961D01*
Y149476D01*
X339150D01*
X339088Y149789D01*
X338911Y150054D01*
X339147Y150495D01*
X351765D01*
X354437Y147823D01*
X354966Y147469D01*
X355591Y147345D01*
X363845D01*
X364081Y146904D01*
X363904Y146639D01*
X363842Y146327D01*
X368032D01*
Y145327D01*
X363842D01*
X363904Y145014D01*
X364365Y144325D01*
Y144179D01*
X363904Y143490D01*
X363743Y142677D01*
X363904Y141865D01*
X364365Y141176D01*
Y141029D01*
X363904Y140340D01*
X363743Y139527D01*
X363904Y138715D01*
X364365Y138026D01*
Y137879D01*
X363904Y137191D01*
X363743Y136378D01*
X363904Y135565D01*
X364344Y134907D01*
X363991Y134553D01*
X363332Y134993D01*
X362520Y135155D01*
X361707Y134993D01*
X361018Y134533D01*
X360872D01*
X360183Y134993D01*
X359370Y135155D01*
X358558Y134993D01*
X357869Y134533D01*
X357722D01*
X357033Y134993D01*
X356221Y135155D01*
X355408Y134993D01*
X354719Y134533D01*
X354572D01*
X353884Y134993D01*
X353071Y135155D01*
X352258Y134993D01*
X351569Y134533D01*
X351423D01*
X350734Y134993D01*
X349921Y135155D01*
X349109Y134993D01*
X348420Y134533D01*
X348273D01*
X347584Y134993D01*
X346772Y135155D01*
X345959Y134993D01*
X345270Y134533D01*
X345124D01*
X344435Y134993D01*
X343622Y135155D01*
X342809Y134993D01*
X342121Y134533D01*
X341974D01*
X341285Y134993D01*
X340472Y135155D01*
X339660Y134993D01*
X339001Y134553D01*
X338648Y134907D01*
X339088Y135565D01*
X339249Y136378D01*
X339088Y137191D01*
X338628Y137879D01*
Y138026D01*
X339088Y138715D01*
X339249Y139527D01*
X339088Y140340D01*
X338628Y141029D01*
Y141176D01*
X339088Y141865D01*
X339150Y142177D01*
X330771D01*
X330833Y141865D01*
X331078Y141498D01*
X330843Y141057D01*
X327244D01*
X326756Y140960D01*
X326659Y140940D01*
X326163Y140609D01*
X323958Y138404D01*
X323626Y137908D01*
X323510Y137323D01*
Y128504D01*
X323626Y127919D01*
X323958Y127422D01*
X330257Y121123D01*
X330257D01*
X330257Y121123D01*
X330257D01*
X330257Y121123D01*
Y121123D01*
X330257Y121123D01*
Y121123D01*
X330753Y120792D01*
X331339Y120675D01*
X339524D01*
X351675Y108525D01*
X351674D01*
X351675Y108525D01*
X351675D01*
X351675Y108525D01*
Y108525D01*
X351675Y108525D01*
Y108525D01*
X352171Y108193D01*
X352756Y108077D01*
X373540D01*
X378131Y103486D01*
X378627Y103154D01*
X379213Y103038D01*
X390551D01*
X391137Y103154D01*
X391633Y103486D01*
X391633Y103486D01*
X391633Y103486D01*
X392336Y104189D01*
X393071Y104093D01*
X393846Y104194D01*
X394568Y104494D01*
X395188Y104970D01*
X395664Y105590D01*
X395963Y106312D01*
X396065Y107087D01*
X395963Y107862D01*
X395664Y108584D01*
X395188Y109204D01*
X394568Y109680D01*
X393928Y109945D01*
X394057Y110428D01*
X394331Y110392D01*
X395106Y110494D01*
X395828Y110793D01*
X396448Y111269D01*
X396924Y111889D01*
X397223Y112611D01*
X397325Y113386D01*
X397253Y113930D01*
X397416Y114010D01*
X397841Y113746D01*
Y110866D01*
X397841Y110866D01*
X397841D01*
X397957Y110281D01*
X398289Y109785D01*
X402029Y106044D01*
X402110Y105990D01*
Y104354D01*
X409228D01*
Y109898D01*
X402501D01*
X400900Y111500D01*
Y114646D01*
X400783Y115231D01*
X400452Y115727D01*
X398485Y117694D01*
X398676Y118156D01*
X409388D01*
X409490Y117949D01*
X409527Y117764D01*
X409209Y117378D01*
X406169D01*
Y114606D01*
Y111835D01*
X409228D01*
Y113116D01*
X410709D01*
X410869Y113148D01*
X411194Y113013D01*
X411469Y112977D01*
Y115905D01*
X411969D01*
Y116405D01*
X414897D01*
X414885Y116498D01*
X415214Y116874D01*
X417768D01*
Y119646D01*
Y122417D01*
X414997D01*
X414806Y122879D01*
X430240Y138313D01*
X457949D01*
X474583Y121679D01*
X474486Y120945D01*
X474588Y120170D01*
X474887Y119448D01*
X475363Y118828D01*
X475983Y118352D01*
X476705Y118053D01*
X477480Y117951D01*
X478255Y118053D01*
X478977Y118352D01*
X479598Y118828D01*
X480073Y119448D01*
X480372Y120170D01*
X480474Y120945D01*
X480403Y121489D01*
X480851Y121710D01*
X482250Y120311D01*
Y117799D01*
X474327Y109876D01*
X472441D01*
X471856Y109759D01*
X471359Y109428D01*
X469391Y107459D01*
X469060Y106963D01*
X469031Y106819D01*
X468980Y106564D01*
X468777Y106480D01*
X468075Y105941D01*
X467536Y105239D01*
X467197Y104421D01*
X467179Y104287D01*
X466679D01*
X466662Y104421D01*
X466323Y105239D01*
X465784Y105941D01*
X465425Y106217D01*
Y108567D01*
X466354D01*
Y115685D01*
X460811D01*
Y108567D01*
X461347D01*
Y106217D01*
X460988Y105941D01*
X460449Y105239D01*
X460110Y104421D01*
X460092Y104287D01*
X459592D01*
X459575Y104421D01*
X459236Y105239D01*
X458697Y105941D01*
X458338Y106217D01*
Y108567D01*
X458874D01*
Y111626D01*
X453331D01*
Y108567D01*
X454260D01*
Y106217D01*
X453901Y105941D01*
X453362Y105239D01*
X453024Y104421D01*
X453006Y104287D01*
X452506D01*
X452488Y104421D01*
X452149Y105239D01*
X451611Y105941D01*
X451293Y106185D01*
Y124724D01*
X451177Y125310D01*
X450845Y125806D01*
X449979Y126672D01*
X449483Y127004D01*
X448898Y127120D01*
X448008D01*
Y128854D01*
X438921D01*
Y122327D01*
X448008D01*
D01*
X448008D01*
X448234Y122100D01*
Y117043D01*
X448008D01*
Y117043D01*
X438921D01*
Y110516D01*
X441558D01*
X441749Y110054D01*
X441045Y109349D01*
X440713Y108853D01*
X440597Y108268D01*
Y106549D01*
X440430Y106480D01*
X439728Y105941D01*
X439189Y105239D01*
X438850Y104421D01*
X438833Y104287D01*
X438333D01*
X438315Y104421D01*
X437976Y105239D01*
X437437Y105941D01*
X436735Y106480D01*
X436569Y106549D01*
Y106693D01*
X436452Y107278D01*
X436121Y107774D01*
X433841Y110054D01*
X434033Y110516D01*
X436669D01*
Y117043D01*
X427583D01*
Y110516D01*
X430597D01*
Y109606D01*
X430713Y109021D01*
X431044Y108525D01*
X432932Y106638D01*
X432899Y106139D01*
X432641Y105941D01*
X432102Y105239D01*
X431764Y104421D01*
X431746Y104287D01*
X431246D01*
X431228Y104421D01*
X430890Y105239D01*
X430351Y105941D01*
X429648Y106480D01*
X428830Y106819D01*
X427953Y106934D01*
X427075Y106819D01*
X426909Y106750D01*
X426096Y107563D01*
Y124061D01*
X427583D01*
Y122327D01*
X436669D01*
Y128854D01*
X427583D01*
Y127120D01*
X425433D01*
X424848Y127004D01*
X424352Y126672D01*
X423486Y125806D01*
X423154Y125310D01*
X423037Y124724D01*
Y106929D01*
X423090Y106665D01*
X422666Y106401D01*
X422562Y106480D01*
X421744Y106819D01*
X420866Y106934D01*
X420173Y106843D01*
X419867Y107111D01*
X419797Y107281D01*
Y109394D01*
X421827D01*
Y114937D01*
X415214D01*
X414885Y115313D01*
X414897Y115405D01*
X412468D01*
Y112977D01*
X412743Y113013D01*
X413466Y113312D01*
X414086Y113788D01*
X414235Y113983D01*
X414709Y113822D01*
Y109394D01*
X416738D01*
Y106142D01*
X416738Y106142D01*
X416738D01*
X416855Y105556D01*
X417186Y105060D01*
X417659Y104587D01*
X417591Y104421D01*
X417475Y103543D01*
X417591Y102666D01*
X417929Y101848D01*
X418399Y101236D01*
X418178Y100787D01*
X105827D01*
X100787Y105827D01*
Y236850D01*
X105827Y241890D01*
X353728D01*
X353873Y241411D01*
X353490Y241156D01*
X350971Y238636D01*
X350423Y237817D01*
X350231Y236850D01*
Y235764D01*
X348803D01*
Y227858D01*
X350231D01*
Y221866D01*
X349800Y221305D01*
X349382Y220296D01*
X349240Y219213D01*
X349382Y218129D01*
X349800Y217120D01*
X350466Y216253D01*
X351332Y215588D01*
X352342Y215170D01*
X353425Y215027D01*
X354508Y215170D01*
X355518Y215588D01*
X356385Y216253D01*
X357050Y217120D01*
X357468Y218129D01*
X357611Y219213D01*
X357468Y220296D01*
X357050Y221305D01*
X356385Y222172D01*
X355518Y222837D01*
X355281Y222936D01*
Y227858D01*
X356709D01*
Y235764D01*
X355893D01*
X355702Y236226D01*
X356321Y236845D01*
X398324D01*
X399365Y235805D01*
Y221732D01*
X399557Y220766D01*
X400104Y219947D01*
X401885Y218167D01*
Y215433D01*
X402077Y214467D01*
X402624Y213648D01*
X402624Y213648D01*
X402624Y213648D01*
X405144Y211128D01*
X405963Y210581D01*
X406559Y210462D01*
Y208764D01*
X414858D01*
Y213414D01*
X418653D01*
X418677Y213398D01*
X419527Y213229D01*
X425827D01*
X426678Y213398D01*
X427399Y213880D01*
X427881Y214602D01*
X428051Y215453D01*
X427881Y216304D01*
X427399Y217025D01*
X426678Y217507D01*
X425827Y217677D01*
X419527D01*
X418677Y217507D01*
X418653Y217492D01*
X413248D01*
X412468Y217337D01*
X412058Y217063D01*
X406934D01*
Y219213D01*
X406742Y220179D01*
X406195Y220998D01*
X404415Y222778D01*
Y232031D01*
X409740D01*
Y239150D01*
X404197D01*
Y238767D01*
X403735Y238576D01*
X403675Y238636D01*
X401155Y241156D01*
X400773Y241411D01*
X400918Y241890D01*
X479787D01*
Y241890D01*
Y241669D01*
X479787Y241536D01*
X479787Y241536D01*
X479787D01*
Y238610D01*
X485331D01*
Y241536D01*
X485331Y241536D01*
D01*
D01*
X485331Y241669D01*
D01*
X485551Y241890D01*
X487268D01*
Y241890D01*
Y241669D01*
X487268Y241536D01*
X487268Y241536D01*
X487268D01*
Y234551D01*
X489237D01*
Y231236D01*
X485535D01*
Y230291D01*
X485276D01*
X484501Y230137D01*
X483845Y229698D01*
X467231Y213084D01*
X466792Y212428D01*
X466638Y211653D01*
Y209110D01*
X461756D01*
Y206060D01*
X461667Y206042D01*
X461010Y205604D01*
X455225Y199818D01*
X452496D01*
Y206394D01*
X451254D01*
Y214213D01*
X451137Y214798D01*
X450806Y215294D01*
X449566Y216534D01*
X449069Y216866D01*
X448484Y216982D01*
X446326D01*
X446297Y217025D01*
X445575Y217507D01*
X444724Y217677D01*
X438425D01*
X437574Y217507D01*
X436853Y217025D01*
X436371Y216304D01*
X436201Y215453D01*
X436371Y214602D01*
X436853Y213880D01*
X437574Y213398D01*
X438425Y213229D01*
X444724D01*
X445575Y213398D01*
X446297Y213880D01*
X446326Y213923D01*
X447851D01*
X448195Y213579D01*
Y206394D01*
X446953D01*
Y199818D01*
X445016D01*
Y202335D01*
X439472D01*
Y199818D01*
X437220D01*
Y199818D01*
Y199866D01*
X437220Y200172D01*
X437220Y200172D01*
X437220D01*
Y202335D01*
X432071D01*
Y200172D01*
X432071Y200172D01*
X432071D01*
X432071Y199866D01*
X432023Y199818D01*
X430921D01*
Y199818D01*
Y199866D01*
X430921Y200172D01*
X430921Y200172D01*
X430921D01*
Y205803D01*
X425772D01*
Y204364D01*
X423362D01*
Y205803D01*
X422317D01*
Y207929D01*
X422616Y208229D01*
X425827D01*
X426678Y208398D01*
X427399Y208880D01*
X427881Y209602D01*
X428051Y210453D01*
X427881Y211304D01*
X427399Y212025D01*
X426678Y212507D01*
X425827Y212677D01*
X419527D01*
X418677Y212507D01*
X417955Y212025D01*
X417473Y211304D01*
X417304Y210453D01*
X417473Y209602D01*
X417955Y208880D01*
X418677Y208398D01*
X419258Y208282D01*
Y205803D01*
X418213D01*
Y200172D01*
X418213Y200172D01*
X418213D01*
X418213Y199866D01*
X418165Y199818D01*
X417063D01*
Y199866D01*
X417063D01*
Y205803D01*
X411913D01*
Y199866D01*
D01*
Y199866D01*
X411866Y199818D01*
X388961D01*
X388889Y199912D01*
X388269Y200388D01*
X387547Y200687D01*
X386772Y200789D01*
X386238Y200719D01*
X386017Y201168D01*
X389462Y204613D01*
X389755Y205051D01*
X389901Y205269D01*
X390055Y206043D01*
Y226249D01*
X391761Y227955D01*
X392756Y227824D01*
X393788Y227960D01*
X394749Y228358D01*
X395575Y228992D01*
X396209Y229818D01*
X396607Y230779D01*
X396743Y231811D01*
X396607Y232843D01*
X396209Y233804D01*
X395575Y234630D01*
X394749Y235264D01*
X393788Y235662D01*
X392756Y235798D01*
X391724Y235662D01*
X390762Y235264D01*
X389937Y234630D01*
X389303Y233804D01*
X388905Y232843D01*
X388769Y231811D01*
X388900Y230816D01*
X386601Y228517D01*
X386162Y227861D01*
X386008Y227087D01*
Y206881D01*
X382248Y203121D01*
X381986Y203147D01*
X381264Y203629D01*
X380413Y203799D01*
X379562Y203629D01*
X378841Y203147D01*
X378359Y202426D01*
X378190Y201575D01*
Y195276D01*
X378359Y194425D01*
X378841Y193703D01*
X379562Y193221D01*
X380413Y193052D01*
X381264Y193221D01*
X381986Y193703D01*
X382468Y194425D01*
X382637Y195276D01*
Y195772D01*
X384582D01*
X384654Y195678D01*
X385275Y195202D01*
X385997Y194903D01*
X386772Y194801D01*
X387547Y194903D01*
X388269Y195202D01*
X388889Y195678D01*
X388961Y195772D01*
X406126D01*
Y195055D01*
X405378D01*
Y187937D01*
X410921D01*
Y195055D01*
X410173D01*
Y195772D01*
X436717D01*
Y195331D01*
X436717D01*
Y190181D01*
X442654D01*
Y195331D01*
X442654D01*
Y195419D01*
X443007Y195772D01*
X443685D01*
Y195488D01*
X443685D01*
Y189945D01*
X450803D01*
Y195488D01*
D01*
Y195488D01*
X451087Y195772D01*
X456063D01*
X456837Y195926D01*
X457493Y196365D01*
X461294Y200165D01*
X461756Y199974D01*
Y199236D01*
X466638D01*
Y193726D01*
X465809Y193089D01*
X465167Y192253D01*
X464764Y191280D01*
X464627Y190236D01*
X464764Y189192D01*
X465167Y188219D01*
X465809Y187383D01*
X466644Y186742D01*
X467617Y186339D01*
X468661Y186202D01*
X469698Y186338D01*
X476050Y179987D01*
X476706Y179548D01*
X477480Y179394D01*
X489906D01*
Y177465D01*
X497811D01*
Y185370D01*
X489906D01*
Y183440D01*
X478318D01*
X472559Y189199D01*
X472696Y190236D01*
X472558Y191280D01*
X472155Y192253D01*
X471514Y193089D01*
X470684Y193726D01*
Y199236D01*
X475567D01*
Y209110D01*
X470684D01*
Y210816D01*
X485276Y225407D01*
X485535Y225299D01*
Y225299D01*
X485535Y225299D01*
X496984D01*
Y231048D01*
X542134D01*
Y229308D01*
X542282Y228567D01*
X542702Y227938D01*
X543330Y227518D01*
X544072Y227371D01*
X549472D01*
X550213Y227518D01*
X550842Y227938D01*
X551261Y228567D01*
X551409Y229308D01*
Y234708D01*
X551261Y235449D01*
X550842Y236078D01*
X550213Y236498D01*
X549472Y236645D01*
X544072D01*
X543330Y236498D01*
X542702Y236078D01*
X542282Y235449D01*
X542211Y235094D01*
X496063D01*
X495289Y234940D01*
X494632Y234501D01*
X493745Y233614D01*
X493283Y233805D01*
Y236890D01*
X493129Y237664D01*
X492811Y238140D01*
Y241536D01*
X492811Y241536D01*
D01*
D01*
X492811Y241669D01*
D01*
X493032Y241890D01*
X680315D01*
X685354Y236850D01*
D02*
G37*
G36*
X478246Y124316D02*
X478025Y123867D01*
X477480Y123939D01*
X476746Y123842D01*
X460217Y140371D01*
X460409Y140833D01*
X461729D01*
X478246Y124316D01*
D02*
G37*
G36*
X365054Y134416D02*
X365866Y134255D01*
X368136D01*
X373257Y129133D01*
X373066Y128672D01*
X366733D01*
X364643Y130761D01*
Y133031D01*
X364481Y133844D01*
X364042Y134502D01*
X364395Y134856D01*
X365054Y134416D01*
D02*
G37*
G36*
X266535Y168036D02*
X266547Y168007D01*
X267181Y167181D01*
X268007Y166547D01*
X268968Y166149D01*
X270000Y166013D01*
X271032Y166149D01*
X271993Y166547D01*
X272668Y167065D01*
X273116Y166844D01*
Y163156D01*
X272668Y162935D01*
X271993Y163453D01*
X271032Y163851D01*
X270000Y163987D01*
X268968Y163851D01*
X268007Y163453D01*
X267181Y162819D01*
X266547Y161993D01*
X266149Y161032D01*
X266013Y160000D01*
X266149Y158968D01*
X266547Y158007D01*
X267181Y157181D01*
X268007Y156547D01*
X268968Y156149D01*
X270000Y156013D01*
X271032Y156149D01*
X271993Y156547D01*
X272668Y157065D01*
X273116Y156844D01*
Y153156D01*
X272668Y152935D01*
X271993Y153453D01*
X271032Y153851D01*
X270000Y153987D01*
X268968Y153851D01*
X268007Y153453D01*
X267181Y152819D01*
X266547Y151993D01*
X266149Y151032D01*
X266013Y150000D01*
X266149Y148968D01*
X266547Y148007D01*
X267181Y147181D01*
X268007Y146547D01*
X268968Y146149D01*
X270000Y146013D01*
X271032Y146149D01*
X271993Y146547D01*
X272668Y147065D01*
X273116Y146844D01*
Y144882D01*
X273233Y144297D01*
X273564Y143800D01*
X276084Y141281D01*
X276580Y140949D01*
X276580Y140949D01*
X276580Y140949D01*
D01*
X276580Y140949D01*
X276580Y140949D01*
X277165Y140833D01*
X278377D01*
X278828Y140245D01*
X279448Y139769D01*
X280170Y139470D01*
X280945Y139368D01*
X281720Y139470D01*
X282442Y139769D01*
X283062Y140245D01*
X283538Y140865D01*
X283837Y141587D01*
X283939Y142362D01*
X283837Y143137D01*
X283538Y143859D01*
X283062Y144479D01*
X282442Y144955D01*
X281720Y145254D01*
X280945Y145356D01*
X280170Y145254D01*
X279448Y144955D01*
X278828Y144479D01*
X278377Y143892D01*
X277799D01*
X276175Y145515D01*
Y147714D01*
X276648Y147875D01*
X277181Y147181D01*
X278007Y146547D01*
X278968Y146149D01*
X280000Y146013D01*
X281032Y146149D01*
X281993Y146547D01*
X282819Y147181D01*
X283453Y148007D01*
X283851Y148968D01*
X283987Y150000D01*
X283851Y151032D01*
X283453Y151993D01*
X282819Y152819D01*
X281993Y153453D01*
X281032Y153851D01*
X280000Y153987D01*
X278968Y153851D01*
X278007Y153453D01*
X277181Y152819D01*
X276648Y152125D01*
X276175Y152286D01*
Y157714D01*
X276648Y157875D01*
X277181Y157181D01*
X278007Y156547D01*
X278968Y156149D01*
X280000Y156013D01*
X281032Y156149D01*
X281993Y156547D01*
X282819Y157181D01*
X283453Y158007D01*
X283687Y158573D01*
X294212D01*
X294636Y158149D01*
Y147504D01*
X294566Y147475D01*
X293946Y146999D01*
X293470Y146379D01*
X293171Y145657D01*
X293069Y144882D01*
X293171Y144107D01*
X293470Y143385D01*
X293946Y142765D01*
X294566Y142289D01*
X295288Y141990D01*
X296063Y141888D01*
X296838Y141990D01*
X297560Y142289D01*
X298180Y142765D01*
X298656Y143385D01*
X298955Y144107D01*
X299057Y144882D01*
X298955Y145657D01*
X298656Y146379D01*
X298180Y146999D01*
X297560Y147475D01*
X297490Y147504D01*
Y157186D01*
X297952Y157378D01*
X300935Y154395D01*
Y143724D01*
X300865Y143695D01*
X300245Y143219D01*
X299769Y142599D01*
X299470Y141877D01*
X299368Y141102D01*
X299470Y140327D01*
X299769Y139605D01*
X300245Y138985D01*
X300865Y138509D01*
X301587Y138210D01*
X302362Y138108D01*
X303137Y138210D01*
X303859Y138509D01*
X304479Y138985D01*
X304955Y139605D01*
X305254Y140327D01*
X305356Y141102D01*
X305254Y141877D01*
X304955Y142599D01*
X304479Y143219D01*
X303859Y143695D01*
X303790Y143724D01*
Y153538D01*
X304252Y153730D01*
X308494Y149487D01*
Y139945D01*
X308424Y139916D01*
X307804Y139440D01*
X307328Y138820D01*
X307029Y138098D01*
X306927Y137323D01*
X307029Y136548D01*
X307212Y136106D01*
X306816Y135801D01*
X306379Y136136D01*
X305657Y136435D01*
X304882Y136537D01*
X304107Y136435D01*
X303385Y136136D01*
X302765Y135661D01*
X302314Y135073D01*
X292284D01*
X291698Y134956D01*
X291202Y134625D01*
X289130Y132553D01*
X286618D01*
X284546Y134625D01*
X284050Y134956D01*
X283465Y135073D01*
X272760D01*
X264837Y142996D01*
Y166926D01*
X266045Y168134D01*
X266535Y168036D01*
D02*
G37*
G36*
X662618Y178155D02*
X662181Y177819D01*
X661547Y176993D01*
X661149Y176032D01*
X661013Y175000D01*
X661149Y173968D01*
X661547Y173007D01*
X662181Y172181D01*
X662310Y172082D01*
X662149Y171608D01*
X656378D01*
X655793Y171492D01*
X655297Y171160D01*
X649553Y165417D01*
X648819Y165514D01*
X648044Y165412D01*
X647322Y165113D01*
X646885Y164778D01*
X646488Y165082D01*
X646672Y165524D01*
X646774Y166299D01*
X646677Y167034D01*
X658271Y178628D01*
X662457D01*
X662618Y178155D01*
D02*
G37*
G36*
X293441Y161889D02*
X293249Y161427D01*
X283687D01*
X283453Y161993D01*
X282819Y162819D01*
X281993Y163453D01*
X281032Y163851D01*
X280000Y163987D01*
X278968Y163851D01*
X278007Y163453D01*
X277181Y162819D01*
X276648Y162125D01*
X276175Y162286D01*
Y167714D01*
X276648Y167875D01*
X277181Y167181D01*
X278007Y166547D01*
X278968Y166149D01*
X280000Y166013D01*
X281032Y166149D01*
X281993Y166547D01*
X282819Y167181D01*
X283453Y168007D01*
X283687Y168573D01*
X286757D01*
X293441Y161889D01*
D02*
G37*
G36*
X370572Y167737D02*
X370572D01*
X370572Y167737D01*
X370572Y167737D01*
Y167737D01*
X371068Y167406D01*
X371654Y167289D01*
X384191D01*
X384412Y166841D01*
X384179Y166536D01*
X383880Y165814D01*
X383777Y165039D01*
X383866Y164368D01*
X383536Y163992D01*
X383213D01*
Y162750D01*
X380433D01*
X379848Y162633D01*
X379760Y162575D01*
X376244D01*
Y161529D01*
X375433D01*
X374848Y161413D01*
X374352Y161081D01*
X373092Y159822D01*
X372760Y159325D01*
X372701Y159026D01*
X372201D01*
X372159Y159238D01*
X371698Y159927D01*
X371009Y160387D01*
X370197Y160549D01*
X369561D01*
Y162592D01*
X369991Y162922D01*
X370467Y163542D01*
X370766Y164264D01*
X370868Y165039D01*
X370766Y165814D01*
X370467Y166536D01*
X369991Y167157D01*
X369371Y167632D01*
X368649Y167931D01*
X368054Y168010D01*
X367863Y168472D01*
X367947Y168582D01*
X368246Y169304D01*
X368261Y169414D01*
X368735Y169575D01*
X370572Y167737D01*
D02*
G37*
G36*
X361707Y159810D02*
X362520Y159648D01*
X363332Y159810D01*
X363991Y160250D01*
X364344Y159896D01*
X363904Y159238D01*
X363743Y158425D01*
X363904Y157613D01*
X364081Y157348D01*
X363845Y156907D01*
X355591D01*
X354966Y156783D01*
X354437Y156429D01*
X351765Y153757D01*
X339147D01*
X338911Y154198D01*
X339088Y154463D01*
X339249Y155276D01*
X339088Y156088D01*
X338628Y156777D01*
Y156924D01*
X339088Y157613D01*
X339249Y158425D01*
X339088Y159238D01*
X338648Y159896D01*
X339001Y160250D01*
X339660Y159810D01*
X340472Y159648D01*
X341285Y159810D01*
X341974Y160270D01*
X342121D01*
X342809Y159810D01*
X343622Y159648D01*
X344435Y159810D01*
X345124Y160270D01*
X345270D01*
X345959Y159810D01*
X346772Y159648D01*
X347584Y159810D01*
X348273Y160270D01*
X348420D01*
X349109Y159810D01*
X349921Y159648D01*
X350734Y159810D01*
X351423Y160270D01*
X351569D01*
X352258Y159810D01*
X353071Y159648D01*
X353884Y159810D01*
X354572Y160270D01*
X354719D01*
X355408Y159810D01*
X356221Y159648D01*
X357033Y159810D01*
X357722Y160270D01*
X357869D01*
X358558Y159810D01*
X359370Y159648D01*
X360183Y159810D01*
X360872Y160270D01*
X361018D01*
X361707Y159810D01*
D02*
G37*
G36*
X662515Y168076D02*
X662181Y167819D01*
X661547Y166993D01*
X661149Y166032D01*
X661013Y165000D01*
X661149Y163968D01*
X661547Y163007D01*
X662181Y162181D01*
X662413Y162003D01*
X662252Y161529D01*
X655118D01*
X654958Y161498D01*
X654633Y161632D01*
X653858Y161734D01*
X653083Y161632D01*
X652361Y161333D01*
X651924Y160998D01*
X651528Y161302D01*
X651711Y161745D01*
X651813Y162520D01*
X651716Y163254D01*
X657011Y168549D01*
X662355D01*
X662515Y168076D01*
D02*
G37*
%LPC*%
G36*
X446744Y188008D02*
X443685D01*
Y185736D01*
X446744D01*
Y188008D01*
D02*
G37*
G36*
X450803D02*
X447744D01*
Y185736D01*
X450803D01*
Y188008D01*
D02*
G37*
G36*
X269500Y189500D02*
X266079D01*
X266149Y188968D01*
X266547Y188007D01*
X267181Y187181D01*
X268007Y186547D01*
X268968Y186149D01*
X269500Y186079D01*
Y189500D01*
D02*
G37*
G36*
X385512Y185671D02*
X384737Y185569D01*
X384015Y185270D01*
X383395Y184794D01*
X382919Y184174D01*
X382848Y184003D01*
X382660Y183878D01*
X382169Y183975D01*
X381986Y184250D01*
X381264Y184732D01*
X380413Y184901D01*
X379562Y184732D01*
X378841Y184250D01*
X378359Y183528D01*
X378190Y182677D01*
Y176378D01*
X378359Y175527D01*
X378841Y174805D01*
X379562Y174323D01*
X380413Y174154D01*
X381264Y174323D01*
X381986Y174805D01*
X382169Y175080D01*
X382660Y175178D01*
X382978Y174965D01*
X383563Y174849D01*
X384197D01*
Y173409D01*
X389347D01*
Y179347D01*
X386509D01*
X386412Y179837D01*
X387009Y180084D01*
X387629Y180560D01*
X388105Y181180D01*
X388404Y181902D01*
X388506Y182677D01*
X388404Y183452D01*
X388105Y184174D01*
X387629Y184794D01*
X387009Y185270D01*
X386287Y185569D01*
X385512Y185671D01*
D02*
G37*
G36*
X439185Y185957D02*
X436717D01*
Y183882D01*
X439185D01*
Y185957D01*
D02*
G37*
G36*
X442654D02*
X440185D01*
Y183882D01*
X442654D01*
Y185957D01*
D02*
G37*
G36*
X273921Y189500D02*
X270500D01*
Y186079D01*
X271032Y186149D01*
X271993Y186547D01*
X272819Y187181D01*
X273453Y188007D01*
X273851Y188968D01*
X273921Y189500D01*
D02*
G37*
G36*
X442654Y189032D02*
X440185D01*
Y186957D01*
X442654D01*
Y189032D01*
D02*
G37*
G36*
X392571Y189736D02*
X390102D01*
Y187661D01*
X392571D01*
Y189736D01*
D02*
G37*
G36*
X396039D02*
X393571D01*
Y187661D01*
X396039D01*
Y189736D01*
D02*
G37*
G36*
X589606Y191141D02*
X583307D01*
X582456Y190972D01*
X581735Y190490D01*
X581252Y189768D01*
X581083Y188917D01*
X581252Y188066D01*
X581735Y187345D01*
X582456Y186863D01*
X583307Y186694D01*
X589606D01*
X590457Y186863D01*
X591179Y187345D01*
X591661Y188066D01*
X591830Y188917D01*
X591661Y189768D01*
X591179Y190490D01*
X590457Y190972D01*
X589606Y191141D01*
D02*
G37*
G36*
X307181Y193047D02*
X300063D01*
Y187504D01*
X307181D01*
Y187585D01*
X309580D01*
X309609Y187542D01*
X310330Y187060D01*
X311181Y186890D01*
X317480D01*
X318331Y187060D01*
X319053Y187542D01*
X319535Y188263D01*
X319704Y189114D01*
X319535Y189965D01*
X319053Y190687D01*
X318331Y191169D01*
X317480Y191338D01*
X311181D01*
X310330Y191169D01*
X309609Y190687D01*
X309580Y190644D01*
X307181D01*
Y193047D01*
D02*
G37*
G36*
X439185Y189032D02*
X436717D01*
Y186957D01*
X439185D01*
Y189032D01*
D02*
G37*
G36*
X589606Y176141D02*
X586957D01*
Y174417D01*
X591731D01*
X591661Y174768D01*
X591179Y175490D01*
X590457Y175972D01*
X589606Y176141D01*
D02*
G37*
G36*
Y181141D02*
X583307D01*
X582456Y180972D01*
X581735Y180490D01*
X581252Y179768D01*
X581083Y178917D01*
X581252Y178066D01*
X581735Y177345D01*
X582456Y176863D01*
X583307Y176693D01*
X589606D01*
X590457Y176863D01*
X591179Y177345D01*
X591661Y178066D01*
X591830Y178917D01*
X591661Y179768D01*
X591179Y180490D01*
X590457Y180972D01*
X589606Y181141D01*
D02*
G37*
G36*
X468161Y180425D02*
X467617Y180354D01*
X466644Y179951D01*
X465809Y179309D01*
X465167Y178474D01*
X464764Y177501D01*
X464693Y176957D01*
X468161D01*
Y180425D01*
D02*
G37*
G36*
X332531Y176433D02*
X330457D01*
Y174358D01*
X332531D01*
Y176433D01*
D02*
G37*
G36*
X335606D02*
X333531D01*
Y174358D01*
X335606D01*
Y176433D01*
D02*
G37*
G36*
X585957Y176141D02*
X583307D01*
X582456Y175972D01*
X581735Y175490D01*
X581252Y174768D01*
X581183Y174417D01*
X585957D01*
Y176141D01*
D02*
G37*
G36*
X469161Y180425D02*
Y176957D01*
X472630D01*
X472558Y177501D01*
X472155Y178474D01*
X471514Y179309D01*
X470679Y179951D01*
X469706Y180354D01*
X469161Y180425D01*
D02*
G37*
G36*
X589606Y186141D02*
X583307D01*
X582456Y185972D01*
X581735Y185490D01*
X581252Y184768D01*
X581083Y183917D01*
X581252Y183066D01*
X581735Y182345D01*
X582456Y181863D01*
X583307Y181693D01*
X589606D01*
X590457Y181863D01*
X591179Y182345D01*
X591661Y183066D01*
X591830Y183917D01*
X591661Y184768D01*
X591179Y185490D01*
X590457Y185972D01*
X589606Y186141D01*
D02*
G37*
G36*
X446744Y184736D02*
X443685D01*
Y182465D01*
X446744D01*
Y184736D01*
D02*
G37*
G36*
X450803D02*
X447744D01*
Y182465D01*
X450803D01*
Y184736D01*
D02*
G37*
G36*
X317480Y196338D02*
X311181D01*
X310330Y196169D01*
X309609Y195687D01*
X309126Y194965D01*
X308957Y194114D01*
X309126Y193263D01*
X309609Y192542D01*
X310330Y192060D01*
X311181Y191890D01*
X317480D01*
X318331Y192060D01*
X319053Y192542D01*
X319082Y192585D01*
X320528D01*
X320990Y192122D01*
Y183976D01*
X321107Y183391D01*
X321438Y182895D01*
X322307Y182026D01*
Y177858D01*
X327850D01*
Y184976D01*
X324049D01*
Y192756D01*
X323933Y193341D01*
X323601Y193837D01*
X322243Y195196D01*
X321747Y195527D01*
X321161Y195644D01*
X319082D01*
X319053Y195687D01*
X318331Y196169D01*
X317480Y196338D01*
D02*
G37*
G36*
X527969Y191197D02*
X521441D01*
Y186835D01*
X523175D01*
Y185846D01*
X523175Y185846D01*
X523175D01*
X523292Y185261D01*
X523623Y184765D01*
X523717Y184672D01*
X523620Y183937D01*
X523722Y183162D01*
X524021Y182440D01*
X524497Y181820D01*
X525117Y181344D01*
X525839Y181045D01*
X526614Y180943D01*
X527389Y181045D01*
X528111Y181344D01*
X528731Y181820D01*
X529207Y182440D01*
X529506Y183162D01*
X529608Y183937D01*
X529506Y184712D01*
X529207Y185434D01*
X528731Y186054D01*
X528111Y186530D01*
X527969Y186589D01*
Y186835D01*
X527969D01*
Y191197D01*
D02*
G37*
G36*
X570709Y186141D02*
X564409D01*
X563558Y185972D01*
X562837Y185490D01*
X562355Y184768D01*
X562186Y183917D01*
X562355Y183066D01*
X562837Y182345D01*
X563558Y181863D01*
X564409Y181693D01*
X570709D01*
X571560Y181863D01*
X572281Y182345D01*
X572763Y183066D01*
X572932Y183917D01*
X572763Y184768D01*
X572281Y185490D01*
X571560Y185972D01*
X570709Y186141D01*
D02*
G37*
G36*
X403441Y195055D02*
X401169D01*
Y191996D01*
X403441D01*
Y195055D01*
D02*
G37*
G36*
X499697D02*
X497425D01*
Y191996D01*
X499697D01*
Y195055D01*
D02*
G37*
G36*
X502969D02*
X500697D01*
Y191996D01*
X502969D01*
Y195055D01*
D02*
G37*
G36*
X678921Y194500D02*
X675500D01*
Y191079D01*
X676032Y191149D01*
X676993Y191547D01*
X677819Y192181D01*
X678453Y193007D01*
X678851Y193968D01*
X678921Y194500D01*
D02*
G37*
G36*
X332728Y193614D02*
X327954D01*
X328024Y193263D01*
X328506Y192542D01*
X329228Y192060D01*
X330079Y191890D01*
X332728D01*
Y193614D01*
D02*
G37*
G36*
X400169Y195055D02*
X397898D01*
Y191996D01*
X400169D01*
Y195055D01*
D02*
G37*
G36*
X580248Y196035D02*
X577976D01*
Y192976D01*
X580248D01*
Y196035D01*
D02*
G37*
G36*
X367637Y197925D02*
X365913D01*
Y193151D01*
X366264Y193221D01*
X366986Y193703D01*
X367468Y194425D01*
X367637Y195276D01*
Y197925D01*
D02*
G37*
G36*
X576039Y200095D02*
X570496D01*
Y195927D01*
X567829Y193259D01*
X567683D01*
X567353Y193635D01*
X567404Y194016D01*
X567302Y194791D01*
X567002Y195513D01*
X566527Y196133D01*
X565906Y196609D01*
X565184Y196908D01*
X564409Y197010D01*
X563634Y196908D01*
X562912Y196609D01*
X562292Y196133D01*
X561817Y195513D01*
X561517Y194791D01*
X561415Y194016D01*
X561517Y193241D01*
X561817Y192519D01*
X562292Y191899D01*
X562912Y191423D01*
X563238Y191288D01*
X563287Y190790D01*
X562837Y190490D01*
X562808Y190447D01*
X559311D01*
X558726Y190330D01*
X558668Y190291D01*
X555142D01*
Y189246D01*
X553520D01*
Y190291D01*
X547583D01*
Y185142D01*
X553520D01*
Y186187D01*
X555142D01*
Y185142D01*
X561079D01*
Y187388D01*
X562808D01*
X562837Y187345D01*
X563558Y186863D01*
X564409Y186694D01*
X570709D01*
X571560Y186863D01*
X572281Y187345D01*
X572763Y188066D01*
X572932Y188917D01*
X572763Y189768D01*
X572281Y190490D01*
X571560Y190972D01*
X570709Y191141D01*
X570690D01*
X570498Y191603D01*
X571872Y192976D01*
X576039D01*
Y200095D01*
D02*
G37*
G36*
X359055Y200789D02*
X358280Y200687D01*
X357558Y200388D01*
X356938Y199912D01*
X356462Y199292D01*
X356163Y198570D01*
X356061Y197795D01*
X356163Y197020D01*
X356462Y196298D01*
X356790Y195871D01*
X348178Y187259D01*
X346236D01*
Y188008D01*
X339118D01*
Y187259D01*
X338292D01*
X338056Y187700D01*
X338433Y188263D01*
X338602Y189114D01*
X338433Y189965D01*
X337950Y190687D01*
X337229Y191169D01*
X336378Y191338D01*
X330079D01*
X329228Y191169D01*
X328506Y190687D01*
X328024Y189965D01*
X327855Y189114D01*
X328024Y188263D01*
X328506Y187542D01*
X329228Y187060D01*
X330079Y186890D01*
X331205D01*
Y184976D01*
X329787D01*
Y177858D01*
X335331D01*
Y183506D01*
X335772Y183742D01*
X336332Y183367D01*
X337106Y183213D01*
X339118D01*
Y182465D01*
X346236D01*
Y183213D01*
X349016D01*
X349790Y183367D01*
X350446Y183806D01*
X360486Y193845D01*
X360486Y193845D01*
X360486Y193845D01*
X360924Y194501D01*
X361078Y195276D01*
Y195606D01*
X361172Y195678D01*
X361648Y196298D01*
X361947Y197020D01*
X362049Y197795D01*
X361947Y198570D01*
X361648Y199292D01*
X361172Y199912D01*
X360552Y200388D01*
X359830Y200687D01*
X359055Y200789D01*
D02*
G37*
G36*
X583520Y196035D02*
X581248D01*
Y192976D01*
X583520D01*
Y196035D01*
D02*
G37*
G36*
X362756Y235798D02*
X361724Y235662D01*
X360763Y235264D01*
X359937Y234630D01*
X359303Y233804D01*
X358905Y232843D01*
X358769Y231811D01*
X358905Y230779D01*
X359303Y229818D01*
X359937Y228992D01*
X360763Y228358D01*
X361125Y228208D01*
Y223661D01*
X361124Y223661D01*
X361125D01*
X361249Y223037D01*
X361602Y222508D01*
X363353Y220757D01*
X363162Y220296D01*
X363019Y219213D01*
X363162Y218129D01*
X363580Y217120D01*
X364245Y216253D01*
X365112Y215588D01*
X366122Y215170D01*
X367205Y215027D01*
X368288Y215170D01*
X368366Y215202D01*
X368782Y214924D01*
Y203059D01*
X368359Y202426D01*
X368190Y201575D01*
Y195276D01*
X368359Y194425D01*
X368841Y193703D01*
X369562Y193221D01*
X370413Y193052D01*
X371264Y193221D01*
X371986Y193703D01*
X372468Y194425D01*
X372637Y195276D01*
Y201575D01*
X372468Y202426D01*
X372045Y203059D01*
Y216004D01*
X371921Y216628D01*
X371567Y217158D01*
X371056Y217668D01*
X371248Y218129D01*
X371390Y219213D01*
X371248Y220296D01*
X370829Y221305D01*
X370164Y222172D01*
X369297Y222837D01*
X368288Y223255D01*
X367205Y223398D01*
X366122Y223255D01*
X365660Y223064D01*
X364387Y224337D01*
Y228208D01*
X364749Y228358D01*
X365575Y228992D01*
X366209Y229818D01*
X366607Y230779D01*
X366743Y231811D01*
X366607Y232843D01*
X366209Y233804D01*
X365575Y234630D01*
X364749Y235264D01*
X363788Y235662D01*
X362756Y235798D01*
D02*
G37*
G36*
X364913Y197925D02*
X363190D01*
Y195276D01*
X363359Y194425D01*
X363841Y193703D01*
X364562Y193221D01*
X364913Y193151D01*
Y197925D01*
D02*
G37*
G36*
X502969Y190996D02*
X500697D01*
Y187937D01*
X502969D01*
Y190996D01*
D02*
G37*
G36*
X346236Y192217D02*
X343177D01*
Y189945D01*
X346236D01*
Y192217D01*
D02*
G37*
G36*
X269500Y193921D02*
X268968Y193851D01*
X268007Y193453D01*
X267181Y192819D01*
X266547Y191993D01*
X266149Y191032D01*
X266079Y190500D01*
X269500D01*
Y193921D01*
D02*
G37*
G36*
X400169Y190996D02*
X397898D01*
Y187937D01*
X400169D01*
Y190996D01*
D02*
G37*
G36*
X403441D02*
X401169D01*
Y187937D01*
X403441D01*
Y190996D01*
D02*
G37*
G36*
X499697D02*
X497425D01*
Y187937D01*
X499697D01*
Y190996D01*
D02*
G37*
G36*
X270500Y193921D02*
Y190500D01*
X273921D01*
X273851Y191032D01*
X273453Y191993D01*
X272819Y192819D01*
X271993Y193453D01*
X271032Y193851D01*
X270500Y193921D01*
D02*
G37*
G36*
X490839Y193516D02*
X487583D01*
Y191047D01*
X490839D01*
Y193516D01*
D02*
G37*
G36*
X495094D02*
X491839D01*
Y191047D01*
X495094D01*
Y193516D01*
D02*
G37*
G36*
X674500Y194500D02*
X671079D01*
X671149Y193968D01*
X671547Y193007D01*
X672181Y192181D01*
X673007Y191547D01*
X673968Y191149D01*
X674500Y191079D01*
Y194500D01*
D02*
G37*
G36*
X392571Y192811D02*
X390102D01*
Y190736D01*
X392571D01*
Y192811D01*
D02*
G37*
G36*
X396039D02*
X393571D01*
Y190736D01*
X396039D01*
Y192811D01*
D02*
G37*
G36*
X632441Y239844D02*
X631666Y239742D01*
X630944Y239443D01*
X630324Y238967D01*
X629848Y238347D01*
X629549Y237625D01*
X629447Y236850D01*
X629549Y236075D01*
X629848Y235353D01*
X630324Y234733D01*
X630911Y234282D01*
Y232257D01*
X630445Y231560D01*
X630276Y230709D01*
Y224409D01*
X630445Y223558D01*
X630928Y222837D01*
X630971Y222808D01*
Y220413D01*
X630971Y220413D01*
X630971D01*
X631087Y219828D01*
X631419Y219332D01*
X636399Y214352D01*
X636895Y214020D01*
X637480Y213904D01*
X652150D01*
Y212858D01*
X658050D01*
X658628Y212280D01*
Y199843D01*
X658628Y199843D01*
X658628D01*
X658744Y199257D01*
X659076Y198761D01*
X661341Y196496D01*
X661149Y196032D01*
X661013Y195000D01*
X661149Y193968D01*
X661547Y193007D01*
X662181Y192181D01*
X663007Y191547D01*
X663968Y191149D01*
X665000Y191013D01*
X666032Y191149D01*
X666993Y191547D01*
X667819Y192181D01*
X668453Y193007D01*
X668851Y193968D01*
X668987Y195000D01*
X668851Y196032D01*
X668453Y196993D01*
X667819Y197819D01*
X666993Y198453D01*
X666032Y198851D01*
X665000Y198987D01*
X663968Y198851D01*
X663504Y198659D01*
X661687Y200476D01*
Y212913D01*
X661570Y213499D01*
X661239Y213995D01*
X658719Y216514D01*
X658223Y216846D01*
X658087Y216873D01*
Y218008D01*
X652150D01*
Y216962D01*
X638114D01*
X634029Y221047D01*
Y222808D01*
X634072Y222837D01*
X634555Y223558D01*
X634724Y224409D01*
Y230709D01*
X634555Y231560D01*
X634072Y232281D01*
X633970Y232349D01*
Y234282D01*
X634558Y234733D01*
X635034Y235353D01*
X635333Y236075D01*
X635435Y236850D01*
X635333Y237625D01*
X635034Y238347D01*
X634558Y238967D01*
X633938Y239443D01*
X633216Y239742D01*
X632441Y239844D01*
D02*
G37*
G36*
X472630Y175957D02*
X469161D01*
Y172488D01*
X469706Y172560D01*
X470679Y172963D01*
X471514Y173604D01*
X472155Y174439D01*
X472558Y175412D01*
X472630Y175957D01*
D02*
G37*
G36*
X548791Y138083D02*
X546363D01*
X546399Y137808D01*
X546698Y137086D01*
X547174Y136466D01*
X547794Y135990D01*
X548516Y135691D01*
X548791Y135654D01*
Y138083D01*
D02*
G37*
G36*
X552220D02*
X549791D01*
Y135654D01*
X550066Y135691D01*
X550788Y135990D01*
X551408Y136466D01*
X551884Y137086D01*
X552183Y137808D01*
X552220Y138083D01*
D02*
G37*
G36*
X619488Y148669D02*
X618559Y148546D01*
X617693Y148188D01*
X616950Y147617D01*
X616379Y146874D01*
X616021Y146008D01*
X615898Y145079D01*
Y139567D01*
X616021Y138638D01*
X616379Y137772D01*
X616950Y137029D01*
X617693Y136458D01*
X618559Y136100D01*
X619488Y135977D01*
X620417Y136100D01*
X621283Y136458D01*
X622026Y137029D01*
X622597Y137772D01*
X622956Y138638D01*
X623078Y139567D01*
Y145079D01*
X622956Y146008D01*
X622597Y146874D01*
X622026Y147617D01*
X621283Y148188D01*
X620417Y148546D01*
X619488Y148669D01*
D02*
G37*
G36*
X332531Y113441D02*
X330457D01*
Y111366D01*
X332531D01*
Y113441D01*
D02*
G37*
G36*
X176787Y112886D02*
X174358D01*
Y110458D01*
X174633Y110494D01*
X175355Y110793D01*
X175975Y111269D01*
X176451Y111889D01*
X176750Y112611D01*
X176787Y112886D01*
D02*
G37*
G36*
X173358D02*
X170930D01*
X170966Y112611D01*
X171265Y111889D01*
X171741Y111269D01*
X172361Y110793D01*
X173083Y110494D01*
X173358Y110458D01*
Y112886D01*
D02*
G37*
G36*
X548791Y141511D02*
X548516Y141475D01*
X547794Y141176D01*
X547174Y140700D01*
X546698Y140080D01*
X546399Y139358D01*
X546363Y139083D01*
X548791D01*
Y141511D01*
D02*
G37*
G36*
X379268Y149110D02*
X377193D01*
Y146642D01*
X379268D01*
Y149110D01*
D02*
G37*
G36*
X390331Y153240D02*
X387272D01*
Y150969D01*
X390331D01*
Y153240D01*
D02*
G37*
G36*
X503858Y185404D02*
X502826Y185268D01*
X501865Y184870D01*
X501039Y184237D01*
X500406Y183411D01*
X500007Y182449D01*
X499871Y181417D01*
X500007Y180385D01*
X500406Y179424D01*
X501039Y178598D01*
X501819Y178000D01*
Y155727D01*
X493956Y147863D01*
X493858Y147876D01*
X493083Y147774D01*
X492361Y147475D01*
X491741Y146999D01*
X491265Y146379D01*
X490966Y145657D01*
X490864Y144882D01*
X490966Y144107D01*
X491265Y143385D01*
X491741Y142765D01*
X492361Y142289D01*
X493083Y141990D01*
X493858Y141888D01*
X494633Y141990D01*
X495355Y142289D01*
X495975Y142765D01*
X496451Y143385D01*
X496750Y144107D01*
X496852Y144882D01*
X496840Y144979D01*
X505300Y153440D01*
X505300Y153440D01*
X505742Y154102D01*
X505742Y154102D01*
X505742Y154102D01*
X505898Y154882D01*
X505898Y154882D01*
Y178000D01*
X506677Y178598D01*
X507311Y179424D01*
X507709Y180385D01*
X507845Y181417D01*
X507709Y182449D01*
X507311Y183411D01*
X506677Y184237D01*
X505852Y184870D01*
X504890Y185268D01*
X503858Y185404D01*
D02*
G37*
G36*
X549791Y141511D02*
Y139083D01*
X552220D01*
X552183Y139358D01*
X551884Y140080D01*
X551408Y140700D01*
X550788Y141176D01*
X550066Y141475D01*
X549791Y141511D01*
D02*
G37*
G36*
X289764Y156695D02*
X288989Y156593D01*
X288267Y156294D01*
X287647Y155818D01*
X287171Y155198D01*
X286872Y154476D01*
X286770Y153701D01*
X286872Y152926D01*
X287171Y152204D01*
X287647Y151584D01*
X287725Y151524D01*
Y140687D01*
X287341Y140304D01*
X287244Y140317D01*
X286469Y140215D01*
X285747Y139916D01*
X285127Y139440D01*
X284651Y138820D01*
X284352Y138098D01*
X284250Y137323D01*
X284352Y136548D01*
X284651Y135826D01*
X285127Y135206D01*
X285747Y134730D01*
X286469Y134431D01*
X287244Y134329D01*
X288019Y134431D01*
X288741Y134730D01*
X289361Y135206D01*
X289837Y135826D01*
X290136Y136548D01*
X290238Y137323D01*
X290225Y137420D01*
X291206Y138401D01*
X291648Y139062D01*
X291803Y139842D01*
Y151524D01*
X291881Y151584D01*
X292357Y152204D01*
X292656Y152926D01*
X292758Y153701D01*
X292656Y154476D01*
X292357Y155198D01*
X291881Y155818D01*
X291261Y156294D01*
X290539Y156593D01*
X289764Y156695D01*
D02*
G37*
G36*
X379268Y145642D02*
X377193D01*
Y143173D01*
X379268D01*
Y145642D01*
D02*
G37*
G36*
X174358Y116314D02*
Y113886D01*
X176787D01*
X176750Y114161D01*
X176451Y114883D01*
X175975Y115503D01*
X175355Y115979D01*
X174633Y116278D01*
X174358Y116314D01*
D02*
G37*
G36*
X405169Y117378D02*
X402110D01*
Y115106D01*
X405169D01*
Y117378D01*
D02*
G37*
G36*
X421827Y119146D02*
X418768D01*
Y116874D01*
X421827D01*
Y119146D01*
D02*
G37*
G36*
X455602Y115685D02*
X453331D01*
Y112626D01*
X455602D01*
Y115685D01*
D02*
G37*
G36*
X458874D02*
X456602D01*
Y112626D01*
X458874D01*
Y115685D01*
D02*
G37*
G36*
X173358Y116314D02*
X173083Y116278D01*
X172361Y115979D01*
X171741Y115503D01*
X171265Y114883D01*
X170966Y114161D01*
X170930Y113886D01*
X173358D01*
Y116314D01*
D02*
G37*
G36*
X421827Y122417D02*
X418768D01*
Y120146D01*
X421827D01*
Y122417D01*
D02*
G37*
G36*
X335606Y113441D02*
X333531D01*
Y111366D01*
X335606D01*
Y113441D01*
D02*
G37*
G36*
X455563Y126393D02*
X455288Y126357D01*
X454566Y126058D01*
X453946Y125582D01*
X453470Y124962D01*
X453171Y124240D01*
X453135Y123965D01*
X455563D01*
Y126393D01*
D02*
G37*
G36*
X456563D02*
Y123965D01*
X458991D01*
X458955Y124240D01*
X458656Y124962D01*
X458180Y125582D01*
X457560Y126058D01*
X456838Y126357D01*
X456563Y126393D01*
D02*
G37*
G36*
X455563Y122965D02*
X453135D01*
X453171Y122690D01*
X453470Y121967D01*
X453946Y121347D01*
X454566Y120872D01*
X455288Y120572D01*
X455563Y120536D01*
Y122965D01*
D02*
G37*
G36*
X458991D02*
X456563D01*
Y120536D01*
X456838Y120572D01*
X457560Y120872D01*
X458180Y121347D01*
X458656Y121967D01*
X458955Y122690D01*
X458991Y122965D01*
D02*
G37*
G36*
X405169Y114106D02*
X402110D01*
Y111835D01*
X405169D01*
Y114106D01*
D02*
G37*
G36*
X174358Y166708D02*
Y164279D01*
X176787D01*
X176750Y164555D01*
X176451Y165277D01*
X175975Y165897D01*
X175355Y166373D01*
X174633Y166672D01*
X174358Y166708D01*
D02*
G37*
G36*
X225012D02*
X224737Y166672D01*
X224015Y166373D01*
X223395Y165897D01*
X222919Y165277D01*
X222620Y164555D01*
X222584Y164279D01*
X225012D01*
Y166708D01*
D02*
G37*
G36*
X226012D02*
Y164279D01*
X228440D01*
X228404Y164555D01*
X228105Y165277D01*
X227629Y165897D01*
X227009Y166373D01*
X226287Y166672D01*
X226012Y166708D01*
D02*
G37*
G36*
X121705D02*
X121430Y166672D01*
X120708Y166373D01*
X120088Y165897D01*
X119612Y165277D01*
X119313Y164555D01*
X119276Y164279D01*
X121705D01*
Y166708D01*
D02*
G37*
G36*
X122705D02*
Y164279D01*
X125133D01*
X125097Y164555D01*
X124798Y165277D01*
X124322Y165897D01*
X123702Y166373D01*
X122980Y166672D01*
X122705Y166708D01*
D02*
G37*
G36*
X173358D02*
X173083Y166672D01*
X172361Y166373D01*
X171741Y165897D01*
X171265Y165277D01*
X170966Y164555D01*
X170930Y164279D01*
X173358D01*
Y166708D01*
D02*
G37*
G36*
X619291Y113641D02*
X618003Y113471D01*
X616802Y112974D01*
X615770Y112182D01*
X614979Y111151D01*
X614481Y109950D01*
X614312Y108661D01*
X614481Y107373D01*
X614979Y106172D01*
X615770Y105140D01*
X616802Y104349D01*
X618003Y103851D01*
X619291Y103682D01*
X620580Y103851D01*
X621781Y104349D01*
X622813Y105140D01*
X623604Y106172D01*
X624101Y107373D01*
X624271Y108661D01*
X624101Y109950D01*
X623604Y111151D01*
X622813Y112182D01*
X621781Y112974D01*
X620580Y113471D01*
X619291Y113641D01*
D02*
G37*
G36*
X585957Y173417D02*
X581183D01*
X581252Y173066D01*
X581735Y172345D01*
X582456Y171863D01*
X583307Y171694D01*
X585957D01*
Y173417D01*
D02*
G37*
G36*
X591731D02*
X586957D01*
Y171694D01*
X589606D01*
X590457Y171863D01*
X591179Y172345D01*
X591661Y173066D01*
X591731Y173417D01*
D02*
G37*
G36*
X468161Y175957D02*
X464693D01*
X464764Y175412D01*
X465167Y174439D01*
X465809Y173604D01*
X466644Y172963D01*
X467617Y172560D01*
X468161Y172488D01*
Y175957D01*
D02*
G37*
G36*
X296457Y113641D02*
X295168Y113471D01*
X293967Y112974D01*
X292936Y112182D01*
X292144Y111151D01*
X291647Y109950D01*
X291477Y108661D01*
X291647Y107373D01*
X292144Y106172D01*
X292936Y105140D01*
X293967Y104349D01*
X295168Y103851D01*
X296457Y103682D01*
X297745Y103851D01*
X298946Y104349D01*
X299978Y105140D01*
X300769Y106172D01*
X301267Y107373D01*
X301436Y108661D01*
X301267Y109950D01*
X300769Y111151D01*
X299978Y112182D01*
X298946Y112974D01*
X297745Y113471D01*
X296457Y113641D01*
D02*
G37*
G36*
X332531Y173358D02*
X330457D01*
Y171283D01*
X332531D01*
Y173358D01*
D02*
G37*
G36*
X335606D02*
X333531D01*
Y171283D01*
X335606D01*
Y173358D01*
D02*
G37*
G36*
X275590Y127027D02*
X273851Y126856D01*
X272178Y126348D01*
X270637Y125524D01*
X269285Y124416D01*
X268176Y123064D01*
X267352Y121523D01*
X266845Y119850D01*
X266674Y118110D01*
X266845Y116371D01*
X267352Y114698D01*
X268176Y113156D01*
X269285Y111805D01*
X270637Y110696D01*
X272178Y109872D01*
X273851Y109365D01*
X275590Y109193D01*
X277330Y109365D01*
X279003Y109872D01*
X280544Y110696D01*
X281896Y111805D01*
X283005Y113156D01*
X283829Y114698D01*
X284336Y116371D01*
X284507Y118110D01*
X284336Y119850D01*
X283829Y121523D01*
X283005Y123064D01*
X281896Y124416D01*
X280544Y125524D01*
X279003Y126348D01*
X277330Y126856D01*
X275590Y127027D01*
D02*
G37*
G36*
X118110D02*
X116371Y126856D01*
X114698Y126348D01*
X113156Y125524D01*
X111805Y124416D01*
X110696Y123064D01*
X109872Y121523D01*
X109365Y119850D01*
X109193Y118110D01*
X109365Y116371D01*
X109872Y114698D01*
X110696Y113156D01*
X111805Y111805D01*
X113156Y110696D01*
X114698Y109872D01*
X116371Y109365D01*
X118110Y109193D01*
X119850Y109365D01*
X121523Y109872D01*
X123064Y110696D01*
X124416Y111805D01*
X125524Y113156D01*
X126348Y114698D01*
X126856Y116371D01*
X127027Y118110D01*
X126856Y119850D01*
X126348Y121523D01*
X125524Y123064D01*
X124416Y124416D01*
X123064Y125524D01*
X121523Y126348D01*
X119850Y126856D01*
X118110Y127027D01*
D02*
G37*
G36*
X121705Y163279D02*
X119276D01*
X119313Y163005D01*
X119612Y162283D01*
X120088Y161662D01*
X120708Y161187D01*
X121430Y160887D01*
X121705Y160851D01*
Y163279D01*
D02*
G37*
G36*
X386272Y156512D02*
X383213D01*
Y154240D01*
X386272D01*
Y156512D01*
D02*
G37*
G36*
X390331D02*
X387272D01*
Y154240D01*
X390331D01*
Y156512D01*
D02*
G37*
G36*
X673228Y127027D02*
X671489Y126856D01*
X669816Y126348D01*
X668274Y125524D01*
X666923Y124416D01*
X665814Y123064D01*
X664990Y121523D01*
X664483Y119850D01*
X664311Y118110D01*
X664483Y116371D01*
X664990Y114698D01*
X665814Y113156D01*
X666923Y111805D01*
X668274Y110696D01*
X669816Y109872D01*
X671489Y109365D01*
X673228Y109193D01*
X674968Y109365D01*
X676641Y109872D01*
X678182Y110696D01*
X679534Y111805D01*
X680643Y113156D01*
X681466Y114698D01*
X681974Y116371D01*
X682145Y118110D01*
X681974Y119850D01*
X681466Y121523D01*
X680643Y123064D01*
X679534Y124416D01*
X678182Y125524D01*
X676641Y126348D01*
X674968Y126856D01*
X673228Y127027D01*
D02*
G37*
G36*
X125133Y163279D02*
X122705D01*
Y160851D01*
X122980Y160887D01*
X123702Y161187D01*
X124322Y161662D01*
X124798Y162283D01*
X125097Y163005D01*
X125133Y163279D01*
D02*
G37*
G36*
X228440D02*
X226012D01*
Y160851D01*
X226287Y160887D01*
X227009Y161187D01*
X227629Y161662D01*
X228105Y162283D01*
X228404Y163005D01*
X228440Y163279D01*
D02*
G37*
G36*
X335606Y110366D02*
X333531D01*
Y108291D01*
X335606D01*
Y110366D01*
D02*
G37*
G36*
X332531D02*
X330457D01*
Y108291D01*
X332531D01*
Y110366D01*
D02*
G37*
G36*
X173358Y163279D02*
X170930D01*
X170966Y163005D01*
X171265Y162283D01*
X171741Y161662D01*
X172361Y161187D01*
X173083Y160887D01*
X173358Y160851D01*
Y163279D01*
D02*
G37*
G36*
X176787D02*
X174358D01*
Y160851D01*
X174633Y160887D01*
X175355Y161187D01*
X175975Y161662D01*
X176451Y162283D01*
X176750Y163005D01*
X176787Y163279D01*
D02*
G37*
G36*
X225012D02*
X222584D01*
X222620Y163005D01*
X222919Y162283D01*
X223395Y161662D01*
X224015Y161187D01*
X224737Y160887D01*
X225012Y160851D01*
Y163279D01*
D02*
G37*
G36*
X306142Y223467D02*
X305367Y223364D01*
X304645Y223065D01*
X304025Y222590D01*
X303549Y221970D01*
X303250Y221247D01*
X303148Y220472D01*
X303250Y219697D01*
X303549Y218975D01*
X304025Y218355D01*
X304645Y217880D01*
X305367Y217580D01*
X306142Y217478D01*
X306917Y217580D01*
X307113Y217662D01*
X307500Y217585D01*
X309580D01*
X309609Y217542D01*
X310330Y217060D01*
X311181Y216890D01*
X317480D01*
X318331Y217060D01*
X319053Y217542D01*
X319535Y218263D01*
X319704Y219114D01*
X319535Y219965D01*
X319053Y220687D01*
X318331Y221169D01*
X317480Y221338D01*
X311181D01*
X310330Y221169D01*
X309609Y220687D01*
X309584Y220650D01*
X309098Y220764D01*
X309034Y221247D01*
X308735Y221970D01*
X308259Y222590D01*
X307639Y223065D01*
X306917Y223364D01*
X306142Y223467D01*
D02*
G37*
G36*
X623122Y219425D02*
X620063D01*
Y217154D01*
X623122D01*
Y219425D01*
D02*
G37*
G36*
X627181D02*
X624122D01*
Y217154D01*
X627181D01*
Y219425D01*
D02*
G37*
G36*
X174358Y218361D02*
Y215933D01*
X176787D01*
X176750Y216208D01*
X176451Y216930D01*
X175975Y217550D01*
X175355Y218026D01*
X174633Y218325D01*
X174358Y218361D01*
D02*
G37*
G36*
X275590Y233326D02*
X273851Y233155D01*
X272178Y232648D01*
X270637Y231824D01*
X269285Y230715D01*
X268176Y229363D01*
X267352Y227822D01*
X266845Y226149D01*
X266674Y224410D01*
X266845Y222670D01*
X267352Y220997D01*
X268176Y219456D01*
X269285Y218104D01*
X270637Y216995D01*
X272178Y216171D01*
X273851Y215664D01*
X275590Y215493D01*
X277330Y215664D01*
X279003Y216171D01*
X280544Y216995D01*
X281896Y218104D01*
X283005Y219456D01*
X283829Y220997D01*
X284336Y222670D01*
X284507Y224410D01*
X284336Y226149D01*
X283829Y227822D01*
X283005Y229363D01*
X281896Y230715D01*
X280544Y231824D01*
X279003Y232648D01*
X277330Y233155D01*
X275590Y233326D01*
D02*
G37*
G36*
X673228D02*
X671489Y233155D01*
X669816Y232648D01*
X668274Y231824D01*
X666923Y230715D01*
X665814Y229363D01*
X664990Y227822D01*
X664483Y226149D01*
X664311Y224410D01*
X664483Y222670D01*
X664990Y220997D01*
X665814Y219456D01*
X666923Y218104D01*
X668274Y216995D01*
X669816Y216171D01*
X671489Y215664D01*
X673228Y215493D01*
X674968Y215664D01*
X676641Y216171D01*
X678182Y216995D01*
X679534Y218104D01*
X680643Y219456D01*
X681466Y220997D01*
X681974Y222670D01*
X682145Y224410D01*
X681974Y226149D01*
X681466Y227822D01*
X680643Y229363D01*
X679534Y230715D01*
X678182Y231824D01*
X676641Y232648D01*
X674968Y233155D01*
X673228Y233326D01*
D02*
G37*
G36*
X173358Y218361D02*
X173083Y218325D01*
X172361Y218026D01*
X171741Y217550D01*
X171265Y216930D01*
X170966Y216208D01*
X170930Y215933D01*
X173358D01*
Y218361D01*
D02*
G37*
G36*
X313701Y232285D02*
X312926Y232183D01*
X312204Y231884D01*
X311584Y231409D01*
X311108Y230788D01*
X310809Y230066D01*
X310707Y229291D01*
X310809Y228516D01*
X311108Y227794D01*
X311584Y227174D01*
X312056Y226812D01*
X311896Y226338D01*
X311181D01*
X310330Y226169D01*
X309609Y225687D01*
X309126Y224965D01*
X308957Y224114D01*
X309126Y223263D01*
X309609Y222542D01*
X310330Y222060D01*
X311181Y221890D01*
X317480D01*
X318331Y222060D01*
X319053Y222542D01*
X319535Y223263D01*
X319704Y224114D01*
X319535Y224965D01*
X319053Y225687D01*
X318331Y226169D01*
X317480Y226338D01*
X315506D01*
X315345Y226812D01*
X315818Y227174D01*
X316294Y227794D01*
X316593Y228516D01*
X316695Y229291D01*
X316593Y230066D01*
X316294Y230788D01*
X315818Y231409D01*
X315198Y231884D01*
X314476Y232183D01*
X313701Y232285D01*
D02*
G37*
G36*
X637500Y232932D02*
X636649Y232763D01*
X635927Y232281D01*
X635445Y231560D01*
X635276Y230709D01*
Y224409D01*
X635445Y223558D01*
X635927Y222837D01*
X636649Y222355D01*
X637500Y222186D01*
X638351Y222355D01*
X639073Y222837D01*
X639555Y223558D01*
X639724Y224409D01*
Y230709D01*
X639555Y231560D01*
X639073Y232281D01*
X638351Y232763D01*
X637500Y232932D01*
D02*
G37*
G36*
X642500D02*
X641649Y232763D01*
X640928Y232281D01*
X640445Y231560D01*
X640276Y230709D01*
Y224409D01*
X640445Y223558D01*
X640928Y222837D01*
X641649Y222355D01*
X642500Y222186D01*
X643351Y222355D01*
X644072Y222837D01*
X644555Y223558D01*
X644724Y224409D01*
Y230709D01*
X644555Y231560D01*
X644072Y232281D01*
X643351Y232763D01*
X642500Y232932D01*
D02*
G37*
G36*
X395421Y223332D02*
Y219713D01*
X399041D01*
X398964Y220296D01*
X398546Y221305D01*
X397881Y222172D01*
X397014Y222837D01*
X396005Y223255D01*
X395421Y223332D01*
D02*
G37*
G36*
X615563Y219621D02*
X615288Y219585D01*
X614566Y219286D01*
X613946Y218810D01*
X613470Y218190D01*
X613171Y217468D01*
X613135Y217193D01*
X615563D01*
Y219621D01*
D02*
G37*
G36*
X616563D02*
Y217193D01*
X618991D01*
X618955Y217468D01*
X618656Y218190D01*
X618180Y218810D01*
X617560Y219286D01*
X616838Y219585D01*
X616563Y219621D01*
D02*
G37*
G36*
X394421Y223332D02*
X393838Y223255D01*
X392829Y222837D01*
X391962Y222172D01*
X391297Y221305D01*
X390879Y220296D01*
X390802Y219713D01*
X394421D01*
Y223332D01*
D02*
G37*
G36*
X399041Y218713D02*
X395421D01*
Y215093D01*
X396005Y215170D01*
X397014Y215588D01*
X397881Y216253D01*
X398546Y217120D01*
X398964Y218129D01*
X399041Y218713D01*
D02*
G37*
G36*
X431626Y214582D02*
X431351Y214546D01*
X430629Y214247D01*
X430009Y213771D01*
X429533Y213151D01*
X429234Y212428D01*
X429198Y212154D01*
X431626D01*
Y214582D01*
D02*
G37*
G36*
X432626D02*
Y212154D01*
X435054D01*
X435018Y212428D01*
X434719Y213151D01*
X434243Y213771D01*
X433623Y214247D01*
X432901Y214546D01*
X432626Y214582D01*
D02*
G37*
G36*
X173358Y214933D02*
X170930D01*
X170966Y214658D01*
X171265Y213936D01*
X171741Y213316D01*
X172361Y212840D01*
X173083Y212541D01*
X173358Y212505D01*
Y214933D01*
D02*
G37*
G36*
X336378Y216338D02*
X330079D01*
X329228Y216169D01*
X328506Y215687D01*
X328024Y214965D01*
X327855Y214114D01*
X328024Y213263D01*
X328506Y212542D01*
X329228Y212060D01*
X330079Y211890D01*
X336378D01*
X337229Y212060D01*
X337950Y212542D01*
X338433Y213263D01*
X338602Y214114D01*
X338433Y214965D01*
X337950Y215687D01*
X337229Y216169D01*
X336378Y216338D01*
D02*
G37*
G36*
X441075Y212677D02*
X438425D01*
X437574Y212507D01*
X436853Y212025D01*
X436371Y211304D01*
X436301Y210953D01*
X441075D01*
Y212677D01*
D02*
G37*
G36*
X444724D02*
X442075D01*
Y210953D01*
X446849D01*
X446779Y211304D01*
X446297Y212025D01*
X445575Y212507D01*
X444724Y212677D01*
D02*
G37*
G36*
X631181Y212128D02*
X630406Y212026D01*
X629684Y211727D01*
X629064Y211251D01*
X629034Y211212D01*
X627181D01*
Y211945D01*
X620063D01*
Y206402D01*
X624002D01*
X630276Y200127D01*
Y197638D01*
X630445Y196787D01*
X630928Y196065D01*
X631649Y195583D01*
X632500Y195414D01*
X633351Y195583D01*
X634072Y196065D01*
X634555Y196787D01*
X634724Y197638D01*
Y203937D01*
X634555Y204788D01*
X634347Y205098D01*
X636854Y207605D01*
X652150D01*
Y206559D01*
X658087D01*
Y211709D01*
X652150D01*
Y210663D01*
X636221D01*
X635732Y210566D01*
X635635Y210547D01*
X635139Y210215D01*
X634561Y209637D01*
X634088Y209798D01*
X634073Y209909D01*
X633774Y210631D01*
X633298Y211251D01*
X632678Y211727D01*
X631956Y212026D01*
X631181Y212128D01*
D02*
G37*
G36*
X627181Y216154D02*
X624122D01*
Y213882D01*
X627181D01*
Y216154D01*
D02*
G37*
G36*
X372756Y235798D02*
X371724Y235662D01*
X370762Y235264D01*
X369937Y234630D01*
X369303Y233804D01*
X368905Y232843D01*
X368769Y231811D01*
X368905Y230779D01*
X369303Y229818D01*
X369937Y228992D01*
X370762Y228358D01*
X371125Y228208D01*
Y227598D01*
X371125Y227598D01*
X371125D01*
X371249Y226974D01*
X371602Y226445D01*
X377290Y220757D01*
X377099Y220296D01*
X376956Y219213D01*
X377099Y218129D01*
X377290Y217668D01*
X374260Y214638D01*
X373906Y214108D01*
X373782Y213484D01*
Y203059D01*
X373359Y202426D01*
X373190Y201575D01*
Y195276D01*
X373359Y194425D01*
X373841Y193703D01*
X374562Y193221D01*
X375413Y193052D01*
X376264Y193221D01*
X376986Y193703D01*
X377468Y194425D01*
X377637Y195276D01*
Y201575D01*
X377468Y202426D01*
X377045Y203059D01*
Y212808D01*
X379597Y215361D01*
X380059Y215170D01*
X381142Y215027D01*
X382225Y215170D01*
X383234Y215588D01*
X384101Y216253D01*
X384766Y217120D01*
X385185Y218129D01*
X385327Y219213D01*
X385185Y220296D01*
X384766Y221305D01*
X384101Y222172D01*
X383234Y222837D01*
X382225Y223255D01*
X381142Y223398D01*
X380059Y223255D01*
X379597Y223064D01*
X374765Y227896D01*
X374798Y228395D01*
X375575Y228992D01*
X376209Y229818D01*
X376607Y230779D01*
X376743Y231811D01*
X376607Y232843D01*
X376209Y233804D01*
X375575Y234630D01*
X374749Y235264D01*
X373788Y235662D01*
X372756Y235798D01*
D02*
G37*
G36*
X394421Y218713D02*
X390802D01*
X390879Y218129D01*
X391297Y217120D01*
X391962Y216253D01*
X392829Y215588D01*
X393838Y215170D01*
X394421Y215093D01*
Y218713D01*
D02*
G37*
G36*
X623122Y216154D02*
X620063D01*
Y213882D01*
X623122D01*
Y216154D01*
D02*
G37*
G36*
X176787Y214933D02*
X174358D01*
Y212505D01*
X174633Y212541D01*
X175355Y212840D01*
X175975Y213316D01*
X176451Y213936D01*
X176750Y214658D01*
X176787Y214933D01*
D02*
G37*
G36*
X615563Y216193D02*
X613135D01*
X613171Y215918D01*
X613470Y215196D01*
X613946Y214576D01*
X614566Y214100D01*
X615288Y213801D01*
X615563Y213765D01*
Y216193D01*
D02*
G37*
G36*
X618991D02*
X616563D01*
Y213765D01*
X616838Y213801D01*
X617560Y214100D01*
X618180Y214576D01*
X618656Y215196D01*
X618955Y215918D01*
X618991Y216193D01*
D02*
G37*
G36*
X421547Y234739D02*
X421272Y234703D01*
X420550Y234404D01*
X419930Y233928D01*
X419454Y233308D01*
X419155Y232586D01*
X419119Y232311D01*
X421547D01*
Y234739D01*
D02*
G37*
G36*
X429658Y235090D02*
X424433D01*
Y234287D01*
X423985Y234066D01*
X423544Y234404D01*
X422822Y234703D01*
X422547Y234739D01*
Y231811D01*
Y228883D01*
X422822Y228919D01*
X423544Y229218D01*
X424164Y229694D01*
X424640Y230314D01*
X424939Y231036D01*
X425006Y231539D01*
X429658D01*
Y235090D01*
D02*
G37*
G36*
X482059Y237610D02*
X479787D01*
Y234551D01*
X482059D01*
Y237610D01*
D02*
G37*
G36*
X383256Y235732D02*
Y232311D01*
X386677D01*
X386607Y232843D01*
X386209Y233804D01*
X385575Y234630D01*
X384749Y235264D01*
X383788Y235662D01*
X383256Y235732D01*
D02*
G37*
G36*
X413949Y235090D02*
X411677D01*
Y232031D01*
X413949D01*
Y235090D01*
D02*
G37*
G36*
X417220D02*
X414949D01*
Y232031D01*
X417220D01*
Y235090D01*
D02*
G37*
G36*
X382256Y235732D02*
X381724Y235662D01*
X380763Y235264D01*
X379937Y234630D01*
X379303Y233804D01*
X378905Y232843D01*
X378835Y232311D01*
X382256D01*
Y235732D01*
D02*
G37*
G36*
X435882Y239642D02*
X430657D01*
Y236090D01*
X435882D01*
Y239642D01*
D02*
G37*
G36*
X329921Y239612D02*
X329044Y239496D01*
X328226Y239157D01*
X327523Y238618D01*
X326984Y237916D01*
X326646Y237098D01*
X326628Y236964D01*
X326128D01*
X326110Y237098D01*
X325771Y237916D01*
X325233Y238618D01*
X324530Y239157D01*
X323712Y239496D01*
X322835Y239612D01*
X321957Y239496D01*
X321139Y239157D01*
X320437Y238618D01*
X319898Y237916D01*
X319559Y237098D01*
X319443Y236221D01*
X319559Y235343D01*
X319898Y234525D01*
X320437Y233822D01*
X321139Y233284D01*
X321957Y232945D01*
X322835Y232829D01*
X323712Y232945D01*
X324530Y233284D01*
X325233Y233822D01*
X325771Y234525D01*
X326110Y235343D01*
X326128Y235477D01*
X326628D01*
X326646Y235343D01*
X326984Y234525D01*
X327523Y233822D01*
X328226Y233284D01*
X329044Y232945D01*
X329921Y232829D01*
X330799Y232945D01*
X331617Y233284D01*
X332319Y233822D01*
X332858Y234525D01*
X333197Y235343D01*
X333313Y236221D01*
X333197Y237098D01*
X332858Y237916D01*
X332319Y238618D01*
X331617Y239157D01*
X330799Y239496D01*
X329921Y239612D01*
D02*
G37*
G36*
X582677D02*
X581800Y239496D01*
X580982Y239157D01*
X580279Y238618D01*
X579740Y237916D01*
X579401Y237098D01*
X579384Y236964D01*
X578884D01*
X578866Y237098D01*
X578527Y237916D01*
X577988Y238618D01*
X577286Y239157D01*
X576468Y239496D01*
X575591Y239612D01*
X574713Y239496D01*
X573895Y239157D01*
X573193Y238618D01*
X572654Y237916D01*
X572315Y237098D01*
X572199Y236221D01*
X572315Y235343D01*
X572654Y234525D01*
X573193Y233822D01*
X573895Y233284D01*
X574713Y232945D01*
X575591Y232829D01*
X576468Y232945D01*
X577286Y233284D01*
X577988Y233822D01*
X578527Y234525D01*
X578866Y235343D01*
X578884Y235477D01*
X579384D01*
X579401Y235343D01*
X579740Y234525D01*
X580279Y233822D01*
X580982Y233284D01*
X581800Y232945D01*
X582677Y232829D01*
X583555Y232945D01*
X584373Y233284D01*
X585075Y233822D01*
X585614Y234525D01*
X585953Y235343D01*
X586068Y236221D01*
X585953Y237098D01*
X585614Y237916D01*
X585075Y238618D01*
X584373Y239157D01*
X583555Y239496D01*
X582677Y239612D01*
D02*
G37*
G36*
X429658Y239642D02*
X424433D01*
Y236090D01*
X429658D01*
Y239642D01*
D02*
G37*
G36*
X485331Y237610D02*
X483059D01*
Y234551D01*
X485331D01*
Y237610D01*
D02*
G37*
G36*
X413949Y239150D02*
X411677D01*
Y236090D01*
X413949D01*
Y239150D01*
D02*
G37*
G36*
X417220D02*
X414949D01*
Y236090D01*
X417220D01*
Y239150D01*
D02*
G37*
G36*
X435882Y235090D02*
X430657D01*
Y231539D01*
X435882D01*
Y235090D01*
D02*
G37*
G36*
X604665Y228995D02*
X603814Y228826D01*
X603093Y228344D01*
X602611Y227623D01*
X602442Y226772D01*
Y225661D01*
X601889D01*
Y226772D01*
X601720Y227623D01*
X601238Y228344D01*
X600516Y228826D01*
X599665Y228995D01*
X598814Y228826D01*
X598093Y228344D01*
X597611Y227623D01*
X597441Y226772D01*
Y220472D01*
X597611Y219621D01*
X598093Y218900D01*
X598814Y218418D01*
X599665Y218249D01*
X600516Y218418D01*
X601238Y218900D01*
X601720Y219621D01*
X601889Y220472D01*
Y221583D01*
X602442D01*
Y220472D01*
X602611Y219621D01*
X603093Y218900D01*
X603814Y218418D01*
X604665Y218249D01*
X605516Y218418D01*
X606238Y218900D01*
X606480Y218924D01*
X607725Y217679D01*
Y209134D01*
X607880Y208353D01*
X608322Y207692D01*
X615898Y200115D01*
Y194685D01*
X616021Y193756D01*
X616379Y192890D01*
X616950Y192147D01*
X617693Y191576D01*
X618559Y191218D01*
X619488Y191095D01*
X620417Y191218D01*
X621283Y191576D01*
X622026Y192147D01*
X622597Y192890D01*
X622956Y193756D01*
X623078Y194685D01*
Y200197D01*
X622956Y201126D01*
X622597Y201992D01*
X622026Y202735D01*
X621283Y203306D01*
X620417Y203664D01*
X619488Y203787D01*
X618559Y203664D01*
X618247Y203535D01*
X611803Y209979D01*
Y218524D01*
X611648Y219304D01*
X611206Y219966D01*
X606889Y224282D01*
Y226772D01*
X606720Y227623D01*
X606238Y228344D01*
X605516Y228826D01*
X604665Y228995D01*
D02*
G37*
G36*
X296457Y236082D02*
X295168Y235912D01*
X293967Y235415D01*
X292936Y234624D01*
X292144Y233592D01*
X291647Y232391D01*
X291477Y231102D01*
X291647Y229814D01*
X292144Y228613D01*
X292936Y227581D01*
X293967Y226790D01*
X295168Y226292D01*
X296457Y226123D01*
X297745Y226292D01*
X298946Y226790D01*
X299978Y227581D01*
X300769Y228613D01*
X301267Y229814D01*
X301436Y231102D01*
X301267Y232391D01*
X300769Y233592D01*
X299978Y234624D01*
X298946Y235415D01*
X297745Y235912D01*
X296457Y236082D01*
D02*
G37*
G36*
X619291D02*
X618003Y235912D01*
X616802Y235415D01*
X615770Y234624D01*
X614979Y233592D01*
X614481Y232391D01*
X614312Y231102D01*
X614481Y229814D01*
X614979Y228613D01*
X615770Y227581D01*
X616802Y226790D01*
X618003Y226292D01*
X619291Y226123D01*
X620580Y226292D01*
X621781Y226790D01*
X622813Y227581D01*
X623604Y228613D01*
X624101Y229814D01*
X624271Y231102D01*
X624101Y232391D01*
X623604Y233592D01*
X622813Y234624D01*
X621781Y235415D01*
X620580Y235912D01*
X619291Y236082D01*
D02*
G37*
G36*
X594665Y228995D02*
X593814Y228826D01*
X593093Y228344D01*
X592611Y227623D01*
X592442Y226772D01*
Y225661D01*
X591889D01*
Y226772D01*
X591720Y227623D01*
X591238Y228344D01*
X590516Y228826D01*
X589665Y228995D01*
X588814Y228826D01*
X588093Y228344D01*
X587611Y227623D01*
X587441Y226772D01*
Y220472D01*
X587611Y219621D01*
X588093Y218900D01*
X588814Y218418D01*
X589665Y218249D01*
X590516Y218418D01*
X591238Y218900D01*
X591720Y219621D01*
X591889Y220472D01*
Y221583D01*
X592442D01*
Y220472D01*
X592611Y219621D01*
X593093Y218900D01*
X593814Y218418D01*
X594665Y218249D01*
X595516Y218418D01*
X596238Y218900D01*
X596720Y219621D01*
X596889Y220472D01*
Y226772D01*
X596720Y227623D01*
X596238Y228344D01*
X595516Y228826D01*
X594665Y228995D01*
D02*
G37*
G36*
X647000Y227059D02*
X645276D01*
Y224409D01*
X645445Y223558D01*
X645927Y222837D01*
X646649Y222355D01*
X647000Y222285D01*
Y227059D01*
D02*
G37*
G36*
X649724D02*
X648000D01*
Y222285D01*
X648351Y222355D01*
X649073Y222837D01*
X649555Y223558D01*
X649724Y224409D01*
Y227059D01*
D02*
G37*
G36*
X414858Y229661D02*
X406559D01*
Y221362D01*
X414858D01*
Y223414D01*
X418653D01*
X418677Y223398D01*
X419527Y223229D01*
X420638D01*
Y222677D01*
X419527D01*
X418677Y222507D01*
X417955Y222025D01*
X417473Y221304D01*
X417304Y220453D01*
X417473Y219602D01*
X417955Y218880D01*
X418677Y218398D01*
X419527Y218229D01*
X425827D01*
X426678Y218398D01*
X427399Y218880D01*
X427881Y219602D01*
X428051Y220453D01*
X427881Y221304D01*
X427399Y222025D01*
X426678Y222507D01*
X425827Y222677D01*
X424716D01*
Y223229D01*
X425827D01*
X426678Y223398D01*
X426701Y223414D01*
X437551D01*
X437574Y223398D01*
X438425Y223229D01*
X444724D01*
X445575Y223398D01*
X446297Y223880D01*
X446779Y224602D01*
X446948Y225453D01*
X446779Y226304D01*
X446297Y227025D01*
X445575Y227507D01*
X444724Y227677D01*
X438425D01*
X437574Y227507D01*
X437551Y227492D01*
X426701D01*
X426678Y227507D01*
X425827Y227677D01*
X419527D01*
X418677Y227507D01*
X418653Y227492D01*
X414858D01*
Y229661D01*
D02*
G37*
G36*
X648000Y232833D02*
Y228059D01*
X649724D01*
Y230709D01*
X649555Y231560D01*
X649073Y232281D01*
X648351Y232763D01*
X648000Y232833D01*
D02*
G37*
G36*
X337638Y232285D02*
X336863Y232183D01*
X336141Y231884D01*
X335521Y231409D01*
X335148Y230923D01*
X328819D01*
X328195Y230799D01*
X327665Y230445D01*
X325871Y228651D01*
X325412Y228806D01*
X325113Y229529D01*
X324637Y230149D01*
X324017Y230625D01*
X323295Y230924D01*
X322520Y231026D01*
X321745Y230924D01*
X321023Y230625D01*
X320403Y230149D01*
X319927Y229529D01*
X319628Y228806D01*
X319526Y228031D01*
X319628Y227257D01*
X319927Y226534D01*
X320403Y225914D01*
X320990Y225463D01*
Y217326D01*
X319950Y216286D01*
X319053Y215687D01*
X318331Y216169D01*
X317480Y216338D01*
X311181D01*
X310330Y216169D01*
X309609Y215687D01*
X309126Y214965D01*
X308957Y214114D01*
X309126Y213263D01*
X309609Y212542D01*
X310330Y212060D01*
X311181Y211890D01*
X317480D01*
X318331Y212060D01*
X319053Y212542D01*
X319082Y212585D01*
X319941D01*
X320526Y212701D01*
X321022Y213033D01*
X323601Y215612D01*
X323933Y216108D01*
X324049Y216693D01*
Y225205D01*
X324474Y225469D01*
X324668Y225373D01*
Y220472D01*
X324792Y219848D01*
X325146Y219319D01*
X326504Y217961D01*
X327033Y217607D01*
X327658Y217483D01*
X328594D01*
X329228Y217060D01*
X330079Y216890D01*
X336378D01*
X337229Y217060D01*
X337950Y217542D01*
X338433Y218263D01*
X338602Y219114D01*
X338438Y219939D01*
X338886Y220143D01*
X338886Y220143D01*
X338893Y220146D01*
X339300Y219615D01*
X339920Y219139D01*
X340642Y218840D01*
X341417Y218738D01*
X342192Y218840D01*
X342914Y219139D01*
X343534Y219615D01*
X344010Y220235D01*
X344309Y220957D01*
X344411Y221732D01*
X344309Y222507D01*
X344010Y223229D01*
X343534Y223849D01*
X342914Y224325D01*
X342192Y224624D01*
X341417Y224726D01*
X340683Y224630D01*
X340117Y225196D01*
X339621Y225527D01*
X339035Y225644D01*
X338083D01*
X337772Y226035D01*
X337839Y226324D01*
X338413Y226399D01*
X339135Y226698D01*
X339755Y227174D01*
X340231Y227794D01*
X340530Y228516D01*
X340632Y229291D01*
X340530Y230066D01*
X340231Y230788D01*
X339755Y231409D01*
X339135Y231884D01*
X338413Y232183D01*
X337638Y232285D01*
D02*
G37*
G36*
X421547Y231311D02*
X419119D01*
X419155Y231036D01*
X419454Y230314D01*
X419930Y229694D01*
X420550Y229218D01*
X421272Y228919D01*
X421547Y228883D01*
Y231311D01*
D02*
G37*
G36*
X647000Y232833D02*
X646649Y232763D01*
X645927Y232281D01*
X645445Y231560D01*
X645276Y230709D01*
Y228059D01*
X647000D01*
Y232833D01*
D02*
G37*
G36*
X452417Y239642D02*
X440969D01*
Y231539D01*
X452417D01*
Y233567D01*
X456327D01*
X458162Y231732D01*
X448906Y222476D01*
X445622D01*
X445575Y222507D01*
X444724Y222677D01*
X438425D01*
X437574Y222507D01*
X436853Y222025D01*
X436371Y221304D01*
X436201Y220453D01*
X436371Y219602D01*
X436853Y218880D01*
X437574Y218398D01*
X438425Y218229D01*
X444724D01*
X445575Y218398D01*
X445622Y218430D01*
X449744D01*
X450518Y218584D01*
X451175Y219022D01*
X461294Y229141D01*
X461756Y228950D01*
Y226795D01*
X475567D01*
Y236669D01*
X461756D01*
Y234514D01*
X461294Y234323D01*
X458596Y237021D01*
X457940Y237460D01*
X457165Y237614D01*
X452417D01*
Y239642D01*
D02*
G37*
G36*
X382256Y231311D02*
X378835D01*
X378905Y230779D01*
X379303Y229818D01*
X379937Y228992D01*
X380763Y228358D01*
X381724Y227960D01*
X382256Y227890D01*
Y231311D01*
D02*
G37*
G36*
X386677D02*
X383256D01*
Y227890D01*
X383788Y227960D01*
X384749Y228358D01*
X385575Y228992D01*
X386209Y229818D01*
X386607Y230779D01*
X386677Y231311D01*
D02*
G37*
G36*
X273677Y201075D02*
X271406D01*
Y198016D01*
X273677D01*
Y201075D01*
D02*
G37*
G36*
X483280Y200724D02*
X483005Y200687D01*
X482282Y200388D01*
X481662Y199912D01*
X481186Y199292D01*
X480887Y198570D01*
X480851Y198295D01*
X483280D01*
Y200724D01*
D02*
G37*
G36*
X484279D02*
Y198295D01*
X486708D01*
X486672Y198570D01*
X486373Y199292D01*
X485897Y199912D01*
X485277Y200388D01*
X484554Y200687D01*
X484279Y200724D01*
D02*
G37*
G36*
X270406Y201075D02*
X268134D01*
Y198016D01*
X270406D01*
Y201075D01*
D02*
G37*
G36*
X527969Y198677D02*
X525205D01*
Y196996D01*
X527969D01*
Y198677D01*
D02*
G37*
G36*
X580248Y200095D02*
X577976D01*
Y197035D01*
X580248D01*
Y200095D01*
D02*
G37*
G36*
X583520D02*
X581248D01*
Y197035D01*
X583520D01*
Y200095D01*
D02*
G37*
G36*
X594165Y204224D02*
X592442D01*
Y201575D01*
X592611Y200724D01*
X593093Y200002D01*
X593814Y199520D01*
X594165Y199450D01*
Y204224D01*
D02*
G37*
G36*
X596889D02*
X595165D01*
Y199450D01*
X595516Y199520D01*
X596238Y200002D01*
X596720Y200724D01*
X596889Y201575D01*
Y204224D01*
D02*
G37*
G36*
X604165D02*
X602442D01*
Y201575D01*
X602611Y200724D01*
X603093Y200002D01*
X603814Y199520D01*
X604165Y199450D01*
Y204224D01*
D02*
G37*
G36*
X591889D02*
X590165D01*
Y199450D01*
X590516Y199520D01*
X591238Y200002D01*
X591720Y200724D01*
X591889Y201575D01*
Y204224D01*
D02*
G37*
G36*
X364913Y203699D02*
X364562Y203629D01*
X363841Y203147D01*
X363359Y202426D01*
X363190Y201575D01*
Y198925D01*
X364913D01*
Y203699D01*
D02*
G37*
G36*
X365913D02*
Y198925D01*
X367637D01*
Y201575D01*
X367468Y202426D01*
X366986Y203147D01*
X366264Y203629D01*
X365913Y203699D01*
D02*
G37*
G36*
X589165Y204224D02*
X587441D01*
Y201575D01*
X587611Y200724D01*
X588093Y200002D01*
X588814Y199520D01*
X589165Y199450D01*
Y204224D01*
D02*
G37*
G36*
X524205Y198677D02*
X521441D01*
Y196996D01*
X524205D01*
Y198677D01*
D02*
G37*
G36*
X332728Y196338D02*
X330079D01*
X329228Y196169D01*
X328506Y195687D01*
X328024Y194965D01*
X327954Y194614D01*
X332728D01*
Y196338D01*
D02*
G37*
G36*
X483280Y197295D02*
X480851D01*
X480887Y197020D01*
X481186Y196298D01*
X481662Y195678D01*
X482282Y195202D01*
X483005Y194903D01*
X483280Y194867D01*
Y197295D01*
D02*
G37*
G36*
X486708D02*
X484279D01*
Y194867D01*
X484554Y194903D01*
X485277Y195202D01*
X485897Y195678D01*
X486373Y196298D01*
X486672Y197020D01*
X486708Y197295D01*
D02*
G37*
G36*
X495094Y196984D02*
X491839D01*
Y194516D01*
X495094D01*
Y196984D01*
D02*
G37*
G36*
X524205Y195996D02*
X521441D01*
Y194315D01*
X524205D01*
Y195996D01*
D02*
G37*
G36*
X527969D02*
X525205D01*
Y194315D01*
X527969D01*
Y195996D01*
D02*
G37*
G36*
X490839Y196984D02*
X487583D01*
Y194516D01*
X490839D01*
Y196984D01*
D02*
G37*
G36*
X346236Y198594D02*
X339118D01*
Y196323D01*
D01*
Y196323D01*
X338932Y196137D01*
X337276D01*
X337229Y196169D01*
X336378Y196338D01*
X333728D01*
Y194114D01*
Y191890D01*
X336378D01*
X337229Y192060D01*
X337276Y192091D01*
X339118D01*
Y189945D01*
X342177D01*
Y192717D01*
X342677D01*
Y193217D01*
X346236D01*
Y195488D01*
X344700D01*
Y196323D01*
X346236D01*
Y198594D01*
D02*
G37*
G36*
X496984Y213126D02*
X485535D01*
Y207189D01*
X489237D01*
Y204858D01*
X487583D01*
Y198921D01*
X495094D01*
Y199945D01*
X497189D01*
Y196559D01*
X503126D01*
Y204071D01*
X497189D01*
Y203992D01*
X495094D01*
Y204858D01*
X493283D01*
Y207189D01*
X496984D01*
Y213126D01*
D02*
G37*
G36*
X336378Y201338D02*
X330079D01*
X329228Y201169D01*
X328506Y200687D01*
X328024Y199965D01*
X327855Y199114D01*
X328024Y198263D01*
X328506Y197542D01*
X329228Y197060D01*
X330079Y196890D01*
X336378D01*
X337229Y197060D01*
X337950Y197542D01*
X338433Y198263D01*
X338602Y199114D01*
X338433Y199965D01*
X337950Y200687D01*
X337229Y201169D01*
X336378Y201338D01*
D02*
G37*
G36*
X612692Y198555D02*
X610264D01*
Y196127D01*
X610539Y196163D01*
X611261Y196462D01*
X611881Y196938D01*
X612357Y197558D01*
X612656Y198280D01*
X612692Y198555D01*
D02*
G37*
G36*
X674500Y198921D02*
X673968Y198851D01*
X673007Y198453D01*
X672181Y197819D01*
X671547Y196993D01*
X671149Y196032D01*
X671079Y195500D01*
X674500D01*
Y198921D01*
D02*
G37*
G36*
X675500D02*
Y195500D01*
X678921D01*
X678851Y196032D01*
X678453Y196993D01*
X677819Y197819D01*
X676993Y198453D01*
X676032Y198851D01*
X675500Y198921D01*
D02*
G37*
G36*
X609264Y198555D02*
X606836D01*
X606872Y198280D01*
X607171Y197558D01*
X607647Y196938D01*
X608267Y196462D01*
X608989Y196163D01*
X609264Y196127D01*
Y198555D01*
D02*
G37*
G36*
X594165Y209998D02*
X593814Y209929D01*
X593093Y209447D01*
X592611Y208725D01*
X592442Y207874D01*
Y205224D01*
X594165D01*
Y209998D01*
D02*
G37*
G36*
X595165D02*
Y205224D01*
X596889D01*
Y207874D01*
X596720Y208725D01*
X596238Y209447D01*
X595516Y209929D01*
X595165Y209998D01*
D02*
G37*
G36*
X604165D02*
X603814Y209929D01*
X603093Y209447D01*
X602611Y208725D01*
X602442Y207874D01*
Y205224D01*
X604165D01*
Y209998D01*
D02*
G37*
G36*
X590165D02*
Y205224D01*
X591889D01*
Y207874D01*
X591720Y208725D01*
X591238Y209447D01*
X590516Y209929D01*
X590165Y209998D01*
D02*
G37*
G36*
X522075Y205763D02*
Y203335D01*
X524503D01*
X524467Y203610D01*
X524168Y204332D01*
X523692Y204952D01*
X523072Y205428D01*
X522350Y205727D01*
X522075Y205763D01*
D02*
G37*
G36*
X342677Y215908D02*
X341902Y215806D01*
X341180Y215506D01*
X340560Y215031D01*
X340084Y214410D01*
X339785Y213688D01*
X339683Y212913D01*
X339785Y212139D01*
X340084Y211416D01*
X340560Y210796D01*
X341148Y210345D01*
Y209347D01*
X339118D01*
Y203803D01*
X346236D01*
Y209347D01*
X344207D01*
Y210345D01*
X344794Y210796D01*
X345270Y211416D01*
X345569Y212139D01*
X345671Y212913D01*
X345569Y213688D01*
X345270Y214410D01*
X344794Y215031D01*
X344174Y215506D01*
X343452Y215806D01*
X342677Y215908D01*
D02*
G37*
G36*
X589165Y209998D02*
X588814Y209929D01*
X588093Y209447D01*
X587611Y208725D01*
X587441Y207874D01*
Y205224D01*
X589165D01*
Y209998D01*
D02*
G37*
G36*
X446849Y209953D02*
X442075D01*
Y208229D01*
X444724D01*
X445575Y208398D01*
X446297Y208880D01*
X446779Y209602D01*
X446849Y209953D01*
D02*
G37*
G36*
X431626Y211154D02*
X429198D01*
X429234Y210879D01*
X429533Y210156D01*
X430009Y209536D01*
X430629Y209061D01*
X431351Y208761D01*
X431626Y208725D01*
Y211154D01*
D02*
G37*
G36*
X435054D02*
X432626D01*
Y208725D01*
X432901Y208761D01*
X433623Y209061D01*
X434243Y209536D01*
X434719Y210156D01*
X435018Y210879D01*
X435054Y211154D01*
D02*
G37*
G36*
X441075Y209953D02*
X436301D01*
X436371Y209602D01*
X436853Y208880D01*
X437574Y208398D01*
X438425Y208229D01*
X441075D01*
Y209953D01*
D02*
G37*
G36*
X605165Y209998D02*
Y205224D01*
X606889D01*
Y207874D01*
X606720Y208725D01*
X606238Y209447D01*
X605516Y209929D01*
X605165Y209998D01*
D02*
G37*
G36*
X307181Y214386D02*
X300063D01*
Y208842D01*
X307181D01*
Y209058D01*
X307643Y209249D01*
X308859Y208033D01*
X309356Y207701D01*
X309524Y207668D01*
X309609Y207542D01*
X310330Y207060D01*
X311181Y206890D01*
X317480D01*
X318331Y207060D01*
X319053Y207542D01*
X319535Y208263D01*
X319704Y209114D01*
X319535Y209965D01*
X319053Y210687D01*
X318331Y211169D01*
X317480Y211338D01*
X311181D01*
X310330Y211169D01*
X310162Y211056D01*
X308522Y212696D01*
X308026Y213027D01*
X307441Y213144D01*
X307181D01*
Y214386D01*
D02*
G37*
G36*
X336378Y211338D02*
X330079D01*
X329228Y211169D01*
X328506Y210687D01*
X328024Y209965D01*
X327855Y209114D01*
X328024Y208263D01*
X328506Y207542D01*
X329228Y207060D01*
X330079Y206890D01*
X336378D01*
X337229Y207060D01*
X337950Y207542D01*
X338433Y208263D01*
X338602Y209114D01*
X338433Y209965D01*
X337950Y210687D01*
X337229Y211169D01*
X336378Y211338D01*
D02*
G37*
G36*
X521075Y205763D02*
X520800Y205727D01*
X520078Y205428D01*
X519458Y204952D01*
X518982Y204332D01*
X518683Y203610D01*
X518646Y203335D01*
X521075D01*
Y205763D01*
D02*
G37*
G36*
Y202335D02*
X518646D01*
X518683Y202060D01*
X518982Y201338D01*
X519458Y200717D01*
X520078Y200242D01*
X520800Y199943D01*
X521075Y199906D01*
Y202335D01*
D02*
G37*
G36*
X524503D02*
X522075D01*
Y199906D01*
X522350Y199943D01*
X523072Y200242D01*
X523692Y200717D01*
X524168Y201338D01*
X524467Y202060D01*
X524503Y202335D01*
D02*
G37*
G36*
X546772Y211057D02*
X545571Y210899D01*
X544452Y210435D01*
X543491Y209698D01*
X542754Y208737D01*
X542290Y207618D01*
X542132Y206417D01*
X542290Y205217D01*
X542754Y204098D01*
X543491Y203137D01*
X544311Y202507D01*
X544344Y202008D01*
X537273Y194937D01*
X536827Y194937D01*
Y194937D01*
X530299D01*
Y190575D01*
X536827D01*
Y190733D01*
X537953D01*
X538727Y190887D01*
X539383Y191325D01*
X548202Y200144D01*
X548202Y200144D01*
X548202Y200144D01*
X548641Y200801D01*
X548795Y201575D01*
Y202276D01*
X549091Y202399D01*
X550052Y203137D01*
X550790Y204098D01*
X551253Y205217D01*
X551411Y206417D01*
X551253Y207618D01*
X550790Y208737D01*
X550052Y209698D01*
X549091Y210435D01*
X547972Y210899D01*
X546772Y211057D01*
D02*
G37*
G36*
X346236Y201866D02*
X343177D01*
Y199594D01*
X346236D01*
Y201866D01*
D02*
G37*
G36*
X606889Y204224D02*
X605165D01*
Y199450D01*
X605516Y199520D01*
X606238Y200002D01*
X606676Y200658D01*
X606676Y200658D01*
D01*
X607117Y200423D01*
X606872Y199830D01*
X606836Y199555D01*
X609264D01*
Y201983D01*
X608989Y201947D01*
X608267Y201648D01*
X607647Y201172D01*
X607186Y200572D01*
X606731Y200779D01*
X606889Y201575D01*
Y204224D01*
D02*
G37*
G36*
X610264Y201983D02*
Y199555D01*
X612692D01*
X612656Y199830D01*
X612357Y200552D01*
X611881Y201172D01*
X611261Y201648D01*
X610539Y201947D01*
X610264Y201983D01*
D02*
G37*
G36*
X342177Y201866D02*
X339118D01*
Y199594D01*
X342177D01*
Y201866D01*
D02*
G37*
G36*
X437220Y205803D02*
X435146D01*
Y203335D01*
X437220D01*
Y205803D01*
D02*
G37*
G36*
X441744Y206394D02*
X439472D01*
Y203335D01*
X441744D01*
Y206394D01*
D02*
G37*
G36*
X445016D02*
X442744D01*
Y203335D01*
X445016D01*
Y206394D01*
D02*
G37*
G36*
X434146Y205803D02*
X432071D01*
Y203335D01*
X434146D01*
Y205803D01*
D02*
G37*
G36*
X317480Y201338D02*
X311181D01*
X310330Y201169D01*
X309609Y200687D01*
X309580Y200644D01*
X308720D01*
X308135Y200527D01*
X307639Y200196D01*
X307181Y200385D01*
Y200528D01*
X300063D01*
Y194984D01*
X307181D01*
Y196227D01*
X307362D01*
X307947Y196343D01*
X308444Y196675D01*
X308711Y196942D01*
X309609Y197542D01*
X310330Y197060D01*
X311181Y196890D01*
X317480D01*
X318331Y197060D01*
X319053Y197542D01*
X319535Y198263D01*
X319704Y199114D01*
X319535Y199965D01*
X319053Y200687D01*
X318331Y201169D01*
X317480Y201338D01*
D02*
G37*
G36*
X307181Y206906D02*
X300063D01*
Y201362D01*
X307181D01*
Y202585D01*
X309580D01*
X309609Y202542D01*
X310330Y202060D01*
X311181Y201890D01*
X317480D01*
X318331Y202060D01*
X319053Y202542D01*
X319535Y203263D01*
X319704Y204114D01*
X319535Y204965D01*
X319053Y205687D01*
X318331Y206169D01*
X317480Y206338D01*
X311181D01*
X310330Y206169D01*
X309609Y205687D01*
X309580Y205644D01*
X307181D01*
Y206906D01*
D02*
G37*
G36*
X336378Y206338D02*
X330079D01*
X329228Y206169D01*
X328506Y205687D01*
X328024Y204965D01*
X327855Y204114D01*
X328024Y203263D01*
X328506Y202542D01*
X329228Y202060D01*
X330079Y201890D01*
X336378D01*
X337229Y202060D01*
X337950Y202542D01*
X338433Y203263D01*
X338602Y204114D01*
X338433Y204965D01*
X337950Y205687D01*
X337229Y206169D01*
X336378Y206338D01*
D02*
G37*
%LPD*%
D10*
X491260Y210157D02*
D03*
Y219213D02*
D03*
Y228268D02*
D03*
D11*
X514094Y219213D02*
D03*
D12*
X410709Y225512D02*
D03*
Y212913D02*
D03*
D13*
X270905Y201575D02*
D03*
X278386D02*
D03*
X325079Y181417D02*
D03*
X332559D02*
D03*
X400669Y191496D02*
D03*
X408150D02*
D03*
X456102Y112126D02*
D03*
X463583D02*
D03*
X442244Y202835D02*
D03*
X449724D02*
D03*
X414449Y235591D02*
D03*
X406968D02*
D03*
X482559Y238110D02*
D03*
X490039D02*
D03*
X500197Y191496D02*
D03*
X507677D02*
D03*
X580748Y196535D02*
D03*
X573268D02*
D03*
D14*
X327126Y110866D02*
D03*
X333032D02*
D03*
X327126Y173858D02*
D03*
X333032D02*
D03*
D15*
X317480Y161063D02*
D03*
Y123661D02*
D03*
D16*
X303622Y211614D02*
D03*
Y204134D02*
D03*
Y197756D02*
D03*
Y190276D02*
D03*
X342677Y192717D02*
D03*
Y185236D02*
D03*
Y199094D02*
D03*
Y206575D02*
D03*
X386772Y153740D02*
D03*
Y161221D02*
D03*
X405669Y114606D02*
D03*
Y107126D02*
D03*
X418268Y119646D02*
D03*
Y112165D02*
D03*
X447244Y185236D02*
D03*
Y192717D02*
D03*
X623622Y209173D02*
D03*
Y216653D02*
D03*
D17*
X314331Y189114D02*
D03*
Y194114D02*
D03*
Y199114D02*
D03*
Y204114D02*
D03*
Y209114D02*
D03*
Y214114D02*
D03*
Y219114D02*
D03*
Y224114D02*
D03*
X333228Y189114D02*
D03*
Y194114D02*
D03*
Y199114D02*
D03*
Y204114D02*
D03*
Y209114D02*
D03*
Y214114D02*
D03*
Y219114D02*
D03*
Y224114D02*
D03*
X586457Y188917D02*
D03*
Y183917D02*
D03*
Y178917D02*
D03*
Y173917D02*
D03*
X567559Y188917D02*
D03*
Y183917D02*
D03*
Y178917D02*
D03*
Y173917D02*
D03*
X422677Y210453D02*
D03*
Y215453D02*
D03*
Y220453D02*
D03*
Y225453D02*
D03*
X441575Y210453D02*
D03*
Y215453D02*
D03*
Y220453D02*
D03*
Y225453D02*
D03*
D18*
X334961Y136378D02*
D03*
Y139527D02*
D03*
Y142677D02*
D03*
Y145827D02*
D03*
Y148976D02*
D03*
Y152126D02*
D03*
Y155276D02*
D03*
Y158425D02*
D03*
X368032D02*
D03*
Y155276D02*
D03*
Y152126D02*
D03*
Y148976D02*
D03*
Y145827D02*
D03*
Y142677D02*
D03*
Y139527D02*
D03*
Y136378D02*
D03*
D19*
X340472Y163937D02*
D03*
X343622D02*
D03*
X346772D02*
D03*
X349921D02*
D03*
X353071D02*
D03*
X356221D02*
D03*
X359370D02*
D03*
X362520D02*
D03*
Y130866D02*
D03*
X359370D02*
D03*
X356221D02*
D03*
X353071D02*
D03*
X349921D02*
D03*
X346772D02*
D03*
X343622D02*
D03*
X340472D02*
D03*
D20*
X380413Y179528D02*
D03*
X375413D02*
D03*
X370413D02*
D03*
X365413D02*
D03*
X380413Y198425D02*
D03*
X375413D02*
D03*
X370413D02*
D03*
X365413D02*
D03*
X589665Y223622D02*
D03*
X594665D02*
D03*
X599665D02*
D03*
X604665D02*
D03*
X589665Y204724D02*
D03*
X594665D02*
D03*
X599665D02*
D03*
X604665D02*
D03*
X632500Y227559D02*
D03*
X637500D02*
D03*
X642500D02*
D03*
X647500D02*
D03*
X632500Y200787D02*
D03*
X637500D02*
D03*
X642500D02*
D03*
X647500D02*
D03*
D21*
X393071Y183937D02*
D03*
Y190236D02*
D03*
X394331Y160000D02*
D03*
Y153701D02*
D03*
X379213Y160000D02*
D03*
Y153701D02*
D03*
X439685Y192756D02*
D03*
Y186457D02*
D03*
X550551Y187716D02*
D03*
Y181417D02*
D03*
X558110Y187716D02*
D03*
Y181417D02*
D03*
X655118Y209134D02*
D03*
Y215433D02*
D03*
D22*
X386772Y176378D02*
D03*
X393071D02*
D03*
X382992Y146142D02*
D03*
X376693D02*
D03*
X420787Y202835D02*
D03*
X414488D02*
D03*
X428346D02*
D03*
X434646D02*
D03*
D23*
X432126Y113779D02*
D03*
Y125591D02*
D03*
X443465Y113779D02*
D03*
Y125591D02*
D03*
D24*
X430158Y235591D02*
D03*
X446693D02*
D03*
D25*
X468661Y204173D02*
D03*
Y231732D02*
D03*
D26*
X508032Y200315D02*
D03*
X500157D02*
D03*
D27*
X491339Y201890D02*
D03*
Y194016D02*
D03*
D28*
X524705Y189016D02*
D03*
Y196496D02*
D03*
X533563Y192756D02*
D03*
D29*
X277165Y142362D02*
X280945D01*
X274646Y144882D02*
X277165Y142362D01*
X274646Y144882D02*
Y175354D01*
X270000Y180000D02*
X274646Y175354D01*
X653858Y146142D02*
Y149921D01*
X648819Y154961D02*
X655118D01*
X660157Y149921D01*
X653858Y158740D02*
X655118Y160000D01*
X648819Y162520D02*
X656378Y170079D01*
X643780Y166299D02*
X657638Y180157D01*
X653858Y146142D02*
X660157Y139842D01*
X669842D01*
X675000Y145000D01*
X660157Y149921D02*
X669921D01*
X675000Y155000D01*
X655118Y160000D02*
X670000D01*
X675000Y165000D01*
X656378Y170079D02*
X670079D01*
X675000Y175000D01*
X657638Y180157D02*
X670157D01*
X675000Y185000D01*
X655118Y215433D02*
X657638D01*
X660157Y212913D01*
Y199843D02*
Y212913D01*
Y199843D02*
X665000Y195000D01*
X664803Y185197D02*
X665000Y185000D01*
X609764Y185197D02*
X664803D01*
X590866Y166299D02*
X609764Y185197D01*
X540472Y166299D02*
X590866D01*
X484646Y110473D02*
X540472Y166299D01*
X484646Y103543D02*
Y110473D01*
X548032Y170079D02*
X571969D01*
X540472D02*
X548032D01*
X550551Y176378D02*
X553012Y173917D01*
X567559Y190827D02*
Y190866D01*
Y188917D02*
Y190827D01*
X564409Y194016D02*
X567559Y190866D01*
X470472Y103543D02*
Y106378D01*
X472441Y108346D01*
X474961D01*
X542992Y176378D02*
X550551D01*
X477559Y103543D02*
Y107165D01*
X540472Y170079D01*
X571969D02*
X574488Y172598D01*
Y176378D01*
X571949Y178917D02*
X574488Y176378D01*
X567559Y178917D02*
X571949D01*
X553012Y173917D02*
X567559D01*
X550551Y176378D02*
Y181417D01*
X560610Y178917D02*
X567559D01*
X558110Y181417D02*
X560610Y178917D01*
X550551Y187716D02*
X558110D01*
X559311Y188917D01*
X567559D01*
Y190827D02*
X573268Y196535D01*
X599665Y197815D02*
Y204724D01*
Y197815D02*
X609764Y187716D01*
X640000D02*
X642520Y190236D01*
X632500Y220413D02*
Y226890D01*
X632441Y226831D02*
Y236850D01*
X632500Y226890D02*
Y227559D01*
X632441Y226831D02*
X632500Y226890D01*
X647559Y192756D02*
Y200728D01*
X642520Y190236D02*
Y200768D01*
X637480Y192756D02*
Y200768D01*
X632500Y220413D02*
X637480Y215433D01*
X655118D01*
X632500Y200787D02*
Y205413D01*
X636221Y209134D01*
X655118D01*
X418268Y106142D02*
Y112165D01*
Y106142D02*
X420866Y103543D01*
X449213D02*
X449764Y104095D01*
Y124724D01*
X448898Y125591D02*
X449764Y124724D01*
X443465Y125591D02*
X448898D01*
X443465Y109606D02*
Y113779D01*
X442126Y108268D02*
X443465Y109606D01*
X442126Y103543D02*
Y108268D01*
X432126Y109606D02*
Y113779D01*
Y109606D02*
X435039Y106693D01*
Y103543D02*
Y106693D01*
X425433Y125591D02*
X432126D01*
X424567Y124724D02*
X425433Y125591D01*
X424567Y106929D02*
Y124724D01*
Y106929D02*
X427953Y103543D01*
X370413Y179528D02*
X375413D01*
X361575Y183366D02*
Y186457D01*
X393071Y183937D02*
X393071Y183937D01*
X393071Y176378D02*
Y183937D01*
X383563Y176378D02*
X386772D01*
X380413Y179528D02*
X383563Y176378D01*
Y182677D02*
X385512D01*
X380413Y179528D02*
X383563Y182677D01*
X339035Y224114D02*
X341417Y221732D01*
X333228Y224114D02*
X339035D01*
X307500Y219114D02*
X314331D01*
X306142Y220472D02*
X307500Y219114D01*
X313701Y224744D02*
Y229291D01*
Y224744D02*
X314331Y224114D01*
X322520Y183976D02*
X325079Y181417D01*
X322520Y183976D02*
Y192756D01*
X321161Y194114D02*
X322520Y192756D01*
X314331Y194114D02*
X321161D01*
X303622Y190276D02*
X304784Y189114D01*
X314331D01*
X303622Y197756D02*
X307362D01*
X308720Y199114D01*
X314331D01*
X303622Y204134D02*
X303642Y204114D01*
X314331D01*
X303622Y211614D02*
X307441D01*
X309941Y209114D01*
X314331D01*
X441575Y215453D02*
X448484D01*
X449724Y214213D01*
Y202835D02*
Y214213D01*
X441575Y210453D02*
X442244Y209784D01*
X420787Y202835D02*
X428346D01*
X420787D02*
Y208563D01*
X422677Y210453D01*
X342677Y206575D02*
Y212913D01*
X314331Y214114D02*
X319941D01*
X322520Y216693D01*
Y228031D01*
X317480Y120512D02*
Y123661D01*
Y120512D02*
X327126Y110866D01*
X317480Y161063D02*
Y164213D01*
X327126Y173858D01*
X330394Y155276D02*
X334961D01*
X317480Y123661D02*
Y142362D01*
X320118Y158425D02*
X334961D01*
X317480Y161063D02*
X320118Y158425D01*
X317480Y142362D02*
X330394Y155276D01*
X327244Y139527D02*
X334961D01*
X325039Y137323D02*
X327244Y139527D01*
X340158Y131024D02*
X340315D01*
X336378Y127244D02*
X340158Y131024D01*
X334173Y136378D02*
X334961D01*
X330079Y132283D02*
X334173Y136378D01*
X325039Y128504D02*
Y137323D01*
Y128504D02*
X331339Y122205D01*
X265748Y170000D02*
X270000D01*
X263307Y142362D02*
Y167559D01*
X265748Y170000D01*
X368032Y145827D02*
X376378D01*
X382992Y146142D02*
Y149921D01*
X379213Y153701D02*
X382992Y149921D01*
X368032Y152126D02*
X377638D01*
X379213Y153701D01*
X379213Y160000D02*
X379213Y160000D01*
X375433Y160000D02*
X379213D01*
X374173Y158740D02*
X375433Y160000D01*
X374173Y156220D02*
Y158740D01*
X373228Y155276D02*
X374173Y156220D01*
X368032Y155276D02*
X373228D01*
X380433Y161221D02*
X386772D01*
X379213Y160000D02*
X380433Y161221D01*
X259528Y160000D02*
Y168819D01*
X263307Y172598D01*
X299843Y180157D02*
X304882D01*
X259528Y149921D02*
Y151181D01*
X255748Y154961D02*
X259528Y151181D01*
X255748Y154961D02*
Y168819D01*
X260787Y173858D01*
X299843Y183937D02*
X308661D01*
X343622Y163937D02*
Y170394D01*
X342677Y171339D02*
X343622Y170394D01*
X346772Y163937D02*
Y174803D01*
X346457Y175118D02*
X346772Y174803D01*
X356221Y125039D02*
Y130866D01*
Y125039D02*
X359055Y122205D01*
X406929D01*
X353071Y124409D02*
Y130866D01*
Y124409D02*
X357795Y119685D01*
X409449D01*
X406929Y122205D02*
X427087Y142362D01*
X409449Y119685D02*
X429606Y139842D01*
X458583D01*
X477480Y120945D01*
X427087Y142362D02*
X462362D01*
X483779Y120945D01*
Y117165D02*
Y120945D01*
X474961Y108346D02*
X483779Y117165D01*
X542992Y176378D01*
X349921Y123779D02*
Y130866D01*
Y123779D02*
X356535Y117165D01*
X346772Y123150D02*
Y130866D01*
Y123150D02*
X355276Y114646D01*
X343622Y122520D02*
Y130866D01*
Y122520D02*
X354016Y112126D01*
X399370Y110866D02*
X403110Y107126D01*
X408189Y114606D02*
X408228Y114646D01*
X410709D01*
X415709Y119646D01*
X418268D01*
X399370Y110866D02*
Y114646D01*
X396850Y117165D02*
X399370Y114646D01*
X385512Y117165D02*
X396850D01*
X384252Y115905D02*
X385512Y117165D01*
X382992Y115905D02*
X384252D01*
X356535Y117165D02*
X381732D01*
X382992Y115905D01*
X355276Y114646D02*
X376693D01*
X379213Y112126D01*
X385512D01*
X386772Y113386D01*
X354016Y112126D02*
X375433D01*
X377953Y109606D01*
X382992D01*
X384252Y108346D01*
X386772D01*
X393110Y161221D02*
X394331Y160000D01*
X386772Y161221D02*
X393110D01*
X389291Y144882D02*
X394331Y149921D01*
Y153701D01*
X399370Y149921D02*
Y163779D01*
X405669Y107087D02*
Y107126D01*
X361575Y183366D02*
X365354Y179587D01*
X393071Y176378D02*
X396850D01*
X404410Y137323D02*
Y168819D01*
X396850Y176378D02*
X404410Y168819D01*
X389291Y139842D02*
Y144882D01*
X386772Y137323D02*
X389291Y139842D01*
X391811Y133543D02*
Y142362D01*
X399370Y149921D01*
X386772Y113386D02*
X394331D01*
X331339Y122205D02*
X340158D01*
X352756Y109606D01*
X374173D01*
X379213Y104567D01*
X390551D01*
X393071Y107087D01*
X398110Y136063D02*
Y144882D01*
X401890Y148661D01*
Y165039D01*
X375413Y173878D02*
Y179528D01*
X365354Y175118D02*
Y179587D01*
X375413Y173878D02*
X377953Y171339D01*
X395590D01*
X401890Y165039D01*
X365354Y175118D02*
X371654Y168819D01*
X394331D01*
X399370Y163779D01*
X335276Y163937D02*
X340472D01*
X335118Y163779D02*
X335276Y163937D01*
X636221Y167559D02*
X653661Y185000D01*
X665000D01*
X368032Y158425D02*
Y164882D01*
X367874Y165039D02*
X368032Y164882D01*
X362520Y163937D02*
Y167244D01*
X365354Y170079D01*
X359370Y163937D02*
Y171653D01*
X360315Y172598D01*
X349921Y163937D02*
Y173543D01*
X350236Y173858D01*
Y176378D01*
X351496Y177638D01*
X353071Y163937D02*
Y171653D01*
X354016Y172598D01*
X386772Y161221D02*
Y165039D01*
X634961Y187716D02*
X640000D01*
X632441Y190236D02*
X634961Y187716D01*
X609764D02*
X629921D01*
X632441Y190236D01*
X524705Y185846D02*
X526614Y183937D01*
X524705Y185846D02*
Y189016D01*
X263307Y142362D02*
X272126Y133543D01*
X283465D01*
X285984Y131024D01*
X289764D01*
X292284Y133543D01*
X304882D01*
X294803Y188976D02*
X299843Y183937D01*
X294803Y188976D02*
Y200315D01*
X292284Y187716D02*
X299843Y180157D01*
X292284Y187716D02*
Y199055D01*
X285984Y209134D02*
X294803Y200315D01*
X284724Y206614D02*
X292284Y199055D01*
X260787Y173858D02*
Y205354D01*
X264567Y209134D01*
X285984D01*
X263307Y172598D02*
Y202835D01*
X267087Y206614D01*
X284724D01*
D30*
X368032Y139527D02*
X368347Y139842D01*
X359055Y130551D02*
X359370Y130866D01*
X359055Y125984D02*
Y130551D01*
X280000Y180000D02*
X309921Y150079D01*
Y137323D02*
Y150079D01*
X372913Y139842D02*
X376693Y136063D01*
X368347Y139842D02*
X372913D01*
X411969Y134803D02*
Y147402D01*
X359055Y125984D02*
X360315Y124724D01*
X405669D01*
X415748Y134803D01*
Y151181D01*
X413228Y153701D02*
X415748Y151181D01*
X410709Y153701D02*
X413228D01*
X408189Y157480D02*
X413228D01*
X419528Y151181D01*
Y147402D02*
Y151181D01*
X362520Y130866D02*
X366142Y127244D01*
X404410D01*
X411969Y134803D01*
X368032Y136378D02*
X374646Y129764D01*
X406310Y155601D02*
X408189Y157480D01*
X406310Y149932D02*
X408189Y148052D01*
X406310Y149932D02*
Y155601D01*
X408189Y134803D02*
Y148052D01*
X374646Y129764D02*
X403150D01*
X408189Y134803D01*
X280000Y160000D02*
X294803D01*
X296063Y158740D01*
Y144882D02*
Y158740D01*
X287349Y170000D02*
X302362Y154987D01*
X280000Y170000D02*
X287349D01*
X302362Y141102D02*
Y154987D01*
D31*
X355591Y148976D02*
X368032D01*
X352441Y152126D02*
X355591Y148976D01*
X355591Y155276D02*
X368032D01*
X352441Y152126D02*
X355591Y155276D01*
X334961Y152126D02*
X352441D01*
X331024D02*
X334961D01*
X328819Y149921D02*
X331024Y152126D01*
X328819Y147402D02*
Y149921D01*
Y147402D02*
X330394Y145827D01*
X334961D01*
X328819Y229291D02*
X337638D01*
X326299Y226772D02*
X328819Y229291D01*
X326299Y220472D02*
Y226772D01*
Y220472D02*
X327658Y219114D01*
X333228D01*
X375413Y213484D02*
X381142Y219213D01*
X375413Y198425D02*
Y213484D01*
X367205Y219213D02*
X370413Y216004D01*
Y198425D02*
Y216004D01*
X372756Y227598D02*
X381142Y219213D01*
X372756Y227598D02*
Y231811D01*
X362756Y223661D02*
X367205Y219213D01*
X362756Y223661D02*
Y231811D01*
D32*
X624114Y209173D02*
X631142D01*
X623622D02*
X624114D01*
X631142D02*
X631181Y209134D01*
X599665Y223622D02*
X604665D01*
X619488Y197441D02*
Y199409D01*
X609764Y209134D02*
X619488Y199409D01*
X609764Y209134D02*
Y218524D01*
X604665Y223622D02*
X609764Y218524D01*
X624114Y209173D02*
X632500Y200787D01*
X463386Y111929D02*
X463583Y112126D01*
X463386Y103543D02*
Y111929D01*
X456102Y112126D02*
X456299Y111929D01*
Y103543D02*
Y111929D01*
X410709Y212913D02*
X413248Y215453D01*
X422677D01*
Y225453D02*
X441575D01*
X422677Y220453D02*
Y225453D01*
X410709Y225512D02*
X410768Y225453D01*
X422677D01*
X493858Y144882D02*
X503858Y154882D01*
Y181417D01*
X280000Y190000D02*
X293543Y176457D01*
Y175118D02*
Y176457D01*
X289764Y139842D02*
Y153701D01*
X287244Y137323D02*
X289764Y139842D01*
X280000Y190000D02*
Y199961D01*
X278386Y201575D02*
X280000Y199961D01*
X589665Y223622D02*
X594665D01*
D33*
X401890Y236850D02*
X403150Y235591D01*
X406968D01*
X406929Y212913D02*
X410709D01*
X404410Y215433D02*
X406929Y212913D01*
X404410Y215433D02*
Y219213D01*
X401890Y221732D02*
X404410Y219213D01*
X401890Y221732D02*
Y236850D01*
X399370Y239370D02*
X401890Y236850D01*
X355276Y239370D02*
X399370D01*
X352756Y236850D02*
X355276Y239370D01*
X352756Y231811D02*
Y236850D01*
Y219882D02*
Y231811D01*
Y219882D02*
X353425Y219213D01*
D34*
X446693Y235591D02*
X457165D01*
X546772Y201575D02*
Y206417D01*
X537953Y192756D02*
X546772Y201575D01*
X533563Y192756D02*
X537953D01*
X508032Y200315D02*
X513858Y194488D01*
Y181417D02*
Y194488D01*
X468661Y190236D02*
X477480Y181417D01*
X493858D01*
X507677Y199961D02*
X508032Y200315D01*
X507677Y191496D02*
Y199961D01*
X490039Y238110D02*
X491260Y236890D01*
Y228268D02*
Y236890D01*
X545709Y233071D02*
X546772Y232008D01*
X496063Y233071D02*
X545709D01*
X491260Y228268D02*
X496063Y233071D01*
X491260Y219213D02*
X514094D01*
Y206378D02*
Y219213D01*
X508032Y200315D02*
X514094Y206378D01*
X491260Y201969D02*
X498504D01*
X500157Y200315D01*
X491260Y201969D02*
Y210157D01*
X485276Y228268D02*
X491260D01*
X468661Y211653D02*
X485276Y228268D01*
X468661Y204173D02*
Y211653D01*
Y190236D02*
Y204173D01*
X408189Y197795D02*
X415748D01*
X408150Y197756D02*
X408189Y197795D01*
X408150Y191496D02*
Y197756D01*
X333228Y194114D02*
X341280D01*
X342677Y192717D01*
X333228Y189114D02*
X337106Y185236D01*
X342677D01*
X333228Y182087D02*
Y189114D01*
X332559Y181417D02*
X333228Y182087D01*
X380413Y198425D02*
X388032Y206043D01*
Y227087D01*
X392756Y231811D01*
X380413Y198425D02*
X381043Y197795D01*
X447244D02*
X456063D01*
X439685D02*
X447244D01*
Y192717D02*
Y197795D01*
X415748D02*
X439685D01*
Y192756D02*
Y197795D01*
X462441Y204173D02*
X468661D01*
X456063Y197795D02*
X462441Y204173D01*
X414488Y199055D02*
X415748Y197795D01*
X414488Y199055D02*
Y202835D01*
X457165Y235591D02*
X461024Y231732D01*
X468661D01*
X449744Y220453D02*
X461024Y231732D01*
X441575Y220453D02*
X449744D01*
X342677Y192717D02*
Y199094D01*
Y185236D02*
X349016D01*
X359055Y195276D01*
Y197795D01*
X381043D02*
X386772D01*
X408189D01*
X513858Y153543D02*
Y181417D01*
X501417Y141102D02*
X513858Y153543D01*
D35*
X673228Y224410D02*
D03*
X275590D02*
D03*
Y118110D02*
D03*
X673228D02*
D03*
X118110D02*
D03*
D36*
X394921Y219213D02*
D03*
X381142D02*
D03*
X367205D02*
D03*
X353425D02*
D03*
D37*
X392756Y231811D02*
D03*
X382756D02*
D03*
X372756D02*
D03*
X362756D02*
D03*
X270000Y150000D02*
D03*
X280000D02*
D03*
X270000Y160000D02*
D03*
X280000D02*
D03*
X270000Y170000D02*
D03*
X280000D02*
D03*
X270000Y180000D02*
D03*
X280000D02*
D03*
X270000Y190000D02*
D03*
X503858Y181417D02*
D03*
X513858D02*
D03*
X675000Y195000D02*
D03*
X665000D02*
D03*
X675000Y185000D02*
D03*
X665000D02*
D03*
X675000Y175000D02*
D03*
X665000D02*
D03*
X675000Y165000D02*
D03*
X665000D02*
D03*
X675000Y155000D02*
D03*
X665000D02*
D03*
X675000Y145000D02*
D03*
D38*
X352756Y231811D02*
D03*
X493858Y181417D02*
D03*
D39*
X619488Y142323D02*
D03*
Y197441D02*
D03*
D40*
X619291Y108661D02*
D03*
Y231102D02*
D03*
X296457D02*
D03*
Y108661D02*
D03*
D41*
X322835Y236221D02*
D03*
X329921D02*
D03*
X575591D02*
D03*
X582677D02*
D03*
X484646Y103543D02*
D03*
X477559D02*
D03*
X470472D02*
D03*
X463386D02*
D03*
X456299D02*
D03*
X420866D02*
D03*
X427953D02*
D03*
X435039D02*
D03*
X442126D02*
D03*
X449213D02*
D03*
D42*
X280000Y190000D02*
D03*
X665000Y145000D02*
D03*
D43*
X468661Y176457D02*
D03*
Y190236D02*
D03*
D44*
X546772Y232008D02*
D03*
D45*
Y206417D02*
D03*
D46*
X280945Y142362D02*
D03*
X419528Y147402D02*
D03*
X411969D02*
D03*
X309921Y137323D02*
D03*
X302362Y141102D02*
D03*
X296063Y144882D02*
D03*
X653858Y149921D02*
D03*
X648819Y154961D02*
D03*
X653858Y158740D02*
D03*
X648819Y162520D02*
D03*
X643780Y166299D02*
D03*
X122205Y163779D02*
D03*
X225512D02*
D03*
X173858Y113386D02*
D03*
Y163779D02*
D03*
Y215433D02*
D03*
X631181Y209134D02*
D03*
X564409Y194016D02*
D03*
X551811Y175118D02*
D03*
X548032Y170079D02*
D03*
X609764Y199055D02*
D03*
X632441Y236850D02*
D03*
X637480Y192756D02*
D03*
X642520Y190236D02*
D03*
X647559Y192756D02*
D03*
X616063Y216693D02*
D03*
X521575Y202835D02*
D03*
X483779Y197795D02*
D03*
X385512Y182677D02*
D03*
X361575Y186457D02*
D03*
X337638Y229291D02*
D03*
X341417Y221732D02*
D03*
X306142Y220472D02*
D03*
X313701Y229291D02*
D03*
X422047Y231811D02*
D03*
X432126Y211653D02*
D03*
X342677Y212913D02*
D03*
X322520Y228031D02*
D03*
X359055Y197795D02*
D03*
X386772D02*
D03*
X330079Y132283D02*
D03*
X336378Y127244D02*
D03*
X304882Y133543D02*
D03*
X376693Y136063D02*
D03*
X259528Y160000D02*
D03*
Y149921D02*
D03*
X304882Y180157D02*
D03*
X308661Y183937D02*
D03*
X342677Y171339D02*
D03*
X346457Y175118D02*
D03*
X386772Y108346D02*
D03*
X382992Y115905D02*
D03*
X477480Y120945D02*
D03*
X410709Y153701D02*
D03*
X381732Y133543D02*
D03*
X411969Y115905D02*
D03*
X386772Y165039D02*
D03*
X393071Y107087D02*
D03*
X398110Y136063D02*
D03*
X404410Y137323D02*
D03*
X386772D02*
D03*
X391811Y133543D02*
D03*
X394331Y113386D02*
D03*
X335118Y163779D02*
D03*
X636221Y167559D02*
D03*
X351496Y177638D02*
D03*
X354016Y172598D02*
D03*
X360315D02*
D03*
X365354Y170079D02*
D03*
X367874Y165039D02*
D03*
X632441Y190236D02*
D03*
X526614Y183937D02*
D03*
X501417Y141102D02*
D03*
X493858Y144882D02*
D03*
X293543Y175118D02*
D03*
X289764Y153701D02*
D03*
X287244Y137323D02*
D03*
X456063Y123465D02*
D03*
X549291Y138583D02*
D03*
M02*
