M48
;Layer_Color=9474304
;FILE_FORMAT=2:5
INCH,LZ
;TYPE=PLATED
T1F00S00C0.03150
T2F00S00C0.04724
T3F00S00C0.12598
%
T01
X0314961Y0044291
Y0059055
X0329724
Y0044291
X0324803Y0096457
X0302165
X028937
X0266732
X0253937
X0231299
X0218504
X0195866
X0183071
X0160433
X0147638
X0125
X0112205
X0089567
X0076772
X0054134
X0044291Y0079724
Y0063976
X0029528
Y0049213
X003937Y003937
X0054134
Y0024606
X0068898
X0083661
Y003937
X0068898
Y0054134
X0054134
X0029528Y007874
Y0093504
Y0108268
X0049213Y0137795
Y0147638
Y015748
Y0167323
X0050276Y0198819
X0040276
X0095394
X0105394
X0097441Y0127953
X0081693Y011811
X0062008Y0127953
X0117126Y011811
X0132874Y0127953
X0152559Y011811
X0168307Y0127953
X0187992Y011811
X020374Y0127953
X0223425Y011811
X0239173Y0127953
X0258858Y011811
X0260748Y0198819
X0270748
X0243189
X0233189
X021563
X020563
X0188071
X0178071
X0160512
X0150512
X0132953
X0122953
X0288307
X0298307
X0310039Y0127953
X0294291Y011811
X0274606Y0127953
X0329724Y011811
T02
X0272638Y0038189
X0300197
X0286417Y0057874
X0258858
X0231299
X020374
X0176181
X0148622
X0121063
X0134843Y0038189
X0162402
X0189961
X021752
X0245079
X0107283
X0093504Y0057874
X0107283Y0237402
X0093504Y0257087
X007185Y0262795
X0052165
X0121063Y0257087
X0148622
X0176181
X020374
X0231299
X0258858
X0245079Y0237402
X021752
X0189961
X0162402
X0134843
X0272638
X0300197
X0286417Y0257087
T03
X0334646Y0019685
X0019685
X0334646Y027559
X0019685
M30
