G04 Layer_Color=16711935*
%FSLAX25Y25*%
%MOIN*%
G70*
G01*
G75*
%ADD10C,0.10236*%
%ADD11C,0.27953*%
%ADD12C,0.11824*%
%ADD13C,0.08268*%
%ADD14R,0.08268X0.08268*%
%ADD15C,0.03543*%
%ADD16C,0.06693*%
D10*
X52165Y262795D02*
D03*
X71850D02*
D03*
D11*
X19685Y275590D02*
D03*
Y19685D02*
D03*
X334646Y275590D02*
D03*
Y19685D02*
D03*
D12*
X300197Y38189D02*
D03*
X272638D02*
D03*
X286417Y57874D02*
D03*
X258858D02*
D03*
X93504D02*
D03*
X107283Y38189D02*
D03*
X121063Y57874D02*
D03*
X134843Y38189D02*
D03*
X189961D02*
D03*
X203740Y57874D02*
D03*
X217520Y38189D02*
D03*
X231299Y57874D02*
D03*
X245079Y38189D02*
D03*
X176181Y57874D02*
D03*
X162402Y38189D02*
D03*
X148622Y57874D02*
D03*
X93504Y257087D02*
D03*
X121063D02*
D03*
X107283Y237402D02*
D03*
X134843D02*
D03*
X300197D02*
D03*
X286417Y257087D02*
D03*
X272638Y237402D02*
D03*
X258858Y257087D02*
D03*
X203740D02*
D03*
X189961Y237402D02*
D03*
X176181Y257087D02*
D03*
X162402Y237402D02*
D03*
X148622Y257087D02*
D03*
X217520Y237402D02*
D03*
X231299Y257087D02*
D03*
X245079Y237402D02*
D03*
D13*
X40276Y198819D02*
D03*
X95394D02*
D03*
X122953D02*
D03*
X150512D02*
D03*
X178071D02*
D03*
X205630D02*
D03*
X233189D02*
D03*
X260748D02*
D03*
X288307D02*
D03*
D14*
X50276D02*
D03*
X105394D02*
D03*
X132953D02*
D03*
X160512D02*
D03*
X188071D02*
D03*
X215630D02*
D03*
X243189D02*
D03*
X270748D02*
D03*
X298307D02*
D03*
D15*
X68898Y54134D02*
D03*
X29528Y108268D02*
D03*
X83661Y24606D02*
D03*
X68898D02*
D03*
X54134D02*
D03*
X314961Y44291D02*
D03*
Y59055D02*
D03*
X329724D02*
D03*
Y44291D02*
D03*
X44291Y79724D02*
D03*
Y63976D02*
D03*
X54134Y54134D02*
D03*
X68898Y39370D02*
D03*
X54134D02*
D03*
X39370D02*
D03*
X83661D02*
D03*
X29528Y49213D02*
D03*
Y63976D02*
D03*
Y78740D02*
D03*
Y93504D02*
D03*
X329724Y118110D02*
D03*
X294291D02*
D03*
X258858D02*
D03*
X223425D02*
D03*
X187992D02*
D03*
X152559D02*
D03*
X117126D02*
D03*
X81693D02*
D03*
X324803Y96457D02*
D03*
X289370D02*
D03*
X253937D02*
D03*
X218504D02*
D03*
X183071D02*
D03*
X147638D02*
D03*
X112205D02*
D03*
X54134D02*
D03*
X302165D02*
D03*
X266732D02*
D03*
X239173Y127953D02*
D03*
X203740D02*
D03*
X231299Y96457D02*
D03*
X195866D02*
D03*
X168307Y127953D02*
D03*
X160433Y96457D02*
D03*
X125000D02*
D03*
X132874Y127953D02*
D03*
X97441D02*
D03*
X62008D02*
D03*
X76772Y96457D02*
D03*
X89567D02*
D03*
X310039Y127953D02*
D03*
X274606D02*
D03*
D16*
X49213Y167323D02*
D03*
Y137795D02*
D03*
Y147638D02*
D03*
Y157480D02*
D03*
M02*
