G04 Layer_Color=8388736*
%FSAX42Y42*%
%MOMM*%
G71*
G01*
G75*
G04:AMPARAMS|DCode=10|XSize=2mm|YSize=1.5mm|CornerRadius=0.26mm|HoleSize=0mm|Usage=FLASHONLY|Rotation=90.000|XOffset=0mm|YOffset=0mm|HoleType=Round|Shape=RoundedRectangle|*
%AMROUNDEDRECTD10*
21,1,2.00,0.97,0,0,90.0*
21,1,1.48,1.50,0,0,90.0*
1,1,0.53,0.49,0.74*
1,1,0.53,0.49,-0.74*
1,1,0.53,-0.49,-0.74*
1,1,0.53,-0.49,0.74*
%
%ADD10ROUNDEDRECTD10*%
%ADD11O,2.50X0.90*%
G04:AMPARAMS|DCode=12|XSize=1.6mm|YSize=1.2mm|CornerRadius=0.23mm|HoleSize=0mm|Usage=FLASHONLY|Rotation=90.000|XOffset=0mm|YOffset=0mm|HoleType=Round|Shape=RoundedRectangle|*
%AMROUNDEDRECTD12*
21,1,1.60,0.75,0,0,90.0*
21,1,1.15,1.20,0,0,90.0*
1,1,0.45,0.38,0.57*
1,1,0.45,0.38,-0.57*
1,1,0.45,-0.38,-0.57*
1,1,0.45,-0.38,0.57*
%
%ADD12ROUNDEDRECTD12*%
G04:AMPARAMS|DCode=13|XSize=1.6mm|YSize=1.2mm|CornerRadius=0.23mm|HoleSize=0mm|Usage=FLASHONLY|Rotation=0.000|XOffset=0mm|YOffset=0mm|HoleType=Round|Shape=RoundedRectangle|*
%AMROUNDEDRECTD13*
21,1,1.60,0.75,0,0,0.0*
21,1,1.15,1.20,0,0,0.0*
1,1,0.45,0.57,-0.38*
1,1,0.45,-0.57,-0.38*
1,1,0.45,-0.57,0.38*
1,1,0.45,0.57,0.38*
%
%ADD13ROUNDEDRECTD13*%
%ADD14O,0.75X1.95*%
%ADD15O,1.95X0.75*%
%ADD16O,0.80X1.80*%
G04:AMPARAMS|DCode=17|XSize=1mm|YSize=1mm|CornerRadius=0.2mm|HoleSize=0mm|Usage=FLASHONLY|Rotation=90.000|XOffset=0mm|YOffset=0mm|HoleType=Round|Shape=RoundedRectangle|*
%AMROUNDEDRECTD17*
21,1,1.00,0.60,0,0,90.0*
21,1,0.60,1.00,0,0,90.0*
1,1,0.40,0.30,0.30*
1,1,0.40,0.30,-0.30*
1,1,0.40,-0.30,-0.30*
1,1,0.40,-0.30,0.30*
%
%ADD17ROUNDEDRECTD17*%
G04:AMPARAMS|DCode=18|XSize=1.5mm|YSize=1mm|CornerRadius=0.2mm|HoleSize=0mm|Usage=FLASHONLY|Rotation=0.000|XOffset=0mm|YOffset=0mm|HoleType=Round|Shape=RoundedRectangle|*
%AMROUNDEDRECTD18*
21,1,1.50,0.60,0,0,0.0*
21,1,1.10,1.00,0,0,0.0*
1,1,0.40,0.55,-0.30*
1,1,0.40,-0.55,-0.30*
1,1,0.40,-0.55,0.30*
1,1,0.40,0.55,0.30*
%
%ADD18ROUNDEDRECTD18*%
G04:AMPARAMS|DCode=19|XSize=1.5mm|YSize=1mm|CornerRadius=0.2mm|HoleSize=0mm|Usage=FLASHONLY|Rotation=270.000|XOffset=0mm|YOffset=0mm|HoleType=Round|Shape=RoundedRectangle|*
%AMROUNDEDRECTD19*
21,1,1.50,0.60,0,0,270.0*
21,1,1.10,1.00,0,0,270.0*
1,1,0.40,-0.30,-0.55*
1,1,0.40,-0.30,0.55*
1,1,0.40,0.30,0.55*
1,1,0.40,0.30,-0.55*
%
%ADD19ROUNDEDRECTD19*%
G04:AMPARAMS|DCode=20|XSize=5.7mm|YSize=1.7mm|CornerRadius=0.29mm|HoleSize=0mm|Usage=FLASHONLY|Rotation=90.000|XOffset=0mm|YOffset=0mm|HoleType=Round|Shape=RoundedRectangle|*
%AMROUNDEDRECTD20*
21,1,5.70,1.13,0,0,90.0*
21,1,5.13,1.70,0,0,90.0*
1,1,0.58,0.56,2.56*
1,1,0.58,0.56,-2.56*
1,1,0.58,-0.56,-2.56*
1,1,0.58,-0.56,2.56*
%
%ADD20ROUNDEDRECTD20*%
%ADD21O,2.20X0.80*%
G04:AMPARAMS|DCode=22|XSize=2mm|YSize=1.5mm|CornerRadius=0.26mm|HoleSize=0mm|Usage=FLASHONLY|Rotation=0.000|XOffset=0mm|YOffset=0mm|HoleType=Round|Shape=RoundedRectangle|*
%AMROUNDEDRECTD22*
21,1,2.00,0.97,0,0,0.0*
21,1,1.48,1.50,0,0,0.0*
1,1,0.53,0.74,-0.49*
1,1,0.53,-0.74,-0.49*
1,1,0.53,-0.74,0.49*
1,1,0.53,0.74,0.49*
%
%ADD22ROUNDEDRECTD22*%
%ADD23C,1.73*%
%ADD24C,2.74*%
G04:AMPARAMS|DCode=25|XSize=2.74mm|YSize=2.74mm|CornerRadius=0.42mm|HoleSize=0mm|Usage=FLASHONLY|Rotation=180.000|XOffset=0mm|YOffset=0mm|HoleType=Round|Shape=RoundedRectangle|*
%AMROUNDEDRECTD25*
21,1,2.74,1.91,0,0,180.0*
21,1,1.91,2.74,0,0,180.0*
1,1,0.84,-0.95,0.95*
1,1,0.84,0.95,0.95*
1,1,0.84,0.95,-0.95*
1,1,0.84,-0.95,-0.95*
%
%ADD25ROUNDEDRECTD25*%
G04:AMPARAMS|DCode=26|XSize=1.73mm|YSize=1.98mm|CornerRadius=0.29mm|HoleSize=0mm|Usage=FLASHONLY|Rotation=270.000|XOffset=0mm|YOffset=0mm|HoleType=Round|Shape=RoundedRectangle|*
%AMROUNDEDRECTD26*
21,1,1.73,1.40,0,0,270.0*
21,1,1.14,1.98,0,0,270.0*
1,1,0.58,-0.70,-0.57*
1,1,0.58,-0.70,0.57*
1,1,0.58,0.70,0.57*
1,1,0.58,0.70,-0.57*
%
%ADD26ROUNDEDRECTD26*%
%ADD27O,1.98X1.73*%
G04:AMPARAMS|DCode=28|XSize=2.24mm|YSize=1.93mm|CornerRadius=0.32mm|HoleSize=0mm|Usage=FLASHONLY|Rotation=90.000|XOffset=0mm|YOffset=0mm|HoleType=Round|Shape=RoundedRectangle|*
%AMROUNDEDRECTD28*
21,1,2.24,1.30,0,0,90.0*
21,1,1.60,1.93,0,0,90.0*
1,1,0.64,0.65,0.80*
1,1,0.64,0.65,-0.80*
1,1,0.64,-0.65,-0.80*
1,1,0.64,-0.65,0.80*
%
%ADD28ROUNDEDRECTD28*%
%ADD29O,1.93X2.24*%
%ADD30R,1.70X1.70*%
%ADD31C,1.70*%
G04:AMPARAMS|DCode=32|XSize=2.74mm|YSize=2.74mm|CornerRadius=0.42mm|HoleSize=0mm|Usage=FLASHONLY|Rotation=270.000|XOffset=0mm|YOffset=0mm|HoleType=Round|Shape=RoundedRectangle|*
%AMROUNDEDRECTD32*
21,1,2.74,1.91,0,0,270.0*
21,1,1.91,2.74,0,0,270.0*
1,1,0.84,-0.95,-0.95*
1,1,0.84,-0.95,0.95*
1,1,0.84,0.95,0.95*
1,1,0.84,0.95,-0.95*
%
%ADD32ROUNDEDRECTD32*%
%ADD33C,5.28*%
%ADD34C,1.47*%
D10*
X004615Y009144D02*
D03*
X004325Y009144D02*
D03*
X004615Y008839D02*
D03*
X004325Y008839D02*
D03*
X004615Y009754D02*
D03*
X004325Y009754D02*
D03*
X004615Y009449D02*
D03*
X004325Y009449D02*
D03*
X015360Y006858D02*
D03*
X015070Y006858D02*
D03*
X015360Y007239D02*
D03*
X015070Y007239D02*
D03*
X015360Y007620D02*
D03*
X015070Y007620D02*
D03*
X015360Y008001D02*
D03*
X015070Y008001D02*
D03*
X015360Y008382D02*
D03*
X015070Y008382D02*
D03*
X015360Y008763D02*
D03*
X015070Y008763D02*
D03*
X015360Y009144D02*
D03*
X015070Y009144D02*
D03*
X015360Y009525D02*
D03*
X015070Y009525D02*
D03*
X012464Y008585D02*
D03*
X012174Y008585D02*
D03*
X012464Y008331D02*
D03*
X012174Y008331D02*
D03*
D11*
X014496Y007328D02*
D03*
X014496Y007455D02*
D03*
X014496Y007582D02*
D03*
X014496Y007709D02*
D03*
X014496Y007836D02*
D03*
X014496Y007963D02*
D03*
X014496Y008090D02*
D03*
X014496Y008217D02*
D03*
X014496Y008344D02*
D03*
X014496Y008471D02*
D03*
X013546Y007328D02*
D03*
X013546Y007455D02*
D03*
X013546Y007582D02*
D03*
X013546Y007709D02*
D03*
X013546Y007836D02*
D03*
X013546Y007963D02*
D03*
X013546Y008090D02*
D03*
X013546Y008217D02*
D03*
X013546Y008344D02*
D03*
X013546Y008471D02*
D03*
D12*
X014593Y008738D02*
D03*
X014413Y008738D02*
D03*
X007555Y008103D02*
D03*
X007735Y008103D02*
D03*
X007329Y008001D02*
D03*
X007149Y008001D02*
D03*
X010185Y008275D02*
D03*
X010365Y008275D02*
D03*
D13*
X008941Y005523D02*
D03*
X008941Y005703D02*
D03*
X010175Y008090D02*
D03*
X010175Y007910D02*
D03*
X011125Y008510D02*
D03*
X011125Y008690D02*
D03*
X007569Y007913D02*
D03*
X007569Y007733D02*
D03*
X006307Y006260D02*
D03*
X006307Y006440D02*
D03*
X011125Y007890D02*
D03*
X011125Y007710D02*
D03*
X007650Y008710D02*
D03*
X007650Y008890D02*
D03*
X011481Y009717D02*
D03*
X011481Y009537D02*
D03*
X006507Y006260D02*
D03*
X006507Y006440D02*
D03*
X011684Y008015D02*
D03*
X011684Y007835D02*
D03*
X007450Y008710D02*
D03*
X007450Y008890D02*
D03*
D14*
X008200Y007735D02*
D03*
X008280Y007735D02*
D03*
X008360Y007735D02*
D03*
X008440Y007735D02*
D03*
X008520Y007735D02*
D03*
X008600Y007735D02*
D03*
X008680Y007735D02*
D03*
X008760Y007735D02*
D03*
X008840Y007735D02*
D03*
X008920Y007735D02*
D03*
X009000Y007735D02*
D03*
X009080Y007735D02*
D03*
X009160Y007735D02*
D03*
X009240Y007735D02*
D03*
X009320Y007735D02*
D03*
X009400Y007735D02*
D03*
X009400Y009265D02*
D03*
X009320Y009265D02*
D03*
X009240Y009265D02*
D03*
X009160Y009265D02*
D03*
X009080Y009265D02*
D03*
X009000Y009265D02*
D03*
X008920Y009265D02*
D03*
X008840Y009265D02*
D03*
X008760Y009265D02*
D03*
X008680Y009265D02*
D03*
X008600Y009265D02*
D03*
X008520Y009265D02*
D03*
X008440Y009265D02*
D03*
X008360Y009265D02*
D03*
X008280Y009265D02*
D03*
X008200Y009265D02*
D03*
D15*
X009565Y007900D02*
D03*
X009565Y007980D02*
D03*
X009565Y008060D02*
D03*
X009565Y008140D02*
D03*
X009565Y008220D02*
D03*
X009565Y008300D02*
D03*
X009565Y008380D02*
D03*
X009565Y008460D02*
D03*
X009565Y008540D02*
D03*
X009565Y008620D02*
D03*
X009565Y008700D02*
D03*
X009565Y008780D02*
D03*
X009565Y008860D02*
D03*
X009565Y008940D02*
D03*
X009565Y009020D02*
D03*
X009565Y009100D02*
D03*
X008035Y009100D02*
D03*
X008035Y009020D02*
D03*
X008035Y008940D02*
D03*
X008035Y008860D02*
D03*
X008035Y008780D02*
D03*
X008035Y008700D02*
D03*
X008035Y008620D02*
D03*
X008035Y008540D02*
D03*
X008035Y008460D02*
D03*
X008035Y008380D02*
D03*
X008035Y008300D02*
D03*
X008035Y008220D02*
D03*
X008035Y008140D02*
D03*
X008035Y008060D02*
D03*
X008035Y007980D02*
D03*
X008035Y007900D02*
D03*
D16*
X006817Y006280D02*
D03*
X006943Y006280D02*
D03*
X007071Y006280D02*
D03*
X007197Y006280D02*
D03*
X006817Y006820D02*
D03*
X006943Y006820D02*
D03*
X007071Y006820D02*
D03*
X007197Y006820D02*
D03*
D17*
X005715Y009821D02*
D03*
X005715Y009991D02*
D03*
D18*
X010375Y007900D02*
D03*
X010375Y008100D02*
D03*
X005385Y009831D02*
D03*
X005385Y010031D02*
D03*
X008992Y006783D02*
D03*
X008992Y006983D02*
D03*
D19*
X007164Y007747D02*
D03*
X007364Y007747D02*
D03*
X012168Y008052D02*
D03*
X012368Y008052D02*
D03*
X012168Y007823D02*
D03*
X012368Y007823D02*
D03*
D20*
X010725Y007775D02*
D03*
X010725Y008625D02*
D03*
D21*
X009284Y006718D02*
D03*
X009284Y006591D02*
D03*
X009284Y006464D02*
D03*
X009284Y006337D02*
D03*
X009284Y006210D02*
D03*
X009284Y006083D02*
D03*
X009284Y005956D02*
D03*
X009284Y005829D02*
D03*
X009284Y005702D02*
D03*
X009284Y005575D02*
D03*
X010224Y006718D02*
D03*
X010224Y006591D02*
D03*
X010224Y006464D02*
D03*
X010224Y006337D02*
D03*
X010224Y006210D02*
D03*
X010224Y006083D02*
D03*
X010224Y005956D02*
D03*
X010224Y005829D02*
D03*
X010224Y005702D02*
D03*
X010224Y005575D02*
D03*
D22*
X014224Y006546D02*
D03*
X014224Y006256D02*
D03*
X013843Y006546D02*
D03*
X013843Y006256D02*
D03*
X013462Y006546D02*
D03*
X013462Y006256D02*
D03*
X013081Y006546D02*
D03*
X013081Y006256D02*
D03*
X012700Y006546D02*
D03*
X012700Y006256D02*
D03*
X012319Y006546D02*
D03*
X012319Y006256D02*
D03*
X011938Y006546D02*
D03*
X011938Y006256D02*
D03*
X011557Y006546D02*
D03*
X011557Y006256D02*
D03*
D23*
X009627Y007645D02*
D03*
X010071Y007328D02*
D03*
X009830Y007468D02*
D03*
X009576Y007366D02*
D03*
X009931Y005766D02*
D03*
X009931Y006020D02*
D03*
X009931Y006274D02*
D03*
X009931Y006553D02*
D03*
X009576Y005766D02*
D03*
X009576Y006020D02*
D03*
X009576Y006274D02*
D03*
X009576Y006553D02*
D03*
X009931Y006807D02*
D03*
X009576Y006807D02*
D03*
X010541Y006807D02*
D03*
X010820Y006807D02*
D03*
X015443Y010338D02*
D03*
X015443Y010617D02*
D03*
X015443Y010897D02*
D03*
X013335Y009093D02*
D03*
X013157Y009296D02*
D03*
X014135Y008776D02*
D03*
X013881Y008776D02*
D03*
X015418Y005766D02*
D03*
X006452Y010084D02*
D03*
X010109Y010338D02*
D03*
X010109Y010643D02*
D03*
X010109Y010947D02*
D03*
X010439Y010947D02*
D03*
X010439Y010643D02*
D03*
X010439Y010338D02*
D03*
X009322Y008445D02*
D03*
X008992Y008445D02*
D03*
X009296Y008026D02*
D03*
X008992Y008026D02*
D03*
X008687Y008026D02*
D03*
X008407Y008026D02*
D03*
X009144Y008267D02*
D03*
X008839Y008267D02*
D03*
X008560Y008267D02*
D03*
X008280Y008267D02*
D03*
X005247Y007326D02*
D03*
X003988Y007468D02*
D03*
X003378Y007468D02*
D03*
X003683Y007468D02*
D03*
X004496Y008001D02*
D03*
X004775Y007925D02*
D03*
X005029Y007925D02*
D03*
X005283Y007925D02*
D03*
X012979Y009449D02*
D03*
X007417Y005283D02*
D03*
X007036Y005283D02*
D03*
X006655Y005283D02*
D03*
X005740Y005283D02*
D03*
X004013Y005715D02*
D03*
X004013Y005486D02*
D03*
X004013Y005258D02*
D03*
X003912Y006020D02*
D03*
X003632Y006020D02*
D03*
X003378Y006020D02*
D03*
X003912Y006274D02*
D03*
X003632Y006274D02*
D03*
X003378Y006274D02*
D03*
X004496Y007112D02*
D03*
X004750Y007112D02*
D03*
X004978Y007112D02*
D03*
X008128Y009830D02*
D03*
X007823Y009830D02*
D03*
X007493Y009830D02*
D03*
X007188Y009830D02*
D03*
X006883Y009830D02*
D03*
X006731Y010084D02*
D03*
X007010Y010084D02*
D03*
X004470Y010008D02*
D03*
X004191Y010008D02*
D03*
X003912Y010008D02*
D03*
X003912Y010516D02*
D03*
X003480Y010262D02*
D03*
X003759Y010262D02*
D03*
X004039Y010262D02*
D03*
X004318Y010262D02*
D03*
X004572Y010262D02*
D03*
X004928Y009830D02*
D03*
X004928Y010109D02*
D03*
X005512Y009144D02*
D03*
X005766Y009144D02*
D03*
X006020Y009144D02*
D03*
X006274Y009144D02*
D03*
X006756Y009144D02*
D03*
X007010Y009144D02*
D03*
X005512Y008636D02*
D03*
X005766Y008636D02*
D03*
X006020Y008636D02*
D03*
X006274Y008636D02*
D03*
X006756Y008636D02*
D03*
X007010Y008636D02*
D03*
X006045Y007214D02*
D03*
X005842Y007341D02*
D03*
X005842Y007087D02*
D03*
X005842Y006833D02*
D03*
X005740Y006020D02*
D03*
X005740Y005740D02*
D03*
X006706Y008052D02*
D03*
X006934Y007849D02*
D03*
X006833Y007188D02*
D03*
X007239Y007188D02*
D03*
X007645Y007188D02*
D03*
X008103Y007188D02*
D03*
X008052Y005944D02*
D03*
X008306Y005944D02*
D03*
X008306Y006426D02*
D03*
X008052Y006426D02*
D03*
X007798Y006426D02*
D03*
X007518Y006426D02*
D03*
X015418Y005334D02*
D03*
X014961Y005969D02*
D03*
X014503Y005969D02*
D03*
X014656Y006731D02*
D03*
X014656Y006985D02*
D03*
X015240Y006426D02*
D03*
X014859Y006419D02*
D03*
X014503Y006426D02*
D03*
X012693Y007823D02*
D03*
X012700Y008153D02*
D03*
X012548Y007493D02*
D03*
X012294Y007493D02*
D03*
X012040Y007493D02*
D03*
X011786Y007493D02*
D03*
X010973Y007493D02*
D03*
X015418Y010058D02*
D03*
X015138Y010058D02*
D03*
X014884Y010058D02*
D03*
X014249Y008992D02*
D03*
X013995Y008992D02*
D03*
X013741Y008992D02*
D03*
X010871Y009576D02*
D03*
X010439Y009576D02*
D03*
X010033Y009576D02*
D03*
X009627Y009576D02*
D03*
X011100Y010084D02*
D03*
X010643Y010084D02*
D03*
X010236Y010084D02*
D03*
X009804Y010084D02*
D03*
X007950Y010084D02*
D03*
X007645Y010084D02*
D03*
X007315Y010084D02*
D03*
X008280Y010084D02*
D03*
D24*
X003658Y007823D02*
D03*
X003658Y008204D02*
D03*
X003658Y009347D02*
D03*
X003658Y008966D02*
D03*
X003658Y008585D02*
D03*
X015850Y006858D02*
D03*
X015850Y007239D02*
D03*
X015850Y006477D02*
D03*
X015850Y007620D02*
D03*
X015850Y008001D02*
D03*
X015850Y008763D02*
D03*
X015850Y008382D02*
D03*
X015850Y009906D02*
D03*
X015850Y010287D02*
D03*
X015850Y009525D02*
D03*
X015850Y009144D02*
D03*
X006838Y005650D02*
D03*
X007600Y005650D02*
D03*
X007219Y005650D02*
D03*
X003658Y006680D02*
D03*
X013868Y005664D02*
D03*
X014249Y005664D02*
D03*
X015011Y005664D02*
D03*
X014630Y005664D02*
D03*
X013106Y005664D02*
D03*
X013487Y005664D02*
D03*
X012725Y005664D02*
D03*
X012344Y005664D02*
D03*
X011201Y005664D02*
D03*
X011963Y005664D02*
D03*
X011582Y005664D02*
D03*
X011989Y010643D02*
D03*
X011608Y010643D02*
D03*
X010846Y010643D02*
D03*
X011227Y010643D02*
D03*
X012751Y010643D02*
D03*
X012370Y010643D02*
D03*
X013132Y010643D02*
D03*
X013513Y010643D02*
D03*
X014656Y010643D02*
D03*
X013894Y010643D02*
D03*
X014275Y010643D02*
D03*
D25*
X003658Y009728D02*
D03*
X015850Y006096D02*
D03*
X003658Y007061D02*
D03*
D26*
X004496Y008484D02*
D03*
X004496Y007696D02*
D03*
X011227Y009525D02*
D03*
D27*
X004496Y008280D02*
D03*
X004496Y007493D02*
D03*
X011227Y009728D02*
D03*
D28*
X008238Y010573D02*
D03*
X004588Y010573D02*
D03*
X005383Y005752D02*
D03*
D29*
X008492Y010573D02*
D03*
X008746Y010573D02*
D03*
X009000Y010573D02*
D03*
X009254Y010573D02*
D03*
X009508Y010573D02*
D03*
X009762Y010573D02*
D03*
X008238Y010827D02*
D03*
X008492Y010827D02*
D03*
X008746Y010827D02*
D03*
X009000Y010827D02*
D03*
X009254Y010827D02*
D03*
X009508Y010827D02*
D03*
X009762Y010827D02*
D03*
X006366Y010827D02*
D03*
X006112Y010827D02*
D03*
X005858Y010827D02*
D03*
X005604Y010827D02*
D03*
X005350Y010827D02*
D03*
X005096Y010827D02*
D03*
X004842Y010827D02*
D03*
X004588Y010827D02*
D03*
X006366Y010573D02*
D03*
X006112Y010573D02*
D03*
X005858Y010573D02*
D03*
X005604Y010573D02*
D03*
X005350Y010573D02*
D03*
X005096Y010573D02*
D03*
X004842Y010573D02*
D03*
X005129Y005752D02*
D03*
X004875Y005752D02*
D03*
X004621Y005752D02*
D03*
X004367Y005752D02*
D03*
X005383Y005498D02*
D03*
X005129Y005498D02*
D03*
X004875Y005498D02*
D03*
X004621Y005498D02*
D03*
X004367Y005498D02*
D03*
D30*
X011425Y007825D02*
D03*
X011938Y007823D02*
D03*
D31*
X011425Y008079D02*
D03*
X011425Y008333D02*
D03*
X011425Y008587D02*
D03*
X011938Y008077D02*
D03*
X011938Y008331D02*
D03*
X011938Y008585D02*
D03*
D32*
X006457Y005650D02*
D03*
X010820Y005664D02*
D03*
X015037Y010643D02*
D03*
D33*
X003500Y010800D02*
D03*
X008200Y005500D02*
D03*
X016000Y005500D02*
D03*
X016000Y010800D02*
D03*
X007300Y010800D02*
D03*
X003501Y005500D02*
D03*
D34*
X008255Y008800D02*
D03*
X013132Y007544D02*
D03*
X013284Y007442D02*
D03*
X013157Y007747D02*
D03*
X014554Y009703D02*
D03*
X013538Y008814D02*
D03*
X009000Y007137D02*
D03*
X013157Y008103D02*
D03*
X013157Y007950D02*
D03*
X013284Y007849D02*
D03*
X014097Y007087D02*
D03*
X013945Y007137D02*
D03*
X013767Y007163D02*
D03*
X013970Y006934D02*
D03*
X014122Y006883D02*
D03*
X014300Y006858D02*
D03*
X014427Y006731D02*
D03*
X009906Y008153D02*
D03*
X008865Y009881D02*
D03*
X010375Y007747D02*
D03*
X007648Y006787D02*
D03*
X008901Y010236D02*
D03*
X009072Y010236D02*
D03*
X009042Y010033D02*
D03*
X008915Y009677D02*
D03*
X010050Y008300D02*
D03*
X006625Y006800D02*
D03*
X005334Y010185D02*
D03*
X007163Y007493D02*
D03*
X007468Y006807D02*
D03*
X006604Y007112D02*
D03*
X008433Y008839D02*
D03*
X008407Y008636D02*
D03*
X008992Y008966D02*
D03*
X008865Y009068D02*
D03*
X008738Y008890D02*
D03*
X009195Y009068D02*
D03*
X009195Y008915D02*
D03*
X008865Y008712D02*
D03*
X008661Y008712D02*
D03*
X010363Y008611D02*
D03*
X010135Y008560D02*
D03*
X009931Y008611D02*
D03*
X010516Y008661D02*
D03*
X010135Y008839D02*
D03*
X009881Y008915D02*
D03*
X012878Y008661D02*
D03*
X012878Y008509D02*
D03*
X012649Y008661D02*
D03*
X012649Y008433D02*
D03*
X008865Y010046D02*
D03*
M02*
