M48
;Layer_Color=9474304
;FILE_FORMAT=4:2
METRIC,LZ
;TYPE=PLATED
T1F00S00C0.71
T2F00S00C0.85
T3F00S00C0.90
T4F00S00C1.20
T5F00S00C1.90
T6F00S00C3.20
%
T01
X0166Y0157
X0169Y0155
X0172Y0157
X015
Y0153
X0133
Y0157
X0116
Y0153
X0099
Y0157
X0096Y0155
X0093Y0153
Y0157
Y0161
Y0165
X0096Y0163
Y0159
X0099Y0161
Y0165
Y0169
Y0173
X0112Y0165
X0116Y0161
X0129Y0165
X0133Y0161
X0146Y0165
X015Y0161
X0166
Y0165
X0163
X0169Y0163
Y0159
X0172Y0161
Y0165
T02
X017Y011761
Y013539
X0164Y013315
Y014585
X0156Y014489
X015Y014585
X0147
X0139Y014489
X0133Y014585
X013
X0122Y014489
Y012711
X013Y013315
X0133
X0139Y012711
X0147Y013315
X015
X0156Y012711
X0116Y013315
X0113
Y014585
X0116
X0105Y014489
X0099Y014585
X00935
Y013315
X0099
X0105Y012711
T03
X015954Y014719
Y015481
X0157
X015446
Y014719
X0157
X014254
X014
X013746
Y015481
X014
X014254
X012554
X0123
X012046
Y014719
X0123
X012554
X010854
X0106
X010346
Y015481
X0106
X010854
T04
X0102Y011
X010701
X0112
X0119
X0094Y0119
X012401Y011
X0129
X0136
X014101
X0146
X0153
X015801
X0163
X0094Y012401
Y0129
X0102Y017
X010699
X0112
X0119
X012399
X0129
X0136
X014099
X0146
X0153
X015799
X0163
T05
X010155Y0119
X0107
X011245
X011855
X0124
X012945
X013555
X0141
X014645
X015255
X0158
X016345
T06
X0095Y011
X017
X0095Y017
X017
M30
