G04 Layer_Physical_Order=2*
G04 Layer_Color=16711680*
%FSAX42Y42*%
%MOMM*%
G71*
G01*
G75*
%ADD10C,1.02*%
%ADD11C,0.25*%
%ADD12C,3.05*%
%ADD13R,3.00X3.00*%
%ADD14C,3.00*%
%ADD15R,2.54X2.54*%
%ADD16C,2.54*%
%ADD17R,2.54X2.54*%
%ADD18C,1.40*%
%ADD19R,1.50X1.50*%
%ADD20C,1.50*%
%ADD21C,5.00*%
%ADD22C,1.27*%
G36*
X017461Y015050D02*
X011750Y015050D01*
X009850Y015050D01*
X009750Y015050D01*
X009600Y014900D01*
X009600Y014550D01*
X009500Y014450D01*
X009039Y014450D01*
X009039Y017461D01*
X017461Y017461D01*
X017461Y015050D01*
X017461Y015050D02*
G37*
%LPC*%
G36*
X017288Y015687D02*
X017213Y015687D01*
X017213Y015612D01*
X017223Y015613D01*
X017245Y015622D01*
X017263Y015637D01*
X017278Y015655D01*
X017287Y015677D01*
X017288Y015687D01*
X017288Y015687D02*
G37*
G36*
X009287Y015788D02*
X009277Y015787D01*
X009255Y015778D01*
X009237Y015763D01*
X009222Y015745D01*
X009213Y015723D01*
X009212Y015713D01*
X009287Y015713D01*
X009287Y015788D01*
X009287Y015788D02*
G37*
G36*
X016587Y015687D02*
X016512Y015687D01*
X016513Y015677D01*
X016522Y015655D01*
X016537Y015637D01*
X016555Y015622D01*
X016577Y015613D01*
X016587Y015612D01*
X016587Y015687D01*
X016587Y015687D02*
G37*
G36*
X016688Y015687D02*
X016613Y015687D01*
X016613Y015612D01*
X016623Y015613D01*
X016645Y015622D01*
X016663Y015637D01*
X016678Y015655D01*
X016687Y015677D01*
X016688Y015687D01*
X016688Y015687D02*
G37*
G36*
X017187Y015687D02*
X017112Y015687D01*
X017113Y015677D01*
X017122Y015655D01*
X017137Y015637D01*
X017155Y015622D01*
X017177Y015613D01*
X017187Y015612D01*
X017187Y015687D01*
X017187Y015687D02*
G37*
G36*
X011587Y015788D02*
X011577Y015787D01*
X011555Y015778D01*
X011537Y015763D01*
X011522Y015745D01*
X011513Y015723D01*
X011512Y015713D01*
X011587Y015713D01*
X011587Y015788D01*
X011587Y015788D02*
G37*
G36*
X011613Y015788D02*
X011613Y015713D01*
X011688Y015713D01*
X011687Y015723D01*
X011678Y015745D01*
X011663Y015763D01*
X011645Y015778D01*
X011623Y015787D01*
X011613Y015788D01*
X011613Y015788D02*
G37*
G36*
X009913Y015788D02*
X009913Y015713D01*
X009988Y015713D01*
X009987Y015723D01*
X009978Y015745D01*
X009963Y015763D01*
X009945Y015778D01*
X009923Y015787D01*
X009913Y015788D01*
X009913Y015788D02*
G37*
G36*
X009313Y015788D02*
X009313Y015713D01*
X009388Y015713D01*
X009387Y015723D01*
X009378Y015745D01*
X009363Y015763D01*
X009345Y015778D01*
X009323Y015787D01*
X009313Y015788D01*
X009313Y015788D02*
G37*
G36*
X009887Y015788D02*
X009877Y015787D01*
X009855Y015778D01*
X009837Y015763D01*
X009822Y015745D01*
X009813Y015723D01*
X009812Y015713D01*
X009887Y015713D01*
X009887Y015788D01*
X009887Y015788D02*
G37*
G36*
X015088Y015687D02*
X015013Y015687D01*
X015013Y015612D01*
X015023Y015613D01*
X015045Y015622D01*
X015063Y015637D01*
X015078Y015655D01*
X015087Y015677D01*
X015088Y015687D01*
X015088Y015687D02*
G37*
G36*
X009887Y015687D02*
X009812Y015687D01*
X009813Y015677D01*
X009822Y015655D01*
X009837Y015637D01*
X009855Y015622D01*
X009877Y015613D01*
X009887Y015612D01*
X009887Y015687D01*
X009887Y015687D02*
G37*
G36*
X009988Y015687D02*
X009913Y015687D01*
X009913Y015612D01*
X009923Y015613D01*
X009945Y015622D01*
X009963Y015637D01*
X009978Y015655D01*
X009987Y015677D01*
X009988Y015687D01*
X009988Y015687D02*
G37*
G36*
X009388Y015687D02*
X009313Y015687D01*
X009313Y015612D01*
X009323Y015613D01*
X009345Y015622D01*
X009363Y015637D01*
X009378Y015655D01*
X009387Y015677D01*
X009388Y015687D01*
X009388Y015687D02*
G37*
G36*
X016913Y015588D02*
X016913Y015513D01*
X016988Y015513D01*
X016987Y015523D01*
X016978Y015545D01*
X016963Y015563D01*
X016945Y015578D01*
X016923Y015587D01*
X016913Y015588D01*
X016913Y015588D02*
G37*
G36*
X009287Y015687D02*
X009212Y015687D01*
X009213Y015677D01*
X009222Y015655D01*
X009237Y015637D01*
X009255Y015622D01*
X009277Y015613D01*
X009287Y015612D01*
X009287Y015687D01*
X009287Y015687D02*
G37*
G36*
X013388Y015687D02*
X013313Y015687D01*
X013313Y015612D01*
X013323Y015613D01*
X013345Y015622D01*
X013363Y015637D01*
X013378Y015655D01*
X013387Y015677D01*
X013388Y015687D01*
X013388Y015687D02*
G37*
G36*
X014987Y015687D02*
X014912Y015687D01*
X014913Y015677D01*
X014922Y015655D01*
X014937Y015637D01*
X014955Y015622D01*
X014977Y015613D01*
X014987Y015612D01*
X014987Y015687D01*
X014987Y015687D02*
G37*
G36*
X013287Y015687D02*
X013212Y015687D01*
X013213Y015677D01*
X013222Y015655D01*
X013237Y015637D01*
X013255Y015622D01*
X013277Y015613D01*
X013287Y015612D01*
X013287Y015687D01*
X013287Y015687D02*
G37*
G36*
X011587Y015687D02*
X011512Y015687D01*
X011513Y015677D01*
X011522Y015655D01*
X011537Y015637D01*
X011555Y015622D01*
X011577Y015613D01*
X011587Y015612D01*
X011587Y015687D01*
X011587Y015687D02*
G37*
G36*
X011688Y015687D02*
X011613Y015687D01*
X011613Y015612D01*
X011623Y015613D01*
X011645Y015622D01*
X011663Y015637D01*
X011678Y015655D01*
X011687Y015677D01*
X011688Y015687D01*
X011688Y015687D02*
G37*
G36*
X013287Y015788D02*
X013277Y015787D01*
X013255Y015778D01*
X013237Y015763D01*
X013222Y015745D01*
X013213Y015723D01*
X013212Y015713D01*
X013287Y015713D01*
X013287Y015788D01*
X013287Y015788D02*
G37*
G36*
X016913Y015988D02*
X016913Y015913D01*
X016988Y015913D01*
X016987Y015923D01*
X016978Y015945D01*
X016963Y015963D01*
X016945Y015978D01*
X016923Y015987D01*
X016913Y015988D01*
X016913Y015988D02*
G37*
G36*
X009287Y016087D02*
X009212Y016087D01*
X009213Y016077D01*
X009222Y016055D01*
X009237Y016037D01*
X009255Y016022D01*
X009277Y016013D01*
X009287Y016012D01*
X009287Y016087D01*
X009287Y016087D02*
G37*
G36*
X016887Y015988D02*
X016877Y015987D01*
X016855Y015978D01*
X016837Y015963D01*
X016822Y015945D01*
X016813Y015923D01*
X016812Y015913D01*
X016887Y015913D01*
X016887Y015988D01*
X016887Y015988D02*
G37*
G36*
X009587Y015988D02*
X009577Y015987D01*
X009555Y015978D01*
X009537Y015963D01*
X009522Y015945D01*
X009513Y015923D01*
X009512Y015913D01*
X009587Y015913D01*
X009587Y015988D01*
X009587Y015988D02*
G37*
G36*
X009613Y015988D02*
X009613Y015913D01*
X009688Y015913D01*
X009687Y015923D01*
X009678Y015945D01*
X009663Y015963D01*
X009645Y015978D01*
X009623Y015987D01*
X009613Y015988D01*
X009613Y015988D02*
G37*
G36*
X011587Y016087D02*
X011512Y016087D01*
X011513Y016077D01*
X011522Y016055D01*
X011537Y016037D01*
X011555Y016022D01*
X011577Y016013D01*
X011587Y016012D01*
X011587Y016087D01*
X011587Y016087D02*
G37*
G36*
X011688Y016087D02*
X011613Y016087D01*
X011613Y016012D01*
X011623Y016013D01*
X011645Y016022D01*
X011663Y016037D01*
X011678Y016055D01*
X011687Y016077D01*
X011688Y016087D01*
X011688Y016087D02*
G37*
G36*
X009988Y016087D02*
X009913Y016087D01*
X009913Y016012D01*
X009923Y016013D01*
X009945Y016022D01*
X009963Y016037D01*
X009978Y016055D01*
X009987Y016077D01*
X009988Y016087D01*
X009988Y016087D02*
G37*
G36*
X009388Y016087D02*
X009313Y016087D01*
X009313Y016012D01*
X009323Y016013D01*
X009345Y016022D01*
X009363Y016037D01*
X009378Y016055D01*
X009387Y016077D01*
X009388Y016087D01*
X009388Y016087D02*
G37*
G36*
X009887Y016087D02*
X009812Y016087D01*
X009813Y016077D01*
X009822Y016055D01*
X009837Y016037D01*
X009855Y016022D01*
X009877Y016013D01*
X009887Y016012D01*
X009887Y016087D01*
X009887Y016087D02*
G37*
G36*
X016988Y015887D02*
X016913Y015887D01*
X016913Y015812D01*
X016923Y015813D01*
X016945Y015822D01*
X016963Y015837D01*
X016978Y015855D01*
X016987Y015877D01*
X016988Y015887D01*
X016988Y015887D02*
G37*
G36*
X016587Y015788D02*
X016577Y015787D01*
X016555Y015778D01*
X016537Y015763D01*
X016522Y015745D01*
X016513Y015723D01*
X016512Y015713D01*
X016587Y015713D01*
X016587Y015788D01*
X016587Y015788D02*
G37*
G36*
X016613Y015788D02*
X016613Y015713D01*
X016688Y015713D01*
X016687Y015723D01*
X016678Y015745D01*
X016663Y015763D01*
X016645Y015778D01*
X016623Y015787D01*
X016613Y015788D01*
X016613Y015788D02*
G37*
G36*
X015013Y015788D02*
X015013Y015713D01*
X015088Y015713D01*
X015087Y015723D01*
X015078Y015745D01*
X015063Y015763D01*
X015045Y015778D01*
X015023Y015787D01*
X015013Y015788D01*
X015013Y015788D02*
G37*
G36*
X013313Y015788D02*
X013313Y015713D01*
X013388Y015713D01*
X013387Y015723D01*
X013378Y015745D01*
X013363Y015763D01*
X013345Y015778D01*
X013323Y015787D01*
X013313Y015788D01*
X013313Y015788D02*
G37*
G36*
X014987Y015788D02*
X014977Y015787D01*
X014955Y015778D01*
X014937Y015763D01*
X014922Y015745D01*
X014913Y015723D01*
X014912Y015713D01*
X014987Y015713D01*
X014987Y015788D01*
X014987Y015788D02*
G37*
G36*
X009688Y015887D02*
X009613Y015887D01*
X009613Y015812D01*
X009623Y015813D01*
X009645Y015822D01*
X009663Y015837D01*
X009678Y015855D01*
X009687Y015877D01*
X009688Y015887D01*
X009688Y015887D02*
G37*
G36*
X016887Y015887D02*
X016812Y015887D01*
X016813Y015877D01*
X016822Y015855D01*
X016837Y015837D01*
X016855Y015822D01*
X016877Y015813D01*
X016887Y015812D01*
X016887Y015887D01*
X016887Y015887D02*
G37*
G36*
X009587Y015887D02*
X009512Y015887D01*
X009513Y015877D01*
X009522Y015855D01*
X009537Y015837D01*
X009555Y015822D01*
X009577Y015813D01*
X009587Y015812D01*
X009587Y015887D01*
X009587Y015887D02*
G37*
G36*
X017187Y015788D02*
X017177Y015787D01*
X017155Y015778D01*
X017137Y015763D01*
X017122Y015745D01*
X017113Y015723D01*
X017112Y015713D01*
X017187Y015713D01*
X017187Y015788D01*
X017187Y015788D02*
G37*
G36*
X017213Y015788D02*
X017213Y015713D01*
X017288Y015713D01*
X017287Y015723D01*
X017278Y015745D01*
X017263Y015763D01*
X017245Y015778D01*
X017223Y015787D01*
X017213Y015788D01*
X017213Y015788D02*
G37*
G36*
X009287Y015388D02*
X009277Y015387D01*
X009255Y015378D01*
X009237Y015363D01*
X009222Y015345D01*
X009213Y015323D01*
X009212Y015313D01*
X009287Y015313D01*
X009287Y015388D01*
X009287Y015388D02*
G37*
G36*
X009313Y015388D02*
X009313Y015313D01*
X009388Y015313D01*
X009387Y015323D01*
X009378Y015345D01*
X009363Y015363D01*
X009345Y015378D01*
X009323Y015387D01*
X009313Y015388D01*
X009313Y015388D02*
G37*
G36*
X015088Y015287D02*
X015013Y015287D01*
X015013Y015212D01*
X015023Y015213D01*
X015045Y015222D01*
X015063Y015237D01*
X015078Y015255D01*
X015087Y015277D01*
X015088Y015287D01*
X015088Y015287D02*
G37*
G36*
X013388Y015287D02*
X013313Y015287D01*
X013313Y015212D01*
X013323Y015213D01*
X013345Y015222D01*
X013363Y015237D01*
X013378Y015255D01*
X013387Y015277D01*
X013388Y015287D01*
X013388Y015287D02*
G37*
G36*
X014987Y015287D02*
X014912Y015287D01*
X014913Y015277D01*
X014922Y015255D01*
X014937Y015237D01*
X014955Y015222D01*
X014977Y015213D01*
X014987Y015212D01*
X014987Y015287D01*
X014987Y015287D02*
G37*
G36*
X011613Y015388D02*
X011613Y015313D01*
X011688Y015313D01*
X011687Y015323D01*
X011678Y015345D01*
X011663Y015363D01*
X011645Y015378D01*
X011623Y015387D01*
X011613Y015388D01*
X011613Y015388D02*
G37*
G36*
X013287Y015388D02*
X013277Y015387D01*
X013255Y015378D01*
X013237Y015363D01*
X013222Y015345D01*
X013213Y015323D01*
X013212Y015313D01*
X013287Y015313D01*
X013287Y015388D01*
X013287Y015388D02*
G37*
G36*
X011587Y015388D02*
X011577Y015387D01*
X011555Y015378D01*
X011537Y015363D01*
X011522Y015345D01*
X011513Y015323D01*
X011512Y015313D01*
X011587Y015313D01*
X011587Y015388D01*
X011587Y015388D02*
G37*
G36*
X009887Y015388D02*
X009877Y015387D01*
X009855Y015378D01*
X009837Y015363D01*
X009822Y015345D01*
X009813Y015323D01*
X009812Y015313D01*
X009887Y015313D01*
X009887Y015388D01*
X009887Y015388D02*
G37*
G36*
X009913Y015388D02*
X009913Y015313D01*
X009988Y015313D01*
X009987Y015323D01*
X009978Y015345D01*
X009963Y015363D01*
X009945Y015378D01*
X009923Y015387D01*
X009913Y015388D01*
X009913Y015388D02*
G37*
G36*
X013287Y015287D02*
X013212Y015287D01*
X013213Y015277D01*
X013222Y015255D01*
X013237Y015237D01*
X013255Y015222D01*
X013277Y015213D01*
X013287Y015212D01*
X013287Y015287D01*
X013287Y015287D02*
G37*
G36*
X009363Y014680D02*
X009363Y014598D01*
X009445Y014598D01*
X009443Y014610D01*
X009433Y014633D01*
X009418Y014653D01*
X009398Y014668D01*
X009375Y014678D01*
X009363Y014680D01*
X009363Y014680D02*
G37*
G36*
X009287Y015287D02*
X009212Y015287D01*
X009213Y015277D01*
X009222Y015255D01*
X009237Y015237D01*
X009255Y015222D01*
X009277Y015213D01*
X009287Y015212D01*
X009287Y015287D01*
X009287Y015287D02*
G37*
G36*
X009337Y014680D02*
X009325Y014678D01*
X009302Y014668D01*
X009282Y014653D01*
X009267Y014633D01*
X009257Y014610D01*
X009255Y014598D01*
X009337Y014598D01*
X009337Y014680D01*
X009337Y014680D02*
G37*
G36*
X009337Y014572D02*
X009255Y014572D01*
X009257Y014560D01*
X009267Y014537D01*
X009282Y014517D01*
X009302Y014502D01*
X009325Y014492D01*
X009337Y014490D01*
X009337Y014572D01*
X009337Y014572D02*
G37*
G36*
X009445Y014572D02*
X009363Y014572D01*
X009363Y014490D01*
X009375Y014492D01*
X009398Y014502D01*
X009418Y014517D01*
X009433Y014537D01*
X009443Y014560D01*
X009445Y014572D01*
X009445Y014572D02*
G37*
G36*
X011587Y015287D02*
X011512Y015287D01*
X011513Y015277D01*
X011522Y015255D01*
X011537Y015237D01*
X011555Y015222D01*
X011577Y015213D01*
X011587Y015212D01*
X011587Y015287D01*
X011587Y015287D02*
G37*
G36*
X011688Y015287D02*
X011613Y015287D01*
X011613Y015212D01*
X011623Y015213D01*
X011645Y015222D01*
X011663Y015237D01*
X011678Y015255D01*
X011687Y015277D01*
X011688Y015287D01*
X011688Y015287D02*
G37*
G36*
X009988Y015287D02*
X009913Y015287D01*
X009913Y015212D01*
X009923Y015213D01*
X009945Y015222D01*
X009963Y015237D01*
X009978Y015255D01*
X009987Y015277D01*
X009988Y015287D01*
X009988Y015287D02*
G37*
G36*
X009388Y015287D02*
X009313Y015287D01*
X009313Y015212D01*
X009323Y015213D01*
X009345Y015222D01*
X009363Y015237D01*
X009378Y015255D01*
X009387Y015277D01*
X009388Y015287D01*
X009388Y015287D02*
G37*
G36*
X009887Y015287D02*
X009812Y015287D01*
X009813Y015277D01*
X009822Y015255D01*
X009837Y015237D01*
X009855Y015222D01*
X009877Y015213D01*
X009887Y015212D01*
X009887Y015287D01*
X009887Y015287D02*
G37*
G36*
X013313Y015388D02*
X013313Y015313D01*
X013388Y015313D01*
X013387Y015323D01*
X013378Y015345D01*
X013363Y015363D01*
X013345Y015378D01*
X013323Y015387D01*
X013313Y015388D01*
X013313Y015388D02*
G37*
G36*
X009587Y015487D02*
X009512Y015487D01*
X009513Y015477D01*
X009522Y015455D01*
X009537Y015437D01*
X009555Y015422D01*
X009577Y015413D01*
X009587Y015412D01*
X009587Y015487D01*
X009587Y015487D02*
G37*
G36*
X009688Y015487D02*
X009613Y015487D01*
X009613Y015412D01*
X009623Y015413D01*
X009645Y015422D01*
X009663Y015437D01*
X009678Y015455D01*
X009687Y015477D01*
X009688Y015487D01*
X009688Y015487D02*
G37*
G36*
X016054Y015581D02*
X015854Y015581D01*
X015854Y015381D01*
X016054Y015381D01*
X016054Y015581D01*
X016054Y015581D02*
G37*
G36*
X012654Y015581D02*
X012454Y015581D01*
X012454Y015381D01*
X012654Y015381D01*
X012654Y015581D01*
X012654Y015581D02*
G37*
G36*
X014354Y015581D02*
X014154Y015581D01*
X014154Y015381D01*
X014354Y015381D01*
X014354Y015581D01*
X014354Y015581D02*
G37*
G36*
X009613Y015588D02*
X009613Y015513D01*
X009688Y015513D01*
X009687Y015523D01*
X009678Y015545D01*
X009663Y015563D01*
X009645Y015578D01*
X009623Y015587D01*
X009613Y015588D01*
X009613Y015588D02*
G37*
G36*
X016887Y015588D02*
X016877Y015587D01*
X016855Y015578D01*
X016837Y015563D01*
X016822Y015545D01*
X016813Y015523D01*
X016812Y015513D01*
X016887Y015513D01*
X016887Y015588D01*
X016887Y015588D02*
G37*
G36*
X009587Y015588D02*
X009577Y015587D01*
X009555Y015578D01*
X009537Y015563D01*
X009522Y015545D01*
X009513Y015523D01*
X009512Y015513D01*
X009587Y015513D01*
X009587Y015588D01*
X009587Y015588D02*
G37*
G36*
X016887Y015487D02*
X016812Y015487D01*
X016813Y015477D01*
X016822Y015455D01*
X016837Y015437D01*
X016855Y015422D01*
X016877Y015413D01*
X016887Y015412D01*
X016887Y015487D01*
X016887Y015487D02*
G37*
G36*
X016988Y015487D02*
X016913Y015487D01*
X016913Y015412D01*
X016923Y015413D01*
X016945Y015422D01*
X016963Y015437D01*
X016978Y015455D01*
X016987Y015477D01*
X016988Y015487D01*
X016988Y015487D02*
G37*
G36*
X010954Y015581D02*
X010754Y015581D01*
X010754Y015381D01*
X010954Y015381D01*
X010954Y015581D01*
X010954Y015581D02*
G37*
G36*
X010600Y015582D02*
X010574Y015579D01*
X010549Y015569D01*
X010528Y015553D01*
X010512Y015532D01*
X010502Y015507D01*
X010499Y015481D01*
X010502Y015455D01*
X010512Y015430D01*
X010528Y015409D01*
X010549Y015393D01*
X010574Y015383D01*
X010600Y015380D01*
X010626Y015383D01*
X010651Y015393D01*
X010672Y015409D01*
X010688Y015430D01*
X010698Y015455D01*
X010701Y015481D01*
X010698Y015507D01*
X010688Y015532D01*
X010672Y015553D01*
X010651Y015569D01*
X010626Y015579D01*
X010600Y015582D01*
X010600Y015582D02*
G37*
G36*
X012046Y015582D02*
X012020Y015579D01*
X011995Y015569D01*
X011974Y015553D01*
X011958Y015532D01*
X011948Y015507D01*
X011945Y015481D01*
X011948Y015455D01*
X011958Y015430D01*
X011974Y015409D01*
X011995Y015393D01*
X012020Y015383D01*
X012046Y015380D01*
X012072Y015383D01*
X012097Y015393D01*
X012118Y015409D01*
X012134Y015430D01*
X012144Y015455D01*
X012147Y015481D01*
X012144Y015507D01*
X012134Y015532D01*
X012118Y015553D01*
X012097Y015569D01*
X012072Y015579D01*
X012046Y015582D01*
X012046Y015582D02*
G37*
G36*
X010346Y015582D02*
X010320Y015579D01*
X010295Y015569D01*
X010274Y015553D01*
X010258Y015532D01*
X010248Y015507D01*
X010245Y015481D01*
X010248Y015455D01*
X010258Y015430D01*
X010274Y015409D01*
X010295Y015393D01*
X010320Y015383D01*
X010346Y015380D01*
X010372Y015383D01*
X010397Y015393D01*
X010418Y015409D01*
X010434Y015430D01*
X010444Y015455D01*
X010447Y015481D01*
X010444Y015507D01*
X010434Y015532D01*
X010418Y015553D01*
X010397Y015569D01*
X010372Y015579D01*
X010346Y015582D01*
X010346Y015582D02*
G37*
G36*
X014987Y015388D02*
X014977Y015387D01*
X014955Y015378D01*
X014937Y015363D01*
X014922Y015345D01*
X014913Y015323D01*
X014912Y015313D01*
X014987Y015313D01*
X014987Y015388D01*
X014987Y015388D02*
G37*
G36*
X015013Y015388D02*
X015013Y015313D01*
X015088Y015313D01*
X015087Y015323D01*
X015078Y015345D01*
X015063Y015363D01*
X015045Y015378D01*
X015023Y015387D01*
X015013Y015388D01*
X015013Y015388D02*
G37*
G36*
X015446Y015582D02*
X015420Y015579D01*
X015395Y015569D01*
X015374Y015553D01*
X015358Y015532D01*
X015348Y015507D01*
X015345Y015481D01*
X015348Y015455D01*
X015358Y015430D01*
X015374Y015409D01*
X015395Y015393D01*
X015420Y015383D01*
X015446Y015380D01*
X015472Y015383D01*
X015497Y015393D01*
X015518Y015409D01*
X015534Y015430D01*
X015544Y015455D01*
X015547Y015481D01*
X015544Y015507D01*
X015534Y015532D01*
X015518Y015553D01*
X015497Y015569D01*
X015472Y015579D01*
X015446Y015582D01*
X015446Y015582D02*
G37*
G36*
X015700Y015582D02*
X015674Y015579D01*
X015649Y015569D01*
X015628Y015553D01*
X015612Y015532D01*
X015602Y015507D01*
X015599Y015481D01*
X015602Y015455D01*
X015612Y015430D01*
X015628Y015409D01*
X015649Y015393D01*
X015674Y015383D01*
X015700Y015380D01*
X015726Y015383D01*
X015751Y015393D01*
X015772Y015409D01*
X015788Y015430D01*
X015798Y015455D01*
X015801Y015481D01*
X015798Y015507D01*
X015788Y015532D01*
X015772Y015553D01*
X015751Y015569D01*
X015726Y015579D01*
X015700Y015582D01*
X015700Y015582D02*
G37*
G36*
X014000Y015582D02*
X013974Y015579D01*
X013949Y015569D01*
X013928Y015553D01*
X013912Y015532D01*
X013902Y015507D01*
X013899Y015481D01*
X013902Y015455D01*
X013912Y015430D01*
X013928Y015409D01*
X013949Y015393D01*
X013974Y015383D01*
X014000Y015380D01*
X014026Y015383D01*
X014051Y015393D01*
X014072Y015409D01*
X014088Y015430D01*
X014098Y015455D01*
X014101Y015481D01*
X014098Y015507D01*
X014088Y015532D01*
X014072Y015553D01*
X014051Y015569D01*
X014026Y015579D01*
X014000Y015582D01*
X014000Y015582D02*
G37*
G36*
X012300Y015582D02*
X012274Y015579D01*
X012249Y015569D01*
X012228Y015553D01*
X012212Y015532D01*
X012202Y015507D01*
X012199Y015481D01*
X012202Y015455D01*
X012212Y015430D01*
X012228Y015409D01*
X012249Y015393D01*
X012274Y015383D01*
X012300Y015380D01*
X012326Y015383D01*
X012351Y015393D01*
X012372Y015409D01*
X012388Y015430D01*
X012398Y015455D01*
X012401Y015481D01*
X012398Y015507D01*
X012388Y015532D01*
X012372Y015553D01*
X012351Y015569D01*
X012326Y015579D01*
X012300Y015582D01*
X012300Y015582D02*
G37*
G36*
X013746Y015582D02*
X013720Y015579D01*
X013695Y015569D01*
X013674Y015553D01*
X013658Y015532D01*
X013648Y015507D01*
X013645Y015481D01*
X013648Y015455D01*
X013658Y015430D01*
X013674Y015409D01*
X013695Y015393D01*
X013720Y015383D01*
X013746Y015380D01*
X013772Y015383D01*
X013797Y015393D01*
X013818Y015409D01*
X013834Y015430D01*
X013844Y015455D01*
X013847Y015481D01*
X013844Y015507D01*
X013834Y015532D01*
X013818Y015553D01*
X013797Y015569D01*
X013772Y015579D01*
X013746Y015582D01*
X013746Y015582D02*
G37*
G36*
X014600Y017153D02*
X014570Y017150D01*
X014541Y017141D01*
X014515Y017127D01*
X014492Y017108D01*
X014473Y017085D01*
X014459Y017059D01*
X014450Y017030D01*
X014447Y017000D01*
X014450Y016970D01*
X014459Y016941D01*
X014473Y016915D01*
X014492Y016892D01*
X014515Y016873D01*
X014541Y016859D01*
X014570Y016850D01*
X014600Y016847D01*
X014630Y016850D01*
X014659Y016859D01*
X014685Y016873D01*
X014708Y016892D01*
X014727Y016915D01*
X014741Y016941D01*
X014750Y016970D01*
X014753Y017000D01*
X014750Y017030D01*
X014741Y017059D01*
X014727Y017085D01*
X014708Y017108D01*
X014685Y017127D01*
X014659Y017141D01*
X014630Y017150D01*
X014600Y017153D01*
X014600Y017153D02*
G37*
G36*
X015799Y017153D02*
X015769Y017150D01*
X015741Y017141D01*
X015714Y017127D01*
X015691Y017108D01*
X015672Y017085D01*
X015658Y017059D01*
X015649Y017030D01*
X015646Y017000D01*
X015649Y016970D01*
X015658Y016941D01*
X015672Y016915D01*
X015691Y016892D01*
X015714Y016873D01*
X015741Y016859D01*
X015769Y016850D01*
X015799Y016847D01*
X015829Y016850D01*
X015858Y016859D01*
X015884Y016873D01*
X015907Y016892D01*
X015927Y016915D01*
X015941Y016941D01*
X015949Y016970D01*
X015952Y017000D01*
X015949Y017030D01*
X015941Y017059D01*
X015927Y017085D01*
X015907Y017108D01*
X015884Y017127D01*
X015858Y017141D01*
X015829Y017150D01*
X015799Y017153D01*
X015799Y017153D02*
G37*
G36*
X014099Y017153D02*
X014069Y017150D01*
X014041Y017141D01*
X014014Y017127D01*
X013991Y017108D01*
X013972Y017085D01*
X013958Y017059D01*
X013949Y017030D01*
X013946Y017000D01*
X013949Y016970D01*
X013958Y016941D01*
X013972Y016915D01*
X013991Y016892D01*
X014014Y016873D01*
X014041Y016859D01*
X014069Y016850D01*
X014099Y016847D01*
X014129Y016850D01*
X014158Y016859D01*
X014184Y016873D01*
X014207Y016892D01*
X014227Y016915D01*
X014241Y016941D01*
X014249Y016970D01*
X014252Y017000D01*
X014249Y017030D01*
X014241Y017059D01*
X014227Y017085D01*
X014207Y017108D01*
X014184Y017127D01*
X014158Y017141D01*
X014129Y017150D01*
X014099Y017153D01*
X014099Y017153D02*
G37*
G36*
X012399Y017153D02*
X012369Y017150D01*
X012341Y017141D01*
X012314Y017127D01*
X012291Y017108D01*
X012272Y017085D01*
X012258Y017059D01*
X012249Y017030D01*
X012246Y017000D01*
X012249Y016970D01*
X012258Y016941D01*
X012272Y016915D01*
X012291Y016892D01*
X012314Y016873D01*
X012341Y016859D01*
X012369Y016850D01*
X012399Y016847D01*
X012429Y016850D01*
X012458Y016859D01*
X012484Y016873D01*
X012507Y016892D01*
X012527Y016915D01*
X012541Y016941D01*
X012549Y016970D01*
X012552Y017000D01*
X012549Y017030D01*
X012541Y017059D01*
X012527Y017085D01*
X012507Y017108D01*
X012484Y017127D01*
X012458Y017141D01*
X012429Y017150D01*
X012399Y017153D01*
X012399Y017153D02*
G37*
G36*
X012900Y017153D02*
X012870Y017150D01*
X012841Y017141D01*
X012815Y017127D01*
X012792Y017108D01*
X012773Y017085D01*
X012759Y017059D01*
X012750Y017030D01*
X012747Y017000D01*
X012750Y016970D01*
X012759Y016941D01*
X012773Y016915D01*
X012792Y016892D01*
X012815Y016873D01*
X012841Y016859D01*
X012870Y016850D01*
X012900Y016847D01*
X012930Y016850D01*
X012959Y016859D01*
X012985Y016873D01*
X013008Y016892D01*
X013027Y016915D01*
X013041Y016941D01*
X013050Y016970D01*
X013053Y017000D01*
X013050Y017030D01*
X013041Y017059D01*
X013027Y017085D01*
X013008Y017108D01*
X012985Y017127D01*
X012959Y017141D01*
X012930Y017150D01*
X012900Y017153D01*
X012900Y017153D02*
G37*
G36*
X011887Y016987D02*
X011748Y016987D01*
X011748Y016848D01*
X011887Y016848D01*
X011887Y016987D01*
X011887Y016987D02*
G37*
G36*
X012052Y016987D02*
X011913Y016987D01*
X011913Y016848D01*
X012052Y016848D01*
X012052Y016987D01*
X012052Y016987D02*
G37*
G36*
X010352Y016987D02*
X010213Y016987D01*
X010213Y016848D01*
X010352Y016848D01*
X010352Y016987D01*
X010352Y016987D02*
G37*
G36*
X016300Y017153D02*
X016270Y017150D01*
X016241Y017141D01*
X016215Y017127D01*
X016192Y017108D01*
X016173Y017085D01*
X016159Y017059D01*
X016150Y017030D01*
X016147Y017000D01*
X016150Y016970D01*
X016159Y016941D01*
X016173Y016915D01*
X016192Y016892D01*
X016215Y016873D01*
X016241Y016859D01*
X016270Y016850D01*
X016300Y016847D01*
X016330Y016850D01*
X016359Y016859D01*
X016385Y016873D01*
X016408Y016892D01*
X016427Y016915D01*
X016441Y016941D01*
X016450Y016970D01*
X016453Y017000D01*
X016450Y017030D01*
X016441Y017059D01*
X016427Y017085D01*
X016408Y017108D01*
X016385Y017127D01*
X016359Y017141D01*
X016330Y017150D01*
X016300Y017153D01*
X016300Y017153D02*
G37*
G36*
X010187Y016987D02*
X010048Y016987D01*
X010048Y016848D01*
X010187Y016848D01*
X010187Y016987D01*
X010187Y016987D02*
G37*
G36*
X011200Y017153D02*
X011170Y017150D01*
X011141Y017141D01*
X011115Y017127D01*
X011092Y017108D01*
X011073Y017085D01*
X011059Y017059D01*
X011050Y017030D01*
X011047Y017000D01*
X011050Y016970D01*
X011059Y016941D01*
X011073Y016915D01*
X011092Y016892D01*
X011115Y016873D01*
X011141Y016859D01*
X011170Y016850D01*
X011200Y016847D01*
X011230Y016850D01*
X011259Y016859D01*
X011285Y016873D01*
X011308Y016892D01*
X011327Y016915D01*
X011341Y016941D01*
X011350Y016970D01*
X011353Y017000D01*
X011350Y017030D01*
X011341Y017059D01*
X011327Y017085D01*
X011308Y017108D01*
X011285Y017127D01*
X011259Y017141D01*
X011230Y017150D01*
X011200Y017153D01*
X011200Y017153D02*
G37*
G36*
X009487Y016987D02*
X009225Y016987D01*
X009227Y016957D01*
X009237Y016915D01*
X009254Y016875D01*
X009277Y016838D01*
X009305Y016805D01*
X009338Y016777D01*
X009375Y016754D01*
X009415Y016737D01*
X009457Y016727D01*
X009487Y016725D01*
X009487Y016987D01*
X009487Y016987D02*
G37*
G36*
X009775Y016987D02*
X009513Y016987D01*
X009513Y016725D01*
X009543Y016727D01*
X009585Y016737D01*
X009625Y016754D01*
X009662Y016777D01*
X009695Y016805D01*
X009723Y016838D01*
X009746Y016875D01*
X009763Y016915D01*
X009773Y016957D01*
X009775Y016987D01*
X009775Y016987D02*
G37*
G36*
X016300Y016590D02*
X016277Y016587D01*
X016255Y016578D01*
X016237Y016563D01*
X016222Y016545D01*
X016220Y016539D01*
X014680Y016539D01*
X014678Y016545D01*
X014663Y016563D01*
X014645Y016578D01*
X014623Y016587D01*
X014600Y016590D01*
X014577Y016587D01*
X014555Y016578D01*
X014537Y016563D01*
X014522Y016545D01*
X014520Y016539D01*
X012980Y016539D01*
X012978Y016545D01*
X012963Y016563D01*
X012945Y016578D01*
X012923Y016587D01*
X012900Y016590D01*
X012877Y016587D01*
X012855Y016578D01*
X012837Y016563D01*
X012822Y016545D01*
X012820Y016539D01*
X011280Y016539D01*
X011278Y016545D01*
X011263Y016563D01*
X011245Y016578D01*
X011223Y016587D01*
X011200Y016590D01*
X011177Y016587D01*
X011155Y016578D01*
X011137Y016563D01*
X011122Y016545D01*
X011113Y016523D01*
X011110Y016500D01*
X011113Y016477D01*
X011122Y016455D01*
X011137Y016437D01*
X011155Y016422D01*
X011177Y016413D01*
X011200Y016410D01*
X011223Y016413D01*
X011245Y016422D01*
X011263Y016437D01*
X011278Y016455D01*
X011280Y016461D01*
X012820Y016461D01*
X012822Y016455D01*
X012837Y016437D01*
X012855Y016422D01*
X012877Y016413D01*
X012900Y016410D01*
X012923Y016413D01*
X012945Y016422D01*
X012963Y016437D01*
X012978Y016455D01*
X012980Y016461D01*
X014520Y016461D01*
X014522Y016455D01*
X014537Y016437D01*
X014555Y016422D01*
X014577Y016413D01*
X014600Y016410D01*
X014623Y016413D01*
X014645Y016422D01*
X014663Y016437D01*
X014678Y016455D01*
X014680Y016461D01*
X016220Y016461D01*
X016222Y016455D01*
X016237Y016437D01*
X016255Y016422D01*
X016277Y016413D01*
X016300Y016410D01*
X016323Y016413D01*
X016345Y016422D01*
X016363Y016437D01*
X016378Y016455D01*
X016387Y016477D01*
X016390Y016500D01*
X016387Y016523D01*
X016378Y016545D01*
X016363Y016563D01*
X016345Y016578D01*
X016323Y016587D01*
X016300Y016590D01*
X016300Y016590D02*
G37*
G36*
X017187Y016588D02*
X017177Y016587D01*
X017155Y016578D01*
X017137Y016563D01*
X017122Y016545D01*
X017113Y016523D01*
X017112Y016513D01*
X017187Y016513D01*
X017187Y016588D01*
X017187Y016588D02*
G37*
G36*
X017213Y016588D02*
X017213Y016513D01*
X017288Y016513D01*
X017287Y016523D01*
X017278Y016545D01*
X017263Y016563D01*
X017245Y016578D01*
X017223Y016587D01*
X017213Y016588D01*
X017213Y016588D02*
G37*
G36*
X009988Y016887D02*
X009913Y016887D01*
X009913Y016812D01*
X009923Y016813D01*
X009945Y016822D01*
X009963Y016837D01*
X009978Y016855D01*
X009987Y016877D01*
X009988Y016887D01*
X009988Y016887D02*
G37*
G36*
X010699Y017153D02*
X010669Y017150D01*
X010641Y017141D01*
X010614Y017127D01*
X010591Y017108D01*
X010572Y017085D01*
X010558Y017059D01*
X010549Y017030D01*
X010546Y017000D01*
X010549Y016970D01*
X010558Y016941D01*
X010572Y016915D01*
X010591Y016892D01*
X010614Y016873D01*
X010641Y016859D01*
X010669Y016850D01*
X010699Y016847D01*
X010729Y016850D01*
X010758Y016859D01*
X010784Y016873D01*
X010807Y016892D01*
X010827Y016915D01*
X010841Y016941D01*
X010849Y016970D01*
X010852Y017000D01*
X010849Y017030D01*
X010841Y017059D01*
X010827Y017085D01*
X010807Y017108D01*
X010784Y017127D01*
X010758Y017141D01*
X010729Y017150D01*
X010699Y017153D01*
X010699Y017153D02*
G37*
G36*
X009887Y016887D02*
X009812Y016887D01*
X009813Y016877D01*
X009822Y016855D01*
X009837Y016837D01*
X009855Y016822D01*
X009877Y016813D01*
X009887Y016812D01*
X009887Y016887D01*
X009887Y016887D02*
G37*
G36*
X016987Y016987D02*
X016725Y016987D01*
X016727Y016957D01*
X016737Y016915D01*
X016754Y016875D01*
X016777Y016838D01*
X016805Y016805D01*
X016838Y016777D01*
X016875Y016754D01*
X016915Y016737D01*
X016957Y016727D01*
X016987Y016725D01*
X016987Y016987D01*
X016987Y016987D02*
G37*
G36*
X017275Y016987D02*
X017013Y016987D01*
X017013Y016725D01*
X017043Y016727D01*
X017085Y016737D01*
X017125Y016754D01*
X017162Y016777D01*
X017195Y016805D01*
X017223Y016838D01*
X017246Y016875D01*
X017263Y016915D01*
X017273Y016957D01*
X017275Y016987D01*
X017275Y016987D02*
G37*
G36*
X013587Y016987D02*
X013448Y016987D01*
X013448Y016848D01*
X013587Y016848D01*
X013587Y016987D01*
X013587Y016987D02*
G37*
G36*
X015452Y017152D02*
X015313Y017152D01*
X015313Y017013D01*
X015452Y017013D01*
X015452Y017152D01*
X015452Y017152D02*
G37*
G36*
X013587Y017152D02*
X013448Y017152D01*
X013448Y017013D01*
X013587Y017013D01*
X013587Y017152D01*
X013587Y017152D02*
G37*
G36*
X010352Y017152D02*
X010213Y017152D01*
X010213Y017013D01*
X010352Y017013D01*
X010352Y017152D01*
X010352Y017152D02*
G37*
G36*
X010187Y017152D02*
X010048Y017152D01*
X010048Y017013D01*
X010187Y017013D01*
X010187Y017152D01*
X010187Y017152D02*
G37*
G36*
X015287Y017152D02*
X015148Y017152D01*
X015148Y017013D01*
X015287Y017013D01*
X015287Y017152D01*
X015287Y017152D02*
G37*
G36*
X009887Y017388D02*
X009877Y017387D01*
X009855Y017378D01*
X009837Y017363D01*
X009822Y017345D01*
X009813Y017323D01*
X009812Y017313D01*
X009887Y017313D01*
X009887Y017388D01*
X009887Y017388D02*
G37*
G36*
X009913Y017388D02*
X009913Y017313D01*
X009988Y017313D01*
X009987Y017323D01*
X009978Y017345D01*
X009963Y017363D01*
X009945Y017378D01*
X009923Y017387D01*
X009913Y017388D01*
X009913Y017388D02*
G37*
G36*
X009988Y017287D02*
X009913Y017287D01*
X009913Y017212D01*
X009923Y017213D01*
X009945Y017222D01*
X009963Y017237D01*
X009978Y017255D01*
X009987Y017277D01*
X009988Y017287D01*
X009988Y017287D02*
G37*
G36*
X013752Y017152D02*
X013613Y017152D01*
X013613Y017013D01*
X013752Y017013D01*
X013752Y017152D01*
X013752Y017152D02*
G37*
G36*
X009887Y017287D02*
X009812Y017287D01*
X009813Y017277D01*
X009822Y017255D01*
X009837Y017237D01*
X009855Y017222D01*
X009877Y017213D01*
X009887Y017212D01*
X009887Y017287D01*
X009887Y017287D02*
G37*
G36*
X012052Y017152D02*
X011913Y017152D01*
X011913Y017013D01*
X012052Y017013D01*
X012052Y017152D01*
X012052Y017152D02*
G37*
G36*
X009887Y016988D02*
X009877Y016987D01*
X009855Y016978D01*
X009837Y016963D01*
X009822Y016945D01*
X009813Y016923D01*
X009812Y016913D01*
X009887Y016913D01*
X009887Y016988D01*
X009887Y016988D02*
G37*
G36*
X009913Y016988D02*
X009913Y016913D01*
X009988Y016913D01*
X009987Y016923D01*
X009978Y016945D01*
X009963Y016963D01*
X009945Y016978D01*
X009923Y016987D01*
X009913Y016988D01*
X009913Y016988D02*
G37*
G36*
X015452Y016987D02*
X015313Y016987D01*
X015313Y016848D01*
X015452Y016848D01*
X015452Y016987D01*
X015452Y016987D02*
G37*
G36*
X013752Y016987D02*
X013613Y016987D01*
X013613Y016848D01*
X013752Y016848D01*
X013752Y016987D01*
X013752Y016987D02*
G37*
G36*
X015287Y016987D02*
X015148Y016987D01*
X015148Y016848D01*
X015287Y016848D01*
X015287Y016987D01*
X015287Y016987D02*
G37*
G36*
X017013Y017275D02*
X017013Y017013D01*
X017275Y017013D01*
X017273Y017043D01*
X017263Y017085D01*
X017246Y017125D01*
X017223Y017162D01*
X017195Y017195D01*
X017162Y017223D01*
X017125Y017246D01*
X017085Y017263D01*
X017043Y017273D01*
X017013Y017275D01*
X017013Y017275D02*
G37*
G36*
X011887Y017152D02*
X011748Y017152D01*
X011748Y017013D01*
X011887Y017013D01*
X011887Y017152D01*
X011887Y017152D02*
G37*
G36*
X016987Y017275D02*
X016957Y017273D01*
X016915Y017263D01*
X016875Y017246D01*
X016838Y017223D01*
X016805Y017195D01*
X016777Y017162D01*
X016754Y017125D01*
X016737Y017085D01*
X016727Y017043D01*
X016725Y017013D01*
X016987Y017013D01*
X016987Y017275D01*
X016987Y017275D02*
G37*
G36*
X009487Y017275D02*
X009457Y017273D01*
X009415Y017263D01*
X009375Y017246D01*
X009338Y017223D01*
X009305Y017195D01*
X009277Y017162D01*
X009254Y017125D01*
X009237Y017085D01*
X009227Y017043D01*
X009225Y017013D01*
X009487Y017013D01*
X009487Y017275D01*
X009487Y017275D02*
G37*
G36*
X009513Y017275D02*
X009513Y017013D01*
X009775Y017013D01*
X009773Y017043D01*
X009763Y017085D01*
X009746Y017125D01*
X009723Y017162D01*
X009695Y017195D01*
X009662Y017223D01*
X009625Y017246D01*
X009585Y017263D01*
X009543Y017273D01*
X009513Y017275D01*
X009513Y017275D02*
G37*
G36*
X016613Y016588D02*
X016613Y016513D01*
X016688Y016513D01*
X016687Y016523D01*
X016678Y016545D01*
X016663Y016563D01*
X016645Y016578D01*
X016623Y016587D01*
X016613Y016588D01*
X016613Y016588D02*
G37*
G36*
X013287Y016188D02*
X013277Y016187D01*
X013255Y016178D01*
X013237Y016163D01*
X013222Y016145D01*
X013213Y016123D01*
X013212Y016113D01*
X013287Y016113D01*
X013287Y016188D01*
X013287Y016188D02*
G37*
G36*
X013313Y016188D02*
X013313Y016113D01*
X013388Y016113D01*
X013387Y016123D01*
X013378Y016145D01*
X013363Y016163D01*
X013345Y016178D01*
X013323Y016187D01*
X013313Y016188D01*
X013313Y016188D02*
G37*
G36*
X011613Y016188D02*
X011613Y016113D01*
X011688Y016113D01*
X011687Y016123D01*
X011678Y016145D01*
X011663Y016163D01*
X011645Y016178D01*
X011623Y016187D01*
X011613Y016188D01*
X011613Y016188D02*
G37*
G36*
X009913Y016188D02*
X009913Y016113D01*
X009988Y016113D01*
X009987Y016123D01*
X009978Y016145D01*
X009963Y016163D01*
X009945Y016178D01*
X009923Y016187D01*
X009913Y016188D01*
X009913Y016188D02*
G37*
G36*
X011587Y016188D02*
X011577Y016187D01*
X011555Y016178D01*
X011537Y016163D01*
X011522Y016145D01*
X011513Y016123D01*
X011512Y016113D01*
X011587Y016113D01*
X011587Y016188D01*
X011587Y016188D02*
G37*
G36*
X016613Y016188D02*
X016613Y016113D01*
X016688Y016113D01*
X016687Y016123D01*
X016678Y016145D01*
X016663Y016163D01*
X016645Y016178D01*
X016623Y016187D01*
X016613Y016188D01*
X016613Y016188D02*
G37*
G36*
X017187Y016188D02*
X017177Y016187D01*
X017155Y016178D01*
X017137Y016163D01*
X017122Y016145D01*
X017113Y016123D01*
X017112Y016113D01*
X017187Y016113D01*
X017187Y016188D01*
X017187Y016188D02*
G37*
G36*
X016587Y016188D02*
X016577Y016187D01*
X016555Y016178D01*
X016537Y016163D01*
X016522Y016145D01*
X016513Y016123D01*
X016512Y016113D01*
X016587Y016113D01*
X016587Y016188D01*
X016587Y016188D02*
G37*
G36*
X014987Y016188D02*
X014977Y016187D01*
X014955Y016178D01*
X014937Y016163D01*
X014922Y016145D01*
X014913Y016123D01*
X014912Y016113D01*
X014987Y016113D01*
X014987Y016188D01*
X014987Y016188D02*
G37*
G36*
X015013Y016188D02*
X015013Y016113D01*
X015088Y016113D01*
X015087Y016123D01*
X015078Y016145D01*
X015063Y016163D01*
X015045Y016178D01*
X015023Y016187D01*
X015013Y016188D01*
X015013Y016188D02*
G37*
G36*
X009887Y016188D02*
X009877Y016187D01*
X009855Y016178D01*
X009837Y016163D01*
X009822Y016145D01*
X009813Y016123D01*
X009812Y016113D01*
X009887Y016113D01*
X009887Y016188D01*
X009887Y016188D02*
G37*
G36*
X015088Y016087D02*
X015013Y016087D01*
X015013Y016012D01*
X015023Y016013D01*
X015045Y016022D01*
X015063Y016037D01*
X015078Y016055D01*
X015087Y016077D01*
X015088Y016087D01*
X015088Y016087D02*
G37*
G36*
X016587Y016087D02*
X016512Y016087D01*
X016513Y016077D01*
X016522Y016055D01*
X016537Y016037D01*
X016555Y016022D01*
X016577Y016013D01*
X016587Y016012D01*
X016587Y016087D01*
X016587Y016087D02*
G37*
G36*
X014987Y016087D02*
X014912Y016087D01*
X014913Y016077D01*
X014922Y016055D01*
X014937Y016037D01*
X014955Y016022D01*
X014977Y016013D01*
X014987Y016012D01*
X014987Y016087D01*
X014987Y016087D02*
G37*
G36*
X013287Y016087D02*
X013212Y016087D01*
X013213Y016077D01*
X013222Y016055D01*
X013237Y016037D01*
X013255Y016022D01*
X013277Y016013D01*
X013287Y016012D01*
X013287Y016087D01*
X013287Y016087D02*
G37*
G36*
X013388Y016087D02*
X013313Y016087D01*
X013313Y016012D01*
X013323Y016013D01*
X013345Y016022D01*
X013363Y016037D01*
X013378Y016055D01*
X013387Y016077D01*
X013388Y016087D01*
X013388Y016087D02*
G37*
G36*
X009287Y016188D02*
X009277Y016187D01*
X009255Y016178D01*
X009237Y016163D01*
X009222Y016145D01*
X009213Y016123D01*
X009212Y016113D01*
X009287Y016113D01*
X009287Y016188D01*
X009287Y016188D02*
G37*
G36*
X009313Y016188D02*
X009313Y016113D01*
X009388Y016113D01*
X009387Y016123D01*
X009378Y016145D01*
X009363Y016163D01*
X009345Y016178D01*
X009323Y016187D01*
X009313Y016188D01*
X009313Y016188D02*
G37*
G36*
X017288Y016087D02*
X017213Y016087D01*
X017213Y016012D01*
X017223Y016013D01*
X017245Y016022D01*
X017263Y016037D01*
X017278Y016055D01*
X017287Y016077D01*
X017288Y016087D01*
X017288Y016087D02*
G37*
G36*
X016688Y016087D02*
X016613Y016087D01*
X016613Y016012D01*
X016623Y016013D01*
X016645Y016022D01*
X016663Y016037D01*
X016678Y016055D01*
X016687Y016077D01*
X016688Y016087D01*
X016688Y016087D02*
G37*
G36*
X017187Y016087D02*
X017112Y016087D01*
X017113Y016077D01*
X017122Y016055D01*
X017137Y016037D01*
X017155Y016022D01*
X017177Y016013D01*
X017187Y016012D01*
X017187Y016087D01*
X017187Y016087D02*
G37*
G36*
X017213Y016188D02*
X017213Y016113D01*
X017288Y016113D01*
X017287Y016123D01*
X017278Y016145D01*
X017263Y016163D01*
X017245Y016178D01*
X017223Y016187D01*
X017213Y016188D01*
X017213Y016188D02*
G37*
G36*
X017187Y016487D02*
X017112Y016487D01*
X017113Y016477D01*
X017122Y016455D01*
X017137Y016437D01*
X017155Y016422D01*
X017177Y016413D01*
X017187Y016412D01*
X017187Y016487D01*
X017187Y016487D02*
G37*
G36*
X017288Y016487D02*
X017213Y016487D01*
X017213Y016412D01*
X017223Y016413D01*
X017245Y016422D01*
X017263Y016437D01*
X017278Y016455D01*
X017287Y016477D01*
X017288Y016487D01*
X017288Y016487D02*
G37*
G36*
X016688Y016487D02*
X016613Y016487D01*
X016613Y016412D01*
X016623Y016413D01*
X016645Y016422D01*
X016663Y016437D01*
X016678Y016455D01*
X016687Y016477D01*
X016688Y016487D01*
X016688Y016487D02*
G37*
G36*
X009988Y016487D02*
X009913Y016487D01*
X009913Y016412D01*
X009923Y016413D01*
X009945Y016422D01*
X009963Y016437D01*
X009978Y016455D01*
X009987Y016477D01*
X009988Y016487D01*
X009988Y016487D02*
G37*
G36*
X016587Y016487D02*
X016512Y016487D01*
X016513Y016477D01*
X016522Y016455D01*
X016537Y016437D01*
X016555Y016422D01*
X016577Y016413D01*
X016587Y016412D01*
X016587Y016487D01*
X016587Y016487D02*
G37*
G36*
X009913Y016588D02*
X009913Y016513D01*
X009988Y016513D01*
X009987Y016523D01*
X009978Y016545D01*
X009963Y016563D01*
X009945Y016578D01*
X009923Y016587D01*
X009913Y016588D01*
X009913Y016588D02*
G37*
G36*
X016587Y016588D02*
X016577Y016587D01*
X016555Y016578D01*
X016537Y016563D01*
X016522Y016545D01*
X016513Y016523D01*
X016512Y016513D01*
X016587Y016513D01*
X016587Y016588D01*
X016587Y016588D02*
G37*
G36*
X009887Y016588D02*
X009877Y016587D01*
X009855Y016578D01*
X009837Y016563D01*
X009822Y016545D01*
X009813Y016523D01*
X009812Y016513D01*
X009887Y016513D01*
X009887Y016588D01*
X009887Y016588D02*
G37*
G36*
X009287Y016588D02*
X009277Y016587D01*
X009255Y016578D01*
X009237Y016563D01*
X009222Y016545D01*
X009213Y016523D01*
X009212Y016513D01*
X009287Y016513D01*
X009287Y016588D01*
X009287Y016588D02*
G37*
G36*
X009313Y016588D02*
X009313Y016513D01*
X009388Y016513D01*
X009387Y016523D01*
X009378Y016545D01*
X009363Y016563D01*
X009345Y016578D01*
X009323Y016587D01*
X009313Y016588D01*
X009313Y016588D02*
G37*
G36*
X009887Y016487D02*
X009812Y016487D01*
X009813Y016477D01*
X009822Y016455D01*
X009837Y016437D01*
X009855Y016422D01*
X009877Y016413D01*
X009887Y016412D01*
X009887Y016487D01*
X009887Y016487D02*
G37*
G36*
X016988Y016287D02*
X016913Y016287D01*
X016913Y016212D01*
X016923Y016213D01*
X016945Y016222D01*
X016963Y016237D01*
X016978Y016255D01*
X016987Y016277D01*
X016988Y016287D01*
X016988Y016287D02*
G37*
G36*
X009587Y016388D02*
X009577Y016387D01*
X009555Y016378D01*
X009537Y016363D01*
X009522Y016345D01*
X009513Y016323D01*
X009512Y016313D01*
X009587Y016313D01*
X009587Y016388D01*
X009587Y016388D02*
G37*
G36*
X016887Y016287D02*
X016812Y016287D01*
X016813Y016277D01*
X016822Y016255D01*
X016837Y016237D01*
X016855Y016222D01*
X016877Y016213D01*
X016887Y016212D01*
X016887Y016287D01*
X016887Y016287D02*
G37*
G36*
X009587Y016287D02*
X009512Y016287D01*
X009513Y016277D01*
X009522Y016255D01*
X009537Y016237D01*
X009555Y016222D01*
X009577Y016213D01*
X009587Y016212D01*
X009587Y016287D01*
X009587Y016287D02*
G37*
G36*
X009688Y016287D02*
X009613Y016287D01*
X009613Y016212D01*
X009623Y016213D01*
X009645Y016222D01*
X009663Y016237D01*
X009678Y016255D01*
X009687Y016277D01*
X009688Y016287D01*
X009688Y016287D02*
G37*
G36*
X009287Y016487D02*
X009212Y016487D01*
X009213Y016477D01*
X009222Y016455D01*
X009237Y016437D01*
X009255Y016422D01*
X009277Y016413D01*
X009287Y016412D01*
X009287Y016487D01*
X009287Y016487D02*
G37*
G36*
X009388Y016487D02*
X009313Y016487D01*
X009313Y016412D01*
X009323Y016413D01*
X009345Y016422D01*
X009363Y016437D01*
X009378Y016455D01*
X009387Y016477D01*
X009388Y016487D01*
X009388Y016487D02*
G37*
G36*
X016913Y016388D02*
X016913Y016313D01*
X016988Y016313D01*
X016987Y016323D01*
X016978Y016345D01*
X016963Y016363D01*
X016945Y016378D01*
X016923Y016387D01*
X016913Y016388D01*
X016913Y016388D02*
G37*
G36*
X009613Y016388D02*
X009613Y016313D01*
X009688Y016313D01*
X009687Y016323D01*
X009678Y016345D01*
X009663Y016363D01*
X009645Y016378D01*
X009623Y016387D01*
X009613Y016388D01*
X009613Y016388D02*
G37*
G36*
X016887Y016388D02*
X016877Y016387D01*
X016855Y016378D01*
X016837Y016363D01*
X016822Y016345D01*
X016813Y016323D01*
X016812Y016313D01*
X016887Y016313D01*
X016887Y016388D01*
X016887Y016388D02*
G37*
%LPD*%
D10*
X009300Y011500D02*
X009700Y011500D01*
X009100Y011700D02*
X009300Y011500D01*
X009100Y011700D02*
X009100Y012300D01*
X009201Y012401D01*
X009400Y012401D01*
X009700Y011500D02*
X009900Y011300D01*
X009900Y010800D02*
X010000Y010700D01*
X010600Y010700D01*
X010699Y010799D01*
X010701Y010799D02*
X010800Y010700D01*
X012300Y010700D01*
X012399Y010799D01*
X012401Y010799D02*
X012500Y010700D01*
X014000Y010700D01*
X014099Y010799D01*
X014101Y010799D02*
X014199Y010701D01*
X015699Y010701D02*
X015801Y010802D01*
X014199Y010701D02*
X015699Y010701D01*
X009199Y012401D02*
X009201Y012401D01*
X009100Y012500D02*
X009199Y012401D01*
X010854Y012946D02*
X010854Y014719D01*
X010854Y012946D02*
X010945Y012855D01*
X012554Y013046D02*
X012554Y014719D01*
X012554Y013046D02*
X012800Y012800D01*
X014254Y013146D02*
X014254Y014719D01*
X014254Y013146D02*
X014500Y012900D01*
X015954Y013246D02*
X015954Y014719D01*
X010945Y012380D02*
X010945Y012855D01*
X014500Y012325D02*
X014500Y012900D01*
X012800Y012325D02*
X012800Y012800D01*
X009900Y010800D02*
X009900Y011300D01*
X015801Y010802D02*
X015801Y011000D01*
X014099Y010799D02*
X014099Y010998D01*
X014101Y011000D01*
X012401Y010799D02*
X012401Y011000D01*
X010699Y010799D02*
X010699Y010998D01*
X010701Y011000D01*
X017000Y012900D02*
X017000Y013539D01*
X016420Y012320D02*
X017000Y012900D01*
X016270Y012320D02*
X016420Y012320D01*
X015954Y013246D02*
X016270Y012930D01*
X016270Y012320D02*
X016270Y012930D01*
X009900Y014585D02*
X010034Y014719D01*
X010346Y014719D01*
X011600Y014585D02*
X011734Y014719D01*
X012046Y014719D01*
X013300Y014585D02*
X013434Y014719D01*
X013746Y014719D01*
X015000Y014585D02*
X015134Y014719D01*
X015446Y014719D01*
X016266Y014719D02*
X016400Y014585D01*
X015954Y014719D02*
X016266Y014719D01*
X014254Y014719D02*
X014566Y014719D01*
X014700Y014585D01*
X012554Y014719D02*
X012866Y014719D01*
X013000Y014585D01*
X010854Y014719D02*
X011166Y014719D01*
X011300Y014585D01*
X009100Y013100D02*
X009315Y013315D01*
X009350Y013315D01*
X009100Y012500D02*
X009100Y013100D01*
D11*
X011200Y016500D02*
X012900Y016500D01*
X014600Y016500D01*
X016300Y016500D01*
D12*
X012945Y012320D02*
X012945Y012320D01*
X011245Y012320D02*
X012945Y012320D01*
X012945Y012320D02*
X014645Y012320D01*
X016270Y012320D01*
X016345Y011900D02*
X016345Y012245D01*
X016270Y012320D02*
X016345Y012245D01*
X014645Y011900D02*
X014645Y012320D01*
X012945Y011900D02*
X012945Y012320D01*
X009400Y012900D02*
X009850Y012900D01*
X010430Y012320D01*
X011245Y012320D01*
X011245Y011900D02*
X011245Y012320D01*
X011855Y011395D02*
X011855Y011900D01*
X011855Y011395D02*
X011900Y011350D01*
X011900Y011000D02*
X011900Y011350D01*
X013555Y011395D02*
X013555Y011900D01*
X013555Y011395D02*
X013600Y011350D01*
X013600Y011000D02*
X013600Y011350D01*
X015255Y011395D02*
X015255Y011900D01*
X015255Y011395D02*
X015300Y011350D01*
X015300Y011000D02*
X015300Y011350D01*
X010155Y011450D02*
X010200Y011405D01*
X010200Y011000D02*
X010200Y011405D01*
X010155Y011450D02*
X010155Y011900D01*
D13*
X014645Y011900D02*
D03*
X016345Y011900D02*
D03*
X011245Y011900D02*
D03*
X012945Y011900D02*
D03*
D14*
X014100Y011900D02*
D03*
X013555Y011900D02*
D03*
X015800Y011900D02*
D03*
X015255Y011900D02*
D03*
X010700Y011900D02*
D03*
X010155Y011900D02*
D03*
X012400Y011900D02*
D03*
X011855Y011900D02*
D03*
D15*
X010200Y017000D02*
D03*
X011200Y011000D02*
D03*
X011900Y017000D02*
D03*
X012900Y011000D02*
D03*
X013600Y017000D02*
D03*
X014600Y011000D02*
D03*
X015300Y017000D02*
D03*
X016300Y011000D02*
D03*
D16*
X010699Y017000D02*
D03*
X011200Y017000D02*
D03*
X009400Y012401D02*
D03*
X009400Y011900D02*
D03*
X010701Y011000D02*
D03*
X010200Y011000D02*
D03*
X012399Y017000D02*
D03*
X012900Y017000D02*
D03*
X012401Y011000D02*
D03*
X011900Y011000D02*
D03*
X014099Y017000D02*
D03*
X014600Y017000D02*
D03*
X014101Y011000D02*
D03*
X013600Y011000D02*
D03*
X015799Y017000D02*
D03*
X016300Y017000D02*
D03*
X015801Y011000D02*
D03*
X015300Y011000D02*
D03*
D17*
X009400Y012900D02*
D03*
D18*
X009350Y013315D02*
D03*
X009350Y014585D02*
D03*
X011300Y013315D02*
D03*
X011300Y014585D02*
D03*
X009900Y013315D02*
D03*
X009900Y014585D02*
D03*
X013000Y013315D02*
D03*
X013000Y014585D02*
D03*
X011600Y013315D02*
D03*
X011600Y014585D02*
D03*
X014700Y013315D02*
D03*
X014700Y014585D02*
D03*
X013300Y013315D02*
D03*
X013300Y014585D02*
D03*
X016400Y013315D02*
D03*
X016400Y014585D02*
D03*
X015000Y013315D02*
D03*
X015000Y014585D02*
D03*
X010500Y014489D02*
D03*
X010500Y012711D02*
D03*
X012200Y014489D02*
D03*
X012200Y012711D02*
D03*
X013900Y014489D02*
D03*
X013900Y012711D02*
D03*
X015600Y014489D02*
D03*
X015600Y012711D02*
D03*
X017000Y013539D02*
D03*
X017000Y011761D02*
D03*
D19*
X010854Y015481D02*
D03*
X012554Y015481D02*
D03*
X014254Y015481D02*
D03*
X015954Y015481D02*
D03*
D20*
X010600Y015481D02*
D03*
X010346Y015481D02*
D03*
X010854Y014719D02*
D03*
X010600Y014719D02*
D03*
X010346Y014719D02*
D03*
X012300Y015481D02*
D03*
X012046Y015481D02*
D03*
X012554Y014719D02*
D03*
X012300Y014719D02*
D03*
X012046Y014719D02*
D03*
X014000Y015481D02*
D03*
X013746Y015481D02*
D03*
X014254Y014719D02*
D03*
X014000Y014719D02*
D03*
X013746Y014719D02*
D03*
X015700Y015481D02*
D03*
X015446Y015481D02*
D03*
X015954Y014719D02*
D03*
X015700Y014719D02*
D03*
X015446Y014719D02*
D03*
D21*
X017000Y011000D02*
D03*
X017000Y017000D02*
D03*
X009500Y017000D02*
D03*
X009500Y011000D02*
D03*
D22*
X011200Y016500D02*
D03*
X012900Y016500D02*
D03*
X014600Y016500D02*
D03*
X016300Y016500D02*
D03*
X015000Y016100D02*
D03*
X013300Y016100D02*
D03*
X011600Y016100D02*
D03*
X009900Y016100D02*
D03*
X009300Y015300D02*
D03*
X009300Y015700D02*
D03*
X009300Y016100D02*
D03*
X009300Y016500D02*
D03*
X009600Y015500D02*
D03*
X009600Y015900D02*
D03*
X009600Y016300D02*
D03*
X017200Y015700D02*
D03*
X017200Y016100D02*
D03*
X017200Y016500D02*
D03*
X016900Y016300D02*
D03*
X016900Y015900D02*
D03*
X016600Y016100D02*
D03*
X009900Y015700D02*
D03*
X016600Y015700D02*
D03*
X016900Y015500D02*
D03*
X016600Y016500D02*
D03*
X009900Y016500D02*
D03*
X011600Y015700D02*
D03*
X013300Y015700D02*
D03*
X015000Y015700D02*
D03*
X009900Y016900D02*
D03*
X009900Y017300D02*
D03*
X015000Y015300D02*
D03*
X013300Y015300D02*
D03*
X011600Y015300D02*
D03*
X009900Y015300D02*
D03*
M02*
