G04 Layer_Color=8388736*
%FSAX42Y42*%
%MOMM*%
G71*
G01*
G75*
%ADD10R,1.50X1.70*%
%ADD11R,0.80X1.65*%
%ADD12R,1.60X1.40*%
%ADD13R,1.40X1.60*%
%ADD14R,3.20X3.20*%
%ADD15C,3.20*%
%ADD16R,2.74X2.74*%
%ADD17C,2.74*%
%ADD18R,2.74X2.74*%
%ADD19C,1.60*%
%ADD20R,1.70X1.70*%
%ADD21C,1.70*%
%ADD22C,5.20*%
%ADD23C,1.47*%
D10*
X011195Y016200D02*
D03*
X011005Y016200D02*
D03*
X012895Y016200D02*
D03*
X012705Y016200D02*
D03*
X014595Y016200D02*
D03*
X014405Y016200D02*
D03*
X016295Y016200D02*
D03*
X016105Y016200D02*
D03*
D11*
X010395Y015918D02*
D03*
X010205Y015918D02*
D03*
X010300Y015682D02*
D03*
X012095Y015918D02*
D03*
X011905Y015918D02*
D03*
X012000Y015682D02*
D03*
X013795Y015918D02*
D03*
X013605Y015918D02*
D03*
X013700Y015682D02*
D03*
X015495Y015918D02*
D03*
X015305Y015918D02*
D03*
X015400Y015682D02*
D03*
D12*
X011200Y015810D02*
D03*
X011200Y015990D02*
D03*
X010600Y016090D02*
D03*
X010600Y015910D02*
D03*
X012900Y015810D02*
D03*
X012900Y015990D02*
D03*
X012300Y016090D02*
D03*
X012300Y015910D02*
D03*
X014600Y015810D02*
D03*
X014600Y015990D02*
D03*
X014000Y016090D02*
D03*
X014000Y015910D02*
D03*
X016300Y015810D02*
D03*
X016300Y015990D02*
D03*
X015700Y016090D02*
D03*
X015700Y015910D02*
D03*
D13*
X010390Y016200D02*
D03*
X010210Y016200D02*
D03*
X012090Y016200D02*
D03*
X011910Y016200D02*
D03*
X013790Y016200D02*
D03*
X013610Y016200D02*
D03*
X015490Y016200D02*
D03*
X015310Y016200D02*
D03*
D14*
X014645Y011900D02*
D03*
X016345Y011900D02*
D03*
X011245Y011900D02*
D03*
X012945Y011900D02*
D03*
D15*
X014100Y011900D02*
D03*
X013555Y011900D02*
D03*
X015800Y011900D02*
D03*
X015255Y011900D02*
D03*
X010700Y011900D02*
D03*
X010155Y011900D02*
D03*
X012400Y011900D02*
D03*
X011855Y011900D02*
D03*
D16*
X010200Y017000D02*
D03*
X011200Y011000D02*
D03*
X011900Y017000D02*
D03*
X012900Y011000D02*
D03*
X013600Y017000D02*
D03*
X014600Y011000D02*
D03*
X015300Y017000D02*
D03*
X016300Y011000D02*
D03*
D17*
X010699Y017000D02*
D03*
X011200Y017000D02*
D03*
X009400Y012401D02*
D03*
X009400Y011900D02*
D03*
X010701Y011000D02*
D03*
X010200Y011000D02*
D03*
X012399Y017000D02*
D03*
X012900Y017000D02*
D03*
X012401Y011000D02*
D03*
X011900Y011000D02*
D03*
X014099Y017000D02*
D03*
X014600Y017000D02*
D03*
X014101Y011000D02*
D03*
X013600Y011000D02*
D03*
X015799Y017000D02*
D03*
X016300Y017000D02*
D03*
X015801Y011000D02*
D03*
X015300Y011000D02*
D03*
D18*
X009400Y012900D02*
D03*
D19*
X009350Y013315D02*
D03*
X009350Y014585D02*
D03*
X011300Y013315D02*
D03*
X011300Y014585D02*
D03*
X009900Y013315D02*
D03*
X009900Y014585D02*
D03*
X013000Y013315D02*
D03*
X013000Y014585D02*
D03*
X011600Y013315D02*
D03*
X011600Y014585D02*
D03*
X014700Y013315D02*
D03*
X014700Y014585D02*
D03*
X013300Y013315D02*
D03*
X013300Y014585D02*
D03*
X016400Y013315D02*
D03*
X016400Y014585D02*
D03*
X015000Y013315D02*
D03*
X015000Y014585D02*
D03*
X010500Y014489D02*
D03*
X010500Y012711D02*
D03*
X012200Y014489D02*
D03*
X012200Y012711D02*
D03*
X013900Y014489D02*
D03*
X013900Y012711D02*
D03*
X015600Y014489D02*
D03*
X015600Y012711D02*
D03*
X017000Y013539D02*
D03*
X017000Y011761D02*
D03*
D20*
X010854Y015481D02*
D03*
X012554Y015481D02*
D03*
X014254Y015481D02*
D03*
X015954Y015481D02*
D03*
D21*
X010600Y015481D02*
D03*
X010346Y015481D02*
D03*
X010854Y014719D02*
D03*
X010600Y014719D02*
D03*
X010346Y014719D02*
D03*
X012300Y015481D02*
D03*
X012046Y015481D02*
D03*
X012554Y014719D02*
D03*
X012300Y014719D02*
D03*
X012046Y014719D02*
D03*
X014000Y015481D02*
D03*
X013746Y015481D02*
D03*
X014254Y014719D02*
D03*
X014000Y014719D02*
D03*
X013746Y014719D02*
D03*
X015700Y015481D02*
D03*
X015446Y015481D02*
D03*
X015954Y014719D02*
D03*
X015700Y014719D02*
D03*
X015446Y014719D02*
D03*
D22*
X017000Y011000D02*
D03*
X017000Y017000D02*
D03*
X009500Y017000D02*
D03*
X009500Y011000D02*
D03*
D23*
X011200Y016500D02*
D03*
X012900Y016500D02*
D03*
X014600Y016500D02*
D03*
X016300Y016500D02*
D03*
X015000Y016100D02*
D03*
X013300Y016100D02*
D03*
X011600Y016100D02*
D03*
X009900Y016100D02*
D03*
X009300Y015300D02*
D03*
X009300Y015700D02*
D03*
X009300Y016100D02*
D03*
X009300Y016500D02*
D03*
X009600Y015500D02*
D03*
X009600Y015900D02*
D03*
X009600Y016300D02*
D03*
X017200Y015700D02*
D03*
X017200Y016100D02*
D03*
X017200Y016500D02*
D03*
X016900Y016300D02*
D03*
X016900Y015900D02*
D03*
X016600Y016100D02*
D03*
X009900Y015700D02*
D03*
X016600Y015700D02*
D03*
X016900Y015500D02*
D03*
X016600Y016500D02*
D03*
X009900Y016500D02*
D03*
X011600Y015700D02*
D03*
X013300Y015700D02*
D03*
X015000Y015700D02*
D03*
X009900Y016900D02*
D03*
X009900Y017300D02*
D03*
X015000Y015300D02*
D03*
X013300Y015300D02*
D03*
X011600Y015300D02*
D03*
X009900Y015300D02*
D03*
M02*
