G04 Layer_Color=65535*
%FSAX42Y42*%
%MOMM*%
G71*
G01*
G75*
%ADD10C,0.25*%
%ADD11C,0.20*%
%ADD12C,0.60*%
%ADD13C,0.25*%
D10*
X010397Y015665D02*
G03*
X010397Y015665I-000012J000000D01*
G01*
X012097Y015665D02*
G03*
X012097Y015665I-000012J000000D01*
G01*
X013798Y015665D02*
G03*
X013798Y015665I-000012J000000D01*
G01*
X015498Y015665D02*
G03*
X015498Y015665I-000012J000000D01*
G01*
X010996Y015481D02*
G03*
X010996Y015481I-000012J000000D01*
G01*
X012696Y015481D02*
G03*
X012696Y015481I-000012J000000D01*
G01*
X014396Y015481D02*
G03*
X014396Y015481I-000012J000000D01*
G01*
X016096Y015481D02*
G03*
X016096Y015481I-000012J000000D01*
G01*
D11*
X011070Y015163D02*
G03*
X011070Y015037I000000J-000063D01*
G01*
X012770Y015163D02*
G03*
X012770Y015037I000000J-000063D01*
G01*
X014470Y015163D02*
G03*
X014470Y015037I000000J-000063D01*
G01*
X016170Y015163D02*
G03*
X016170Y015037I000000J-000063D01*
G01*
X011290Y016135D02*
X011290Y016265D01*
X012990Y016135D02*
X012990Y016265D01*
X014690Y016135D02*
X014690Y016265D01*
X016390Y016135D02*
X016390Y016265D01*
X010450Y015730D02*
X010450Y015810D01*
X010370Y015730D02*
X010450Y015730D01*
X010150Y015730D02*
X010150Y015810D01*
X010150Y015730D02*
X010230Y015730D01*
X012150Y015730D02*
X012150Y015810D01*
X012070Y015730D02*
X012150Y015730D01*
X011850Y015730D02*
X011850Y015810D01*
X011850Y015730D02*
X011930Y015730D01*
X013850Y015730D02*
X013850Y015810D01*
X013770Y015730D02*
X013850Y015730D01*
X013550Y015730D02*
X013550Y015810D01*
X013550Y015730D02*
X013630Y015730D01*
X015550Y015730D02*
X015550Y015810D01*
X015470Y015730D02*
X015550Y015730D01*
X015250Y015730D02*
X015250Y015810D01*
X015250Y015730D02*
X015330Y015730D01*
X011140Y015900D02*
X011260Y015900D01*
X010540Y016000D02*
X010660Y016000D01*
X009223Y013569D02*
X009223Y014331D01*
X009223Y013569D02*
X009477Y013569D01*
X009477Y014331D01*
X009223Y014331D02*
X009477Y014331D01*
X009350Y013417D02*
X009350Y013569D01*
X009350Y014331D02*
X009350Y014483D01*
X011173Y013569D02*
X011173Y014331D01*
X011173Y013569D02*
X011427Y013569D01*
X011427Y014331D01*
X011173Y014331D02*
X011427Y014331D01*
X011300Y013417D02*
X011300Y013569D01*
X011300Y014331D02*
X011300Y014483D01*
X010300Y016140D02*
X010300Y016260D01*
X009773Y013569D02*
X009773Y014331D01*
X009773Y013569D02*
X010027Y013569D01*
X010027Y014331D01*
X009773Y014331D02*
X010027Y014331D01*
X009900Y013417D02*
X009900Y013569D01*
X009900Y014331D02*
X009900Y014483D01*
X012840Y015900D02*
X012960Y015900D01*
X012240Y016000D02*
X012360Y016000D01*
X012873Y013569D02*
X012873Y014331D01*
X012873Y013569D02*
X013127Y013569D01*
X013127Y014331D01*
X012873Y014331D02*
X013127Y014331D01*
X013000Y013417D02*
X013000Y013569D01*
X013000Y014331D02*
X013000Y014483D01*
X012000Y016140D02*
X012000Y016260D01*
X011473Y013569D02*
X011473Y014331D01*
X011473Y013569D02*
X011727Y013569D01*
X011727Y014331D01*
X011473Y014331D02*
X011727Y014331D01*
X011600Y013417D02*
X011600Y013569D01*
X011600Y014331D02*
X011600Y014483D01*
X014540Y015900D02*
X014660Y015900D01*
X013940Y016000D02*
X014060Y016000D01*
X014573Y013569D02*
X014573Y014331D01*
X014573Y013569D02*
X014827Y013569D01*
X014827Y014331D01*
X014573Y014331D02*
X014827Y014331D01*
X014700Y013417D02*
X014700Y013569D01*
X014700Y014331D02*
X014700Y014483D01*
X013700Y016140D02*
X013700Y016260D01*
X013173Y013569D02*
X013173Y014331D01*
X013173Y013569D02*
X013427Y013569D01*
X013427Y014331D01*
X013173Y014331D02*
X013427Y014331D01*
X013300Y013417D02*
X013300Y013569D01*
X013300Y014331D02*
X013300Y014483D01*
X016240Y015900D02*
X016360Y015900D01*
X015640Y016000D02*
X015760Y016000D01*
X016273Y013569D02*
X016273Y014331D01*
X016273Y013569D02*
X016527Y013569D01*
X016527Y014331D01*
X016273Y014331D02*
X016527Y014331D01*
X016400Y013417D02*
X016400Y013569D01*
X016400Y014331D02*
X016400Y014483D01*
X015400Y016140D02*
X015400Y016260D01*
X014873Y013569D02*
X014873Y014331D01*
X014873Y013569D02*
X015127Y013569D01*
X015127Y014331D01*
X014873Y014331D02*
X015127Y014331D01*
X015000Y013417D02*
X015000Y013569D01*
X015000Y014331D02*
X015000Y014483D01*
X010130Y015365D02*
X011070Y015365D01*
X010130Y014835D02*
X011070Y014835D01*
X011070Y015163D02*
X011070Y015365D01*
X011070Y014835D02*
X011070Y015037D01*
X010130Y014835D02*
X010130Y015365D01*
X011830Y015365D02*
X012770Y015365D01*
X011830Y014835D02*
X012770Y014835D01*
X012770Y015163D02*
X012770Y015365D01*
X012770Y014835D02*
X012770Y015037D01*
X011830Y014835D02*
X011830Y015365D01*
X013530Y015365D02*
X014470Y015365D01*
X013530Y014835D02*
X014470Y014835D01*
X014470Y015163D02*
X014470Y015365D01*
X014470Y014835D02*
X014470Y015037D01*
X013530Y014835D02*
X013530Y015365D01*
X015230Y015365D02*
X016170Y015365D01*
X015230Y014835D02*
X016170Y014835D01*
X016170Y015163D02*
X016170Y015365D01*
X016170Y014835D02*
X016170Y015037D01*
X015230Y014835D02*
X015230Y015365D01*
X010297Y013016D02*
X010297Y014184D01*
X010703Y014184D01*
X010703Y013016D02*
X010703Y014184D01*
X010297Y013016D02*
X010703Y013016D01*
X010500Y012838D02*
X010500Y013016D01*
X010500Y014184D02*
X010500Y014362D01*
X011997Y013016D02*
X011997Y014184D01*
X012403Y014184D01*
X012403Y013016D02*
X012403Y014184D01*
X011997Y013016D02*
X012403Y013016D01*
X012200Y012838D02*
X012200Y013016D01*
X012200Y014184D02*
X012200Y014362D01*
X013697Y013016D02*
X013697Y014184D01*
X014103Y014184D01*
X014103Y013016D02*
X014103Y014184D01*
X013697Y013016D02*
X014103Y013016D01*
X013900Y012838D02*
X013900Y013016D01*
X013900Y014184D02*
X013900Y014362D01*
X015397Y013016D02*
X015397Y014184D01*
X015803Y014184D01*
X015803Y013016D02*
X015803Y014184D01*
X015397Y013016D02*
X015803Y013016D01*
X015600Y012838D02*
X015600Y013016D01*
X015600Y014184D02*
X015600Y014362D01*
X016797Y012066D02*
X016797Y013234D01*
X017203Y013234D01*
X017203Y012066D02*
X017203Y013234D01*
X016797Y012066D02*
X017203Y012066D01*
X017000Y011888D02*
X017000Y012066D01*
X017000Y013234D02*
X017000Y013412D01*
D12*
X011000Y015265D02*
G03*
X011000Y015265I-000030J000000D01*
G01*
X012700Y015265D02*
G03*
X012700Y015265I-000030J000000D01*
G01*
X014400Y015265D02*
G03*
X014400Y015265I-000030J000000D01*
G01*
X016100Y015265D02*
G03*
X016100Y015265I-000030J000000D01*
G01*
D13*
X013295Y011640D02*
X014905Y011640D01*
X013295Y011690D02*
X014905Y011690D01*
X014905Y011640D02*
X014905Y012190D01*
X013295Y011640D02*
X013295Y012190D01*
X014905Y012190D01*
X014995Y011640D02*
X016605Y011640D01*
X014995Y011690D02*
X016605Y011690D01*
X016605Y011640D02*
X016605Y012190D01*
X014995Y011640D02*
X014995Y012190D01*
X016605Y012190D01*
X009950Y016600D02*
X009950Y017400D01*
X011450Y017400D01*
X011450Y016600D02*
X011450Y017400D01*
X009950Y016600D02*
X011450Y016600D01*
X009000Y013150D02*
X009800Y013150D01*
X009800Y011650D02*
X009800Y013150D01*
X009000Y011650D02*
X009800Y011650D01*
X009000Y011650D02*
X009000Y013150D01*
X011450Y010600D02*
X011450Y011400D01*
X009950Y010600D02*
X011450Y010600D01*
X009950Y010600D02*
X009950Y011400D01*
X011450Y011400D01*
X011650Y016600D02*
X011650Y017400D01*
X013150Y017400D01*
X013150Y016600D02*
X013150Y017400D01*
X011650Y016600D02*
X013150Y016600D01*
X013150Y010600D02*
X013150Y011400D01*
X011650Y010600D02*
X013150Y010600D01*
X011650Y010600D02*
X011650Y011400D01*
X013150Y011400D01*
X013350Y016600D02*
X013350Y017400D01*
X014850Y017400D01*
X014850Y016600D02*
X014850Y017400D01*
X013350Y016600D02*
X014850Y016600D01*
X014850Y010600D02*
X014850Y011400D01*
X013350Y010600D02*
X014850Y010600D01*
X013350Y010600D02*
X013350Y011400D01*
X014850Y011400D01*
X015050Y016600D02*
X015050Y017400D01*
X016550Y017400D01*
X016550Y016600D02*
X016550Y017400D01*
X015050Y016600D02*
X016550Y016600D01*
X016550Y010600D02*
X016550Y011400D01*
X015050Y010600D02*
X016550Y010600D01*
X015050Y010600D02*
X015050Y011400D01*
X016550Y011400D01*
X009895Y011640D02*
X011505Y011640D01*
X009895Y011690D02*
X011505Y011690D01*
X011505Y011640D02*
X011505Y012190D01*
X009895Y011640D02*
X009895Y012190D01*
X011505Y012190D01*
X011595Y011640D02*
X013205Y011640D01*
X011595Y011690D02*
X013205Y011690D01*
X013205Y011640D02*
X013205Y012190D01*
X011595Y011640D02*
X011595Y012190D01*
X013205Y012190D01*
X013307Y012398D02*
X013307Y012318D01*
X013347Y012278D01*
X013387Y012318D01*
X013387Y012398D01*
X013507Y012378D02*
X013487Y012398D01*
X013447Y012398D01*
X013427Y012378D01*
X013427Y012358D01*
X013447Y012338D01*
X013487Y012338D01*
X013507Y012318D01*
X013507Y012298D01*
X013487Y012278D01*
X013447Y012278D01*
X013427Y012298D01*
X013547Y012378D02*
X013567Y012398D01*
X013607Y012398D01*
X013627Y012378D01*
X013627Y012358D01*
X013607Y012338D01*
X013587Y012338D01*
X013607Y012338D01*
X013627Y012318D01*
X013627Y012298D01*
X013607Y012278D01*
X013567Y012278D01*
X013547Y012298D01*
X015009Y012398D02*
X015009Y012318D01*
X015049Y012278D01*
X015089Y012318D01*
X015089Y012398D01*
X015209Y012378D02*
X015189Y012398D01*
X015149Y012398D01*
X015129Y012378D01*
X015129Y012358D01*
X015149Y012338D01*
X015189Y012338D01*
X015209Y012318D01*
X015209Y012298D01*
X015189Y012278D01*
X015149Y012278D01*
X015129Y012298D01*
X015309Y012278D02*
X015309Y012398D01*
X015249Y012338D01*
X015329Y012338D01*
X011035Y016460D02*
X011015Y016480D01*
X010975Y016480D01*
X010955Y016460D01*
X010955Y016380D01*
X010975Y016360D01*
X011015Y016360D01*
X011035Y016380D01*
X011155Y016360D02*
X011075Y016360D01*
X011155Y016440D01*
X011155Y016460D01*
X011135Y016480D01*
X011095Y016480D01*
X011075Y016460D01*
X012734Y016460D02*
X012714Y016480D01*
X012674Y016480D01*
X012654Y016460D01*
X012654Y016380D01*
X012674Y016360D01*
X012714Y016360D01*
X012734Y016380D01*
X012834Y016360D02*
X012834Y016480D01*
X012774Y016420D01*
X012854Y016420D01*
X014436Y016460D02*
X014416Y016480D01*
X014376Y016480D01*
X014356Y016460D01*
X014356Y016380D01*
X014376Y016360D01*
X014416Y016360D01*
X014436Y016380D01*
X014556Y016480D02*
X014516Y016460D01*
X014476Y016420D01*
X014476Y016380D01*
X014496Y016360D01*
X014536Y016360D01*
X014556Y016380D01*
X014556Y016400D01*
X014536Y016420D01*
X014476Y016420D01*
X016135Y016460D02*
X016115Y016480D01*
X016075Y016480D01*
X016055Y016460D01*
X016055Y016380D01*
X016075Y016360D01*
X016115Y016360D01*
X016135Y016380D01*
X016175Y016460D02*
X016195Y016480D01*
X016235Y016480D01*
X016255Y016460D01*
X016255Y016440D01*
X016235Y016420D01*
X016255Y016400D01*
X016255Y016380D01*
X016235Y016360D01*
X016195Y016360D01*
X016175Y016380D01*
X016175Y016400D01*
X016195Y016420D01*
X016175Y016440D01*
X016175Y016460D01*
X016195Y016420D02*
X016235Y016420D01*
X010000Y016520D02*
X010040Y016520D01*
X010020Y016520D01*
X010020Y016400D01*
X010000Y016400D01*
X010040Y016400D01*
X010100Y016400D02*
X010100Y016520D01*
X010180Y016400D01*
X010180Y016520D01*
X010220Y016380D02*
X010300Y016380D01*
X010340Y016400D02*
X010380Y016400D01*
X010360Y016400D01*
X010360Y016520D01*
X010340Y016500D01*
X009750Y016400D02*
X009750Y016520D01*
X009810Y016520D01*
X009830Y016500D01*
X009830Y016460D01*
X009810Y016440D01*
X009750Y016440D01*
X009870Y016400D02*
X009910Y016400D01*
X009890Y016400D01*
X009890Y016520D01*
X009870Y016500D01*
X009012Y011560D02*
X009012Y011440D01*
X009092Y011440D01*
X009132Y011560D02*
X009172Y011560D01*
X009152Y011560D01*
X009152Y011440D01*
X009132Y011440D01*
X009172Y011440D01*
X009232Y011440D02*
X009232Y011560D01*
X009312Y011440D01*
X009312Y011560D01*
X009432Y011560D02*
X009352Y011560D01*
X009352Y011440D01*
X009432Y011440D01*
X009352Y011500D02*
X009392Y011500D01*
X009012Y013238D02*
X009012Y013358D01*
X009072Y013358D01*
X009092Y013338D01*
X009092Y013298D01*
X009072Y013278D01*
X009012Y013278D01*
X009212Y013238D02*
X009132Y013238D01*
X009212Y013318D01*
X009212Y013338D01*
X009192Y013358D01*
X009152Y013358D01*
X009132Y013338D01*
X010800Y011570D02*
X010800Y011450D01*
X010880Y011450D01*
X010980Y011570D02*
X010940Y011570D01*
X010920Y011550D01*
X010920Y011470D01*
X010940Y011450D01*
X010980Y011450D01*
X011000Y011470D01*
X011000Y011550D01*
X010980Y011570D01*
X011040Y011450D02*
X011040Y011530D01*
X011080Y011570D01*
X011120Y011530D01*
X011120Y011450D01*
X011120Y011510D01*
X011040Y011510D01*
X011160Y011570D02*
X011160Y011450D01*
X011220Y011450D01*
X011240Y011470D01*
X011240Y011550D01*
X011220Y011570D01*
X011160Y011570D01*
X011280Y011430D02*
X011360Y011430D01*
X011400Y011450D02*
X011440Y011450D01*
X011420Y011450D01*
X011420Y011570D01*
X011400Y011550D01*
X009962Y011488D02*
X009962Y011608D01*
X010022Y011608D01*
X010042Y011588D01*
X010042Y011548D01*
X010022Y011528D01*
X009962Y011528D01*
X010082Y011588D02*
X010102Y011608D01*
X010142Y011608D01*
X010162Y011588D01*
X010162Y011568D01*
X010142Y011548D01*
X010122Y011548D01*
X010142Y011548D01*
X010162Y011528D01*
X010162Y011508D01*
X010142Y011488D01*
X010102Y011488D01*
X010082Y011508D01*
X011664Y016511D02*
X011704Y016511D01*
X011684Y016511D01*
X011684Y016391D01*
X011664Y016391D01*
X011704Y016391D01*
X011764Y016391D02*
X011764Y016511D01*
X011844Y016391D01*
X011844Y016511D01*
X011884Y016371D02*
X011964Y016371D01*
X012084Y016391D02*
X012004Y016391D01*
X012084Y016471D01*
X012084Y016491D01*
X012064Y016511D01*
X012024Y016511D01*
X012004Y016491D01*
X011400Y016400D02*
X011400Y016520D01*
X011460Y016520D01*
X011480Y016500D01*
X011480Y016460D01*
X011460Y016440D01*
X011400Y016440D01*
X011580Y016400D02*
X011580Y016520D01*
X011520Y016460D01*
X011600Y016460D01*
X012450Y011570D02*
X012450Y011450D01*
X012530Y011450D01*
X012630Y011570D02*
X012590Y011570D01*
X012570Y011550D01*
X012570Y011470D01*
X012590Y011450D01*
X012630Y011450D01*
X012650Y011470D01*
X012650Y011550D01*
X012630Y011570D01*
X012690Y011450D02*
X012690Y011530D01*
X012730Y011570D01*
X012770Y011530D01*
X012770Y011450D01*
X012770Y011510D01*
X012690Y011510D01*
X012810Y011570D02*
X012810Y011450D01*
X012870Y011450D01*
X012890Y011470D01*
X012890Y011550D01*
X012870Y011570D01*
X012810Y011570D01*
X012930Y011430D02*
X013010Y011430D01*
X013130Y011450D02*
X013050Y011450D01*
X013130Y011530D01*
X013130Y011550D01*
X013110Y011570D01*
X013070Y011570D01*
X013050Y011550D01*
X011664Y011488D02*
X011664Y011608D01*
X011724Y011608D01*
X011744Y011588D01*
X011744Y011548D01*
X011724Y011528D01*
X011664Y011528D01*
X011864Y011608D02*
X011784Y011608D01*
X011784Y011548D01*
X011824Y011568D01*
X011844Y011568D01*
X011864Y011548D01*
X011864Y011508D01*
X011844Y011488D01*
X011804Y011488D01*
X011784Y011508D01*
X013363Y016511D02*
X013403Y016511D01*
X013383Y016511D01*
X013383Y016391D01*
X013363Y016391D01*
X013403Y016391D01*
X013463Y016391D02*
X013463Y016511D01*
X013543Y016391D01*
X013543Y016511D01*
X013583Y016371D02*
X013663Y016371D01*
X013703Y016491D02*
X013723Y016511D01*
X013763Y016511D01*
X013783Y016491D01*
X013783Y016471D01*
X013763Y016451D01*
X013743Y016451D01*
X013763Y016451D01*
X013783Y016431D01*
X013783Y016411D01*
X013763Y016391D01*
X013723Y016391D01*
X013703Y016411D01*
X013050Y016400D02*
X013050Y016520D01*
X013110Y016520D01*
X013130Y016500D01*
X013130Y016460D01*
X013110Y016440D01*
X013050Y016440D01*
X013250Y016520D02*
X013210Y016500D01*
X013170Y016460D01*
X013170Y016420D01*
X013190Y016400D01*
X013230Y016400D01*
X013250Y016420D01*
X013250Y016440D01*
X013230Y016460D01*
X013170Y016460D01*
X014150Y011570D02*
X014150Y011450D01*
X014230Y011450D01*
X014330Y011570D02*
X014290Y011570D01*
X014270Y011550D01*
X014270Y011470D01*
X014290Y011450D01*
X014330Y011450D01*
X014350Y011470D01*
X014350Y011550D01*
X014330Y011570D01*
X014390Y011450D02*
X014390Y011530D01*
X014430Y011570D01*
X014470Y011530D01*
X014470Y011450D01*
X014470Y011510D01*
X014390Y011510D01*
X014510Y011570D02*
X014510Y011450D01*
X014570Y011450D01*
X014590Y011470D01*
X014590Y011550D01*
X014570Y011570D01*
X014510Y011570D01*
X014630Y011430D02*
X014710Y011430D01*
X014750Y011550D02*
X014770Y011570D01*
X014810Y011570D01*
X014830Y011550D01*
X014830Y011530D01*
X014810Y011510D01*
X014790Y011510D01*
X014810Y011510D01*
X014830Y011490D01*
X014830Y011470D01*
X014810Y011450D01*
X014770Y011450D01*
X014750Y011470D01*
X013363Y011488D02*
X013363Y011608D01*
X013423Y011608D01*
X013443Y011588D01*
X013443Y011548D01*
X013423Y011528D01*
X013363Y011528D01*
X013483Y011608D02*
X013563Y011608D01*
X013563Y011588D01*
X013483Y011508D01*
X013483Y011488D01*
X015062Y016511D02*
X015102Y016511D01*
X015082Y016511D01*
X015082Y016391D01*
X015062Y016391D01*
X015102Y016391D01*
X015162Y016391D02*
X015162Y016511D01*
X015242Y016391D01*
X015242Y016511D01*
X015282Y016371D02*
X015362Y016371D01*
X015462Y016391D02*
X015462Y016511D01*
X015402Y016451D01*
X015482Y016451D01*
X014700Y016400D02*
X014700Y016520D01*
X014760Y016520D01*
X014780Y016500D01*
X014780Y016460D01*
X014760Y016440D01*
X014700Y016440D01*
X014820Y016500D02*
X014840Y016520D01*
X014880Y016520D01*
X014900Y016500D01*
X014900Y016480D01*
X014880Y016460D01*
X014900Y016440D01*
X014900Y016420D01*
X014880Y016400D01*
X014840Y016400D01*
X014820Y016420D01*
X014820Y016440D01*
X014840Y016460D01*
X014820Y016480D01*
X014820Y016500D01*
X014840Y016460D02*
X014880Y016460D01*
X015800Y011570D02*
X015800Y011450D01*
X015880Y011450D01*
X015980Y011570D02*
X015940Y011570D01*
X015920Y011550D01*
X015920Y011470D01*
X015940Y011450D01*
X015980Y011450D01*
X016000Y011470D01*
X016000Y011550D01*
X015980Y011570D01*
X016040Y011450D02*
X016040Y011530D01*
X016080Y011570D01*
X016120Y011530D01*
X016120Y011450D01*
X016120Y011510D01*
X016040Y011510D01*
X016160Y011570D02*
X016160Y011450D01*
X016220Y011450D01*
X016240Y011470D01*
X016240Y011550D01*
X016220Y011570D01*
X016160Y011570D01*
X016280Y011430D02*
X016360Y011430D01*
X016460Y011450D02*
X016460Y011570D01*
X016400Y011510D01*
X016480Y011510D01*
X015062Y011488D02*
X015062Y011608D01*
X015122Y011608D01*
X015142Y011588D01*
X015142Y011548D01*
X015122Y011528D01*
X015062Y011528D01*
X015182Y011508D02*
X015202Y011488D01*
X015242Y011488D01*
X015262Y011508D01*
X015262Y011588D01*
X015242Y011608D01*
X015202Y011608D01*
X015182Y011588D01*
X015182Y011568D01*
X015202Y011548D01*
X015262Y011548D01*
X009980Y015870D02*
X009980Y015950D01*
X009960Y015970D01*
X009920Y015970D01*
X009900Y015950D01*
X009900Y015870D01*
X009920Y015850D01*
X009960Y015850D01*
X009940Y015890D02*
X009980Y015850D01*
X009960Y015850D02*
X009980Y015870D01*
X010020Y015850D02*
X010060Y015850D01*
X010040Y015850D01*
X010040Y015970D01*
X010020Y015950D01*
X011630Y015870D02*
X011630Y015950D01*
X011610Y015970D01*
X011570Y015970D01*
X011550Y015950D01*
X011550Y015870D01*
X011570Y015850D01*
X011610Y015850D01*
X011590Y015890D02*
X011630Y015850D01*
X011610Y015850D02*
X011630Y015870D01*
X011750Y015850D02*
X011670Y015850D01*
X011750Y015930D01*
X011750Y015950D01*
X011730Y015970D01*
X011690Y015970D01*
X011670Y015950D01*
X013380Y015870D02*
X013380Y015950D01*
X013360Y015970D01*
X013320Y015970D01*
X013300Y015950D01*
X013300Y015870D01*
X013320Y015850D01*
X013360Y015850D01*
X013340Y015890D02*
X013380Y015850D01*
X013360Y015850D02*
X013380Y015870D01*
X013420Y015950D02*
X013440Y015970D01*
X013480Y015970D01*
X013500Y015950D01*
X013500Y015930D01*
X013480Y015910D01*
X013460Y015910D01*
X013480Y015910D01*
X013500Y015890D01*
X013500Y015870D01*
X013480Y015850D01*
X013440Y015850D01*
X013420Y015870D01*
X015030Y015870D02*
X015030Y015950D01*
X015010Y015970D01*
X014970Y015970D01*
X014950Y015950D01*
X014950Y015870D01*
X014970Y015850D01*
X015010Y015850D01*
X014990Y015890D02*
X015030Y015850D01*
X015010Y015850D02*
X015030Y015870D01*
X015130Y015850D02*
X015130Y015970D01*
X015070Y015910D01*
X015150Y015910D01*
X010900Y015800D02*
X010900Y015920D01*
X010960Y015920D01*
X010980Y015900D01*
X010980Y015860D01*
X010960Y015840D01*
X010900Y015840D01*
X010940Y015840D02*
X010980Y015800D01*
X011020Y015800D02*
X011060Y015800D01*
X011040Y015800D01*
X011040Y015920D01*
X011020Y015900D01*
X010526Y016256D02*
X010526Y016376D01*
X010586Y016376D01*
X010606Y016356D01*
X010606Y016316D01*
X010586Y016296D01*
X010526Y016296D01*
X010566Y016296D02*
X010606Y016256D01*
X010726Y016256D02*
X010646Y016256D01*
X010726Y016336D01*
X010726Y016356D01*
X010706Y016376D01*
X010666Y016376D01*
X010646Y016356D01*
X009238Y014742D02*
X009238Y014862D01*
X009298Y014862D01*
X009318Y014842D01*
X009318Y014802D01*
X009298Y014782D01*
X009238Y014782D01*
X009278Y014782D02*
X009318Y014742D01*
X009358Y014842D02*
X009378Y014862D01*
X009418Y014862D01*
X009438Y014842D01*
X009438Y014822D01*
X009418Y014802D01*
X009398Y014802D01*
X009418Y014802D01*
X009438Y014782D01*
X009438Y014762D01*
X009418Y014742D01*
X009378Y014742D01*
X009358Y014762D01*
X011189Y014742D02*
X011189Y014862D01*
X011249Y014862D01*
X011269Y014842D01*
X011269Y014802D01*
X011249Y014782D01*
X011189Y014782D01*
X011229Y014782D02*
X011269Y014742D01*
X011369Y014742D02*
X011369Y014862D01*
X011309Y014802D01*
X011389Y014802D01*
X009850Y016150D02*
X009850Y016270D01*
X009910Y016270D01*
X009930Y016250D01*
X009930Y016210D01*
X009910Y016190D01*
X009850Y016190D01*
X009890Y016190D02*
X009930Y016150D01*
X010050Y016270D02*
X009970Y016270D01*
X009970Y016210D01*
X010010Y016230D01*
X010030Y016230D01*
X010050Y016210D01*
X010050Y016170D01*
X010030Y016150D01*
X009990Y016150D01*
X009970Y016170D01*
X009789Y014742D02*
X009789Y014862D01*
X009849Y014862D01*
X009869Y014842D01*
X009869Y014802D01*
X009849Y014782D01*
X009789Y014782D01*
X009829Y014782D02*
X009869Y014742D01*
X009989Y014862D02*
X009949Y014842D01*
X009909Y014802D01*
X009909Y014762D01*
X009929Y014742D01*
X009969Y014742D01*
X009989Y014762D01*
X009989Y014782D01*
X009969Y014802D01*
X009909Y014802D01*
X012500Y015800D02*
X012500Y015920D01*
X012560Y015920D01*
X012580Y015900D01*
X012580Y015860D01*
X012560Y015840D01*
X012500Y015840D01*
X012540Y015840D02*
X012580Y015800D01*
X012620Y015920D02*
X012700Y015920D01*
X012700Y015900D01*
X012620Y015820D01*
X012620Y015800D01*
X012225Y016256D02*
X012225Y016376D01*
X012285Y016376D01*
X012305Y016356D01*
X012305Y016316D01*
X012285Y016296D01*
X012225Y016296D01*
X012265Y016296D02*
X012305Y016256D01*
X012345Y016356D02*
X012365Y016376D01*
X012405Y016376D01*
X012425Y016356D01*
X012425Y016336D01*
X012405Y016316D01*
X012425Y016296D01*
X012425Y016276D01*
X012405Y016256D01*
X012365Y016256D01*
X012345Y016276D01*
X012345Y016296D01*
X012365Y016316D01*
X012345Y016336D01*
X012345Y016356D01*
X012365Y016316D02*
X012405Y016316D01*
X012888Y014742D02*
X012888Y014862D01*
X012948Y014862D01*
X012968Y014842D01*
X012968Y014802D01*
X012948Y014782D01*
X012888Y014782D01*
X012928Y014782D02*
X012968Y014742D01*
X013008Y014762D02*
X013028Y014742D01*
X013068Y014742D01*
X013088Y014762D01*
X013088Y014842D01*
X013068Y014862D01*
X013028Y014862D01*
X013008Y014842D01*
X013008Y014822D01*
X013028Y014802D01*
X013088Y014802D01*
X011450Y016150D02*
X011450Y016270D01*
X011510Y016270D01*
X011530Y016250D01*
X011530Y016210D01*
X011510Y016190D01*
X011450Y016190D01*
X011490Y016190D02*
X011530Y016150D01*
X011570Y016150D02*
X011610Y016150D01*
X011590Y016150D01*
X011590Y016270D01*
X011570Y016250D01*
X011670Y016250D02*
X011690Y016270D01*
X011730Y016270D01*
X011750Y016250D01*
X011750Y016170D01*
X011730Y016150D01*
X011690Y016150D01*
X011670Y016170D01*
X011670Y016250D01*
X011488Y014742D02*
X011488Y014862D01*
X011548Y014862D01*
X011568Y014842D01*
X011568Y014802D01*
X011548Y014782D01*
X011488Y014782D01*
X011528Y014782D02*
X011568Y014742D01*
X011608Y014742D02*
X011648Y014742D01*
X011628Y014742D01*
X011628Y014862D01*
X011608Y014842D01*
X011708Y014742D02*
X011748Y014742D01*
X011728Y014742D01*
X011728Y014862D01*
X011708Y014842D01*
X014150Y015800D02*
X014150Y015920D01*
X014210Y015920D01*
X014230Y015900D01*
X014230Y015860D01*
X014210Y015840D01*
X014150Y015840D01*
X014190Y015840D02*
X014230Y015800D01*
X014270Y015800D02*
X014310Y015800D01*
X014290Y015800D01*
X014290Y015920D01*
X014270Y015900D01*
X014450Y015800D02*
X014370Y015800D01*
X014450Y015880D01*
X014450Y015900D01*
X014430Y015920D01*
X014390Y015920D01*
X014370Y015900D01*
X013924Y016256D02*
X013924Y016376D01*
X013984Y016376D01*
X014004Y016356D01*
X014004Y016316D01*
X013984Y016296D01*
X013924Y016296D01*
X013964Y016296D02*
X014004Y016256D01*
X014044Y016256D02*
X014084Y016256D01*
X014064Y016256D01*
X014064Y016376D01*
X014044Y016356D01*
X014144Y016356D02*
X014164Y016376D01*
X014204Y016376D01*
X014224Y016356D01*
X014224Y016336D01*
X014204Y016316D01*
X014184Y016316D01*
X014204Y016316D01*
X014224Y016296D01*
X014224Y016276D01*
X014204Y016256D01*
X014164Y016256D01*
X014144Y016276D01*
X014550Y014750D02*
X014550Y014870D01*
X014610Y014870D01*
X014630Y014850D01*
X014630Y014810D01*
X014610Y014790D01*
X014550Y014790D01*
X014590Y014790D02*
X014630Y014750D01*
X014670Y014750D02*
X014710Y014750D01*
X014690Y014750D01*
X014690Y014870D01*
X014670Y014850D01*
X014830Y014750D02*
X014830Y014870D01*
X014770Y014810D01*
X014850Y014810D01*
X013150Y016150D02*
X013150Y016270D01*
X013210Y016270D01*
X013230Y016250D01*
X013230Y016210D01*
X013210Y016190D01*
X013150Y016190D01*
X013190Y016190D02*
X013230Y016150D01*
X013270Y016150D02*
X013310Y016150D01*
X013290Y016150D01*
X013290Y016270D01*
X013270Y016250D01*
X013450Y016270D02*
X013370Y016270D01*
X013370Y016210D01*
X013410Y016230D01*
X013430Y016230D01*
X013450Y016210D01*
X013450Y016170D01*
X013430Y016150D01*
X013390Y016150D01*
X013370Y016170D01*
X013188Y014742D02*
X013188Y014862D01*
X013248Y014862D01*
X013268Y014842D01*
X013268Y014802D01*
X013248Y014782D01*
X013188Y014782D01*
X013228Y014782D02*
X013268Y014742D01*
X013308Y014742D02*
X013348Y014742D01*
X013328Y014742D01*
X013328Y014862D01*
X013308Y014842D01*
X013488Y014862D02*
X013448Y014842D01*
X013408Y014802D01*
X013408Y014762D01*
X013428Y014742D01*
X013468Y014742D01*
X013488Y014762D01*
X013488Y014782D01*
X013468Y014802D01*
X013408Y014802D01*
X015900Y015800D02*
X015900Y015920D01*
X015960Y015920D01*
X015980Y015900D01*
X015980Y015860D01*
X015960Y015840D01*
X015900Y015840D01*
X015940Y015840D02*
X015980Y015800D01*
X016020Y015800D02*
X016060Y015800D01*
X016040Y015800D01*
X016040Y015920D01*
X016020Y015900D01*
X016120Y015920D02*
X016200Y015920D01*
X016200Y015900D01*
X016120Y015820D01*
X016120Y015800D01*
X015626Y016256D02*
X015626Y016376D01*
X015686Y016376D01*
X015706Y016356D01*
X015706Y016316D01*
X015686Y016296D01*
X015626Y016296D01*
X015666Y016296D02*
X015706Y016256D01*
X015746Y016256D02*
X015786Y016256D01*
X015766Y016256D01*
X015766Y016376D01*
X015746Y016356D01*
X015846Y016356D02*
X015866Y016376D01*
X015906Y016376D01*
X015926Y016356D01*
X015926Y016336D01*
X015906Y016316D01*
X015926Y016296D01*
X015926Y016276D01*
X015906Y016256D01*
X015866Y016256D01*
X015846Y016276D01*
X015846Y016296D01*
X015866Y016316D01*
X015846Y016336D01*
X015846Y016356D01*
X015866Y016316D02*
X015906Y016316D01*
X016289Y014742D02*
X016289Y014862D01*
X016349Y014862D01*
X016369Y014842D01*
X016369Y014802D01*
X016349Y014782D01*
X016289Y014782D01*
X016329Y014782D02*
X016369Y014742D01*
X016409Y014742D02*
X016449Y014742D01*
X016429Y014742D01*
X016429Y014862D01*
X016409Y014842D01*
X016509Y014762D02*
X016529Y014742D01*
X016569Y014742D01*
X016589Y014762D01*
X016589Y014842D01*
X016569Y014862D01*
X016529Y014862D01*
X016509Y014842D01*
X016509Y014822D01*
X016529Y014802D01*
X016589Y014802D01*
X014850Y016150D02*
X014850Y016270D01*
X014910Y016270D01*
X014930Y016250D01*
X014930Y016210D01*
X014910Y016190D01*
X014850Y016190D01*
X014890Y016190D02*
X014930Y016150D01*
X015050Y016150D02*
X014970Y016150D01*
X015050Y016230D01*
X015050Y016250D01*
X015030Y016270D01*
X014990Y016270D01*
X014970Y016250D01*
X015090Y016250D02*
X015110Y016270D01*
X015150Y016270D01*
X015170Y016250D01*
X015170Y016170D01*
X015150Y016150D01*
X015110Y016150D01*
X015090Y016170D01*
X015090Y016250D01*
X014950Y014750D02*
X014950Y014870D01*
X015010Y014870D01*
X015030Y014850D01*
X015030Y014810D01*
X015010Y014790D01*
X014950Y014790D01*
X014990Y014790D02*
X015030Y014750D01*
X015150Y014750D02*
X015070Y014750D01*
X015150Y014830D01*
X015150Y014850D01*
X015130Y014870D01*
X015090Y014870D01*
X015070Y014850D01*
X015190Y014750D02*
X015230Y014750D01*
X015210Y014750D01*
X015210Y014870D01*
X015190Y014850D01*
X010000Y015570D02*
X010000Y015470D01*
X010020Y015450D01*
X010060Y015450D01*
X010080Y015470D01*
X010080Y015570D01*
X010120Y015450D02*
X010160Y015450D01*
X010140Y015450D01*
X010140Y015570D01*
X010120Y015550D01*
X011700Y015570D02*
X011700Y015470D01*
X011720Y015450D01*
X011760Y015450D01*
X011780Y015470D01*
X011780Y015570D01*
X011900Y015450D02*
X011820Y015450D01*
X011900Y015530D01*
X011900Y015550D01*
X011880Y015570D01*
X011840Y015570D01*
X011820Y015550D01*
X013400Y015570D02*
X013400Y015470D01*
X013420Y015450D01*
X013460Y015450D01*
X013480Y015470D01*
X013480Y015570D01*
X013520Y015550D02*
X013540Y015570D01*
X013580Y015570D01*
X013600Y015550D01*
X013600Y015530D01*
X013580Y015510D01*
X013560Y015510D01*
X013580Y015510D01*
X013600Y015490D01*
X013600Y015470D01*
X013580Y015450D01*
X013540Y015450D01*
X013520Y015470D01*
X015100Y015570D02*
X015100Y015470D01*
X015120Y015450D01*
X015160Y015450D01*
X015180Y015470D01*
X015180Y015570D01*
X015280Y015450D02*
X015280Y015570D01*
X015220Y015510D01*
X015300Y015510D01*
X009909Y012398D02*
X009909Y012318D01*
X009949Y012278D01*
X009989Y012318D01*
X009989Y012398D01*
X010108Y012378D02*
X010088Y012398D01*
X010048Y012398D01*
X010029Y012378D01*
X010029Y012358D01*
X010048Y012338D01*
X010088Y012338D01*
X010108Y012318D01*
X010108Y012298D01*
X010088Y012278D01*
X010048Y012278D01*
X010029Y012298D01*
X010148Y012278D02*
X010188Y012278D01*
X010168Y012278D01*
X010168Y012398D01*
X010148Y012378D01*
X011608Y012398D02*
X011608Y012318D01*
X011648Y012278D01*
X011688Y012318D01*
X011688Y012398D01*
X011808Y012378D02*
X011788Y012398D01*
X011748Y012398D01*
X011728Y012378D01*
X011728Y012358D01*
X011748Y012338D01*
X011788Y012338D01*
X011808Y012318D01*
X011808Y012298D01*
X011788Y012278D01*
X011748Y012278D01*
X011728Y012298D01*
X011928Y012278D02*
X011848Y012278D01*
X011928Y012358D01*
X011928Y012378D01*
X011908Y012398D01*
X011868Y012398D01*
X011848Y012378D01*
X011030Y012850D02*
X011010Y012870D01*
X010970Y012870D01*
X010950Y012850D01*
X010950Y012770D01*
X010970Y012750D01*
X011010Y012750D01*
X011030Y012770D01*
X011070Y012750D02*
X011110Y012750D01*
X011090Y012750D01*
X011090Y012870D01*
X011070Y012850D01*
X012730Y012850D02*
X012710Y012870D01*
X012670Y012870D01*
X012650Y012850D01*
X012650Y012770D01*
X012670Y012750D01*
X012710Y012750D01*
X012730Y012770D01*
X012770Y012850D02*
X012790Y012870D01*
X012830Y012870D01*
X012850Y012850D01*
X012850Y012830D01*
X012830Y012810D01*
X012810Y012810D01*
X012830Y012810D01*
X012850Y012790D01*
X012850Y012770D01*
X012830Y012750D01*
X012790Y012750D01*
X012770Y012770D01*
X014530Y012850D02*
X014510Y012870D01*
X014470Y012870D01*
X014450Y012850D01*
X014450Y012770D01*
X014470Y012750D01*
X014510Y012750D01*
X014530Y012770D01*
X014650Y012870D02*
X014570Y012870D01*
X014570Y012810D01*
X014610Y012830D01*
X014630Y012830D01*
X014650Y012810D01*
X014650Y012770D01*
X014630Y012750D01*
X014590Y012750D01*
X014570Y012770D01*
X016130Y012850D02*
X016110Y012870D01*
X016070Y012870D01*
X016050Y012850D01*
X016050Y012770D01*
X016070Y012750D01*
X016110Y012750D01*
X016130Y012770D01*
X016170Y012870D02*
X016250Y012870D01*
X016250Y012850D01*
X016170Y012770D01*
X016170Y012750D01*
X016892Y013796D02*
X016872Y013816D01*
X016832Y013816D01*
X016812Y013796D01*
X016812Y013716D01*
X016832Y013696D01*
X016872Y013696D01*
X016892Y013716D01*
X016932Y013716D02*
X016952Y013696D01*
X016992Y013696D01*
X017012Y013716D01*
X017012Y013796D01*
X016992Y013816D01*
X016952Y013816D01*
X016932Y013796D01*
X016932Y013776D01*
X016952Y013756D01*
X017012Y013756D01*
M02*
