M48
;Layer_Color=9474304
;FILE_FORMAT=2:5
INCH,LZ
;TYPE=PLATED
T1F00S00C0.03150
T2F00S00C0.04724
T3F00S00C0.12598
%
T01
X0285433Y0009843
X0300197Y0019685
X0314961Y0044291
X0326772Y0052165
Y0068898
X0339567Y0059055
Y0044291
X0291339Y0068898
Y0115157
X0326772
X0255906
X0220472
X0185039
X0149606
Y0068898
X0185039
X0220472
X0255906
Y0009843
X0241142Y0019685
X0226378Y0009843
X0211614Y0019685
X019685Y0009843
X0182087Y0019685
X0167323Y0009843
X0152559Y0019685
X0137795Y0009843
X0123031Y0019685
X0270669
X0108268Y0009843
X0093504Y0019685
X007874Y0009843
X0063976Y0019685
Y003937
X0049213Y0029528
Y0049213
Y0068898
Y0088583
Y0108268
X0034449Y0098425
Y007874
Y0059055
X0019685Y0068898
Y0087598
X0020669Y0112205
X007874Y0115157
X0114173
Y0068898
X007874
X0019685Y0049213
X0049213Y0009843
X0070866Y0137795
X0106299
X0105394Y0198819
X0095394
X0073819Y0201772
Y0221457
Y0241142
X0063976Y0231299
Y0211614
X0054134Y0220472
Y0241142
X0050276Y0198819
X0040276
X0122953
X0132953
X0150512
X0160512
X0178071
X0188071
X020563
X021563
X0233189
X0243189
X0260748
X0270748
X0248031Y0137795
X0212598
X0177165
X0141732
X0283465
X0318898
X0319882Y0206693
X0339567
Y0231299
Y0250984
X0329724Y0241142
Y0221457
X0319882Y0250984
X0298307Y0198819
X0288307
X0300197Y027559
X0285433Y0285433
X0270669Y027559
X0255906Y0285433
X0241142Y027559
X0226378Y0285433
X0201772
X0211614Y027559
X0187008
X0172244Y0285433
X015748Y027559
X0142717Y0285433
X011811
X0127953Y027559
X0108268
X0098425Y0285433
X0083661Y027559
X0068898Y0285433
X0049213
T02
X0272638Y0038189
X0300197
X0286417Y0057874
X0258858
X0231299
X020374
X0176181
X0148622
X0121063
X0134843Y0038189
X0162402
X0189961
X021752
X0245079
X0107283
X0093504Y0057874
X0107283Y0237402
X0093504Y0257087
X007185Y0262795
X0052165
X0121063Y0257087
X0148622
X0176181
X020374
X0231299
X0258858
X0245079Y0237402
X021752
X0189961
X0162402
X0134843
X0272638
X0300197
X0286417Y0257087
T03
X0334646Y0019685
X0019685
X0334646Y027559
X0019685
M30
