G04 Layer_Color=65535*
%FSLAX25Y25*%
%MOIN*%
G70*
G01*
G75*
%ADD10C,0.00984*%
%ADD11C,0.01181*%
%ADD12C,0.00787*%
%ADD13C,0.01969*%
%ADD14C,0.01378*%
%ADD15C,0.01575*%
D10*
X324114Y92716D02*
G03*
X324114Y92716I-492J0D01*
G01*
X307382D02*
G03*
X307382Y92716I-492J0D01*
G01*
X288681D02*
G03*
X288681Y92716I-492J0D01*
G01*
X271949D02*
G03*
X271949Y92716I-492J0D01*
G01*
X253248D02*
G03*
X253248Y92716I-492J0D01*
G01*
X236516D02*
G03*
X236516Y92716I-492J0D01*
G01*
X217815D02*
G03*
X217815Y92716I-492J0D01*
G01*
X201083D02*
G03*
X201083Y92716I-492J0D01*
G01*
X182382D02*
G03*
X182382Y92716I-492J0D01*
G01*
X165650D02*
G03*
X165650Y92716I-492J0D01*
G01*
X146949D02*
G03*
X146949Y92716I-492J0D01*
G01*
X130217D02*
G03*
X130217Y92716I-492J0D01*
G01*
X111516D02*
G03*
X111516Y92716I-492J0D01*
G01*
X94784D02*
G03*
X94784Y92716I-492J0D01*
G01*
X307854Y137402D02*
G03*
X307854Y137402I-492J0D01*
G01*
X272421D02*
G03*
X272421Y137402I-492J0D01*
G01*
X236988D02*
G03*
X236988Y137402I-492J0D01*
G01*
X201555D02*
G03*
X201555Y137402I-492J0D01*
G01*
X166122D02*
G03*
X166122Y137402I-492J0D01*
G01*
X130689D02*
G03*
X130689Y137402I-492J0D01*
G01*
X95256D02*
G03*
X95256Y137402I-492J0D01*
G01*
X59823D02*
G03*
X59823Y137402I-492J0D01*
G01*
X76083Y92716D02*
G03*
X76083Y92716I-492J0D01*
G01*
X59350D02*
G03*
X59350Y92716I-492J0D01*
G01*
X305610Y210827D02*
G03*
X305610Y210827I-492J0D01*
G01*
X278051D02*
G03*
X278051Y210827I-492J0D01*
G01*
X250492D02*
G03*
X250492Y210827I-492J0D01*
G01*
X222933D02*
G03*
X222933Y210827I-492J0D01*
G01*
X195374D02*
G03*
X195374Y210827I-492J0D01*
G01*
X167815D02*
G03*
X167815Y210827I-492J0D01*
G01*
X140256D02*
G03*
X140256Y210827I-492J0D01*
G01*
X112697D02*
G03*
X112697Y210827I-492J0D01*
G01*
X16516Y137402D02*
G03*
X16516Y137402I-492J0D01*
G01*
X341209Y93504D02*
X340356Y94357D01*
Y96062D01*
X341209Y96915D01*
X342061D01*
X342914Y96062D01*
X343767Y96915D01*
X344620D01*
X345472Y96062D01*
Y94357D01*
X344620Y93504D01*
X343767D01*
X342914Y94357D01*
X342061Y93504D01*
X341209D01*
X342914Y94357D02*
Y96062D01*
X340356Y98620D02*
X343767D01*
X345472Y100326D01*
X343767Y102031D01*
X340356D01*
Y103737D02*
Y107148D01*
Y105442D01*
X345472D01*
Y112264D02*
Y108853D01*
X342061Y112264D01*
X341209D01*
X340356Y111412D01*
Y109706D01*
X341209Y108853D01*
X324650Y118657D02*
X325371Y119379D01*
X326814D01*
X327536Y118657D01*
Y117936D01*
X326814Y117214D01*
X327536Y116493D01*
Y115771D01*
X326814Y115050D01*
X325371D01*
X324650Y115771D01*
Y116493D01*
X325371Y117214D01*
X324650Y117936D01*
Y118657D01*
X325371Y117214D02*
X326814D01*
X328979Y115050D02*
Y119379D01*
X331144D01*
X331865Y118657D01*
Y117214D01*
X331144Y116493D01*
X328979D01*
X330422D02*
X331865Y115050D01*
X336194Y119379D02*
X334751Y118657D01*
X333308Y117214D01*
Y115771D01*
X334030Y115050D01*
X335473D01*
X336194Y115771D01*
Y116493D01*
X335473Y117214D01*
X333308D01*
X323819Y69224D02*
X324672Y70077D01*
X326377D01*
X327230Y69224D01*
Y68372D01*
X326377Y67519D01*
X327230Y66666D01*
Y65813D01*
X326377Y64961D01*
X324672D01*
X323819Y65813D01*
Y66666D01*
X324672Y67519D01*
X323819Y68372D01*
Y69224D01*
X324672Y67519D02*
X326377D01*
X328935Y64961D02*
Y70077D01*
X331494D01*
X332346Y69224D01*
Y67519D01*
X331494Y66666D01*
X328935D01*
X330641D02*
X332346Y64961D01*
X337463Y70077D02*
X334052D01*
Y67519D01*
X335757Y68372D01*
X336610D01*
X337463Y67519D01*
Y65813D01*
X336610Y64961D01*
X334905D01*
X334052Y65813D01*
X307850Y118657D02*
X308571Y119379D01*
X310014D01*
X310736Y118657D01*
Y117936D01*
X310014Y117214D01*
X310736Y116493D01*
Y115771D01*
X310014Y115050D01*
X308571D01*
X307850Y115771D01*
Y116493D01*
X308571Y117214D01*
X307850Y117936D01*
Y118657D01*
X308571Y117214D02*
X310014D01*
X312179Y115050D02*
Y119379D01*
X314344D01*
X315065Y118657D01*
Y117214D01*
X314344Y116493D01*
X312179D01*
X313622D02*
X315065Y115050D01*
X318673D02*
Y119379D01*
X316508Y117214D01*
X319394D01*
X341209Y74803D02*
X340356Y75656D01*
Y77361D01*
X341209Y78214D01*
X342061D01*
X342914Y77361D01*
X343767Y78214D01*
X344620D01*
X345472Y77361D01*
Y75656D01*
X344620Y74803D01*
X343767D01*
X342914Y75656D01*
X342061Y74803D01*
X341209D01*
X342914Y75656D02*
Y77361D01*
X345472Y79920D02*
X340356D01*
Y82478D01*
X341209Y83331D01*
X342914D01*
X343767Y82478D01*
Y79920D01*
Y81625D02*
X345472Y83331D01*
X341209Y85036D02*
X340356Y85889D01*
Y87594D01*
X341209Y88447D01*
X342061D01*
X342914Y87594D01*
Y86742D01*
Y87594D01*
X343767Y88447D01*
X344620D01*
X345472Y87594D01*
Y85889D01*
X344620Y85036D01*
X289150Y119379D02*
X292036D01*
Y118657D01*
X289150Y115771D01*
Y115050D01*
X293479D02*
Y119379D01*
X295644D01*
X296365Y118657D01*
Y117214D01*
X295644Y116493D01*
X293479D01*
X294922D02*
X296365Y115050D01*
X300694Y119379D02*
X299251Y118657D01*
X297808Y117214D01*
Y115771D01*
X298530Y115050D01*
X299973D01*
X300694Y115771D01*
Y116493D01*
X299973Y117214D01*
X297808D01*
X272450Y119379D02*
X275336D01*
Y118657D01*
X272450Y115771D01*
Y115050D01*
X276779D02*
Y119379D01*
X278944D01*
X279665Y118657D01*
Y117214D01*
X278944Y116493D01*
X276779D01*
X278222D02*
X279665Y115050D01*
X283273D02*
Y119379D01*
X281108Y117214D01*
X283994D01*
X256636Y119379D02*
X255193Y118657D01*
X253750Y117214D01*
Y115771D01*
X254471Y115050D01*
X255914D01*
X256636Y115771D01*
Y116493D01*
X255914Y117214D01*
X253750D01*
X258079Y115050D02*
Y119379D01*
X260244D01*
X260965Y118657D01*
Y117214D01*
X260244Y116493D01*
X258079D01*
X259522D02*
X260965Y115050D01*
X265294Y119379D02*
X263851Y118657D01*
X262408Y117214D01*
Y115771D01*
X263130Y115050D01*
X264573D01*
X265294Y115771D01*
Y116493D01*
X264573Y117214D01*
X262408D01*
X239936Y119379D02*
X238493Y118657D01*
X237050Y117214D01*
Y115771D01*
X237771Y115050D01*
X239214D01*
X239936Y115771D01*
Y116493D01*
X239214Y117214D01*
X237050D01*
X241379Y115050D02*
Y119379D01*
X243544D01*
X244265Y118657D01*
Y117214D01*
X243544Y116493D01*
X241379D01*
X242822D02*
X244265Y115050D01*
X247873D02*
Y119379D01*
X245708Y117214D01*
X248594D01*
X221236Y119379D02*
X218350D01*
Y117214D01*
X219793Y117936D01*
X220514D01*
X221236Y117214D01*
Y115771D01*
X220514Y115050D01*
X219071D01*
X218350Y115771D01*
X222679Y115050D02*
Y119379D01*
X224844D01*
X225565Y118657D01*
Y117214D01*
X224844Y116493D01*
X222679D01*
X224122D02*
X225565Y115050D01*
X229894Y119379D02*
X228451Y118657D01*
X227008Y117214D01*
Y115771D01*
X227730Y115050D01*
X229173D01*
X229894Y115771D01*
Y116493D01*
X229173Y117214D01*
X227008D01*
X204436Y119379D02*
X201550D01*
Y117214D01*
X202993Y117936D01*
X203714D01*
X204436Y117214D01*
Y115771D01*
X203714Y115050D01*
X202271D01*
X201550Y115771D01*
X205879Y115050D02*
Y119379D01*
X208044D01*
X208765Y118657D01*
Y117214D01*
X208044Y116493D01*
X205879D01*
X207322D02*
X208765Y115050D01*
X212373D02*
Y119379D01*
X210208Y117214D01*
X213094D01*
X185014Y115050D02*
Y119379D01*
X182850Y117214D01*
X185736D01*
X187179Y115050D02*
Y119379D01*
X189344D01*
X190065Y118657D01*
Y117214D01*
X189344Y116493D01*
X187179D01*
X188622D02*
X190065Y115050D01*
X194394Y119379D02*
X192951Y118657D01*
X191508Y117214D01*
Y115771D01*
X192230Y115050D01*
X193673D01*
X194394Y115771D01*
Y116493D01*
X193673Y117214D01*
X191508D01*
X168314Y115050D02*
Y119379D01*
X166150Y117214D01*
X169036D01*
X170479Y115050D02*
Y119379D01*
X172644D01*
X173365Y118657D01*
Y117214D01*
X172644Y116493D01*
X170479D01*
X171922D02*
X173365Y115050D01*
X176973D02*
Y119379D01*
X174808Y117214D01*
X177694D01*
X147450Y118657D02*
X148171Y119379D01*
X149614D01*
X150336Y118657D01*
Y117936D01*
X149614Y117214D01*
X148893D01*
X149614D01*
X150336Y116493D01*
Y115771D01*
X149614Y115050D01*
X148171D01*
X147450Y115771D01*
X151779Y115050D02*
Y119379D01*
X153944D01*
X154665Y118657D01*
Y117214D01*
X153944Y116493D01*
X151779D01*
X153222D02*
X154665Y115050D01*
X158994Y119379D02*
X157551Y118657D01*
X156108Y117214D01*
Y115771D01*
X156830Y115050D01*
X158273D01*
X158994Y115771D01*
Y116493D01*
X158273Y117214D01*
X156108D01*
X130750Y118657D02*
X131471Y119379D01*
X132914D01*
X133636Y118657D01*
Y117936D01*
X132914Y117214D01*
X132193D01*
X132914D01*
X133636Y116493D01*
Y115771D01*
X132914Y115050D01*
X131471D01*
X130750Y115771D01*
X135079Y115050D02*
Y119379D01*
X137244D01*
X137965Y118657D01*
Y117214D01*
X137244Y116493D01*
X135079D01*
X136522D02*
X137965Y115050D01*
X141573D02*
Y119379D01*
X139408Y117214D01*
X142294D01*
X114936Y115050D02*
X112050D01*
X114936Y117936D01*
Y118657D01*
X114214Y119379D01*
X112771D01*
X112050Y118657D01*
X116379Y115050D02*
Y119379D01*
X118544D01*
X119265Y118657D01*
Y117214D01*
X118544Y116493D01*
X116379D01*
X117822D02*
X119265Y115050D01*
X123594Y119379D02*
X122151Y118657D01*
X120708Y117214D01*
Y115771D01*
X121430Y115050D01*
X122873D01*
X123594Y115771D01*
Y116493D01*
X122873Y117214D01*
X120708D01*
X98136Y115050D02*
X95250D01*
X98136Y117936D01*
Y118657D01*
X97414Y119379D01*
X95971D01*
X95250Y118657D01*
X99579Y115050D02*
Y119379D01*
X101744D01*
X102465Y118657D01*
Y117214D01*
X101744Y116493D01*
X99579D01*
X101022D02*
X102465Y115050D01*
X106073D02*
Y119379D01*
X103908Y117214D01*
X106794D01*
X312008Y130248D02*
X312861Y131101D01*
X314566D01*
X315419Y130248D01*
Y129395D01*
X314566Y128542D01*
X315419Y127690D01*
Y126837D01*
X314566Y125984D01*
X312861D01*
X312008Y126837D01*
Y127690D01*
X312861Y128542D01*
X312008Y129395D01*
Y130248D01*
X312861Y128542D02*
X314566D01*
X317124Y131101D02*
Y127690D01*
X318830Y125984D01*
X320535Y127690D01*
Y131101D01*
X322241D02*
X325652D01*
X323946D01*
Y125984D01*
X327357Y130248D02*
X328210Y131101D01*
X329915D01*
X330768Y130248D01*
Y129395D01*
X329915Y128542D01*
X329063D01*
X329915D01*
X330768Y127690D01*
Y126837D01*
X329915Y125984D01*
X328210D01*
X327357Y126837D01*
X276575Y131101D02*
X279986D01*
Y130248D01*
X276575Y126837D01*
Y125984D01*
X281691Y131101D02*
Y127690D01*
X283397Y125984D01*
X285102Y127690D01*
Y131101D01*
X286808D02*
X290219D01*
X288513D01*
Y125984D01*
X291924Y130248D02*
X292777Y131101D01*
X294482D01*
X295335Y130248D01*
Y129395D01*
X294482Y128542D01*
X293630D01*
X294482D01*
X295335Y127690D01*
Y126837D01*
X294482Y125984D01*
X292777D01*
X291924Y126837D01*
X244553Y131101D02*
X242847Y130248D01*
X241142Y128542D01*
Y126837D01*
X241995Y125984D01*
X243700D01*
X244553Y126837D01*
Y127690D01*
X243700Y128542D01*
X241142D01*
X246258Y131101D02*
Y127690D01*
X247964Y125984D01*
X249669Y127690D01*
Y131101D01*
X251375D02*
X254786D01*
X253080D01*
Y125984D01*
X256491Y130248D02*
X257344Y131101D01*
X259049D01*
X259902Y130248D01*
Y129395D01*
X259049Y128542D01*
X258197D01*
X259049D01*
X259902Y127690D01*
Y126837D01*
X259049Y125984D01*
X257344D01*
X256491Y126837D01*
X209120Y131101D02*
X205709D01*
Y128542D01*
X207414Y129395D01*
X208267D01*
X209120Y128542D01*
Y126837D01*
X208267Y125984D01*
X206561D01*
X205709Y126837D01*
X210825Y131101D02*
Y127690D01*
X212531Y125984D01*
X214236Y127690D01*
Y131101D01*
X215942D02*
X219353D01*
X217647D01*
Y125984D01*
X221058Y130248D02*
X221911Y131101D01*
X223616D01*
X224469Y130248D01*
Y129395D01*
X223616Y128542D01*
X222763D01*
X223616D01*
X224469Y127690D01*
Y126837D01*
X223616Y125984D01*
X221911D01*
X221058Y126837D01*
X172834Y125984D02*
Y131101D01*
X170276Y128542D01*
X173687D01*
X175392Y131101D02*
Y127690D01*
X177097Y125984D01*
X178803Y127690D01*
Y131101D01*
X180508D02*
X183920D01*
X182214D01*
Y125984D01*
X185625Y130248D02*
X186478Y131101D01*
X188183D01*
X189036Y130248D01*
Y129395D01*
X188183Y128542D01*
X187330D01*
X188183D01*
X189036Y127690D01*
Y126837D01*
X188183Y125984D01*
X186478D01*
X185625Y126837D01*
X134843Y130248D02*
X135695Y131101D01*
X137401D01*
X138253Y130248D01*
Y129395D01*
X137401Y128542D01*
X136548D01*
X137401D01*
X138253Y127690D01*
Y126837D01*
X137401Y125984D01*
X135695D01*
X134843Y126837D01*
X139959Y131101D02*
Y127690D01*
X141665Y125984D01*
X143370Y127690D01*
Y131101D01*
X145075D02*
X148486D01*
X146781D01*
Y125984D01*
X150192Y130248D02*
X151045Y131101D01*
X152750D01*
X153603Y130248D01*
Y129395D01*
X152750Y128542D01*
X151897D01*
X152750D01*
X153603Y127690D01*
Y126837D01*
X152750Y125984D01*
X151045D01*
X150192Y126837D01*
X102820Y125984D02*
X99410D01*
X102820Y129395D01*
Y130248D01*
X101968Y131101D01*
X100262D01*
X99410Y130248D01*
X104526Y131101D02*
Y127690D01*
X106231Y125984D01*
X107937Y127690D01*
Y131101D01*
X109642D02*
X113053D01*
X111348D01*
Y125984D01*
X114759Y130248D02*
X115612Y131101D01*
X117317D01*
X118170Y130248D01*
Y129395D01*
X117317Y128542D01*
X116464D01*
X117317D01*
X118170Y127690D01*
Y126837D01*
X117317Y125984D01*
X115612D01*
X114759Y126837D01*
X63976Y125984D02*
X65682D01*
X64829D01*
Y131101D01*
X63976Y130248D01*
X68240Y131101D02*
Y127690D01*
X69946Y125984D01*
X71651Y127690D01*
Y131101D01*
X73357D02*
X76767D01*
X75062D01*
Y125984D01*
X78473Y130248D02*
X79326Y131101D01*
X81031D01*
X81884Y130248D01*
Y129395D01*
X81031Y128542D01*
X80178D01*
X81031D01*
X81884Y127690D01*
Y126837D01*
X81031Y125984D01*
X79326D01*
X78473Y126837D01*
X42586Y81693D02*
X44291D01*
X43439D01*
Y86809D01*
X42586Y85957D01*
X46850Y81693D02*
Y86809D01*
X49408D01*
X50261Y85957D01*
Y84251D01*
X49408Y83398D01*
X46850D01*
X48555D02*
X50261Y81693D01*
X55377D02*
X51966D01*
X55377Y85104D01*
Y85957D01*
X54524Y86809D01*
X52819D01*
X51966Y85957D01*
X76550Y115050D02*
X77993D01*
X77271D01*
Y119379D01*
X76550Y118657D01*
X80157Y115050D02*
Y119379D01*
X82322D01*
X83044Y118657D01*
Y117214D01*
X82322Y116493D01*
X80157D01*
X81600D02*
X83044Y115050D01*
X87373Y119379D02*
X85930Y118657D01*
X84487Y117214D01*
Y115771D01*
X85208Y115050D01*
X86651D01*
X87373Y115771D01*
Y116493D01*
X86651Y117214D01*
X84487D01*
X39175Y93504D02*
X40880D01*
X40028D01*
Y98620D01*
X39175Y97768D01*
X43439Y98620D02*
Y95209D01*
X45144Y93504D01*
X46850Y95209D01*
Y98620D01*
X48555D02*
X51966D01*
X50261D01*
Y93504D01*
X53671D02*
X55377D01*
X54524D01*
Y98620D01*
X53671Y97768D01*
X282480Y187335D02*
X283333Y188187D01*
X285038D01*
X285891Y187335D01*
Y186482D01*
X285038Y185629D01*
X285891Y184776D01*
Y183924D01*
X285038Y183071D01*
X283333D01*
X282480Y183924D01*
Y184776D01*
X283333Y185629D01*
X282480Y186482D01*
Y187335D01*
X283333Y185629D02*
X285038D01*
X287597Y188187D02*
Y184776D01*
X289302Y183071D01*
X291008Y184776D01*
Y188187D01*
X292713D02*
Y183071D01*
X295271D01*
X296124Y183924D01*
Y187335D01*
X295271Y188187D01*
X292713D01*
X297830Y187335D02*
X298682Y188187D01*
X300388D01*
X301241Y187335D01*
Y186482D01*
X300388Y185629D01*
X299535D01*
X300388D01*
X301241Y184776D01*
Y183924D01*
X300388Y183071D01*
X298682D01*
X297830Y183924D01*
X255343Y188187D02*
X258754D01*
Y187335D01*
X255343Y183924D01*
Y183071D01*
X260459Y188187D02*
Y184776D01*
X262165Y183071D01*
X263871Y184776D01*
Y188187D01*
X265576D02*
Y183071D01*
X268134D01*
X268987Y183924D01*
Y187335D01*
X268134Y188187D01*
X265576D01*
X270692Y187335D02*
X271545Y188187D01*
X273251D01*
X274103Y187335D01*
Y186482D01*
X273251Y185629D01*
X272398D01*
X273251D01*
X274103Y184776D01*
Y183924D01*
X273251Y183071D01*
X271545D01*
X270692Y183924D01*
X231617Y188187D02*
X229911Y187335D01*
X228206Y185629D01*
Y183924D01*
X229059Y183071D01*
X230764D01*
X231617Y183924D01*
Y184776D01*
X230764Y185629D01*
X228206D01*
X233322Y188187D02*
Y184776D01*
X235028Y183071D01*
X236733Y184776D01*
Y188187D01*
X238439D02*
Y183071D01*
X240997D01*
X241850Y183924D01*
Y187335D01*
X240997Y188187D01*
X238439D01*
X243555Y187335D02*
X244408Y188187D01*
X246113D01*
X246966Y187335D01*
Y186482D01*
X246113Y185629D01*
X245261D01*
X246113D01*
X246966Y184776D01*
Y183924D01*
X246113Y183071D01*
X244408D01*
X243555Y183924D01*
X204480Y188187D02*
X201069D01*
Y185629D01*
X202774Y186482D01*
X203627D01*
X204480Y185629D01*
Y183924D01*
X203627Y183071D01*
X201921D01*
X201069Y183924D01*
X206185Y188187D02*
Y184776D01*
X207891Y183071D01*
X209596Y184776D01*
Y188187D01*
X211301D02*
Y183071D01*
X213860D01*
X214713Y183924D01*
Y187335D01*
X213860Y188187D01*
X211301D01*
X216418Y187335D02*
X217271Y188187D01*
X218976D01*
X219829Y187335D01*
Y186482D01*
X218976Y185629D01*
X218124D01*
X218976D01*
X219829Y184776D01*
Y183924D01*
X218976Y183071D01*
X217271D01*
X216418Y183924D01*
X176490Y183071D02*
Y188187D01*
X173931Y185629D01*
X177342D01*
X179048Y188187D02*
Y184776D01*
X180753Y183071D01*
X182459Y184776D01*
Y188187D01*
X184164D02*
Y183071D01*
X186723D01*
X187575Y183924D01*
Y187335D01*
X186723Y188187D01*
X184164D01*
X189281Y187335D02*
X190134Y188187D01*
X191839D01*
X192692Y187335D01*
Y186482D01*
X191839Y185629D01*
X190986D01*
X191839D01*
X192692Y184776D01*
Y183924D01*
X191839Y183071D01*
X190134D01*
X189281Y183924D01*
X146794Y187335D02*
X147647Y188187D01*
X149352D01*
X150205Y187335D01*
Y186482D01*
X149352Y185629D01*
X148500D01*
X149352D01*
X150205Y184776D01*
Y183924D01*
X149352Y183071D01*
X147647D01*
X146794Y183924D01*
X151911Y188187D02*
Y184776D01*
X153616Y183071D01*
X155322Y184776D01*
Y188187D01*
X157027D02*
Y183071D01*
X159585D01*
X160438Y183924D01*
Y187335D01*
X159585Y188187D01*
X157027D01*
X162144Y187335D02*
X162996Y188187D01*
X164702D01*
X165554Y187335D01*
Y186482D01*
X164702Y185629D01*
X163849D01*
X164702D01*
X165554Y184776D01*
Y183924D01*
X164702Y183071D01*
X162996D01*
X162144Y183924D01*
X123068Y183071D02*
X119657D01*
X123068Y186482D01*
Y187335D01*
X122215Y188187D01*
X120510D01*
X119657Y187335D01*
X124773Y188187D02*
Y184776D01*
X126479Y183071D01*
X128184Y184776D01*
Y188187D01*
X129890D02*
Y183071D01*
X132448D01*
X133301Y183924D01*
Y187335D01*
X132448Y188187D01*
X129890D01*
X135006Y187335D02*
X135859Y188187D01*
X137565D01*
X138417Y187335D01*
Y186482D01*
X137565Y185629D01*
X136712D01*
X137565D01*
X138417Y184776D01*
Y183924D01*
X137565Y183071D01*
X135859D01*
X135006Y183924D01*
X92520Y183071D02*
X94225D01*
X93372D01*
Y188187D01*
X92520Y187335D01*
X96783Y188187D02*
Y184776D01*
X98489Y183071D01*
X100194Y184776D01*
Y188187D01*
X101900D02*
Y183071D01*
X104458D01*
X105311Y183924D01*
Y187335D01*
X104458Y188187D01*
X101900D01*
X107016Y187335D02*
X107869Y188187D01*
X109574D01*
X110427Y187335D01*
Y186482D01*
X109574Y185629D01*
X108722D01*
X109574D01*
X110427Y184776D01*
Y183924D01*
X109574Y183071D01*
X107869D01*
X107016Y183924D01*
X308071Y218831D02*
X308924Y219683D01*
X310629D01*
X311482Y218831D01*
Y217978D01*
X310629Y217125D01*
X311482Y216272D01*
Y215420D01*
X310629Y214567D01*
X308924D01*
X308071Y215420D01*
Y216272D01*
X308924Y217125D01*
X308071Y217978D01*
Y218831D01*
X308924Y217125D02*
X310629D01*
X313187Y219683D02*
Y216272D01*
X314893Y214567D01*
X316598Y216272D01*
Y219683D01*
X318304D02*
Y214567D01*
X320862D01*
X321715Y215420D01*
Y218831D01*
X320862Y219683D01*
X318304D01*
X326831Y214567D02*
X323420D01*
X326831Y217978D01*
Y218831D01*
X325978Y219683D01*
X324273D01*
X323420Y218831D01*
X67913Y213583D02*
X69619D01*
X68766D01*
Y218699D01*
X67913Y217846D01*
X72177Y218699D02*
Y215288D01*
X73883Y213583D01*
X75588Y215288D01*
Y218699D01*
X77294D02*
Y213583D01*
X79852D01*
X80704Y214435D01*
Y217846D01*
X79852Y218699D01*
X77294D01*
X85821Y213583D02*
X82410D01*
X85821Y216994D01*
Y217846D01*
X84968Y218699D01*
X83263D01*
X82410Y217846D01*
X301182Y147638D02*
X300395Y148425D01*
Y149999D01*
X301182Y150786D01*
X301970D01*
X302757Y149999D01*
X303544Y150786D01*
X304331D01*
X305118Y149999D01*
Y148425D01*
X304331Y147638D01*
X303544D01*
X302757Y148425D01*
X301970Y147638D01*
X301182D01*
X302757Y148425D02*
Y149999D01*
X300395Y152361D02*
X303544D01*
X305118Y153935D01*
X303544Y155509D01*
X300395D01*
Y157084D02*
X305118D01*
Y159445D01*
X304331Y160232D01*
X301182D01*
X300395Y159445D01*
Y157084D01*
X305118Y161806D02*
Y163381D01*
Y162594D01*
X300395D01*
X301182Y161806D01*
X264962Y147638D02*
Y150786D01*
X265749D01*
X268898Y147638D01*
X269685D01*
X264962Y152361D02*
X268111D01*
X269685Y153935D01*
X268111Y155509D01*
X264962D01*
Y157084D02*
X269685D01*
Y159445D01*
X268898Y160232D01*
X265749D01*
X264962Y159445D01*
Y157084D01*
X269685Y161806D02*
Y163381D01*
Y162594D01*
X264962D01*
X265749Y161806D01*
X230513Y150786D02*
X231300Y149212D01*
X232875Y147638D01*
X234449D01*
X235236Y148425D01*
Y149999D01*
X234449Y150786D01*
X233662D01*
X232875Y149999D01*
Y147638D01*
X230513Y152361D02*
X233662D01*
X235236Y153935D01*
X233662Y155509D01*
X230513D01*
Y157084D02*
X235236D01*
Y159445D01*
X234449Y160232D01*
X231300D01*
X230513Y159445D01*
Y157084D01*
X235236Y161806D02*
Y163381D01*
Y162594D01*
X230513D01*
X231300Y161806D01*
X194096Y150786D02*
Y147638D01*
X196458D01*
X195670Y149212D01*
Y149999D01*
X196458Y150786D01*
X198032D01*
X198819Y149999D01*
Y148425D01*
X198032Y147638D01*
X194096Y152361D02*
X197245D01*
X198819Y153935D01*
X197245Y155509D01*
X194096D01*
Y157084D02*
X198819D01*
Y159445D01*
X198032Y160232D01*
X194883D01*
X194096Y159445D01*
Y157084D01*
X198819Y161806D02*
Y163381D01*
Y162594D01*
X194096D01*
X194883Y161806D01*
X163386Y149999D02*
X158663D01*
X161024Y147638D01*
Y150786D01*
X158663Y152361D02*
X161811D01*
X163386Y153935D01*
X161811Y155509D01*
X158663D01*
Y157084D02*
X163386D01*
Y159445D01*
X162599Y160232D01*
X159450D01*
X158663Y159445D01*
Y157084D01*
X163386Y161806D02*
Y163381D01*
Y162594D01*
X158663D01*
X159450Y161806D01*
X124017Y147638D02*
X123230Y148425D01*
Y149999D01*
X124017Y150786D01*
X124804D01*
X125591Y149999D01*
Y149212D01*
Y149999D01*
X126379Y150786D01*
X127166D01*
X127953Y149999D01*
Y148425D01*
X127166Y147638D01*
X123230Y152361D02*
X126379D01*
X127953Y153935D01*
X126379Y155509D01*
X123230D01*
Y157084D02*
X127953D01*
Y159445D01*
X127166Y160232D01*
X124017D01*
X123230Y159445D01*
Y157084D01*
X127953Y161806D02*
Y163381D01*
Y162594D01*
X123230D01*
X124017Y161806D01*
X92520Y150786D02*
Y147638D01*
X89371Y150786D01*
X88584D01*
X87797Y149999D01*
Y148425D01*
X88584Y147638D01*
X87797Y152361D02*
X90945D01*
X92520Y153935D01*
X90945Y155509D01*
X87797D01*
Y157084D02*
X92520D01*
Y159445D01*
X91733Y160232D01*
X88584D01*
X87797Y159445D01*
Y157084D01*
X92520Y161806D02*
Y163381D01*
Y162594D01*
X87797D01*
X88584Y161806D01*
X57087Y147638D02*
Y149212D01*
Y148425D01*
X52364D01*
X53151Y147638D01*
X52364Y151574D02*
X55512D01*
X57087Y153148D01*
X55512Y154722D01*
X52364D01*
Y156296D02*
X57087D01*
Y158658D01*
X56300Y159445D01*
X53151D01*
X52364Y158658D01*
Y156296D01*
X57087Y161019D02*
Y162594D01*
Y161806D01*
X52364D01*
X53151Y161019D01*
X59850Y115050D02*
X61293D01*
X60571D01*
Y119379D01*
X59850Y118657D01*
X63457Y115050D02*
Y119379D01*
X65622D01*
X66344Y118657D01*
Y117214D01*
X65622Y116493D01*
X63457D01*
X64900D02*
X66344Y115050D01*
X69951D02*
Y119379D01*
X67787Y117214D01*
X70673D01*
X44291Y72835D02*
X45997D01*
X45144D01*
Y77951D01*
X44291Y77098D01*
X48555Y72835D02*
Y77951D01*
X51113D01*
X51966Y77098D01*
Y75393D01*
X51113Y74540D01*
X48555D01*
X50261D02*
X51966Y72835D01*
X53671D02*
X55377D01*
X54524D01*
Y77951D01*
X53671Y77098D01*
X80709Y191929D02*
Y193635D01*
Y192782D01*
X75592D01*
X76445Y191929D01*
X80709Y196193D02*
X75592D01*
Y198751D01*
X76445Y199604D01*
X78150D01*
X79003Y198751D01*
Y196193D01*
Y197898D02*
X80709Y199604D01*
X75592Y201309D02*
Y204720D01*
X76445D01*
X79856Y201309D01*
X80709D01*
X38386Y213778D02*
Y210367D01*
X40091Y208661D01*
X41797Y210367D01*
Y213778D01*
X43502D02*
Y208661D01*
X46060D01*
X46913Y209514D01*
Y212925D01*
X46060Y213778D01*
X43502D01*
X52030Y208661D02*
X48619D01*
X52030Y212072D01*
Y212925D01*
X51177Y213778D01*
X49472D01*
X48619Y212925D01*
X54134Y184055D02*
Y189172D01*
X56692D01*
X57545Y188319D01*
Y186613D01*
X56692Y185761D01*
X54134D01*
X55839D02*
X57545Y184055D01*
X62661D02*
X59250D01*
X62661Y187466D01*
Y188319D01*
X61809Y189172D01*
X60103D01*
X59250Y188319D01*
X9647Y153543D02*
X13058D01*
X14764Y155249D01*
X13058Y156954D01*
X9647D01*
Y158660D02*
Y162071D01*
Y160365D01*
X14764D01*
Y163776D02*
Y165482D01*
Y164629D01*
X9647D01*
X10500Y163776D01*
X17133Y116450D02*
X20544D01*
X22250Y118155D01*
X20544Y119861D01*
X17133D01*
Y121566D02*
X22250D01*
Y124124D01*
X21397Y124977D01*
X17986D01*
X17133Y124124D01*
Y121566D01*
X22250Y126682D02*
Y128388D01*
Y127535D01*
X17133D01*
X17986Y126682D01*
X13850Y122350D02*
X8733D01*
Y124908D01*
X9586Y125761D01*
X11291D01*
X12144Y124908D01*
Y122350D01*
Y124055D02*
X13850Y125761D01*
Y127466D02*
Y129172D01*
Y128319D01*
X8733D01*
X9586Y127466D01*
X70866Y65156D02*
X74277Y60039D01*
Y65156D02*
X70866Y60039D01*
X75983D02*
X77688D01*
X76835D01*
Y65156D01*
X75983Y64303D01*
X58071Y244290D02*
X61482Y239173D01*
Y244290D02*
X58071Y239173D01*
X63187Y243437D02*
X64040Y244290D01*
X65746D01*
X66598Y243437D01*
Y242584D01*
X65746Y241732D01*
X64893D01*
X65746D01*
X66598Y240879D01*
Y240026D01*
X65746Y239173D01*
X64040D01*
X63187Y240026D01*
X79529Y230315D02*
X84646Y233726D01*
X79529D02*
X84646Y230315D01*
Y238842D02*
Y235431D01*
X81235Y238842D01*
X80382D01*
X79529Y237990D01*
Y236284D01*
X80382Y235431D01*
X91340Y277559D02*
X96457D01*
X94751D01*
X91340Y280970D01*
X93898Y278412D01*
X96457Y280970D01*
Y282676D02*
Y284381D01*
Y283528D01*
X91340D01*
X92193Y282676D01*
X93898Y286939D02*
Y290350D01*
X92193Y288645D02*
X95604D01*
X105120Y277559D02*
X110236D01*
X108531D01*
X105120Y280970D01*
X107678Y278412D01*
X110236Y280970D01*
Y282676D02*
Y284381D01*
Y283528D01*
X105120D01*
X105973Y282676D01*
X107678Y286939D02*
Y290350D01*
X132679Y277559D02*
X137795D01*
X136090D01*
X132679Y280970D01*
X135237Y278412D01*
X137795Y280970D01*
Y286087D02*
Y282676D01*
X134384Y286087D01*
X133532D01*
X132679Y285234D01*
Y283528D01*
X133532Y282676D01*
X135237Y287792D02*
Y291203D01*
X118899Y277559D02*
X124016D01*
X122310D01*
X118899Y280970D01*
X121458Y278412D01*
X124016Y280970D01*
Y286087D02*
Y282676D01*
X120605Y286087D01*
X119752D01*
X118899Y285234D01*
Y283528D01*
X119752Y282676D01*
X121458Y287792D02*
Y291203D01*
X119752Y289497D02*
X123163D01*
X160238Y277559D02*
X165354D01*
X163649D01*
X160238Y280970D01*
X162796Y278412D01*
X165354Y280970D01*
X161091Y282676D02*
X160238Y283528D01*
Y285234D01*
X161091Y286087D01*
X161943D01*
X162796Y285234D01*
Y284381D01*
Y285234D01*
X163649Y286087D01*
X164502D01*
X165354Y285234D01*
Y283528D01*
X164502Y282676D01*
X162796Y287792D02*
Y291203D01*
X146458Y277559D02*
X151575D01*
X149869D01*
X146458Y280970D01*
X149017Y278412D01*
X151575Y280970D01*
X147311Y282676D02*
X146458Y283528D01*
Y285234D01*
X147311Y286087D01*
X148164D01*
X149017Y285234D01*
Y284381D01*
Y285234D01*
X149869Y286087D01*
X150722D01*
X151575Y285234D01*
Y283528D01*
X150722Y282676D01*
X149017Y287792D02*
Y291203D01*
X147311Y289497D02*
X150722D01*
X187797Y277559D02*
X192913D01*
X191208D01*
X187797Y280970D01*
X190355Y278412D01*
X192913Y280970D01*
Y285234D02*
X187797D01*
X190355Y282676D01*
Y286087D01*
Y287792D02*
Y291203D01*
X174017Y277559D02*
X179134D01*
X177428D01*
X174017Y280970D01*
X176576Y278412D01*
X179134Y280970D01*
Y285234D02*
X174017D01*
X176576Y282676D01*
Y286087D01*
Y287792D02*
Y291203D01*
X174870Y289497D02*
X178281D01*
X215356Y277559D02*
X220472D01*
X218767D01*
X215356Y280970D01*
X217914Y278412D01*
X220472Y280970D01*
X215356Y286087D02*
Y282676D01*
X217914D01*
X217061Y284381D01*
Y285234D01*
X217914Y286087D01*
X219620D01*
X220472Y285234D01*
Y283528D01*
X219620Y282676D01*
X217914Y287792D02*
Y291203D01*
X201576Y277559D02*
X206693D01*
X204987D01*
X201576Y280970D01*
X204135Y278412D01*
X206693Y280970D01*
X201576Y286087D02*
Y282676D01*
X204135D01*
X203282Y284381D01*
Y285234D01*
X204135Y286087D01*
X205840D01*
X206693Y285234D01*
Y283528D01*
X205840Y282676D01*
X204135Y287792D02*
Y291203D01*
X202429Y289497D02*
X205840D01*
X242915Y277559D02*
X248031D01*
X246326D01*
X242915Y280970D01*
X245473Y278412D01*
X248031Y280970D01*
X242915Y286087D02*
X243768Y284381D01*
X245473Y282676D01*
X247179D01*
X248031Y283528D01*
Y285234D01*
X247179Y286087D01*
X246326D01*
X245473Y285234D01*
Y282676D01*
Y287792D02*
Y291203D01*
X229135Y277559D02*
X234252D01*
X232546D01*
X229135Y280970D01*
X231694Y278412D01*
X234252Y280970D01*
X229135Y286087D02*
X229988Y284381D01*
X231694Y282676D01*
X233399D01*
X234252Y283528D01*
Y285234D01*
X233399Y286087D01*
X232546D01*
X231694Y285234D01*
Y282676D01*
Y287792D02*
Y291203D01*
X229988Y289497D02*
X233399D01*
X270474Y277559D02*
X275590D01*
X273885D01*
X270474Y280970D01*
X273032Y278412D01*
X275590Y280970D01*
X270474Y282676D02*
Y286087D01*
X271327D01*
X274738Y282676D01*
X275590D01*
X273032Y287792D02*
Y291203D01*
X256695Y277559D02*
X261811D01*
X260105D01*
X256695Y280970D01*
X259253Y278412D01*
X261811Y280970D01*
X256695Y282676D02*
Y286087D01*
X257547D01*
X260958Y282676D01*
X261811D01*
X259253Y287792D02*
Y291203D01*
X257547Y289497D02*
X260958D01*
X298033Y277559D02*
X303150D01*
X301444D01*
X298033Y280970D01*
X300591Y278412D01*
X303150Y280970D01*
X298886Y282676D02*
X298033Y283528D01*
Y285234D01*
X298886Y286087D01*
X299739D01*
X300591Y285234D01*
X301444Y286087D01*
X302297D01*
X303150Y285234D01*
Y283528D01*
X302297Y282676D01*
X301444D01*
X300591Y283528D01*
X299739Y282676D01*
X298886D01*
X300591Y283528D02*
Y285234D01*
Y287792D02*
Y291203D01*
X284254Y277559D02*
X289370D01*
X287665D01*
X284254Y280970D01*
X286812Y278412D01*
X289370Y280970D01*
X285106Y282676D02*
X284254Y283528D01*
Y285234D01*
X285106Y286087D01*
X285959D01*
X286812Y285234D01*
X287665Y286087D01*
X288517D01*
X289370Y285234D01*
Y283528D01*
X288517Y282676D01*
X287665D01*
X286812Y283528D01*
X285959Y282676D01*
X285106D01*
X286812Y283528D02*
Y285234D01*
Y287792D02*
Y291203D01*
X285106Y289497D02*
X288517D01*
X284254Y2953D02*
X289370D01*
X287665D01*
X284254Y6364D01*
X286812Y3805D01*
X289370Y6364D01*
X285106Y8069D02*
X284254Y8922D01*
Y10627D01*
X285106Y11480D01*
X285959D01*
X286812Y10627D01*
X287665Y11480D01*
X288517D01*
X289370Y10627D01*
Y8922D01*
X288517Y8069D01*
X287665D01*
X286812Y8922D01*
X285959Y8069D01*
X285106D01*
X286812Y8922D02*
Y10627D01*
Y13186D02*
Y16597D01*
X285106Y14891D02*
X288517D01*
X298033Y2953D02*
X303150D01*
X301444D01*
X298033Y6364D01*
X300591Y3805D01*
X303150Y6364D01*
X298886Y8069D02*
X298033Y8922D01*
Y10627D01*
X298886Y11480D01*
X299739D01*
X300591Y10627D01*
X301444Y11480D01*
X302297D01*
X303150Y10627D01*
Y8922D01*
X302297Y8069D01*
X301444D01*
X300591Y8922D01*
X299739Y8069D01*
X298886D01*
X300591Y8922D02*
Y10627D01*
Y13186D02*
Y16597D01*
X256695Y2953D02*
X261811D01*
X260105D01*
X256695Y6364D01*
X259253Y3805D01*
X261811Y6364D01*
X256695Y8069D02*
Y11480D01*
X257547D01*
X260958Y8069D01*
X261811D01*
X259253Y13186D02*
Y16597D01*
X257547Y14891D02*
X260958D01*
X270474Y2953D02*
X275590D01*
X273885D01*
X270474Y6364D01*
X273032Y3805D01*
X275590Y6364D01*
X270474Y8069D02*
Y11480D01*
X271327D01*
X274738Y8069D01*
X275590D01*
X273032Y13186D02*
Y16597D01*
X229135Y2953D02*
X234252D01*
X232546D01*
X229135Y6364D01*
X231694Y3805D01*
X234252Y6364D01*
X229135Y11480D02*
X229988Y9775D01*
X231694Y8069D01*
X233399D01*
X234252Y8922D01*
Y10627D01*
X233399Y11480D01*
X232546D01*
X231694Y10627D01*
Y8069D01*
Y13186D02*
Y16597D01*
X229988Y14891D02*
X233399D01*
X242915Y2953D02*
X248031D01*
X246326D01*
X242915Y6364D01*
X245473Y3805D01*
X248031Y6364D01*
X242915Y11480D02*
X243768Y9775D01*
X245473Y8069D01*
X247179D01*
X248031Y8922D01*
Y10627D01*
X247179Y11480D01*
X246326D01*
X245473Y10627D01*
Y8069D01*
Y13186D02*
Y16597D01*
X201576Y2953D02*
X206693D01*
X204987D01*
X201576Y6364D01*
X204135Y3805D01*
X206693Y6364D01*
X201576Y11480D02*
Y8069D01*
X204135D01*
X203282Y9775D01*
Y10627D01*
X204135Y11480D01*
X205840D01*
X206693Y10627D01*
Y8922D01*
X205840Y8069D01*
X204135Y13186D02*
Y16597D01*
X202429Y14891D02*
X205840D01*
X215356Y2953D02*
X220472D01*
X218767D01*
X215356Y6364D01*
X217914Y3805D01*
X220472Y6364D01*
X215356Y11480D02*
Y8069D01*
X217914D01*
X217061Y9775D01*
Y10627D01*
X217914Y11480D01*
X219620D01*
X220472Y10627D01*
Y8922D01*
X219620Y8069D01*
X217914Y13186D02*
Y16597D01*
X174017Y2953D02*
X179134D01*
X177428D01*
X174017Y6364D01*
X176576Y3805D01*
X179134Y6364D01*
Y10627D02*
X174017D01*
X176576Y8069D01*
Y11480D01*
Y13186D02*
Y16597D01*
X174870Y14891D02*
X178281D01*
X187797Y2953D02*
X192913D01*
X191208D01*
X187797Y6364D01*
X190355Y3805D01*
X192913Y6364D01*
Y10627D02*
X187797D01*
X190355Y8069D01*
Y11480D01*
Y13186D02*
Y16597D01*
X146458Y2953D02*
X151575D01*
X149869D01*
X146458Y6364D01*
X149017Y3805D01*
X151575Y6364D01*
X147311Y8069D02*
X146458Y8922D01*
Y10627D01*
X147311Y11480D01*
X148164D01*
X149017Y10627D01*
Y9775D01*
Y10627D01*
X149869Y11480D01*
X150722D01*
X151575Y10627D01*
Y8922D01*
X150722Y8069D01*
X149017Y13186D02*
Y16597D01*
X147311Y14891D02*
X150722D01*
X160238Y2953D02*
X165354D01*
X163649D01*
X160238Y6364D01*
X162796Y3805D01*
X165354Y6364D01*
X161091Y8069D02*
X160238Y8922D01*
Y10627D01*
X161091Y11480D01*
X161943D01*
X162796Y10627D01*
Y9775D01*
Y10627D01*
X163649Y11480D01*
X164502D01*
X165354Y10627D01*
Y8922D01*
X164502Y8069D01*
X162796Y13186D02*
Y16597D01*
X118899Y2953D02*
X124016D01*
X122310D01*
X118899Y6364D01*
X121458Y3805D01*
X124016Y6364D01*
Y11480D02*
Y8069D01*
X120605Y11480D01*
X119752D01*
X118899Y10627D01*
Y8922D01*
X119752Y8069D01*
X121458Y13186D02*
Y16597D01*
X119752Y14891D02*
X123163D01*
X132679Y2953D02*
X137795D01*
X136090D01*
X132679Y6364D01*
X135237Y3805D01*
X137795Y6364D01*
Y11480D02*
Y8069D01*
X134384Y11480D01*
X133532D01*
X132679Y10627D01*
Y8922D01*
X133532Y8069D01*
X135237Y13186D02*
Y16597D01*
X105120Y2953D02*
X110236D01*
X108531D01*
X105120Y6364D01*
X107678Y3805D01*
X110236Y6364D01*
Y8069D02*
Y9775D01*
Y8922D01*
X105120D01*
X105973Y8069D01*
X107678Y12333D02*
Y15744D01*
X91340Y2953D02*
X96457D01*
X94751D01*
X91340Y6364D01*
X93898Y3805D01*
X96457Y6364D01*
Y8069D02*
Y9775D01*
Y8922D01*
X91340D01*
X92193Y8069D01*
X93898Y12333D02*
Y15744D01*
X92193Y14038D02*
X95604D01*
D11*
X286595Y192819D02*
G03*
X286595Y192819I-787J0D01*
G01*
X298115Y204549D02*
G03*
X288499Y204549I-4808J-5730D01*
G01*
Y193089D02*
G03*
X298115Y193089I4808J5730D01*
G01*
X259035Y192819D02*
G03*
X259035Y192819I-787J0D01*
G01*
X270556Y204549D02*
G03*
X260940Y204549I-4808J-5730D01*
G01*
Y193089D02*
G03*
X270556Y193089I4808J5730D01*
G01*
X231476Y192819D02*
G03*
X231476Y192819I-787J0D01*
G01*
X242997Y204549D02*
G03*
X233381Y204549I-4808J-5730D01*
G01*
Y193089D02*
G03*
X242997Y193089I4808J5730D01*
G01*
X203917Y192819D02*
G03*
X203917Y192819I-787J0D01*
G01*
X215438Y204549D02*
G03*
X205822Y204549I-4808J-5730D01*
G01*
Y193089D02*
G03*
X215438Y193089I4808J5730D01*
G01*
X176358Y192819D02*
G03*
X176358Y192819I-787J0D01*
G01*
X187879Y204549D02*
G03*
X178263Y204549I-4808J-5730D01*
G01*
Y193089D02*
G03*
X187879Y193089I4808J5730D01*
G01*
X148799Y192819D02*
G03*
X148799Y192819I-787J0D01*
G01*
X160320Y204549D02*
G03*
X150704Y204549I-4808J-5730D01*
G01*
Y193089D02*
G03*
X160320Y193089I4808J5730D01*
G01*
X121240Y192819D02*
G03*
X121240Y192819I-787J0D01*
G01*
X132761Y204549D02*
G03*
X123144Y204549I-4808J-5730D01*
G01*
Y193089D02*
G03*
X132761Y193089I4808J5730D01*
G01*
X93681Y192819D02*
G03*
X93681Y192819I-787J0D01*
G01*
X105202Y204549D02*
G03*
X95586Y204549I-4808J-5730D01*
G01*
Y193089D02*
G03*
X105202Y193089I4808J5730D01*
G01*
X53563Y204819D02*
G03*
X53563Y204819I-787J0D01*
G01*
X40467Y193089D02*
G03*
X50084Y193089I4808J5730D01*
G01*
Y204549D02*
G03*
X40467Y204549I-4808J-5730D01*
G01*
X330118Y78051D02*
X331299D01*
X330118Y73524D02*
X331299D01*
X330118Y86910D02*
X331299D01*
X330118Y82382D02*
X331299D01*
X313386D02*
X314567D01*
X313386Y86910D02*
X314567D01*
X313386Y73524D02*
X314567D01*
X313386Y78051D02*
X314567D01*
X294685Y78051D02*
X295866D01*
X294685Y73524D02*
X295866D01*
X294685Y86910D02*
X295866D01*
X294685Y82382D02*
X295866D01*
X277953D02*
X279134D01*
X277953Y86910D02*
X279134D01*
X277953Y73524D02*
X279134D01*
X277953Y78051D02*
X279134D01*
X259252D02*
X260433D01*
X259252Y73524D02*
X260433D01*
X259252Y86910D02*
X260433D01*
X259252Y82382D02*
X260433D01*
X242520D02*
X243701D01*
X242520Y86910D02*
X243701D01*
X242520Y73524D02*
X243701D01*
X242520Y78051D02*
X243701D01*
X223819Y78051D02*
X225000D01*
X223819Y73524D02*
X225000D01*
X223819Y86910D02*
X225000D01*
X223819Y82382D02*
X225000D01*
X207087D02*
X208268D01*
X207087Y86910D02*
X208268D01*
X207087Y73524D02*
X208268D01*
X207087Y78051D02*
X208268D01*
X188386D02*
X189567D01*
X188386Y73524D02*
X189567D01*
X188386Y86910D02*
X189567D01*
X188386Y82382D02*
X189567D01*
X171653D02*
X172835D01*
X171653Y86910D02*
X172835D01*
X171654Y73524D02*
X172835D01*
X171654Y78051D02*
X172835D01*
X152953D02*
X154134D01*
X152953Y73524D02*
X154134D01*
X152953Y86910D02*
X154134D01*
X152953Y82382D02*
X154134D01*
X136221D02*
X137402D01*
X136221Y86910D02*
X137402D01*
X136221Y73524D02*
X137402D01*
X136221Y78051D02*
X137402D01*
X117520D02*
X118701D01*
X117520Y73524D02*
X118701D01*
X117520Y86910D02*
X118701D01*
X117520Y82382D02*
X118701D01*
X100787D02*
X101969D01*
X100787Y86910D02*
X101969D01*
X100787Y73524D02*
X101969D01*
X100787Y78051D02*
X101969D01*
X281791Y198228D02*
Y199409D01*
X277264Y198228D02*
Y199409D01*
X254232Y198228D02*
Y199409D01*
X249705Y198228D02*
Y199409D01*
X226673Y198228D02*
Y199409D01*
X222146Y198228D02*
Y199409D01*
X199114Y198228D02*
Y199409D01*
X194587Y198228D02*
Y199409D01*
X171555Y198228D02*
Y199409D01*
X167028Y198228D02*
Y199409D01*
X143996Y198228D02*
Y199409D01*
X139469Y198228D02*
Y199409D01*
X116437Y198228D02*
Y199409D01*
X111909Y198228D02*
Y199409D01*
X307874Y146063D02*
Y149409D01*
Y146063D02*
X333858D01*
Y149409D01*
X272441Y146063D02*
Y149409D01*
Y146063D02*
X298425D01*
Y149409D01*
X237008Y146063D02*
Y149409D01*
Y146063D02*
X262992D01*
Y149409D01*
X201575Y146063D02*
Y149409D01*
Y146063D02*
X227559D01*
Y149409D01*
X166142Y146063D02*
Y149409D01*
Y146063D02*
X192126D01*
Y149409D01*
X130709Y146063D02*
Y149409D01*
Y146063D02*
X156693D01*
Y149409D01*
X95276Y146063D02*
Y149409D01*
Y146063D02*
X121260D01*
Y149409D01*
X59842Y146063D02*
Y149409D01*
Y146063D02*
X85827D01*
Y149409D01*
X65354Y82382D02*
X66535D01*
X65354Y86910D02*
X66535D01*
X284252Y210630D02*
X302362D01*
X284252Y222441D02*
X302362D01*
Y210630D02*
Y211221D01*
X284252Y210630D02*
Y211221D01*
X302362Y221850D02*
Y222441D01*
X284252Y221850D02*
Y222441D01*
X256693Y210630D02*
X274803D01*
X256693Y222441D02*
X274803D01*
Y210630D02*
Y211221D01*
X256693Y210630D02*
Y211221D01*
X274803Y221850D02*
Y222441D01*
X256693Y221850D02*
Y222441D01*
X229134Y210630D02*
X247244D01*
X229134Y222441D02*
X247244D01*
Y210630D02*
Y211221D01*
X229134Y210630D02*
Y211221D01*
X247244Y221850D02*
Y222441D01*
X229134Y221850D02*
Y222441D01*
X201575Y210630D02*
X219685D01*
X201575Y222441D02*
X219685D01*
Y210630D02*
Y211221D01*
X201575Y210630D02*
Y211221D01*
X219685Y221850D02*
Y222441D01*
X201575Y221850D02*
Y222441D01*
X174016Y210630D02*
X192126D01*
X174016Y222441D02*
X192126D01*
Y210630D02*
Y211221D01*
X174016Y210630D02*
Y211221D01*
X192126Y221850D02*
Y222441D01*
X174016Y221850D02*
Y222441D01*
X146457Y210630D02*
X164567D01*
X146457Y222441D02*
X164567D01*
Y210630D02*
Y211221D01*
X146457Y210630D02*
Y211221D01*
X164567Y221850D02*
Y222441D01*
X146457Y221850D02*
Y222441D01*
X118898Y210630D02*
X137008D01*
X118898Y222441D02*
X137008D01*
Y210630D02*
Y211221D01*
X118898Y210630D02*
Y211221D01*
X137008Y221850D02*
Y222441D01*
X118898Y221850D02*
Y222441D01*
X91339Y210630D02*
X109449D01*
X91339Y222441D02*
X109449D01*
Y210630D02*
Y211221D01*
X91339Y210630D02*
Y211221D01*
X109449Y221850D02*
Y222441D01*
X91339Y221850D02*
Y222441D01*
X82087Y86910D02*
X83268D01*
X82087Y82382D02*
X83268D01*
X65354Y73524D02*
X66535D01*
X65354Y78051D02*
X66535D01*
X88878Y198228D02*
Y199409D01*
X84350Y198228D02*
Y199409D01*
X82087Y78051D02*
X83268D01*
X82087Y73524D02*
X83268D01*
X44685Y189272D02*
X45866D01*
X44685Y184744D02*
X45866D01*
X42520Y146063D02*
Y149409D01*
X16535Y146063D02*
X42520D01*
X16535D02*
Y149409D01*
X31299Y117520D02*
Y128543D01*
X25787Y117520D02*
Y128543D01*
X18406Y122441D02*
Y123622D01*
X22933Y122441D02*
Y123622D01*
X100394Y19685D02*
Y66732D01*
X114173Y19685D02*
Y66732D01*
X127953Y19685D02*
Y66732D01*
X141732Y19685D02*
Y66929D01*
X293307Y19685D02*
Y66929D01*
X279528Y19685D02*
Y66732D01*
X265748Y19685D02*
Y66929D01*
X251969Y19685D02*
Y66929D01*
X151575Y19685D02*
Y30315D01*
X145669D02*
X151575D01*
X145669Y19685D02*
Y30315D01*
X165354Y19685D02*
Y30315D01*
X159449D02*
X165354D01*
X159449Y19685D02*
Y30315D01*
X179134Y19685D02*
Y30315D01*
X173228D02*
X179134D01*
X173228Y19685D02*
Y30315D01*
X248031Y19685D02*
Y30315D01*
X242126D02*
X248031D01*
X242126Y19685D02*
Y30315D01*
X234252Y19685D02*
Y30315D01*
X228346D02*
X234252D01*
X228346Y19685D02*
Y30315D01*
X220472Y19685D02*
Y30315D01*
X214567D02*
X220472D01*
X214567Y19685D02*
Y30315D01*
X155512Y19685D02*
Y66929D01*
X169291Y19685D02*
Y66929D01*
X183071Y19685D02*
Y66929D01*
X206693Y19685D02*
Y30315D01*
X200787D02*
X206693D01*
X200787Y19685D02*
Y30315D01*
X187008Y19685D02*
Y30315D01*
X192913D01*
Y19685D02*
Y30315D01*
X86614Y66929D02*
X307087D01*
X86614Y19685D02*
X307087D01*
Y66929D01*
X80709Y19685D02*
X86614D01*
X80709D02*
Y66929D01*
X86614D01*
Y19685D02*
Y66929D01*
X196850Y19685D02*
Y66929D01*
X210630Y19685D02*
Y66929D01*
X224410Y19685D02*
Y66929D01*
X238189Y19685D02*
Y66929D01*
X255906Y19685D02*
Y30315D01*
X261811D01*
Y19685D02*
Y30315D01*
X269685Y19685D02*
Y30315D01*
X275590D01*
Y19685D02*
Y30315D01*
X283465Y19685D02*
Y30315D01*
X289370D01*
Y19685D02*
Y30315D01*
X297244Y19685D02*
Y30315D01*
X303150D01*
Y19685D02*
Y30315D01*
X131890Y19685D02*
Y30315D01*
X137795D01*
Y19685D02*
Y30315D01*
X118110Y19685D02*
Y30315D01*
X124016D01*
Y19685D02*
Y30315D01*
X104331Y19685D02*
Y30315D01*
X110236D01*
Y19685D02*
Y30315D01*
X90551Y19685D02*
Y30315D01*
X96457D01*
Y19685D02*
Y30315D01*
X42323Y246260D02*
X81693D01*
Y275394D01*
X42323Y246260D02*
Y275394D01*
Y250984D02*
X81693D01*
X47343Y270571D02*
Y275295D01*
Y270571D02*
X57185D01*
Y275295D01*
X76968Y270571D02*
Y275295D01*
X67126Y270571D02*
X76968D01*
X67126D02*
Y275295D01*
X293307Y228543D02*
Y275590D01*
X279528Y228543D02*
Y275590D01*
X265748Y228543D02*
Y275590D01*
X251969Y228346D02*
Y275590D01*
X100394Y228346D02*
Y275590D01*
X114173Y228543D02*
Y275590D01*
X127953Y228346D02*
Y275590D01*
X141732Y228346D02*
Y275590D01*
X242126Y264961D02*
Y275590D01*
Y264961D02*
X248031D01*
Y275590D01*
X228346Y264961D02*
Y275590D01*
Y264961D02*
X234252D01*
Y275590D01*
X214567Y264961D02*
Y275590D01*
Y264961D02*
X220472D01*
Y275590D01*
X145669Y264961D02*
Y275590D01*
Y264961D02*
X151575D01*
Y275590D01*
X159449Y264961D02*
Y275590D01*
Y264961D02*
X165354D01*
Y275590D01*
X173228Y264961D02*
Y275590D01*
Y264961D02*
X179134D01*
Y275590D01*
X238189Y228346D02*
Y275590D01*
X224410Y228346D02*
Y275590D01*
X210630Y228346D02*
Y275590D01*
X187008Y264961D02*
Y275590D01*
Y264961D02*
X192913D01*
Y275590D01*
X206693Y264961D02*
Y275590D01*
X200787Y264961D02*
X206693D01*
X200787D02*
Y275590D01*
X86614Y228346D02*
X307087D01*
X86614Y275590D02*
X307087D01*
X86614Y228346D02*
Y275590D01*
X307087D02*
X312992D01*
Y228346D02*
Y275590D01*
X307087Y228346D02*
X312992D01*
X307087D02*
Y275590D01*
X196850Y228346D02*
Y275590D01*
X183071Y228346D02*
Y275590D01*
X169291Y228346D02*
Y275590D01*
X155512Y228346D02*
Y275590D01*
X137795Y264961D02*
Y275590D01*
X131890Y264961D02*
X137795D01*
X131890D02*
Y275590D01*
X124016Y264961D02*
Y275590D01*
X118110Y264961D02*
X124016D01*
X118110D02*
Y275590D01*
X110236Y264961D02*
Y275590D01*
X104331Y264961D02*
X110236D01*
X104331D02*
Y275590D01*
X96457Y264961D02*
Y275590D01*
X90551Y264961D02*
X96457D01*
X90551D02*
Y275590D01*
X261811Y264961D02*
Y275590D01*
X255906Y264961D02*
X261811D01*
X255906D02*
Y275590D01*
X275590Y264961D02*
Y275590D01*
X269685Y264961D02*
X275590D01*
X269685D02*
Y275590D01*
X289370Y264961D02*
Y275590D01*
X283465Y264961D02*
X289370D01*
X283465D02*
Y275590D01*
X303150Y264961D02*
Y275590D01*
X297244Y264961D02*
X303150D01*
X297244D02*
Y275590D01*
X57874Y134252D02*
Y145276D01*
X52362Y134252D02*
Y145276D01*
X93307Y134252D02*
Y145276D01*
X87795Y134252D02*
Y145276D01*
X128740Y134252D02*
Y145276D01*
X123228Y134252D02*
Y145276D01*
X164173Y134252D02*
Y145276D01*
X158661Y134252D02*
Y145276D01*
X199606Y134252D02*
Y145276D01*
X194095Y134252D02*
Y145276D01*
X235039Y134252D02*
Y145276D01*
X229528Y134252D02*
Y145276D01*
X270472Y134252D02*
Y145276D01*
X264961Y134252D02*
Y145276D01*
X305906Y135236D02*
Y146260D01*
X300394Y135236D02*
Y146260D01*
X65354Y110531D02*
X66535D01*
X65354Y106004D02*
X66535D01*
X82087Y110531D02*
X83268D01*
X82087Y106004D02*
X83268D01*
X100787Y110531D02*
X101969D01*
X100787Y106004D02*
X101969D01*
X117520Y110531D02*
X118701D01*
X117520Y106004D02*
X118701D01*
X136221Y110531D02*
X137402D01*
X136221Y106004D02*
X137402D01*
X152953Y110531D02*
X154134D01*
X152953Y106004D02*
X154134D01*
X171653Y110531D02*
X172835D01*
X171653Y106004D02*
X172835D01*
X188386Y110531D02*
X189567D01*
X188386Y106004D02*
X189567D01*
X207087Y110531D02*
X208268D01*
X207087Y106004D02*
X208268D01*
X223819Y110531D02*
X225000D01*
X223819Y106004D02*
X225000D01*
X242520Y110531D02*
X243701D01*
X242520Y106004D02*
X243701D01*
X259252Y110531D02*
X260433D01*
X259252Y106004D02*
X260433D01*
X277953Y110531D02*
X279134D01*
X277953Y106004D02*
X279134D01*
X294685Y110531D02*
X295866D01*
X294685Y106004D02*
X295866D01*
X313386Y110531D02*
X314567D01*
X313386Y106004D02*
X314567D01*
X330118Y110531D02*
X331299D01*
X330118Y106004D02*
X331299D01*
X37598Y11842D02*
X38746Y12990D01*
X41042D01*
X42190Y11842D01*
Y10694D01*
X41042Y9546D01*
X39894D01*
X41042D01*
X42190Y8398D01*
Y7250D01*
X41042Y6102D01*
X38746D01*
X37598Y7250D01*
X44486Y12990D02*
X49078D01*
Y11842D01*
X44486Y7250D01*
Y6102D01*
X51373D02*
Y7250D01*
X52521D01*
Y6102D01*
X51373D01*
X57113D02*
X59409D01*
X58261D01*
Y12990D01*
X57113Y11842D01*
X67444Y12990D02*
X62853D01*
Y9546D01*
X65149Y10694D01*
X66296D01*
X67444Y9546D01*
Y7250D01*
X66296Y6102D01*
X64001D01*
X62853Y7250D01*
X43338Y24090D02*
X47930D01*
Y22942D01*
X43338Y18350D01*
Y17202D01*
X47930D01*
X50226Y24090D02*
Y19498D01*
X52521Y17202D01*
X54817Y19498D01*
Y24090D01*
X61705D02*
X57113D01*
Y17202D01*
X61705D01*
X57113Y20646D02*
X59409D01*
D12*
X26378Y115748D02*
G03*
X26378Y115748I-394J0D01*
G01*
X52953Y132480D02*
G03*
X52953Y132480I-394J0D01*
G01*
X88386D02*
G03*
X88386Y132480I-394J0D01*
G01*
X123819D02*
G03*
X123819Y132480I-394J0D01*
G01*
X159252D02*
G03*
X159252Y132480I-394J0D01*
G01*
X194685D02*
G03*
X194685Y132480I-394J0D01*
G01*
X230118D02*
G03*
X230118Y132480I-394J0D01*
G01*
X265551D02*
G03*
X265551Y132480I-394J0D01*
G01*
X300984Y133465D02*
G03*
X300984Y133465I-394J0D01*
G01*
X333465Y99213D02*
X336614D01*
Y97244D02*
Y99213D01*
X324803D02*
X327953D01*
X324803Y97244D02*
Y99213D01*
X316732D02*
X319882D01*
Y97244D02*
Y99213D01*
X308071D02*
X311221D01*
X308071Y97244D02*
Y99213D01*
X298031D02*
X301181D01*
Y97244D02*
Y99213D01*
X289370D02*
X292520D01*
X289370Y97244D02*
Y99213D01*
X281299D02*
X284449D01*
Y97244D02*
Y99213D01*
X272638D02*
X275787D01*
X272638Y97244D02*
Y99213D01*
X262598D02*
X265748D01*
Y97244D02*
Y99213D01*
X253937D02*
X257087D01*
X253937Y97244D02*
Y99213D01*
X245866D02*
X249016D01*
Y97244D02*
Y99213D01*
X237205D02*
X240354D01*
X237205Y97244D02*
Y99213D01*
X227165D02*
X230315D01*
Y97244D02*
Y99213D01*
X218504D02*
X221654D01*
X218504Y97244D02*
Y99213D01*
X210433D02*
X213583D01*
Y97244D02*
Y99213D01*
X201772D02*
X204921D01*
X201772Y97244D02*
Y99213D01*
X191732D02*
X194882D01*
Y97244D02*
Y99213D01*
X183071D02*
X186221D01*
X183071Y97244D02*
Y99213D01*
X175000D02*
X178150D01*
Y97244D02*
Y99213D01*
X166339D02*
X169488D01*
X166339Y97244D02*
Y99213D01*
X156299D02*
X159449D01*
Y97244D02*
Y99213D01*
X147638D02*
X150787D01*
X147638Y97244D02*
Y99213D01*
X139567D02*
X142717D01*
Y97244D02*
Y99213D01*
X130905D02*
X134055D01*
X130905Y97244D02*
Y99213D01*
X120866D02*
X124016D01*
Y97244D02*
Y99213D01*
X112205D02*
X115354D01*
X112205Y97244D02*
Y99213D01*
X104134D02*
X107283D01*
Y97244D02*
Y99213D01*
X95472D02*
X98622D01*
X95472Y97244D02*
Y99213D01*
X85433D02*
X88583D01*
Y97244D02*
Y99213D01*
X76772D02*
X79921D01*
X76772Y97244D02*
Y99213D01*
X68701D02*
X71850D01*
Y97244D02*
Y99213D01*
X60039D02*
X63189D01*
X60039Y97244D02*
Y99213D01*
D13*
X47244Y283465D02*
X57087D01*
X52165Y278543D02*
Y288386D01*
X66929Y283465D02*
X76772D01*
X324803Y231299D02*
Y255906D01*
X319882Y246063D02*
X324803Y255906D01*
X329724Y246063D01*
X317913Y63976D02*
X322835Y54134D01*
X312992D02*
X317913Y63976D01*
Y39370D02*
Y63976D01*
X71850Y55118D02*
X76772Y45276D01*
X66929D02*
X71850Y55118D01*
Y30512D02*
Y55118D01*
D14*
X31224Y194497D02*
X24139D01*
Y198039D01*
X25320Y199220D01*
X27681D01*
X28862Y198039D01*
Y194497D01*
X25320Y206304D02*
X24139Y205123D01*
Y202762D01*
X25320Y201581D01*
X30043D01*
X31224Y202762D01*
Y205123D01*
X30043Y206304D01*
X24139Y208665D02*
X31224D01*
Y212207D01*
X30043Y213388D01*
X28862D01*
X27681Y212207D01*
Y208665D01*
Y212207D01*
X26501Y213388D01*
X25320D01*
X24139Y212207D01*
Y208665D01*
Y222834D02*
X28862D01*
X31224Y225195D01*
X28862Y227557D01*
X24139D01*
X31224Y229918D02*
Y232280D01*
Y231099D01*
X24139D01*
X25320Y229918D01*
X31224Y235822D02*
X30043D01*
Y237002D01*
X31224D01*
Y235822D01*
X25320Y241725D02*
X24139Y242906D01*
Y245268D01*
X25320Y246448D01*
X30043D01*
X31224Y245268D01*
Y242906D01*
X30043Y241725D01*
X25320D01*
X13512Y199220D02*
X12331Y198039D01*
Y195677D01*
X13512Y194497D01*
X18235D01*
X19415Y195677D01*
Y198039D01*
X18235Y199220D01*
X12331Y201581D02*
X19415D01*
X15873D01*
Y206304D01*
X12331D01*
X19415D01*
Y208665D02*
X12331D01*
X14693Y211027D01*
X12331Y213388D01*
X19415D01*
X12331Y222834D02*
X17054D01*
X19415Y225195D01*
X17054Y227557D01*
X12331D01*
X19415Y229918D02*
Y232280D01*
Y231099D01*
X12331D01*
X13512Y229918D01*
X19415Y235822D02*
X18235D01*
Y237002D01*
X19415D01*
Y235822D01*
X13512Y241725D02*
X12331Y242906D01*
Y245268D01*
X13512Y246448D01*
X18235D01*
X19415Y245268D01*
Y242906D01*
X18235Y241725D01*
X13512D01*
X23937Y44597D02*
X31021D01*
X28660D01*
X23937Y49319D01*
X27479Y45777D01*
X31021Y49319D01*
Y55223D02*
Y52862D01*
X29841Y51681D01*
X27479D01*
X26298Y52862D01*
Y55223D01*
X27479Y56404D01*
X28660D01*
Y51681D01*
X26298Y58765D02*
X29841D01*
X31021Y59946D01*
Y63488D01*
X32202D01*
X33383Y62307D01*
Y61127D01*
X31021Y63488D02*
X26298D01*
X23937Y72934D02*
X31021D01*
Y76476D01*
X29841Y77657D01*
X28660D01*
X27479Y76476D01*
Y72934D01*
Y76476D01*
X26298Y77657D01*
X25118D01*
X23937Y76476D01*
Y72934D01*
X31021Y81199D02*
Y83560D01*
X29841Y84741D01*
X27479D01*
X26298Y83560D01*
Y81199D01*
X27479Y80018D01*
X29841D01*
X31021Y81199D01*
X26298Y88283D02*
Y90645D01*
X27479Y91825D01*
X31021D01*
Y88283D01*
X29841Y87103D01*
X28660Y88283D01*
Y91825D01*
X26298Y94187D02*
X31021D01*
X28660D01*
X27479Y95367D01*
X26298Y96548D01*
Y97729D01*
X23937Y105994D02*
X31021D01*
Y102452D01*
X29841Y101271D01*
X27479D01*
X26298Y102452D01*
Y105994D01*
X11893Y39283D02*
X18977D01*
X15435D01*
Y44006D01*
X11893D01*
X18977D01*
X11893Y46368D02*
Y48729D01*
Y47548D01*
X18977D01*
Y46368D01*
Y48729D01*
X13073Y56994D02*
X11893Y55813D01*
Y53452D01*
X13073Y52271D01*
X17796D01*
X18977Y53452D01*
Y55813D01*
X17796Y56994D01*
X15435D01*
Y54633D01*
X11893Y59356D02*
X18977D01*
X15435D01*
Y64078D01*
X11893D01*
X18977D01*
X11893Y66440D02*
Y71163D01*
Y68801D01*
X18977D01*
X11893Y80608D02*
X18977D01*
Y85331D01*
Y91235D02*
Y88874D01*
X17796Y87693D01*
X15435D01*
X14254Y88874D01*
Y91235D01*
X15435Y92416D01*
X16616D01*
Y87693D01*
X14254Y94777D02*
X17796D01*
X18977Y95958D01*
X17796Y97139D01*
X18977Y98319D01*
X17796Y99500D01*
X14254D01*
X18977Y105404D02*
Y103042D01*
X17796Y101862D01*
X15435D01*
X14254Y103042D01*
Y105404D01*
X15435Y106584D01*
X16616D01*
Y101862D01*
X18977Y108946D02*
Y111307D01*
Y110126D01*
X11893D01*
Y108946D01*
D15*
X333665Y235235D02*
Y231955D01*
X335304Y230315D01*
X341864D01*
X343504Y231955D01*
Y235235D01*
X341864Y236875D01*
X335304D01*
X333665Y235235D01*
Y240154D02*
X341864D01*
X343504Y241794D01*
Y245074D01*
X341864Y246714D01*
X333665D01*
Y249994D02*
Y256553D01*
Y253273D01*
X343504D01*
X326775Y45276D02*
Y48555D01*
Y46916D01*
X336614D01*
Y45276D01*
Y48555D01*
Y53475D02*
X326775D01*
X336614Y60035D01*
X326775D01*
X52169Y37402D02*
Y40681D01*
Y39042D01*
X62008D01*
Y37402D01*
Y40681D01*
Y45601D02*
X52169D01*
X62008Y52161D01*
X52169D01*
M02*
