G04 Layer_Physical_Order=2*
G04 Layer_Color=16711680*
%FSLAX25Y25*%
%MOIN*%
G70*
G01*
G75*
%ADD10C,0.02953*%
%ADD11C,0.27559*%
%ADD12R,0.07874X0.07874*%
%ADD13C,0.07874*%
%ADD14C,0.11024*%
%ADD15C,0.09843*%
%ADD16C,0.06299*%
G36*
X317913Y288386D02*
X317913Y265748D01*
X325787Y257874D01*
X345472Y257874D01*
Y36417D01*
X325787Y36417D01*
X317913Y28543D01*
X317913Y6890D01*
X315945Y4921D01*
X38386D01*
X36417Y6890D01*
X36417Y28543D01*
X28543Y36417D01*
X8858Y36417D01*
Y258858D01*
X29528Y258858D01*
X37402Y266732D01*
X37402Y288386D01*
X39370Y290354D01*
X315945D01*
X317913Y288386D01*
D02*
G37*
%LPC*%
G36*
X176181Y65390D02*
X174715Y65246D01*
X173305Y64818D01*
X172005Y64124D01*
X170866Y63189D01*
X169931Y62050D01*
X169237Y60751D01*
X168809Y59340D01*
X168665Y57874D01*
X168809Y56408D01*
X169237Y54998D01*
X169931Y53698D01*
X170866Y52559D01*
X172005Y51624D01*
X173305Y50930D01*
X174715Y50502D01*
X176181Y50358D01*
X177647Y50502D01*
X179058Y50930D01*
X180357Y51624D01*
X181496Y52559D01*
X182431Y53698D01*
X183125Y54998D01*
X183553Y56408D01*
X183698Y57874D01*
X183553Y59340D01*
X183125Y60751D01*
X182431Y62050D01*
X181496Y63189D01*
X180357Y64124D01*
X179058Y64818D01*
X177647Y65246D01*
X176181Y65390D01*
D02*
G37*
G36*
X148622D02*
X147156Y65246D01*
X145746Y64818D01*
X144446Y64124D01*
X143307Y63189D01*
X142372Y62050D01*
X141678Y60751D01*
X141250Y59340D01*
X141105Y57874D01*
X141250Y56408D01*
X141678Y54998D01*
X142372Y53698D01*
X143307Y52559D01*
X144446Y51624D01*
X145746Y50930D01*
X147156Y50502D01*
X148622Y50358D01*
X150088Y50502D01*
X151498Y50930D01*
X152798Y51624D01*
X153937Y52559D01*
X154872Y53698D01*
X155566Y54998D01*
X155994Y56408D01*
X156139Y57874D01*
X155994Y59340D01*
X155566Y60751D01*
X154872Y62050D01*
X153937Y63189D01*
X152798Y64124D01*
X151498Y64818D01*
X150088Y65246D01*
X148622Y65390D01*
D02*
G37*
G36*
X203740D02*
X202274Y65246D01*
X200864Y64818D01*
X199564Y64124D01*
X198425Y63189D01*
X197490Y62050D01*
X196796Y60751D01*
X196368Y59340D01*
X196224Y57874D01*
X196368Y56408D01*
X196796Y54998D01*
X197490Y53698D01*
X198425Y52559D01*
X199564Y51624D01*
X200864Y50930D01*
X202274Y50502D01*
X203740Y50358D01*
X205207Y50502D01*
X206617Y50930D01*
X207916Y51624D01*
X209055Y52559D01*
X209990Y53698D01*
X210684Y54998D01*
X211112Y56408D01*
X211257Y57874D01*
X211112Y59340D01*
X210684Y60751D01*
X209990Y62050D01*
X209055Y63189D01*
X207916Y64124D01*
X206617Y64818D01*
X205207Y65246D01*
X203740Y65390D01*
D02*
G37*
G36*
X286417D02*
X284951Y65246D01*
X283541Y64818D01*
X282241Y64124D01*
X281102Y63189D01*
X280168Y62050D01*
X279473Y60751D01*
X279045Y59340D01*
X278901Y57874D01*
X279045Y56408D01*
X279473Y54998D01*
X280168Y53698D01*
X281102Y52559D01*
X282241Y51624D01*
X283541Y50930D01*
X284951Y50502D01*
X286417Y50358D01*
X287884Y50502D01*
X289294Y50930D01*
X290593Y51624D01*
X291732Y52559D01*
X292667Y53698D01*
X293362Y54998D01*
X293789Y56408D01*
X293934Y57874D01*
X293789Y59340D01*
X293362Y60751D01*
X292667Y62050D01*
X291732Y63189D01*
X290593Y64124D01*
X289294Y64818D01*
X287884Y65246D01*
X286417Y65390D01*
D02*
G37*
G36*
X258858D02*
X257392Y65246D01*
X255982Y64818D01*
X254682Y64124D01*
X253543Y63189D01*
X252608Y62050D01*
X251914Y60751D01*
X251486Y59340D01*
X251342Y57874D01*
X251486Y56408D01*
X251914Y54998D01*
X252608Y53698D01*
X253543Y52559D01*
X254682Y51624D01*
X255982Y50930D01*
X257392Y50502D01*
X258858Y50358D01*
X260325Y50502D01*
X261735Y50930D01*
X263034Y51624D01*
X264173Y52559D01*
X265108Y53698D01*
X265803Y54998D01*
X266230Y56408D01*
X266375Y57874D01*
X266230Y59340D01*
X265803Y60751D01*
X265108Y62050D01*
X264173Y63189D01*
X263034Y64124D01*
X261735Y64818D01*
X260325Y65246D01*
X258858Y65390D01*
D02*
G37*
G36*
X231299D02*
X229833Y65246D01*
X228423Y64818D01*
X227123Y64124D01*
X225984Y63189D01*
X225049Y62050D01*
X224355Y60751D01*
X223927Y59340D01*
X223783Y57874D01*
X223927Y56408D01*
X224355Y54998D01*
X225049Y53698D01*
X225984Y52559D01*
X227123Y51624D01*
X228423Y50930D01*
X229833Y50502D01*
X231299Y50358D01*
X232766Y50502D01*
X234176Y50930D01*
X235475Y51624D01*
X236614Y52559D01*
X237549Y53698D01*
X238244Y54998D01*
X238671Y56408D01*
X238816Y57874D01*
X238671Y59340D01*
X238244Y60751D01*
X237549Y62050D01*
X236614Y63189D01*
X235475Y64124D01*
X234176Y64818D01*
X232766Y65246D01*
X231299Y65390D01*
D02*
G37*
G36*
X219488Y45409D02*
Y40157D01*
X224739D01*
X224464Y41065D01*
X223769Y42365D01*
X222835Y43504D01*
X221696Y44439D01*
X220396Y45133D01*
X219488Y45409D01*
D02*
G37*
G36*
X136811D02*
Y40157D01*
X142062D01*
X141787Y41065D01*
X141092Y42365D01*
X140157Y43504D01*
X139018Y44439D01*
X137719Y45133D01*
X136811Y45409D01*
D02*
G37*
G36*
X215551Y45409D02*
X214643Y45133D01*
X213344Y44439D01*
X212205Y43504D01*
X211270Y42365D01*
X210575Y41065D01*
X210300Y40157D01*
X215551D01*
Y45409D01*
D02*
G37*
G36*
X187992D02*
X187084Y45133D01*
X185785Y44439D01*
X184646Y43504D01*
X183711Y42365D01*
X183016Y41065D01*
X182741Y40157D01*
X187992D01*
Y45409D01*
D02*
G37*
G36*
X121063Y65390D02*
X119597Y65246D01*
X118187Y64818D01*
X116887Y64124D01*
X115748Y63189D01*
X114813Y62050D01*
X114119Y60751D01*
X113691Y59340D01*
X113547Y57874D01*
X113691Y56408D01*
X114119Y54998D01*
X114813Y53698D01*
X115748Y52559D01*
X116887Y51624D01*
X118187Y50930D01*
X119597Y50502D01*
X121063Y50358D01*
X122529Y50502D01*
X123939Y50930D01*
X125239Y51624D01*
X126378Y52559D01*
X127313Y53698D01*
X128007Y54998D01*
X128435Y56408D01*
X128579Y57874D01*
X128435Y59340D01*
X128007Y60751D01*
X127313Y62050D01*
X126378Y63189D01*
X125239Y64124D01*
X123939Y64818D01*
X122529Y65246D01*
X121063Y65390D01*
D02*
G37*
G36*
X93504D02*
X92037Y65246D01*
X90627Y64818D01*
X89328Y64124D01*
X88189Y63189D01*
X87254Y62050D01*
X86560Y60751D01*
X86132Y59340D01*
X85987Y57874D01*
X86132Y56408D01*
X86560Y54998D01*
X87254Y53698D01*
X88189Y52559D01*
X89328Y51624D01*
X90627Y50930D01*
X92037Y50502D01*
X93504Y50358D01*
X94970Y50502D01*
X96380Y50930D01*
X97680Y51624D01*
X98819Y52559D01*
X99754Y53698D01*
X100448Y54998D01*
X100876Y56408D01*
X101020Y57874D01*
X100876Y59340D01*
X100448Y60751D01*
X99754Y62050D01*
X98819Y63189D01*
X97680Y64124D01*
X96380Y64818D01*
X94970Y65246D01*
X93504Y65390D01*
D02*
G37*
G36*
X191929Y45409D02*
Y40157D01*
X197180D01*
X196905Y41065D01*
X196210Y42365D01*
X195276Y43504D01*
X194137Y44439D01*
X192837Y45133D01*
X191929Y45409D01*
D02*
G37*
G36*
X318898Y142938D02*
X317894Y142839D01*
X316930Y142547D01*
X316040Y142071D01*
X315261Y141432D01*
X314621Y140653D01*
X314146Y139763D01*
X313854Y138799D01*
X313755Y137795D01*
X313854Y136792D01*
X314146Y135827D01*
X314621Y134938D01*
X315261Y134159D01*
X315423Y134026D01*
Y123031D01*
X315541Y122132D01*
X315889Y121294D01*
X316441Y120575D01*
X321649Y115366D01*
X321629Y115157D01*
X321728Y114154D01*
X322020Y113189D01*
X322496Y112300D01*
X323135Y111521D01*
X323914Y110881D01*
X324804Y110406D01*
X325768Y110113D01*
X326772Y110015D01*
X327775Y110113D01*
X328740Y110406D01*
X329629Y110881D01*
X330408Y111521D01*
X331048Y112300D01*
X331523Y113189D01*
X331816Y114154D01*
X331914Y115157D01*
X331816Y116161D01*
X331523Y117126D01*
X331048Y118015D01*
X330408Y118794D01*
X329629Y119434D01*
X328740Y119909D01*
X327775Y120202D01*
X326772Y120300D01*
X326563Y120280D01*
X322372Y124471D01*
Y134026D01*
X322534Y134159D01*
X323174Y134938D01*
X323649Y135827D01*
X323942Y136792D01*
X324041Y137795D01*
X323942Y138799D01*
X323649Y139763D01*
X323174Y140653D01*
X322534Y141432D01*
X321755Y142071D01*
X320866Y142547D01*
X319901Y142839D01*
X318898Y142938D01*
D02*
G37*
G36*
X283465D02*
X282461Y142839D01*
X281497Y142547D01*
X280607Y142071D01*
X279828Y141432D01*
X279188Y140653D01*
X278713Y139763D01*
X278420Y138799D01*
X278322Y137795D01*
X278420Y136792D01*
X278713Y135827D01*
X279188Y134938D01*
X279828Y134159D01*
X279990Y134026D01*
Y122047D01*
X280108Y121148D01*
X280455Y120310D01*
X281008Y119590D01*
X286278Y114320D01*
X286295Y114154D01*
X286587Y113189D01*
X287062Y112300D01*
X287702Y111521D01*
X288481Y110881D01*
X289370Y110406D01*
X290335Y110113D01*
X291339Y110015D01*
X292342Y110113D01*
X293307Y110406D01*
X294196Y110881D01*
X294975Y111521D01*
X295615Y112300D01*
X296090Y113189D01*
X296383Y114154D01*
X296481Y115157D01*
X296383Y116161D01*
X296090Y117126D01*
X295615Y118015D01*
X294975Y118794D01*
X294196Y119434D01*
X293307Y119909D01*
X292342Y120202D01*
X291339Y120300D01*
X290335Y120202D01*
X290250Y120176D01*
X286939Y123486D01*
Y134026D01*
X287101Y134159D01*
X287741Y134938D01*
X288216Y135827D01*
X288509Y136792D01*
X288607Y137795D01*
X288509Y138799D01*
X288216Y139763D01*
X287741Y140653D01*
X287101Y141432D01*
X286322Y142071D01*
X285433Y142547D01*
X284468Y142839D01*
X283465Y142938D01*
D02*
G37*
G36*
X248031D02*
X247028Y142839D01*
X246063Y142547D01*
X245174Y142071D01*
X244395Y141432D01*
X243755Y140653D01*
X243280Y139763D01*
X242987Y138799D01*
X242889Y137795D01*
X242987Y136792D01*
X243280Y135827D01*
X243755Y134938D01*
X244395Y134159D01*
X244557Y134026D01*
Y123031D01*
X244675Y122132D01*
X245022Y121294D01*
X245575Y120575D01*
X250783Y115366D01*
X250763Y115157D01*
X250862Y114154D01*
X251154Y113189D01*
X251629Y112300D01*
X252269Y111521D01*
X253048Y110881D01*
X253937Y110406D01*
X254902Y110113D01*
X255906Y110015D01*
X256909Y110113D01*
X257874Y110406D01*
X258763Y110881D01*
X259542Y111521D01*
X260182Y112300D01*
X260657Y113189D01*
X260949Y114154D01*
X261048Y115157D01*
X260949Y116161D01*
X260657Y117126D01*
X260182Y118015D01*
X259542Y118794D01*
X258763Y119434D01*
X257874Y119909D01*
X256909Y120202D01*
X255906Y120300D01*
X255697Y120280D01*
X251506Y124471D01*
Y134026D01*
X251668Y134159D01*
X252308Y134938D01*
X252783Y135827D01*
X253076Y136792D01*
X253174Y137795D01*
X253076Y138799D01*
X252783Y139763D01*
X252308Y140653D01*
X251668Y141432D01*
X250889Y142071D01*
X250000Y142547D01*
X249035Y142839D01*
X248031Y142938D01*
D02*
G37*
G36*
X18701Y116509D02*
X18032Y116152D01*
X17312Y115561D01*
X16722Y114842D01*
X16364Y114173D01*
X18701D01*
Y116509D01*
D02*
G37*
G36*
X56181Y196850D02*
X52244D01*
Y192913D01*
X56181D01*
Y196850D01*
D02*
G37*
G36*
X40276Y204753D02*
X39118Y204639D01*
X38005Y204301D01*
X36979Y203753D01*
X36080Y203015D01*
X35342Y202116D01*
X34793Y201090D01*
X34455Y199977D01*
X34341Y198819D01*
X34455Y197661D01*
X34793Y196548D01*
X35342Y195522D01*
X36080Y194623D01*
X36979Y193885D01*
X38005Y193336D01*
X39118Y192999D01*
X40276Y192885D01*
X41433Y192999D01*
X42402Y193293D01*
X42732Y193293D01*
X44370Y192913D01*
Y192913D01*
X48307D01*
Y198819D01*
Y204724D01*
X44370D01*
Y204724D01*
X42732Y204344D01*
X42402Y204345D01*
X41433Y204639D01*
X40276Y204753D01*
D02*
G37*
G36*
X22638Y116509D02*
Y114173D01*
X24974D01*
X24617Y114842D01*
X24026Y115561D01*
X23307Y116152D01*
X22638Y116509D01*
D02*
G37*
G36*
X70866Y142938D02*
X69863Y142839D01*
X68898Y142547D01*
X68009Y142071D01*
X67230Y141432D01*
X66590Y140653D01*
X66115Y139763D01*
X65822Y138799D01*
X65723Y137795D01*
X65822Y136792D01*
X66115Y135827D01*
X66590Y134938D01*
X67230Y134159D01*
X67392Y134026D01*
Y123031D01*
X67510Y122132D01*
X67857Y121294D01*
X68409Y120575D01*
X73618Y115366D01*
X73597Y115157D01*
X73696Y114154D01*
X73989Y113189D01*
X74464Y112300D01*
X75104Y111521D01*
X75883Y110881D01*
X76772Y110406D01*
X77737Y110113D01*
X78740Y110015D01*
X79743Y110113D01*
X80708Y110406D01*
X81597Y110881D01*
X82377Y111521D01*
X83016Y112300D01*
X83491Y113189D01*
X83784Y114154D01*
X83883Y115157D01*
X83784Y116161D01*
X83491Y117126D01*
X83016Y118015D01*
X82377Y118794D01*
X81597Y119434D01*
X80708Y119909D01*
X79743Y120202D01*
X78740Y120300D01*
X78532Y120280D01*
X74341Y124471D01*
Y134026D01*
X74503Y134159D01*
X75142Y134938D01*
X75617Y135827D01*
X75910Y136792D01*
X76009Y137795D01*
X75910Y138799D01*
X75617Y139763D01*
X75142Y140653D01*
X74503Y141432D01*
X73723Y142071D01*
X72834Y142547D01*
X71869Y142839D01*
X70866Y142938D01*
D02*
G37*
G36*
X24974Y110236D02*
X22638D01*
Y107900D01*
X23307Y108257D01*
X24026Y108848D01*
X24617Y109567D01*
X24974Y110236D01*
D02*
G37*
G36*
X18701D02*
X16364D01*
X16722Y109567D01*
X17312Y108848D01*
X18032Y108257D01*
X18701Y107900D01*
Y110236D01*
D02*
G37*
G36*
X106299Y142938D02*
X105296Y142839D01*
X104331Y142547D01*
X103442Y142071D01*
X102663Y141432D01*
X102023Y140653D01*
X101548Y139763D01*
X101255Y138799D01*
X101156Y137795D01*
X101255Y136792D01*
X101548Y135827D01*
X102023Y134938D01*
X102663Y134159D01*
X102825Y134026D01*
Y123031D01*
X102943Y122132D01*
X103290Y121294D01*
X103842Y120575D01*
X109051Y115366D01*
X109030Y115157D01*
X109129Y114154D01*
X109422Y113189D01*
X109897Y112300D01*
X110537Y111521D01*
X111316Y110881D01*
X112205Y110406D01*
X113170Y110113D01*
X114173Y110015D01*
X115176Y110113D01*
X116141Y110406D01*
X117030Y110881D01*
X117810Y111521D01*
X118449Y112300D01*
X118925Y113189D01*
X119217Y114154D01*
X119316Y115157D01*
X119217Y116161D01*
X118925Y117126D01*
X118449Y118015D01*
X117810Y118794D01*
X117030Y119434D01*
X116141Y119909D01*
X115176Y120202D01*
X114173Y120300D01*
X113965Y120280D01*
X109774Y124471D01*
Y134026D01*
X109936Y134159D01*
X110575Y134938D01*
X111051Y135827D01*
X111343Y136792D01*
X111442Y137795D01*
X111343Y138799D01*
X111051Y139763D01*
X110575Y140653D01*
X109936Y141432D01*
X109156Y142071D01*
X108267Y142547D01*
X107302Y142839D01*
X106299Y142938D01*
D02*
G37*
G36*
X212598D02*
X211595Y142839D01*
X210630Y142547D01*
X209741Y142071D01*
X208962Y141432D01*
X208322Y140653D01*
X207847Y139763D01*
X207554Y138799D01*
X207456Y137795D01*
X207554Y136792D01*
X207847Y135827D01*
X208322Y134938D01*
X208962Y134159D01*
X209124Y134026D01*
Y123031D01*
X209242Y122132D01*
X209589Y121294D01*
X210141Y120575D01*
X215350Y115366D01*
X215330Y115157D01*
X215428Y114154D01*
X215721Y113189D01*
X216196Y112300D01*
X216836Y111521D01*
X217615Y110881D01*
X218504Y110406D01*
X219469Y110113D01*
X220472Y110015D01*
X221476Y110113D01*
X222441Y110406D01*
X223330Y110881D01*
X224109Y111521D01*
X224749Y112300D01*
X225224Y113189D01*
X225517Y114154D01*
X225615Y115157D01*
X225517Y116161D01*
X225224Y117126D01*
X224749Y118015D01*
X224109Y118794D01*
X223330Y119434D01*
X222441Y119909D01*
X221476Y120202D01*
X220472Y120300D01*
X220264Y120280D01*
X216073Y124471D01*
Y134026D01*
X216235Y134159D01*
X216875Y134938D01*
X217350Y135827D01*
X217642Y136792D01*
X217741Y137795D01*
X217642Y138799D01*
X217350Y139763D01*
X216875Y140653D01*
X216235Y141432D01*
X215456Y142071D01*
X214566Y142547D01*
X213602Y142839D01*
X212598Y142938D01*
D02*
G37*
G36*
X177165D02*
X176162Y142839D01*
X175197Y142547D01*
X174308Y142071D01*
X173529Y141432D01*
X172889Y140653D01*
X172414Y139763D01*
X172121Y138799D01*
X172022Y137795D01*
X172121Y136792D01*
X172414Y135827D01*
X172889Y134938D01*
X173529Y134159D01*
X173691Y134026D01*
Y123031D01*
X173809Y122132D01*
X174156Y121294D01*
X174708Y120575D01*
X179917Y115366D01*
X179896Y115157D01*
X179995Y114154D01*
X180288Y113189D01*
X180763Y112300D01*
X181403Y111521D01*
X182182Y110881D01*
X183071Y110406D01*
X184036Y110113D01*
X185039Y110015D01*
X186043Y110113D01*
X187007Y110406D01*
X187897Y110881D01*
X188676Y111521D01*
X189315Y112300D01*
X189791Y113189D01*
X190083Y114154D01*
X190182Y115157D01*
X190083Y116161D01*
X189791Y117126D01*
X189315Y118015D01*
X188676Y118794D01*
X187897Y119434D01*
X187007Y119909D01*
X186043Y120202D01*
X185039Y120300D01*
X184831Y120280D01*
X180640Y124471D01*
Y134026D01*
X180802Y134159D01*
X181441Y134938D01*
X181917Y135827D01*
X182209Y136792D01*
X182308Y137795D01*
X182209Y138799D01*
X181917Y139763D01*
X181441Y140653D01*
X180802Y141432D01*
X180023Y142071D01*
X179133Y142547D01*
X178169Y142839D01*
X177165Y142938D01*
D02*
G37*
G36*
X141732D02*
X140729Y142839D01*
X139764Y142547D01*
X138875Y142071D01*
X138096Y141432D01*
X137456Y140653D01*
X136981Y139763D01*
X136688Y138799D01*
X136589Y137795D01*
X136688Y136792D01*
X136981Y135827D01*
X137456Y134938D01*
X138096Y134159D01*
X138258Y134026D01*
Y123031D01*
X138376Y122132D01*
X138723Y121294D01*
X139275Y120575D01*
X144484Y115366D01*
X144463Y115157D01*
X144562Y114154D01*
X144855Y113189D01*
X145330Y112300D01*
X145970Y111521D01*
X146749Y110881D01*
X147638Y110406D01*
X148603Y110113D01*
X149606Y110015D01*
X150610Y110113D01*
X151574Y110406D01*
X152463Y110881D01*
X153243Y111521D01*
X153882Y112300D01*
X154358Y113189D01*
X154650Y114154D01*
X154749Y115157D01*
X154650Y116161D01*
X154358Y117126D01*
X153882Y118015D01*
X153243Y118794D01*
X152463Y119434D01*
X151574Y119909D01*
X150610Y120202D01*
X149606Y120300D01*
X149398Y120280D01*
X145207Y124471D01*
Y134026D01*
X145369Y134159D01*
X146008Y134938D01*
X146484Y135827D01*
X146776Y136792D01*
X146875Y137795D01*
X146776Y138799D01*
X146484Y139763D01*
X146008Y140653D01*
X145369Y141432D01*
X144589Y142071D01*
X143700Y142547D01*
X142736Y142839D01*
X141732Y142938D01*
D02*
G37*
G36*
X252298Y36220D02*
X247047D01*
Y30969D01*
X247955Y31245D01*
X249255Y31939D01*
X250394Y32874D01*
X251328Y34013D01*
X252023Y35313D01*
X252298Y36220D01*
D02*
G37*
G36*
X114503D02*
X109252D01*
Y30969D01*
X110160Y31245D01*
X111459Y31939D01*
X112598Y32874D01*
X113533Y34013D01*
X114228Y35313D01*
X114503Y36220D01*
D02*
G37*
G36*
X243110D02*
X237859D01*
X238134Y35313D01*
X238829Y34013D01*
X239764Y32874D01*
X240903Y31939D01*
X242202Y31245D01*
X243110Y30969D01*
Y36220D01*
D02*
G37*
G36*
X307417Y36220D02*
X302165D01*
Y30969D01*
X303073Y31245D01*
X304373Y31939D01*
X305512Y32874D01*
X306447Y34013D01*
X307141Y35313D01*
X307417Y36220D01*
D02*
G37*
G36*
X169621D02*
X164370D01*
Y30969D01*
X165278Y31245D01*
X166577Y31939D01*
X167717Y32874D01*
X168651Y34013D01*
X169346Y35313D01*
X169621Y36220D01*
D02*
G37*
G36*
X270669Y36220D02*
X265418D01*
X265693Y35313D01*
X266388Y34013D01*
X267323Y32874D01*
X268462Y31939D01*
X269761Y31245D01*
X270669Y30969D01*
Y36220D01*
D02*
G37*
G36*
X105315Y36220D02*
X100064D01*
X100339Y35313D01*
X101034Y34013D01*
X101969Y32874D01*
X103108Y31939D01*
X104407Y31245D01*
X105315Y30969D01*
Y36220D01*
D02*
G37*
G36*
X215551Y36220D02*
X210300D01*
X210575Y35313D01*
X211270Y34013D01*
X212205Y32874D01*
X213344Y31939D01*
X214643Y31245D01*
X215551Y30969D01*
Y36220D01*
D02*
G37*
G36*
X132874D02*
X127623D01*
X127898Y35313D01*
X128593Y34013D01*
X129527Y32874D01*
X130667Y31939D01*
X131966Y31245D01*
X132874Y30969D01*
Y36220D01*
D02*
G37*
G36*
X187992Y36220D02*
X182741D01*
X183016Y35313D01*
X183711Y34013D01*
X184646Y32874D01*
X185785Y31939D01*
X187084Y31245D01*
X187992Y30969D01*
Y36220D01*
D02*
G37*
G36*
X279857Y36220D02*
X274606D01*
Y30969D01*
X275514Y31245D01*
X276814Y31939D01*
X277953Y32874D01*
X278888Y34013D01*
X279582Y35313D01*
X279857Y36220D01*
D02*
G37*
G36*
X298228Y36220D02*
X292977D01*
X293252Y35313D01*
X293947Y34013D01*
X294882Y32874D01*
X296021Y31939D01*
X297320Y31245D01*
X298228Y30969D01*
Y36220D01*
D02*
G37*
G36*
X160433D02*
X155182D01*
X155457Y35313D01*
X156152Y34013D01*
X157087Y32874D01*
X158226Y31939D01*
X159525Y31245D01*
X160433Y30969D01*
Y36220D01*
D02*
G37*
G36*
X142062Y36220D02*
X136811D01*
Y30969D01*
X137719Y31245D01*
X139018Y31939D01*
X140157Y32874D01*
X141092Y34013D01*
X141787Y35313D01*
X142062Y36220D01*
D02*
G37*
G36*
X298228Y45409D02*
X297320Y45133D01*
X296021Y44439D01*
X294882Y43504D01*
X293947Y42365D01*
X293252Y41065D01*
X292977Y40157D01*
X298228D01*
Y45409D01*
D02*
G37*
G36*
X160433D02*
X159525Y45133D01*
X158226Y44439D01*
X157087Y43504D01*
X156152Y42365D01*
X155457Y41065D01*
X155182Y40157D01*
X160433D01*
Y45409D01*
D02*
G37*
G36*
X247047D02*
Y40157D01*
X252298D01*
X252023Y41065D01*
X251328Y42365D01*
X250394Y43504D01*
X249255Y44439D01*
X247955Y45133D01*
X247047Y45409D01*
D02*
G37*
G36*
X132874Y45409D02*
X131966Y45133D01*
X130667Y44439D01*
X129527Y43504D01*
X128593Y42365D01*
X127898Y41065D01*
X127623Y40157D01*
X132874D01*
Y45409D01*
D02*
G37*
G36*
X302165Y45409D02*
Y40157D01*
X307417D01*
X307141Y41065D01*
X306447Y42365D01*
X305512Y43504D01*
X304373Y44439D01*
X303073Y45133D01*
X302165Y45409D01*
D02*
G37*
G36*
X164370D02*
Y40157D01*
X169621D01*
X169346Y41065D01*
X168651Y42365D01*
X167717Y43504D01*
X166577Y44439D01*
X165278Y45133D01*
X164370Y45409D01*
D02*
G37*
G36*
X109252D02*
Y40157D01*
X114503D01*
X114228Y41065D01*
X113533Y42365D01*
X112598Y43504D01*
X111459Y44439D01*
X110160Y45133D01*
X109252Y45409D01*
D02*
G37*
G36*
X270669D02*
X269761Y45133D01*
X268462Y44439D01*
X267323Y43504D01*
X266388Y42365D01*
X265693Y41065D01*
X265418Y40157D01*
X270669D01*
Y45409D01*
D02*
G37*
G36*
X197180Y36220D02*
X191929D01*
Y30969D01*
X192837Y31245D01*
X194137Y31939D01*
X195276Y32874D01*
X196210Y34013D01*
X196905Y35313D01*
X197180Y36220D01*
D02*
G37*
G36*
X224739Y36220D02*
X219488D01*
Y30969D01*
X220396Y31245D01*
X221696Y31939D01*
X222835Y32874D01*
X223769Y34013D01*
X224464Y35313D01*
X224739Y36220D01*
D02*
G37*
G36*
X243110Y45409D02*
X242202Y45133D01*
X240903Y44439D01*
X239764Y43504D01*
X238829Y42365D01*
X238134Y41065D01*
X237859Y40157D01*
X243110D01*
Y45409D01*
D02*
G37*
G36*
X105315D02*
X104407Y45133D01*
X103108Y44439D01*
X101969Y43504D01*
X101034Y42365D01*
X100339Y41065D01*
X100064Y40157D01*
X105315D01*
Y45409D01*
D02*
G37*
G36*
X274606D02*
Y40157D01*
X279858D01*
X279582Y41065D01*
X278888Y42365D01*
X277953Y43504D01*
X276814Y44439D01*
X275514Y45133D01*
X274606Y45409D01*
D02*
G37*
G36*
X201772Y264306D02*
X200864Y264031D01*
X199564Y263336D01*
X198425Y262402D01*
X197490Y261263D01*
X196796Y259963D01*
X196520Y259055D01*
X201772D01*
Y264306D01*
D02*
G37*
G36*
X78453Y260827D02*
X73819D01*
Y256193D01*
X74500Y256399D01*
X75697Y257039D01*
X76746Y257900D01*
X77607Y258949D01*
X78246Y260146D01*
X78453Y260827D01*
D02*
G37*
G36*
X69882D02*
X65248D01*
X65454Y260146D01*
X66094Y258949D01*
X66955Y257900D01*
X68004Y257039D01*
X69201Y256399D01*
X69882Y256193D01*
Y260827D01*
D02*
G37*
G36*
X284449Y264306D02*
X283541Y264031D01*
X282241Y263336D01*
X281102Y262402D01*
X280168Y261263D01*
X279473Y259963D01*
X279198Y259055D01*
X284449D01*
Y264306D01*
D02*
G37*
G36*
X146653D02*
X145746Y264031D01*
X144446Y263336D01*
X143307Y262402D01*
X142372Y261263D01*
X141678Y259963D01*
X141402Y259055D01*
X146653D01*
Y264306D01*
D02*
G37*
G36*
X205709Y264306D02*
Y259055D01*
X210960D01*
X210684Y259963D01*
X209990Y261263D01*
X209055Y262402D01*
X207916Y263336D01*
X206617Y264031D01*
X205709Y264306D01*
D02*
G37*
G36*
X52165Y269718D02*
X50815Y269585D01*
X49516Y269191D01*
X48319Y268552D01*
X47270Y267691D01*
X46409Y266642D01*
X45769Y265445D01*
X45375Y264146D01*
X45242Y262795D01*
X45375Y261445D01*
X45769Y260146D01*
X46409Y258949D01*
X47270Y257900D01*
X48319Y257039D01*
X49516Y256399D01*
X50815Y256005D01*
X52165Y255872D01*
X53516Y256005D01*
X54815Y256399D01*
X56012Y257039D01*
X57061Y257900D01*
X57922Y258949D01*
X58561Y260146D01*
X58955Y261445D01*
X59088Y262795D01*
X58955Y264146D01*
X58561Y265445D01*
X57922Y266642D01*
X57061Y267691D01*
X56012Y268552D01*
X54815Y269191D01*
X53516Y269585D01*
X52165Y269718D01*
D02*
G37*
G36*
X174213Y255118D02*
X168961D01*
X169237Y254210D01*
X169931Y252911D01*
X170866Y251772D01*
X172005Y250837D01*
X173305Y250142D01*
X174213Y249867D01*
Y255118D01*
D02*
G37*
G36*
X256890D02*
X251639D01*
X251914Y254210D01*
X252608Y252911D01*
X253543Y251772D01*
X254682Y250837D01*
X255982Y250142D01*
X256890Y249867D01*
Y255118D01*
D02*
G37*
G36*
X238519Y255118D02*
X233268D01*
Y249867D01*
X234176Y250142D01*
X235475Y250837D01*
X236614Y251772D01*
X237549Y252911D01*
X238244Y254210D01*
X238519Y255118D01*
D02*
G37*
G36*
X210960Y255118D02*
X205709D01*
Y249867D01*
X206617Y250142D01*
X207916Y250837D01*
X209055Y251772D01*
X209990Y252911D01*
X210684Y254210D01*
X210960Y255118D01*
D02*
G37*
G36*
X293637Y255118D02*
X288386D01*
Y249867D01*
X289294Y250142D01*
X290593Y250837D01*
X291732Y251772D01*
X292667Y252911D01*
X293362Y254210D01*
X293637Y255118D01*
D02*
G37*
G36*
X155842D02*
X150591D01*
Y249867D01*
X151498Y250142D01*
X152798Y250837D01*
X153937Y251772D01*
X154872Y252911D01*
X155566Y254210D01*
X155842Y255118D01*
D02*
G37*
G36*
X150591Y264306D02*
Y259055D01*
X155842D01*
X155566Y259963D01*
X154872Y261263D01*
X153937Y262402D01*
X152798Y263336D01*
X151498Y264031D01*
X150591Y264306D01*
D02*
G37*
G36*
X178150D02*
Y259055D01*
X183401D01*
X183125Y259963D01*
X182431Y261263D01*
X181496Y262402D01*
X180357Y263336D01*
X179058Y264031D01*
X178150Y264306D01*
D02*
G37*
G36*
X256890D02*
X255982Y264031D01*
X254682Y263336D01*
X253543Y262402D01*
X252608Y261263D01*
X251914Y259963D01*
X251639Y259055D01*
X256890D01*
Y264306D01*
D02*
G37*
G36*
X174213D02*
X173305Y264031D01*
X172005Y263336D01*
X170866Y262402D01*
X169931Y261263D01*
X169237Y259963D01*
X168961Y259055D01*
X174213D01*
Y264306D01*
D02*
G37*
G36*
X73819Y269398D02*
Y264764D01*
X78453D01*
X78246Y265445D01*
X77607Y266642D01*
X76746Y267691D01*
X75697Y268552D01*
X74500Y269191D01*
X73819Y269398D01*
D02*
G37*
G36*
X69882D02*
X69201Y269191D01*
X68004Y268552D01*
X66955Y267691D01*
X66094Y266642D01*
X65454Y265445D01*
X65248Y264764D01*
X69882D01*
Y269398D01*
D02*
G37*
G36*
X260827Y264306D02*
Y259055D01*
X266078D01*
X265803Y259963D01*
X265108Y261263D01*
X264173Y262402D01*
X263034Y263336D01*
X261735Y264031D01*
X260827Y264306D01*
D02*
G37*
G36*
X233268D02*
Y259055D01*
X238519D01*
X238244Y259963D01*
X237549Y261263D01*
X236614Y262402D01*
X235475Y263336D01*
X234176Y264031D01*
X233268Y264306D01*
D02*
G37*
G36*
X119095D02*
X118187Y264031D01*
X116887Y263336D01*
X115748Y262402D01*
X114813Y261263D01*
X114119Y259963D01*
X113843Y259055D01*
X119095D01*
Y264306D01*
D02*
G37*
G36*
X91535D02*
X90627Y264031D01*
X89328Y263336D01*
X88189Y262402D01*
X87254Y261263D01*
X86560Y259963D01*
X86284Y259055D01*
X91535D01*
Y264306D01*
D02*
G37*
G36*
X288386D02*
Y259055D01*
X293637D01*
X293362Y259963D01*
X292667Y261263D01*
X291732Y262402D01*
X290593Y263336D01*
X289294Y264031D01*
X288386Y264306D01*
D02*
G37*
G36*
X123031D02*
Y259055D01*
X128283D01*
X128007Y259963D01*
X127313Y261263D01*
X126378Y262402D01*
X125239Y263336D01*
X123939Y264031D01*
X123031Y264306D01*
D02*
G37*
G36*
X95472D02*
Y259055D01*
X100724D01*
X100448Y259963D01*
X99754Y261263D01*
X98819Y262402D01*
X97680Y263336D01*
X96380Y264031D01*
X95472Y264306D01*
D02*
G37*
G36*
X229331D02*
X228423Y264031D01*
X227123Y263336D01*
X225984Y262402D01*
X225049Y261263D01*
X224355Y259963D01*
X224079Y259055D01*
X229331D01*
Y264306D01*
D02*
G37*
G36*
X107283Y244918D02*
X105817Y244774D01*
X104407Y244346D01*
X103108Y243651D01*
X101969Y242717D01*
X101034Y241578D01*
X100339Y240278D01*
X99911Y238868D01*
X99767Y237402D01*
X99911Y235935D01*
X100339Y234525D01*
X101034Y233226D01*
X101969Y232087D01*
X103108Y231152D01*
X104407Y230457D01*
X105817Y230030D01*
X107283Y229885D01*
X108750Y230030D01*
X110160Y230457D01*
X111459Y231152D01*
X112598Y232087D01*
X113533Y233226D01*
X114228Y234525D01*
X114655Y235935D01*
X114800Y237402D01*
X114655Y238868D01*
X114228Y240278D01*
X113533Y241578D01*
X112598Y242717D01*
X111459Y243651D01*
X110160Y244346D01*
X108750Y244774D01*
X107283Y244918D01*
D02*
G37*
G36*
X132953Y204753D02*
X131795Y204639D01*
X130827Y204345D01*
X130496Y204344D01*
X128858Y204724D01*
Y204724D01*
X117047D01*
Y192913D01*
X128858D01*
Y192913D01*
X130496Y193293D01*
X130827Y193293D01*
X131795Y192999D01*
X132953Y192885D01*
X134110Y192999D01*
X135224Y193336D01*
X136250Y193885D01*
X137149Y194623D01*
X137887Y195522D01*
X138435Y196548D01*
X138773Y197661D01*
X138887Y198819D01*
X138773Y199977D01*
X138435Y201090D01*
X137887Y202116D01*
X137149Y203015D01*
X136250Y203753D01*
X135224Y204301D01*
X134110Y204639D01*
X132953Y204753D01*
D02*
G37*
G36*
X105394D02*
X104236Y204639D01*
X103268Y204345D01*
X102937Y204344D01*
X101299Y204724D01*
Y204724D01*
X89488D01*
Y192913D01*
X101299D01*
Y192913D01*
X102937Y193293D01*
X103268Y193293D01*
X104236Y192999D01*
X105394Y192885D01*
X106551Y192999D01*
X107665Y193336D01*
X108691Y193885D01*
X109590Y194623D01*
X110328Y195522D01*
X110876Y196548D01*
X111214Y197661D01*
X111328Y198819D01*
X111214Y199977D01*
X110876Y201090D01*
X110328Y202116D01*
X109590Y203015D01*
X108691Y203753D01*
X107665Y204301D01*
X106551Y204639D01*
X105394Y204753D01*
D02*
G37*
G36*
X189961Y244918D02*
X188494Y244774D01*
X187084Y244346D01*
X185785Y243651D01*
X184646Y242717D01*
X183711Y241578D01*
X183016Y240278D01*
X182589Y238868D01*
X182444Y237402D01*
X182589Y235935D01*
X183016Y234525D01*
X183711Y233226D01*
X184646Y232087D01*
X185785Y231152D01*
X187084Y230457D01*
X188494Y230030D01*
X189961Y229885D01*
X191427Y230030D01*
X192837Y230457D01*
X194137Y231152D01*
X195276Y232087D01*
X196210Y233226D01*
X196905Y234525D01*
X197333Y235935D01*
X197477Y237402D01*
X197333Y238868D01*
X196905Y240278D01*
X196210Y241578D01*
X195276Y242717D01*
X194137Y243651D01*
X192837Y244346D01*
X191427Y244774D01*
X189961Y244918D01*
D02*
G37*
G36*
X162402D02*
X160935Y244774D01*
X159525Y244346D01*
X158226Y243651D01*
X157087Y242717D01*
X156152Y241578D01*
X155457Y240278D01*
X155029Y238868D01*
X154885Y237402D01*
X155029Y235935D01*
X155457Y234525D01*
X156152Y233226D01*
X157087Y232087D01*
X158226Y231152D01*
X159525Y230457D01*
X160935Y230030D01*
X162402Y229885D01*
X163868Y230030D01*
X165278Y230457D01*
X166577Y231152D01*
X167717Y232087D01*
X168651Y233226D01*
X169346Y234525D01*
X169774Y235935D01*
X169918Y237402D01*
X169774Y238868D01*
X169346Y240278D01*
X168651Y241578D01*
X167717Y242717D01*
X166577Y243651D01*
X165278Y244346D01*
X163868Y244774D01*
X162402Y244918D01*
D02*
G37*
G36*
X134843D02*
X133376Y244774D01*
X131966Y244346D01*
X130667Y243651D01*
X129527Y242717D01*
X128593Y241578D01*
X127898Y240278D01*
X127471Y238868D01*
X127326Y237402D01*
X127471Y235935D01*
X127898Y234525D01*
X128593Y233226D01*
X129527Y232087D01*
X130667Y231152D01*
X131966Y230457D01*
X133376Y230030D01*
X134843Y229885D01*
X136309Y230030D01*
X137719Y230457D01*
X139018Y231152D01*
X140157Y232087D01*
X141092Y233226D01*
X141787Y234525D01*
X142215Y235935D01*
X142359Y237402D01*
X142215Y238868D01*
X141787Y240278D01*
X141092Y241578D01*
X140157Y242717D01*
X139018Y243651D01*
X137719Y244346D01*
X136309Y244774D01*
X134843Y244918D01*
D02*
G37*
G36*
X298307Y204753D02*
X297149Y204639D01*
X296181Y204345D01*
X295850Y204344D01*
X294213Y204724D01*
Y204724D01*
X282402D01*
Y192913D01*
X294213D01*
Y192913D01*
X295850Y193293D01*
X296181Y193293D01*
X297149Y192999D01*
X298307Y192885D01*
X299465Y192999D01*
X300578Y193336D01*
X301604Y193885D01*
X302503Y194623D01*
X303241Y195522D01*
X303789Y196548D01*
X304127Y197661D01*
X304241Y198819D01*
X304127Y199977D01*
X303789Y201090D01*
X303241Y202116D01*
X302503Y203015D01*
X301604Y203753D01*
X300578Y204301D01*
X299465Y204639D01*
X298307Y204753D01*
D02*
G37*
G36*
X188071D02*
X186913Y204639D01*
X185945Y204345D01*
X185614Y204344D01*
X183976Y204724D01*
Y204724D01*
X172165D01*
Y192913D01*
X183976D01*
Y192913D01*
X185614Y193293D01*
X185945Y193293D01*
X186913Y192999D01*
X188071Y192885D01*
X189228Y192999D01*
X190342Y193336D01*
X191368Y193885D01*
X192267Y194623D01*
X193005Y195522D01*
X193553Y196548D01*
X193891Y197661D01*
X194005Y198819D01*
X193891Y199977D01*
X193553Y201090D01*
X193005Y202116D01*
X192267Y203015D01*
X191368Y203753D01*
X190342Y204301D01*
X189228Y204639D01*
X188071Y204753D01*
D02*
G37*
G36*
X160512D02*
X159354Y204639D01*
X158386Y204345D01*
X158055Y204344D01*
X156417Y204724D01*
Y204724D01*
X144606D01*
Y192913D01*
X156417D01*
Y192913D01*
X158055Y193293D01*
X158386Y193293D01*
X159354Y192999D01*
X160512Y192885D01*
X161670Y192999D01*
X162783Y193336D01*
X163809Y193885D01*
X164708Y194623D01*
X165446Y195522D01*
X165994Y196548D01*
X166332Y197661D01*
X166446Y198819D01*
X166332Y199977D01*
X165994Y201090D01*
X165446Y202116D01*
X164708Y203015D01*
X163809Y203753D01*
X162783Y204301D01*
X161670Y204639D01*
X160512Y204753D01*
D02*
G37*
G36*
X56181Y204724D02*
X52244D01*
Y200787D01*
X56181D01*
Y204724D01*
D02*
G37*
G36*
X270748Y204753D02*
X269590Y204639D01*
X268622Y204345D01*
X268291Y204344D01*
X266653Y204724D01*
Y204724D01*
X254842D01*
Y192913D01*
X266653D01*
Y192913D01*
X268291Y193293D01*
X268622Y193293D01*
X269590Y192999D01*
X270748Y192885D01*
X271906Y192999D01*
X273019Y193336D01*
X274045Y193885D01*
X274944Y194623D01*
X275682Y195522D01*
X276230Y196548D01*
X276568Y197661D01*
X276682Y198819D01*
X276568Y199977D01*
X276230Y201090D01*
X275682Y202116D01*
X274944Y203015D01*
X274045Y203753D01*
X273019Y204301D01*
X271906Y204639D01*
X270748Y204753D01*
D02*
G37*
G36*
X243189D02*
X242031Y204639D01*
X241063Y204345D01*
X240732Y204344D01*
X239094Y204724D01*
Y204724D01*
X227284D01*
Y192913D01*
X239094D01*
Y192913D01*
X240732Y193293D01*
X241063Y193293D01*
X242031Y192999D01*
X243189Y192885D01*
X244347Y192999D01*
X245460Y193336D01*
X246486Y193885D01*
X247385Y194623D01*
X248123Y195522D01*
X248671Y196548D01*
X249009Y197661D01*
X249123Y198819D01*
X249009Y199977D01*
X248671Y201090D01*
X248123Y202116D01*
X247385Y203015D01*
X246486Y203753D01*
X245460Y204301D01*
X244347Y204639D01*
X243189Y204753D01*
D02*
G37*
G36*
X215630D02*
X214472Y204639D01*
X213504Y204345D01*
X213173Y204344D01*
X211535Y204724D01*
Y204724D01*
X199724D01*
Y192913D01*
X211535D01*
Y192913D01*
X213173Y193293D01*
X213504Y193293D01*
X214472Y192999D01*
X215630Y192885D01*
X216788Y192999D01*
X217901Y193336D01*
X218927Y193885D01*
X219826Y194623D01*
X220564Y195522D01*
X221112Y196548D01*
X221450Y197661D01*
X221564Y198819D01*
X221450Y199977D01*
X221112Y201090D01*
X220564Y202116D01*
X219826Y203015D01*
X218927Y203753D01*
X217901Y204301D01*
X216788Y204639D01*
X215630Y204753D01*
D02*
G37*
G36*
X217520Y244918D02*
X216053Y244774D01*
X214643Y244346D01*
X213344Y243651D01*
X212205Y242717D01*
X211270Y241578D01*
X210575Y240278D01*
X210148Y238868D01*
X210003Y237402D01*
X210148Y235935D01*
X210575Y234525D01*
X211270Y233226D01*
X212205Y232087D01*
X213344Y231152D01*
X214643Y230457D01*
X216053Y230030D01*
X217520Y229885D01*
X218986Y230030D01*
X220396Y230457D01*
X221696Y231152D01*
X222835Y232087D01*
X223769Y233226D01*
X224464Y234525D01*
X224892Y235935D01*
X225036Y237402D01*
X224892Y238868D01*
X224464Y240278D01*
X223769Y241578D01*
X222835Y242717D01*
X221696Y243651D01*
X220396Y244346D01*
X218986Y244774D01*
X217520Y244918D01*
D02*
G37*
G36*
X119095Y255118D02*
X113843D01*
X114119Y254210D01*
X114813Y252911D01*
X115748Y251772D01*
X116887Y250837D01*
X118187Y250142D01*
X119095Y249867D01*
Y255118D01*
D02*
G37*
G36*
X91535D02*
X86284D01*
X86560Y254210D01*
X87254Y252911D01*
X88189Y251772D01*
X89328Y250837D01*
X90627Y250142D01*
X91535Y249867D01*
Y255118D01*
D02*
G37*
G36*
X266078Y255118D02*
X260827D01*
Y249867D01*
X261735Y250142D01*
X263034Y250837D01*
X264173Y251772D01*
X265108Y252911D01*
X265803Y254210D01*
X266078Y255118D01*
D02*
G37*
G36*
X128283Y255118D02*
X123031D01*
Y249867D01*
X123939Y250142D01*
X125239Y250837D01*
X126378Y251772D01*
X127313Y252911D01*
X128007Y254210D01*
X128283Y255118D01*
D02*
G37*
G36*
X100724D02*
X95472D01*
Y249867D01*
X96380Y250142D01*
X97680Y250837D01*
X98819Y251772D01*
X99754Y252911D01*
X100448Y254210D01*
X100724Y255118D01*
D02*
G37*
G36*
X229331D02*
X224079D01*
X224355Y254210D01*
X225049Y252911D01*
X225984Y251772D01*
X227123Y250837D01*
X228423Y250142D01*
X229331Y249867D01*
Y255118D01*
D02*
G37*
G36*
X183401Y255118D02*
X178150D01*
Y249867D01*
X179058Y250142D01*
X180357Y250837D01*
X181496Y251772D01*
X182431Y252911D01*
X183125Y254210D01*
X183401Y255118D01*
D02*
G37*
G36*
X300197Y244918D02*
X298730Y244774D01*
X297320Y244346D01*
X296021Y243651D01*
X294882Y242717D01*
X293947Y241578D01*
X293252Y240278D01*
X292825Y238868D01*
X292680Y237402D01*
X292825Y235935D01*
X293252Y234525D01*
X293947Y233226D01*
X294882Y232087D01*
X296021Y231152D01*
X297320Y230457D01*
X298730Y230030D01*
X300197Y229885D01*
X301663Y230030D01*
X303073Y230457D01*
X304373Y231152D01*
X305512Y232087D01*
X306447Y233226D01*
X307141Y234525D01*
X307569Y235935D01*
X307713Y237402D01*
X307569Y238868D01*
X307141Y240278D01*
X306447Y241578D01*
X305512Y242717D01*
X304373Y243651D01*
X303073Y244346D01*
X301663Y244774D01*
X300197Y244918D01*
D02*
G37*
G36*
X272638D02*
X271171Y244774D01*
X269761Y244346D01*
X268462Y243651D01*
X267323Y242717D01*
X266388Y241578D01*
X265693Y240278D01*
X265266Y238868D01*
X265121Y237402D01*
X265266Y235935D01*
X265693Y234525D01*
X266388Y233226D01*
X267323Y232087D01*
X268462Y231152D01*
X269761Y230457D01*
X271171Y230030D01*
X272638Y229885D01*
X274104Y230030D01*
X275514Y230457D01*
X276814Y231152D01*
X277953Y232087D01*
X278888Y233226D01*
X279582Y234525D01*
X280010Y235935D01*
X280154Y237402D01*
X280010Y238868D01*
X279582Y240278D01*
X278888Y241578D01*
X277953Y242717D01*
X276814Y243651D01*
X275514Y244346D01*
X274104Y244774D01*
X272638Y244918D01*
D02*
G37*
G36*
X245079D02*
X243612Y244774D01*
X242202Y244346D01*
X240903Y243651D01*
X239764Y242717D01*
X238829Y241578D01*
X238134Y240278D01*
X237707Y238868D01*
X237562Y237402D01*
X237707Y235935D01*
X238134Y234525D01*
X238829Y233226D01*
X239764Y232087D01*
X240903Y231152D01*
X242202Y230457D01*
X243612Y230030D01*
X245079Y229885D01*
X246545Y230030D01*
X247955Y230457D01*
X249255Y231152D01*
X250394Y232087D01*
X251328Y233226D01*
X252023Y234525D01*
X252451Y235935D01*
X252595Y237402D01*
X252451Y238868D01*
X252023Y240278D01*
X251328Y241578D01*
X250394Y242717D01*
X249255Y243651D01*
X247955Y244346D01*
X246545Y244774D01*
X245079Y244918D01*
D02*
G37*
G36*
X284449Y255118D02*
X279198D01*
X279473Y254210D01*
X280168Y252911D01*
X281102Y251772D01*
X282241Y250837D01*
X283541Y250142D01*
X284449Y249867D01*
Y255118D01*
D02*
G37*
G36*
X146653D02*
X141402D01*
X141678Y254210D01*
X142372Y252911D01*
X143307Y251772D01*
X144446Y250837D01*
X145746Y250142D01*
X146653Y249867D01*
Y255118D01*
D02*
G37*
G36*
X201772Y255118D02*
X196520D01*
X196796Y254210D01*
X197490Y252911D01*
X198425Y251772D01*
X199564Y250837D01*
X200864Y250142D01*
X201772Y249867D01*
Y255118D01*
D02*
G37*
%LPD*%
D10*
X70866Y123031D02*
Y137795D01*
Y123031D02*
X78740Y115157D01*
X106299Y123031D02*
Y137795D01*
Y123031D02*
X114173Y115157D01*
X141732Y123031D02*
Y137795D01*
Y123031D02*
X149606Y115157D01*
X177165Y123031D02*
Y137795D01*
Y123031D02*
X185039Y115157D01*
X212598Y123031D02*
Y137795D01*
Y123031D02*
X220472Y115157D01*
X248031Y123031D02*
Y137795D01*
Y123031D02*
X255906Y115157D01*
X283465Y122047D02*
Y137795D01*
X318898Y123031D02*
Y137795D01*
Y123031D02*
X326772Y115157D01*
X283465Y122047D02*
X291339Y114173D01*
D11*
X334646Y19685D02*
D03*
Y275590D02*
D03*
X19685Y19685D02*
D03*
Y275590D02*
D03*
D12*
X288307Y198819D02*
D03*
X260748D02*
D03*
X233189D02*
D03*
X205630D02*
D03*
X178071D02*
D03*
X150512D02*
D03*
X122953D02*
D03*
X95394D02*
D03*
X50276D02*
D03*
D13*
X298307D02*
D03*
X270748D02*
D03*
X243189D02*
D03*
X215630D02*
D03*
X188071D02*
D03*
X160512D02*
D03*
X132953D02*
D03*
X105394D02*
D03*
X40276D02*
D03*
D14*
X148622Y57874D02*
D03*
X162402Y38189D02*
D03*
X176181Y57874D02*
D03*
X245079Y38189D02*
D03*
X231299Y57874D02*
D03*
X217520Y38189D02*
D03*
X203740Y57874D02*
D03*
X189961Y38189D02*
D03*
X134843D02*
D03*
X121063Y57874D02*
D03*
X107283Y38189D02*
D03*
X93504Y57874D02*
D03*
X258858D02*
D03*
X286417D02*
D03*
X272638Y38189D02*
D03*
X300197D02*
D03*
X245079Y237402D02*
D03*
X231299Y257087D02*
D03*
X217520Y237402D02*
D03*
X148622Y257087D02*
D03*
X162402Y237402D02*
D03*
X176181Y257087D02*
D03*
X189961Y237402D02*
D03*
X203740Y257087D02*
D03*
X258858D02*
D03*
X272638Y237402D02*
D03*
X286417Y257087D02*
D03*
X300197Y237402D02*
D03*
X134843D02*
D03*
X107283D02*
D03*
X121063Y257087D02*
D03*
X93504D02*
D03*
D15*
X71850Y262795D02*
D03*
X52165D02*
D03*
D16*
X220472Y115157D02*
D03*
X248031Y137795D02*
D03*
X70866D02*
D03*
X106299D02*
D03*
X141732D02*
D03*
X177165D02*
D03*
X212598D02*
D03*
X318898D02*
D03*
X283465D02*
D03*
X114173Y115157D02*
D03*
X78740D02*
D03*
X149606D02*
D03*
X185039D02*
D03*
X255906D02*
D03*
X291339D02*
D03*
X326772D02*
D03*
X20669Y112205D02*
D03*
X49213Y29528D02*
D03*
X19685Y87598D02*
D03*
Y68898D02*
D03*
Y49213D02*
D03*
X49213D02*
D03*
X34449Y59055D02*
D03*
Y78740D02*
D03*
Y98425D02*
D03*
X49213Y68898D02*
D03*
Y88583D02*
D03*
Y108268D02*
D03*
Y9843D02*
D03*
X78740Y68898D02*
D03*
X114173D02*
D03*
X149606D02*
D03*
X185039D02*
D03*
X220472D02*
D03*
X255906D02*
D03*
X291339D02*
D03*
X326772D02*
D03*
X339567Y59055D02*
D03*
Y44291D02*
D03*
X326772Y52165D02*
D03*
X314961Y44291D02*
D03*
X63976Y39370D02*
D03*
Y19685D02*
D03*
X73819Y241142D02*
D03*
Y221457D02*
D03*
Y201772D02*
D03*
X63976Y231299D02*
D03*
Y211614D02*
D03*
X54134Y220472D02*
D03*
Y241142D02*
D03*
X78740Y9843D02*
D03*
X93504Y19685D02*
D03*
X108268Y9843D02*
D03*
X123031Y19685D02*
D03*
X137795Y9843D02*
D03*
X152559Y19685D02*
D03*
X167323Y9843D02*
D03*
X182087Y19685D02*
D03*
X196850Y9843D02*
D03*
X211614Y19685D02*
D03*
X226378Y9843D02*
D03*
X241142Y19685D02*
D03*
X255906Y9843D02*
D03*
X270669Y19685D02*
D03*
X285433Y9843D02*
D03*
X300197Y19685D02*
D03*
X49213Y285433D02*
D03*
X68898D02*
D03*
X83661Y275590D02*
D03*
X98425Y285433D02*
D03*
X108268Y275590D02*
D03*
X118110Y285433D02*
D03*
X127953Y275590D02*
D03*
X142717Y285433D02*
D03*
X157480Y275590D02*
D03*
X172244Y285433D02*
D03*
X187008Y275590D02*
D03*
X201772Y285433D02*
D03*
X211614Y275590D02*
D03*
X226378Y285433D02*
D03*
X241142Y275590D02*
D03*
X255906Y285433D02*
D03*
X270669Y275590D02*
D03*
X285433Y285433D02*
D03*
X300197Y275590D02*
D03*
X339567Y250984D02*
D03*
Y231299D02*
D03*
X329724Y241142D02*
D03*
Y221457D02*
D03*
X339567Y206693D02*
D03*
X319882D02*
D03*
Y250984D02*
D03*
M02*
