G04 Layer_Color=16711935*
%FSLAX25Y25*%
%MOIN*%
G70*
G01*
G75*
%ADD10C,0.27953*%
%ADD11R,0.08268X0.08268*%
%ADD12C,0.08268*%
%ADD13C,0.11824*%
%ADD14C,0.10236*%
%ADD15C,0.03950*%
%ADD16C,0.03543*%
D10*
X334646Y19685D02*
D03*
Y275590D02*
D03*
X19685Y19685D02*
D03*
Y275590D02*
D03*
D11*
X288307Y198819D02*
D03*
X260748D02*
D03*
X233189D02*
D03*
X205630D02*
D03*
X178071D02*
D03*
X150512D02*
D03*
X122953D02*
D03*
X95394D02*
D03*
X50276D02*
D03*
D12*
X298307D02*
D03*
X270748D02*
D03*
X243189D02*
D03*
X215630D02*
D03*
X188071D02*
D03*
X160512D02*
D03*
X132953D02*
D03*
X105394D02*
D03*
X40276D02*
D03*
D13*
X148622Y57874D02*
D03*
X162402Y38189D02*
D03*
X176181Y57874D02*
D03*
X245079Y38189D02*
D03*
X231299Y57874D02*
D03*
X217520Y38189D02*
D03*
X203740Y57874D02*
D03*
X189961Y38189D02*
D03*
X134843D02*
D03*
X121063Y57874D02*
D03*
X107283Y38189D02*
D03*
X93504Y57874D02*
D03*
X258858D02*
D03*
X286417D02*
D03*
X272638Y38189D02*
D03*
X300197D02*
D03*
X245079Y237402D02*
D03*
X231299Y257087D02*
D03*
X217520Y237402D02*
D03*
X148622Y257087D02*
D03*
X162402Y237402D02*
D03*
X176181Y257087D02*
D03*
X189961Y237402D02*
D03*
X203740Y257087D02*
D03*
X258858D02*
D03*
X272638Y237402D02*
D03*
X286417Y257087D02*
D03*
X300197Y237402D02*
D03*
X134843D02*
D03*
X107283D02*
D03*
X121063Y257087D02*
D03*
X93504D02*
D03*
D14*
X71850Y262795D02*
D03*
X52165D02*
D03*
D15*
X220472Y115157D02*
D03*
X248031Y137795D02*
D03*
X70866D02*
D03*
X106299D02*
D03*
X141732D02*
D03*
X177165D02*
D03*
X212598D02*
D03*
X318898D02*
D03*
X283465D02*
D03*
X114173Y115157D02*
D03*
X149606D02*
D03*
X185039D02*
D03*
X255906D02*
D03*
X291339D02*
D03*
X326772D02*
D03*
D16*
X78740D02*
D03*
X20669Y112205D02*
D03*
X49213Y29528D02*
D03*
X19685Y87598D02*
D03*
Y68898D02*
D03*
Y49213D02*
D03*
X49213D02*
D03*
X34449Y59055D02*
D03*
Y78740D02*
D03*
Y98425D02*
D03*
X49213Y68898D02*
D03*
Y88583D02*
D03*
Y108268D02*
D03*
Y9843D02*
D03*
X78740Y68898D02*
D03*
X114173D02*
D03*
X149606D02*
D03*
X185039D02*
D03*
X220472D02*
D03*
X255906D02*
D03*
X291339D02*
D03*
X326772D02*
D03*
X339567Y59055D02*
D03*
Y44291D02*
D03*
X326772Y52165D02*
D03*
X314961Y44291D02*
D03*
X63976Y39370D02*
D03*
Y19685D02*
D03*
X73819Y241142D02*
D03*
Y221457D02*
D03*
Y201772D02*
D03*
X63976Y231299D02*
D03*
Y211614D02*
D03*
X54134Y220472D02*
D03*
Y241142D02*
D03*
X78740Y9843D02*
D03*
X93504Y19685D02*
D03*
X108268Y9843D02*
D03*
X123031Y19685D02*
D03*
X137795Y9843D02*
D03*
X152559Y19685D02*
D03*
X167323Y9843D02*
D03*
X182087Y19685D02*
D03*
X196850Y9843D02*
D03*
X211614Y19685D02*
D03*
X226378Y9843D02*
D03*
X241142Y19685D02*
D03*
X255906Y9843D02*
D03*
X270669Y19685D02*
D03*
X285433Y9843D02*
D03*
X300197Y19685D02*
D03*
X49213Y285433D02*
D03*
X68898D02*
D03*
X83661Y275590D02*
D03*
X98425Y285433D02*
D03*
X108268Y275590D02*
D03*
X118110Y285433D02*
D03*
X127953Y275590D02*
D03*
X142717Y285433D02*
D03*
X157480Y275590D02*
D03*
X172244Y285433D02*
D03*
X187008Y275590D02*
D03*
X201772Y285433D02*
D03*
X211614Y275590D02*
D03*
X226378Y285433D02*
D03*
X241142Y275590D02*
D03*
X255906Y285433D02*
D03*
X270669Y275590D02*
D03*
X285433Y285433D02*
D03*
X300197Y275590D02*
D03*
X339567Y250984D02*
D03*
Y231299D02*
D03*
X329724Y241142D02*
D03*
Y221457D02*
D03*
X339567Y206693D02*
D03*
X319882D02*
D03*
Y250984D02*
D03*
M02*
